<svg width="334" height="202" viewBox="0 0 334 202" fill="none" xmlns="http://www.w3.org/2000/svg">
<g filter="url(#filter0_d_75_2)">
<rect x="4" width="326" height="194" rx="16" fill="#333333"/>
</g>
<mask id="mask0_75_2" style="mask-type:alpha" maskUnits="userSpaceOnUse" x="4" y="0" width="326" height="194">
<rect x="4" width="326" height="194" rx="16" fill="#333333"/>
</mask>
<g mask="url(#mask0_75_2)">
<path d="M373.756 -36.8044C397.262 3.09399 385.795 55.0168 349.606 79.5095C313.418 104.002 264.75 92.7792 241.244 52.8809C217.739 12.9827 229.205 -38.9388 265.393 -63.4315C301.582 -87.9242 350.25 -76.7025 373.756 -36.8044Z" stroke="url(#paint0_linear_75_2)" stroke-width="35"/>
<ellipse cx="100.452" cy="97.5045" rx="100.452" ry="97.5045" transform="matrix(0.507601 0.861592 -0.828153 0.560502 92.4973 51.4478)" fill="url(#paint1_linear_75_2)"/>
</g>
<path d="M283.427 170.562H279.982L282.137 157.241H285.581L283.427 170.562Z" fill="white"/>
<path d="M295.913 157.567C295.234 157.298 294.156 157 292.823 157C289.422 157 287.026 158.814 287.011 161.407C286.983 163.32 288.727 164.383 290.03 165.021C291.363 165.673 291.816 166.098 291.816 166.679C291.803 167.571 290.739 167.983 289.747 167.983C288.372 167.983 287.635 167.771 286.515 167.274L286.062 167.061L285.58 170.052C286.388 170.42 287.876 170.746 289.422 170.761C293.036 170.761 295.389 168.975 295.417 166.211C295.431 164.695 294.51 163.533 292.526 162.584C291.321 161.974 290.583 161.563 290.583 160.94C290.597 160.373 291.207 159.792 292.567 159.792C293.687 159.764 294.51 160.033 295.133 160.302L295.444 160.444L295.913 157.567Z" fill="white"/>
<path d="M300.493 165.843C300.777 165.078 301.868 162.116 301.868 162.116C301.854 162.144 302.151 161.336 302.322 160.84L302.562 161.988C302.562 161.988 303.215 165.177 303.356 165.843C302.818 165.843 301.173 165.843 300.493 165.843ZM304.745 157.241H302.081C301.259 157.241 300.635 157.482 300.28 158.346L295.164 170.562H298.778C298.778 170.562 299.373 168.918 299.501 168.563C299.897 168.563 303.414 168.563 303.924 168.563C304.023 169.031 304.335 170.562 304.335 170.562H307.524L304.745 157.241Z" fill="white"/>
<path d="M277.105 157.241L273.731 166.325L273.363 164.482C272.739 162.357 270.783 160.047 268.6 158.899L271.69 170.548H275.333L280.747 157.241H277.105Z" fill="white"/>
<path d="M270.599 157.241H265.057L265 157.51C269.323 158.616 272.186 161.281 273.363 164.484L272.158 158.361C271.96 157.51 271.35 157.269 270.599 157.241Z" fill="white"/>
<path d="M178.117 169V167.808C178.527 167.44 178.989 167.029 179.501 166.576C180.013 166.117 180.522 165.64 181.029 165.144C181.541 164.643 182.01 164.147 182.437 163.656C182.863 163.165 183.207 162.701 183.469 162.264C183.73 161.821 183.861 161.435 183.861 161.104C183.861 160.709 183.765 160.349 183.573 160.024C183.381 159.693 183.122 159.429 182.797 159.232C182.477 159.035 182.119 158.936 181.725 158.936C181.33 158.936 180.967 159.035 180.637 159.232C180.311 159.429 180.05 159.693 179.853 160.024C179.661 160.349 179.565 160.709 179.565 161.104H178.221C178.221 160.448 178.381 159.856 178.701 159.328C179.021 158.795 179.445 158.373 179.973 158.064C180.501 157.749 181.085 157.592 181.725 157.592C182.365 157.592 182.946 157.749 183.469 158.064C183.997 158.379 184.418 158.803 184.733 159.336C185.047 159.864 185.205 160.453 185.205 161.104C185.205 161.477 185.114 161.88 184.933 162.312C184.751 162.739 184.503 163.179 184.189 163.632C183.874 164.085 183.517 164.544 183.117 165.008C182.717 165.467 182.295 165.92 181.853 166.368C181.41 166.816 180.97 167.245 180.533 167.656H185.349V169H178.117ZM191.276 169V165.976H186.46V164.616L190.94 157.8H192.62V164.632H193.732V165.976H192.62V169H191.276ZM188.036 164.616L191.276 164.632L191.252 159.688L188.036 164.616ZM198.663 169.208C197.986 169.208 197.383 169.056 196.855 168.752C196.333 168.443 195.922 168.032 195.623 167.52C195.325 167.003 195.175 166.429 195.175 165.8H196.519C196.519 166.179 196.607 166.525 196.783 166.84C196.959 167.149 197.207 167.397 197.527 167.584C197.847 167.771 198.226 167.864 198.663 167.864C199.042 167.864 199.394 167.771 199.719 167.584C200.05 167.397 200.317 167.149 200.519 166.84C200.722 166.525 200.823 166.179 200.823 165.8C200.823 165.325 200.701 164.931 200.455 164.616C200.215 164.296 199.879 164.059 199.447 163.904C199.021 163.744 198.533 163.664 197.983 163.664V162.584C198.741 162.584 199.346 162.427 199.799 162.112C200.258 161.797 200.487 161.333 200.487 160.72C200.487 160.395 200.399 160.096 200.223 159.824C200.047 159.552 199.815 159.336 199.527 159.176C199.245 159.011 198.941 158.928 198.615 158.928C198.285 158.928 197.967 159.011 197.663 159.176C197.359 159.336 197.111 159.552 196.919 159.824C196.727 160.096 196.631 160.395 196.631 160.72H195.287C195.287 160.288 195.375 159.883 195.551 159.504C195.733 159.125 195.978 158.792 196.287 158.504C196.602 158.216 196.957 157.992 197.351 157.832C197.746 157.667 198.162 157.584 198.599 157.584C199.17 157.584 199.701 157.725 200.191 158.008C200.682 158.291 201.077 158.669 201.375 159.144C201.679 159.619 201.831 160.144 201.831 160.72C201.831 161.237 201.701 161.715 201.439 162.152C201.178 162.589 200.823 162.896 200.375 163.072C200.765 163.205 201.093 163.413 201.359 163.696C201.626 163.973 201.826 164.293 201.959 164.656C202.098 165.019 202.167 165.4 202.167 165.8C202.167 166.424 202.005 166.995 201.679 167.512C201.359 168.029 200.933 168.443 200.399 168.752C199.871 169.056 199.293 169.208 198.663 169.208ZM208.104 169V165.976H203.288V164.616L207.768 157.8H209.448V164.632H210.56V165.976H209.448V169H208.104ZM204.864 164.616L208.104 164.632L208.08 159.688L204.864 164.616Z" fill="white"/>
<path d="M29.3107 165.642C28.6847 165.642 28.1493 165.42 27.7046 164.975C27.2763 164.531 27.0622 163.987 27.0622 163.345C27.0622 162.735 27.2763 162.208 27.7046 161.763C28.1493 161.318 28.6847 161.096 29.3107 161.096C29.9531 161.096 30.4967 161.318 30.9414 161.763C31.3862 162.208 31.6086 162.735 31.6086 163.345C31.6086 163.987 31.3862 164.531 30.9414 164.975C30.4967 165.42 29.9531 165.642 29.3107 165.642ZM38.8178 165.642C38.1918 165.642 37.6565 165.42 37.2117 164.975C36.7834 164.531 36.5693 163.987 36.5693 163.345C36.5693 162.735 36.7834 162.208 37.2117 161.763C37.6565 161.318 38.1918 161.096 38.8178 161.096C39.4602 161.096 40.0038 161.318 40.4486 161.763C40.8933 162.208 41.1157 162.735 41.1157 163.345C41.1157 163.987 40.8933 164.531 40.4486 164.975C40.0038 165.42 39.4602 165.642 38.8178 165.642ZM48.3249 165.642C47.6989 165.642 47.1636 165.42 46.7188 164.975C46.2905 164.531 46.0764 163.987 46.0764 163.345C46.0764 162.735 46.2905 162.208 46.7188 161.763C47.1636 161.318 47.6989 161.096 48.3249 161.096C48.9673 161.096 49.5109 161.318 49.9557 161.763C50.4004 162.208 50.6228 162.735 50.6228 163.345C50.6228 163.987 50.4004 164.531 49.9557 164.975C49.5109 165.42 48.9673 165.642 48.3249 165.642ZM57.832 165.642C57.2061 165.642 56.6707 165.42 56.2259 164.975C55.7977 164.531 55.5835 163.987 55.5835 163.345C55.5835 162.735 55.7977 162.208 56.2259 161.763C56.6707 161.318 57.2061 161.096 57.832 161.096C58.4744 161.096 59.018 161.318 59.4628 161.763C59.9076 162.208 60.1299 162.735 60.1299 163.345C60.1299 163.987 59.9076 164.531 59.4628 164.975C59.018 165.42 58.4744 165.642 57.832 165.642ZM79.211 165.642C78.585 165.642 78.0497 165.42 77.6049 164.975C77.1766 164.531 76.9625 163.987 76.9625 163.345C76.9625 162.735 77.1766 162.208 77.6049 161.763C78.0497 161.318 78.585 161.096 79.211 161.096C79.8534 161.096 80.397 161.318 80.8418 161.763C81.2865 162.208 81.5089 162.735 81.5089 163.345C81.5089 163.987 81.2865 164.531 80.8418 164.975C80.397 165.42 79.8534 165.642 79.211 165.642ZM88.7181 165.642C88.0921 165.642 87.5568 165.42 87.112 164.975C86.6837 164.531 86.4696 163.987 86.4696 163.345C86.4696 162.735 86.6837 162.208 87.112 161.763C87.5568 161.318 88.0921 161.096 88.7181 161.096C89.3605 161.096 89.9041 161.318 90.3489 161.763C90.7936 162.208 91.016 162.735 91.016 163.345C91.016 163.987 90.7936 164.531 90.3489 164.975C89.9041 165.42 89.3605 165.642 88.7181 165.642ZM98.2252 165.642C97.5993 165.642 97.0639 165.42 96.6191 164.975C96.1909 164.531 95.9767 163.987 95.9767 163.345C95.9767 162.735 96.1909 162.208 96.6191 161.763C97.0639 161.318 97.5993 161.096 98.2252 161.096C98.8676 161.096 99.4112 161.318 99.856 161.763C100.301 162.208 100.523 162.735 100.523 163.345C100.523 163.987 100.301 164.531 99.856 164.975C99.4112 165.42 98.8676 165.642 98.2252 165.642ZM107.732 165.642C107.106 165.642 106.571 165.42 106.126 164.975C105.698 164.531 105.484 163.987 105.484 163.345C105.484 162.735 105.698 162.208 106.126 161.763C106.571 161.318 107.106 161.096 107.732 161.096C108.375 161.096 108.918 161.318 109.363 161.763C109.808 162.208 110.03 162.735 110.03 163.345C110.03 163.987 109.808 164.531 109.363 164.975C108.918 165.42 108.375 165.642 107.732 165.642ZM129.111 165.642C128.485 165.642 127.95 165.42 127.505 164.975C127.077 164.531 126.863 163.987 126.863 163.345C126.863 162.735 127.077 162.208 127.505 161.763C127.95 161.318 128.485 161.096 129.111 161.096C129.754 161.096 130.297 161.318 130.742 161.763C131.187 162.208 131.409 162.735 131.409 163.345C131.409 163.987 131.187 164.531 130.742 164.975C130.297 165.42 129.754 165.642 129.111 165.642ZM138.618 165.642C137.992 165.642 137.457 165.42 137.012 164.975C136.584 164.531 136.37 163.987 136.37 163.345C136.37 162.735 136.584 162.208 137.012 161.763C137.457 161.318 137.992 161.096 138.618 161.096C139.261 161.096 139.804 161.318 140.249 161.763C140.694 162.208 140.916 162.735 140.916 163.345C140.916 163.987 140.694 164.531 140.249 164.975C139.804 165.42 139.261 165.642 138.618 165.642ZM148.126 165.642C147.5 165.642 146.964 165.42 146.519 164.975C146.091 164.531 145.877 163.987 145.877 163.345C145.877 162.735 146.091 162.208 146.519 161.763C146.964 161.318 147.5 161.096 148.126 161.096C148.768 161.096 149.312 161.318 149.756 161.763C150.201 162.208 150.423 162.735 150.423 163.345C150.423 163.987 150.201 164.531 149.756 164.975C149.312 165.42 148.768 165.642 148.126 165.642ZM157.633 165.642C157.007 165.642 156.471 165.42 156.027 164.975C155.598 164.531 155.384 163.987 155.384 163.345C155.384 162.735 155.598 162.208 156.027 161.763C156.471 161.318 157.007 161.096 157.633 161.096C158.275 161.096 158.819 161.318 159.263 161.763C159.708 162.208 159.931 162.735 159.931 163.345C159.931 163.987 159.708 164.531 159.263 164.975C158.819 165.42 158.275 165.642 157.633 165.642Z" fill="white"/>
<defs>
<filter id="filter0_d_75_2" x="0" y="0" width="334" height="202" filterUnits="userSpaceOnUse" color-interpolation-filters="sRGB">
<feFlood flood-opacity="0" result="BackgroundImageFix"/>
<feColorMatrix in="SourceAlpha" type="matrix" values="0 0 0 0 0 0 0 0 0 0 0 0 0 0 0 0 0 0 127 0" result="hardAlpha"/>
<feOffset dy="4"/>
<feGaussianBlur stdDeviation="2"/>
<feComposite in2="hardAlpha" operator="out"/>
<feColorMatrix type="matrix" values="0 0 0 0 0 0 0 0 0 0 0 0 0 0 0 0 0 0 0.1 0"/>
<feBlend mode="normal" in2="BackgroundImageFix" result="effect1_dropShadow_75_2"/>
<feBlend mode="normal" in="SourceGraphic" in2="effect1_dropShadow_75_2" result="shape"/>
</filter>
<linearGradient id="paint0_linear_75_2" x1="309.384" y1="100.568" x2="300.764" y2="-90.7845" gradientUnits="userSpaceOnUse">
<stop stop-color="#333333"/>
<stop offset="1" stop-color="#6F6F6F"/>
</linearGradient>
<linearGradient id="paint1_linear_75_2" x1="67.591" y1="7.01138" x2="115.507" y2="73.3213" gradientUnits="userSpaceOnUse">
<stop stop-color="#515151"/>
<stop offset="1" stop-color="#333333"/>
</linearGradient>
</defs>
</svg>
