<svg width="12" height="20" viewBox="0 0 12 20" fill="none" xmlns="http://www.w3.org/2000/svg">
<path d="M5.61425 4.76776C5.10711 4.76062 4.62497 4.84276 4.16782 5.01419C3.71782 5.17847 3.34997 5.40347 3.06425 5.68919C2.77854 5.9749 2.63568 6.30347 2.63568 6.6749C2.63568 7.15347 2.76782 7.51419 3.03211 7.75704C3.30354 7.9999 3.66425 8.17847 4.11425 8.29276C4.56425 8.3999 5.06425 8.4999 5.61425 8.59276C6.61425 8.7499 7.53925 9.01419 8.38925 9.38562C9.23925 9.75704 9.92139 10.2535 10.4357 10.8749C10.95 11.4892 11.2071 12.2428 11.2071 13.1356C11.2071 13.9499 10.9964 14.6749 10.575 15.3106C10.1535 15.9392 9.58568 16.4535 8.87139 16.8535C8.16425 17.2535 7.37854 17.507 6.51425 17.6142V19.7999H4.72497V17.6142C4.00354 17.5285 3.32497 17.3463 2.68925 17.0678C2.05354 16.7892 1.49997 16.4249 1.02854 15.9749C0.564251 15.5249 0.221394 14.9999 -3.48057e-05 14.3999L2.45354 13.4999C2.55354 13.7856 2.75711 14.0463 3.06425 14.282C3.37139 14.5178 3.74639 14.707 4.18925 14.8499C4.63211 14.9928 5.10711 15.0642 5.61425 15.0642C6.13568 15.0642 6.62139 14.9856 7.07139 14.8285C7.52854 14.6642 7.89639 14.4392 8.17497 14.1535C8.45354 13.8606 8.59282 13.5213 8.59282 13.1356C8.59282 12.7428 8.44639 12.4213 8.15354 12.1713C7.86068 11.9142 7.48568 11.7106 7.02854 11.5606C6.57139 11.4106 6.09997 11.2963 5.61425 11.2178C4.54997 11.0535 3.59639 10.7999 2.75354 10.457C1.91068 10.1142 1.24282 9.63919 0.749965 9.03204C0.264251 8.4249 0.0213937 7.63919 0.0213937 6.6749C0.0213937 5.86062 0.232108 5.13562 0.653537 4.4999C1.08211 3.86419 1.64997 3.3499 2.35711 2.95704C3.07139 2.55704 3.86068 2.30347 4.72497 2.19633V-9.86541e-05H6.51425V2.19633C7.22139 2.28204 7.89282 2.46419 8.52854 2.74276C9.16425 3.02133 9.71782 3.38919 10.1893 3.84633C10.6678 4.29633 11.0178 4.8249 11.2393 5.43204L8.77497 6.32133C8.67497 6.03562 8.47139 5.7749 8.16425 5.53919C7.85711 5.30347 7.48211 5.11776 7.03925 4.98204C6.59639 4.83919 6.12139 4.76776 5.61425 4.76776Z" fill="#07004D"/>
</svg>
