<svg width="336" height="323" viewBox="0 0 336 323" fill="none" xmlns="http://www.w3.org/2000/svg">
<path d="M27.8353 195L168 205.895L307.218 195L329 229.105L168 267L7 229.105L27.8353 195Z" fill="#D9D9D9"/>
<path d="M262.301 86.7761L182.461 40.6809C172.422 34.8845 160.032 34.9713 150.075 40.908L71.3593 87.8377C61.8144 93.5283 55.9051 103.763 55.7493 114.875L54.4646 206.509C54.3021 218.101 60.4217 228.874 70.4615 234.671L150.301 280.766C160.101 286.424 172.161 286.485 182.019 280.927L262.962 235.284C273.123 229.554 279.361 218.749 279.243 207.085L278.299 114.164C278.184 102.848 272.101 92.4344 262.301 86.7761Z" fill="#EBEBEB"/>
<path d="M236.001 102.401L182.823 71.6985C172.783 65.9021 160.393 65.9889 150.436 71.9255L97.9735 103.203C88.4285 108.894 82.5193 119.129 82.3635 130.241L81.5073 191.313C81.3448 202.905 87.4644 213.678 97.5041 219.475L150.683 250.177C160.483 255.836 172.543 255.897 182.401 250.338L236.348 219.918C246.509 214.188 252.747 203.384 252.629 191.719L252 129.789C251.885 118.473 245.802 108.06 236.001 102.401Z" fill="url(#paint0_linear_13_578)"/>
<mask id="path-4-outside-1_13_578" maskUnits="userSpaceOnUse" x="131" y="122" width="76" height="77" fill="black">
<rect fill="white" x="131" y="122" width="76" height="77"/>
<path d="M163.16 193.32C157.881 193.265 153.248 191.835 149.262 189.031C145.276 186.227 142.169 182.35 139.942 177.401C137.715 172.453 136.602 166.762 136.602 160.328C136.602 153.95 137.77 148.328 140.107 143.462C142.444 138.568 145.647 134.747 149.716 131.997C153.812 129.22 158.472 127.832 163.696 127.832C167.407 127.832 170.665 128.533 173.469 129.935C176.274 131.31 178.665 133.234 180.645 135.709C182.652 138.183 184.301 141.056 185.594 144.328H189.882L192.316 160.163L200.398 192H189.841L182.253 160.163C181.841 158.129 181.222 155.861 180.397 153.359C179.573 150.857 178.487 148.465 177.14 146.183C175.792 143.902 174.088 142.018 172.026 140.534C169.991 139.049 167.531 138.307 164.644 138.307C161.482 138.307 158.706 139.255 156.314 141.152C153.922 143.022 152.066 145.62 150.747 148.946C149.427 152.273 148.767 156.095 148.767 160.411C148.767 164.645 149.399 168.453 150.664 171.834C151.956 175.216 153.743 177.883 156.025 179.834C158.307 181.759 160.974 182.721 164.026 182.721C166.802 182.721 169.235 181.965 171.325 180.453C173.414 178.941 175.188 177.016 176.645 174.68C178.102 172.343 179.284 169.91 180.191 167.38C181.126 164.823 181.813 162.528 182.253 160.493L189.058 128.657H199.574L192.316 160.493L189.882 176.535H185.965C184.645 179.807 182.941 182.721 180.851 185.278C178.789 187.807 176.287 189.787 173.346 191.216C170.431 192.646 167.036 193.347 163.16 193.32Z"/>
</mask>
<path d="M163.16 193.32C157.881 193.265 153.248 191.835 149.262 189.031C145.276 186.227 142.169 182.35 139.942 177.401C137.715 172.453 136.602 166.762 136.602 160.328C136.602 153.95 137.77 148.328 140.107 143.462C142.444 138.568 145.647 134.747 149.716 131.997C153.812 129.22 158.472 127.832 163.696 127.832C167.407 127.832 170.665 128.533 173.469 129.935C176.274 131.31 178.665 133.234 180.645 135.709C182.652 138.183 184.301 141.056 185.594 144.328H189.882L192.316 160.163L200.398 192H189.841L182.253 160.163C181.841 158.129 181.222 155.861 180.397 153.359C179.573 150.857 178.487 148.465 177.14 146.183C175.792 143.902 174.088 142.018 172.026 140.534C169.991 139.049 167.531 138.307 164.644 138.307C161.482 138.307 158.706 139.255 156.314 141.152C153.922 143.022 152.066 145.62 150.747 148.946C149.427 152.273 148.767 156.095 148.767 160.411C148.767 164.645 149.399 168.453 150.664 171.834C151.956 175.216 153.743 177.883 156.025 179.834C158.307 181.759 160.974 182.721 164.026 182.721C166.802 182.721 169.235 181.965 171.325 180.453C173.414 178.941 175.188 177.016 176.645 174.68C178.102 172.343 179.284 169.91 180.191 167.38C181.126 164.823 181.813 162.528 182.253 160.493L189.058 128.657H199.574L192.316 160.493L189.882 176.535H185.965C184.645 179.807 182.941 182.721 180.851 185.278C178.789 187.807 176.287 189.787 173.346 191.216C170.431 192.646 167.036 193.347 163.16 193.32Z" fill="#525252"/>
<path d="M163.16 193.32L163.107 198.384L163.115 198.384L163.124 198.384L163.16 193.32ZM149.262 189.031L152.176 184.889H152.176L149.262 189.031ZM139.942 177.401L144.56 175.323V175.323L139.942 177.401ZM140.107 143.462L144.672 145.654L144.677 145.644L140.107 143.462ZM149.716 131.997L152.551 136.194L152.557 136.189L149.716 131.997ZM173.469 129.935L171.204 134.465L171.222 134.474L171.24 134.483L173.469 129.935ZM180.645 135.709L176.69 138.873L176.701 138.886L176.712 138.899L180.645 135.709ZM185.594 144.328L180.883 146.188L182.149 149.392H185.594V144.328ZM189.882 144.328L194.888 143.559L194.228 139.263H189.882V144.328ZM192.316 160.163L187.31 160.933L187.347 161.174L187.407 161.41L192.316 160.163ZM200.398 192V197.064H206.909L205.307 190.754L200.398 192ZM189.841 192L184.915 193.174L185.842 197.064H189.841V192ZM182.253 160.163L177.29 161.17L177.307 161.254L177.327 161.338L182.253 160.163ZM180.397 153.359L185.207 151.773H185.207L180.397 153.359ZM177.14 146.183L172.778 148.758V148.758L177.14 146.183ZM172.026 140.534L169.041 144.625L169.054 144.634L169.067 144.644L172.026 140.534ZM156.314 141.152L159.433 145.143L159.447 145.132L159.461 145.12L156.314 141.152ZM150.747 148.946L146.039 147.079H146.039L150.747 148.946ZM150.664 171.834L145.921 173.608L145.927 173.625L145.933 173.642L150.664 171.834ZM156.025 179.834L152.733 183.683L152.747 183.695L152.76 183.706L156.025 179.834ZM171.325 180.453L168.356 176.35V176.35L171.325 180.453ZM176.645 174.68L180.942 177.359V177.359L176.645 174.68ZM180.191 167.38L175.435 165.641L175.429 165.656L175.424 165.67L180.191 167.38ZM182.253 160.493L187.203 161.564L187.206 161.552L182.253 160.493ZM189.058 128.657V123.592H184.961L184.105 127.598L189.058 128.657ZM199.574 128.657L204.511 129.783L205.923 123.592H199.574V128.657ZM192.316 160.493L187.378 159.368L187.336 159.55L187.308 159.734L192.316 160.493ZM189.882 176.535V181.6H194.237L194.89 177.295L189.882 176.535ZM185.965 176.535V171.471H182.547L181.268 174.641L185.965 176.535ZM180.851 185.278L176.929 182.073L176.926 182.078L180.851 185.278ZM173.346 191.216L171.132 186.661L171.123 186.665L171.115 186.67L173.346 191.216ZM163.16 193.32L163.212 188.255C158.869 188.21 155.254 187.054 152.176 184.889L149.262 189.031L146.348 193.173C151.243 196.617 156.893 198.319 163.107 198.384L163.16 193.32ZM149.262 189.031L152.176 184.889C149.014 182.665 146.458 179.54 144.56 175.323L139.942 177.401L135.324 179.48C137.88 185.16 141.537 189.789 146.348 193.173L149.262 189.031ZM139.942 177.401L144.56 175.323C142.677 171.138 141.666 166.176 141.666 160.328H136.602H131.537C131.537 167.347 132.753 173.768 135.324 179.48L139.942 177.401ZM136.602 160.328H141.666C141.666 154.572 142.718 149.723 144.672 145.654L140.107 143.462L135.542 141.269C132.822 146.933 131.537 153.328 131.537 160.328H136.602ZM140.107 143.462L144.677 145.644C146.667 141.477 149.306 138.386 152.551 136.194L149.716 131.997L146.88 127.801C141.988 131.107 138.221 135.659 135.537 141.279L140.107 143.462ZM149.716 131.997L152.557 136.189C155.767 134.014 159.426 132.897 163.696 132.897V127.832V122.768C157.518 122.768 151.857 124.427 146.874 127.805L149.716 131.997ZM163.696 127.832V132.897C166.765 132.897 169.221 133.474 171.204 134.465L173.469 129.935L175.734 125.405C172.109 123.593 168.05 122.768 163.696 122.768V127.832ZM173.469 129.935L171.24 134.483C173.364 135.524 175.17 136.972 176.69 138.873L180.645 135.709L184.6 132.545C182.161 129.497 179.183 127.096 175.698 125.388L173.469 129.935ZM180.645 135.709L176.712 138.899C178.361 140.933 179.761 143.347 180.883 146.188L185.594 144.328L190.304 142.467C188.842 138.765 186.942 135.433 184.578 132.518L180.645 135.709ZM185.594 144.328V149.392H189.882V144.328V139.263H185.594V144.328ZM189.882 144.328L184.877 145.097L187.31 160.933L192.316 160.163L197.321 159.394L194.888 143.559L189.882 144.328ZM192.316 160.163L187.407 161.41L195.49 193.246L200.398 192L205.307 190.754L197.224 158.917L192.316 160.163ZM200.398 192V186.936H189.841V192V197.064H200.398V192ZM189.841 192L194.768 190.826L187.18 158.989L182.253 160.163L177.327 161.338L184.915 193.174L189.841 192ZM182.253 160.163L187.217 159.157C186.756 156.883 186.079 154.417 185.207 151.773L180.397 153.359L175.588 154.945C176.366 157.304 176.926 159.375 177.29 161.17L182.253 160.163ZM180.397 153.359L185.207 151.773C184.268 148.925 183.031 146.201 181.501 143.609L177.14 146.183L172.778 148.758C173.942 150.729 174.877 152.79 175.588 154.945L180.397 153.359ZM177.14 146.183L181.501 143.609C179.813 140.75 177.64 138.335 174.985 136.424L172.026 140.534L169.067 144.644C170.536 145.701 171.772 147.053 172.778 148.758L177.14 146.183ZM172.026 140.534L175.011 136.443C171.987 134.236 168.441 133.242 164.644 133.242V138.307V143.371C166.621 143.371 167.996 143.863 169.041 144.625L172.026 140.534ZM164.644 138.307V133.242C160.384 133.242 156.488 134.55 153.167 137.184L156.314 141.152L159.461 145.12C160.924 143.96 162.581 143.371 164.644 143.371V138.307ZM156.314 141.152L153.195 137.162C149.977 139.677 147.631 143.067 146.039 147.079L150.747 148.946L155.454 150.814C156.502 148.173 157.867 146.366 159.433 145.143L156.314 141.152ZM150.747 148.946L146.039 147.079C144.44 151.109 143.703 155.584 143.703 160.411H148.767H153.832C153.832 156.606 154.414 153.437 155.454 150.814L150.747 148.946ZM148.767 160.411H143.703C143.703 165.148 144.41 169.57 145.921 173.608L150.664 171.834L155.408 170.06C154.388 167.335 153.832 164.142 153.832 160.411H148.767ZM150.664 171.834L145.933 173.642C147.465 177.652 149.689 181.079 152.733 183.683L156.025 179.834L159.317 175.986C157.797 174.686 156.447 172.78 155.395 170.026L150.664 171.834ZM156.025 179.834L152.76 183.706C155.978 186.419 159.808 187.786 164.026 187.786V182.721V177.657C162.14 177.657 160.637 177.098 159.29 175.963L156.025 179.834ZM164.026 182.721V187.786C167.782 187.786 171.273 186.742 174.294 184.556L171.325 180.453L168.356 176.35C167.198 177.188 165.822 177.657 164.026 177.657V182.721ZM171.325 180.453L174.294 184.556C176.949 182.634 179.162 180.214 180.942 177.359L176.645 174.68L172.347 172C171.213 173.819 169.879 175.248 168.356 176.35L171.325 180.453ZM176.645 174.68L180.942 177.359C182.585 174.724 183.927 171.967 184.958 169.09L180.191 167.38L175.424 165.67C174.641 167.852 173.618 169.961 172.347 172L176.645 174.68ZM180.191 167.38L184.948 169.119C185.94 166.407 186.702 163.882 187.203 161.564L182.253 160.493L177.303 159.423C176.925 161.174 176.312 163.24 175.435 165.641L180.191 167.38ZM182.253 160.493L187.206 161.552L194.01 129.715L189.058 128.657L184.105 127.598L177.301 159.435L182.253 160.493ZM189.058 128.657V133.721H199.574V128.657V123.592H189.058V128.657ZM199.574 128.657L194.636 127.531L187.378 159.368L192.316 160.493L197.253 161.619L204.511 129.783L199.574 128.657ZM192.316 160.493L187.308 159.734L184.875 175.776L189.882 176.535L194.89 177.295L197.323 161.253L192.316 160.493ZM189.882 176.535V171.471H185.965V176.535V181.6H189.882V176.535ZM185.965 176.535L181.268 174.641C180.126 177.472 178.675 179.938 176.929 182.073L180.851 185.278L184.773 188.483C187.206 185.505 189.164 182.142 190.662 178.43L185.965 176.535ZM180.851 185.278L176.926 182.078C175.33 184.035 173.413 185.553 171.132 186.661L173.346 191.216L175.559 195.772C179.162 194.021 182.248 191.58 184.776 188.478L180.851 185.278ZM173.346 191.216L171.115 186.67C169.03 187.692 166.438 188.278 163.195 188.255L163.16 193.32L163.124 198.384C167.634 198.416 171.833 197.6 175.576 195.763L173.346 191.216Z" fill="#E0E0E0" mask="url(#path-4-outside-1_13_578)"/>
<rect x="38" y="213" width="260" height="62" rx="17" fill="url(#paint1_linear_13_578)"/>
<rect opacity="0.29" x="38" y="231" width="260" height="26" fill="#B5B5B5"/>
<defs>
<linearGradient id="paint0_linear_13_578" x1="180.5" y1="89" x2="184.5" y2="314" gradientUnits="userSpaceOnUse">
<stop stop-color="#F8F8F8"/>
<stop offset="0.826923" stop-color="#737373"/>
</linearGradient>
<linearGradient id="paint1_linear_13_578" x1="117.5" y1="244" x2="340.5" y2="260" gradientUnits="userSpaceOnUse">
<stop stop-color="#CCCCCC"/>
<stop offset="0.382455" stop-color="#F0F0F0"/>
<stop offset="0.849117" stop-color="#D0D0D0"/>
</linearGradient>
</defs>
</svg>
