<svg width="393" height="852" viewBox="0 0 393 852" fill="none" xmlns="http://www.w3.org/2000/svg">
<g clip-path="url(#clip0_9_278)">
<rect width="393" height="852" fill="white"/>
<path d="M209 309.5C102.2 308.7 20.5 239.833 -7 205.5V-5.5L1185.5 -10.5L1205.5 313C1240.5 296.5 1274.4 281.8 1130 355C949.5 446.5 793 272.5 561 226C461.107 205.978 299 310.174 209 309.5Z" fill="#A483F2"/>
<path d="M190.515 265.451C75.549 264.675 -12.3975 197.863 -42 164.554V-40.1492L1241.67 -45L1263.2 268.847C1300.88 252.839 1337.37 238.578 1181.93 309.593C987.63 398.363 819.165 229.555 569.427 184.443C461.897 165.018 287.396 266.105 190.515 265.451Z" fill="#8569F4"/>
<path d="M148.824 98.468C147.12 98.468 145.518 98.132 144.018 97.46C142.518 96.776 141.198 95.834 140.058 94.634C138.93 93.434 138.042 92.048 137.394 90.476C136.758 88.892 136.44 87.2 136.44 85.4C136.44 83.588 136.758 81.896 137.394 80.324C138.042 78.74 138.93 77.354 140.058 76.166C141.198 74.966 142.518 74.03 144.018 73.358C145.518 72.674 147.12 72.332 148.824 72.332C150.864 72.332 152.742 72.806 154.458 73.754C156.174 74.69 157.596 75.944 158.724 77.516L154.8 79.622C154.092 78.746 153.21 78.044 152.154 77.516C151.11 76.988 150 76.724 148.824 76.724C147.72 76.724 146.682 76.952 145.71 77.408C144.738 77.852 143.886 78.476 143.154 79.28C142.422 80.072 141.852 80.996 141.444 82.052C141.036 83.096 140.832 84.212 140.832 85.4C140.832 86.6 141.036 87.722 141.444 88.766C141.864 89.81 142.44 90.734 143.172 91.538C143.904 92.33 144.75 92.954 145.71 93.41C146.682 93.854 147.72 94.076 148.824 94.076C150.024 94.076 151.14 93.812 152.172 93.284C153.216 92.744 154.092 92.036 154.8 91.16L158.724 93.284C157.596 94.844 156.174 96.098 154.458 97.046C152.742 97.994 150.864 98.468 148.824 98.468ZM161.998 98L161.98 80H166.372L166.39 81.602C167.002 80.954 167.734 80.444 168.586 80.072C169.438 79.688 170.356 79.496 171.34 79.496C172 79.496 172.66 79.592 173.32 79.784L171.592 84.212C171.136 84.032 170.68 83.942 170.224 83.942C169.516 83.942 168.868 84.116 168.28 84.464C167.704 84.8 167.242 85.262 166.894 85.85C166.558 86.426 166.39 87.068 166.39 87.776V98H161.998ZM182.416 98.468C180.76 98.468 179.248 98.042 177.88 97.19C176.524 96.338 175.438 95.192 174.622 93.752C173.818 92.312 173.416 90.722 173.416 88.982C173.416 87.674 173.65 86.45 174.118 85.31C174.586 84.158 175.228 83.15 176.044 82.286C176.872 81.41 177.832 80.726 178.924 80.234C180.016 79.742 181.18 79.496 182.416 79.496C183.82 79.496 185.104 79.796 186.268 80.396C187.444 80.984 188.44 81.794 189.256 82.826C190.072 83.858 190.666 85.034 191.038 86.354C191.41 87.674 191.494 89.054 191.29 90.494H178.132C178.3 91.166 178.576 91.772 178.96 92.312C179.344 92.84 179.83 93.266 180.418 93.59C181.006 93.902 181.672 94.064 182.416 94.076C183.184 94.088 183.88 93.908 184.504 93.536C185.14 93.152 185.668 92.636 186.088 91.988L190.57 93.032C189.838 94.628 188.746 95.936 187.294 96.956C185.842 97.964 184.216 98.468 182.416 98.468ZM177.988 87.2H186.844C186.712 86.48 186.43 85.832 185.998 85.256C185.578 84.668 185.056 84.2 184.432 83.852C183.808 83.504 183.136 83.33 182.416 83.33C181.696 83.33 181.03 83.504 180.418 83.852C179.806 84.188 179.284 84.65 178.852 85.238C178.432 85.814 178.144 86.468 177.988 87.2ZM207.897 71H212.289V98H207.897V95.75C207.321 96.554 206.595 97.208 205.719 97.712C204.843 98.216 203.829 98.468 202.677 98.468C201.369 98.468 200.145 98.222 199.005 97.73C197.865 97.238 196.857 96.56 195.981 95.696C195.117 94.82 194.439 93.812 193.947 92.672C193.455 91.532 193.209 90.308 193.209 89C193.209 87.692 193.455 86.468 193.947 85.328C194.439 84.188 195.117 83.186 195.981 82.322C196.857 81.446 197.865 80.762 199.005 80.27C200.145 79.778 201.369 79.532 202.677 79.532C203.829 79.532 204.843 79.784 205.719 80.288C206.595 80.78 207.321 81.434 207.897 82.25V71ZM202.731 94.238C203.667 94.238 204.495 94.004 205.215 93.536C205.935 93.068 206.499 92.438 206.907 91.646C207.315 90.842 207.519 89.96 207.519 89C207.519 88.028 207.315 87.146 206.907 86.354C206.499 85.55 205.929 84.914 205.197 84.446C204.477 83.978 203.655 83.744 202.731 83.744C201.807 83.744 200.961 83.984 200.193 84.464C199.437 84.932 198.831 85.562 198.375 86.354C197.931 87.146 197.709 88.028 197.709 89C197.709 89.972 197.937 90.854 198.393 91.646C198.849 92.438 199.455 93.068 200.211 93.536C200.979 94.004 201.819 94.238 202.731 94.238ZM216.613 80H221.005V98H216.613V80ZM218.845 77.678C218.197 77.678 217.651 77.468 217.207 77.048C216.763 76.616 216.541 76.076 216.541 75.428C216.541 74.792 216.763 74.258 217.207 73.826C217.651 73.394 218.191 73.178 218.827 73.178C219.463 73.178 219.997 73.394 220.429 73.826C220.873 74.258 221.095 74.792 221.095 75.428C221.095 76.076 220.879 76.616 220.447 77.048C220.015 77.468 219.481 77.678 218.845 77.678ZM230.426 76.22V80H235.34V84.392H230.426V98H226.034V84.392H224.072V80H226.034V76.22C226.034 75.188 226.286 74.246 226.79 73.394C227.306 72.53 227.996 71.846 228.86 71.342C229.724 70.826 230.678 70.568 231.722 70.568C232.478 70.568 233.228 70.724 233.972 71.036C234.716 71.348 235.376 71.828 235.952 72.476L232.784 75.572C232.676 75.368 232.52 75.218 232.316 75.122C232.124 75.014 231.926 74.96 231.722 74.96C231.374 74.96 231.068 75.086 230.804 75.338C230.552 75.578 230.426 75.872 230.426 76.22ZM250.336 80H254.998L245.152 107H240.49L243.748 98L237.268 80H242.074L245.944 91.988L250.336 80Z" fill="white"/>
<path d="M163.3 717.162C162.976 717.162 162.736 717.108 162.58 717C162.436 716.904 162.34 716.772 162.292 716.604C162.256 716.436 162.238 716.256 162.238 716.064V705.624C162.238 705.444 162.262 705.276 162.31 705.12C162.358 704.964 162.46 704.838 162.616 704.742C162.784 704.646 163.03 704.598 163.354 704.598C163.714 704.598 163.96 704.64 164.092 704.724C164.236 704.796 164.368 704.904 164.488 705.048L170.5 713.454V705.624C170.5 705.444 170.524 705.276 170.572 705.12C170.62 704.964 170.722 704.838 170.878 704.742C171.034 704.646 171.274 704.598 171.598 704.598C171.934 704.598 172.174 704.652 172.318 704.76C172.474 704.856 172.57 704.988 172.606 705.156C172.654 705.324 172.678 705.51 172.678 705.714V716.082C172.678 716.274 172.648 716.454 172.588 716.622C172.54 716.778 172.432 716.904 172.264 717C172.108 717.108 171.862 717.162 171.526 717.162C171.262 717.162 171.052 717.138 170.896 717.09C170.752 717.042 170.62 716.94 170.5 716.784L164.398 708.396V716.082C164.398 716.274 164.374 716.454 164.326 716.622C164.29 716.778 164.194 716.904 164.038 717C163.882 717.108 163.636 717.162 163.3 717.162ZM179.02 717.288C178.24 717.288 177.556 717.162 176.968 716.91C176.392 716.658 175.906 716.316 175.51 715.884C175.126 715.44 174.832 714.948 174.628 714.408C174.436 713.856 174.34 713.286 174.34 712.698C174.34 711.834 174.538 711.066 174.934 710.394C175.33 709.722 175.876 709.194 176.572 708.81C177.28 708.426 178.09 708.234 179.002 708.234C179.65 708.234 180.22 708.336 180.712 708.54C181.204 708.744 181.612 709.014 181.936 709.35C182.272 709.674 182.524 710.034 182.692 710.43C182.872 710.826 182.962 711.21 182.962 711.582C182.962 712.218 182.806 712.68 182.494 712.968C182.194 713.256 181.816 713.4 181.36 713.4H176.608C176.62 713.808 176.746 714.162 176.986 714.462C177.238 714.762 177.55 714.996 177.922 715.164C178.306 715.32 178.696 715.398 179.092 715.398C179.392 715.398 179.656 715.38 179.884 715.344C180.124 715.308 180.328 715.266 180.496 715.218C180.664 715.158 180.808 715.098 180.928 715.038C181.06 714.978 181.18 714.924 181.288 714.876C181.396 714.828 181.498 714.798 181.594 714.786C181.726 714.774 181.858 714.804 181.99 714.876C182.122 714.948 182.23 715.074 182.314 715.254C182.386 715.374 182.434 715.488 182.458 715.596C182.494 715.692 182.512 715.788 182.512 715.884C182.512 716.124 182.368 716.352 182.08 716.568C181.792 716.772 181.384 716.94 180.856 717.072C180.34 717.216 179.728 717.288 179.02 717.288ZM176.608 712.122H180.298C180.502 712.122 180.658 712.092 180.766 712.032C180.874 711.96 180.928 711.816 180.928 711.6C180.928 711.324 180.844 711.078 180.676 710.862C180.508 710.634 180.28 710.46 179.992 710.34C179.704 710.208 179.368 710.142 178.984 710.142C178.54 710.142 178.138 710.232 177.778 710.412C177.418 710.58 177.13 710.814 176.914 711.114C176.71 711.414 176.608 711.75 176.608 712.122ZM187.134 717.162C186.894 717.162 186.702 717.114 186.558 717.018C186.426 716.934 186.324 716.826 186.252 716.694C186.192 716.562 186.138 716.442 186.09 716.334L183.444 709.638C183.372 709.41 183.336 709.218 183.336 709.062C183.348 708.906 183.408 708.774 183.516 708.666C183.636 708.546 183.81 708.444 184.038 708.36C184.422 708.204 184.722 708.162 184.938 708.234C185.166 708.306 185.334 708.51 185.442 708.846L187.152 713.382L188.7 709.044C188.736 708.936 188.79 708.822 188.862 708.702C188.934 708.582 189.036 708.48 189.168 708.396C189.312 708.3 189.504 708.252 189.744 708.252C189.996 708.252 190.194 708.3 190.338 708.396C190.482 708.48 190.59 708.582 190.662 708.702C190.746 708.822 190.8 708.936 190.824 709.044L192.372 713.418L194.01 709.008C194.154 708.636 194.334 708.39 194.55 708.27C194.766 708.15 195.06 708.162 195.432 708.306C195.768 708.45 195.996 708.63 196.116 708.846C196.236 709.05 196.224 709.32 196.08 709.656L193.416 716.334C193.368 716.454 193.308 716.58 193.236 716.712C193.176 716.832 193.074 716.934 192.93 717.018C192.798 717.114 192.618 717.162 192.39 717.162C192.15 717.162 191.958 717.12 191.814 717.036C191.682 716.964 191.58 716.862 191.508 716.73C191.436 716.598 191.376 716.46 191.328 716.316L189.762 711.87L188.196 716.316C188.124 716.484 188.058 716.634 187.998 716.766C187.938 716.898 187.842 716.994 187.71 717.054C187.578 717.126 187.386 717.162 187.134 717.162ZM207.293 717.27C206.453 717.27 205.703 717.12 205.043 716.82C204.395 716.508 203.849 716.082 203.405 715.542C202.961 714.99 202.625 714.366 202.397 713.67C202.169 712.962 202.055 712.212 202.055 711.42V705.678C202.055 705.474 202.073 705.294 202.109 705.138C202.157 704.97 202.253 704.838 202.397 704.742C202.553 704.634 202.805 704.58 203.153 704.58C203.501 704.58 203.747 704.634 203.891 704.742C204.047 704.838 204.143 704.97 204.179 705.138C204.227 705.294 204.251 705.48 204.251 705.696V711.42C204.251 712.08 204.359 712.692 204.575 713.256C204.803 713.808 205.145 714.252 205.601 714.588C206.057 714.924 206.639 715.092 207.347 715.092C207.983 715.092 208.529 714.942 208.985 714.642C209.441 714.342 209.789 713.916 210.029 713.364C210.281 712.812 210.407 712.158 210.407 711.402V705.588C210.407 705.396 210.425 705.228 210.461 705.084C210.509 704.94 210.611 704.82 210.767 704.724C210.923 704.628 211.169 704.58 211.505 704.58C211.853 704.58 212.099 704.634 212.243 704.742C212.399 704.838 212.495 704.97 212.531 705.138C212.567 705.306 212.585 705.492 212.585 705.696V711.456C212.585 712.248 212.471 712.998 212.243 713.706C212.015 714.402 211.673 715.02 211.217 715.56C210.761 716.088 210.203 716.508 209.543 716.82C208.895 717.12 208.145 717.27 207.293 717.27ZM217.294 717.288C216.982 717.288 216.652 717.252 216.304 717.18C215.956 717.12 215.62 717.03 215.296 716.91C214.972 716.778 214.69 716.628 214.45 716.46C214.222 716.28 214.078 716.082 214.018 715.866C213.97 715.746 213.952 715.632 213.964 715.524C213.976 715.404 214.012 715.284 214.072 715.164C214.132 715.032 214.222 714.9 214.342 714.768C214.45 714.636 214.558 714.564 214.666 714.552C214.786 714.528 214.936 714.564 215.116 714.66C215.272 714.72 215.44 714.798 215.62 714.894C215.812 714.99 216.004 715.086 216.196 715.182C216.4 715.278 216.604 715.356 216.808 715.416C217.024 715.476 217.234 715.506 217.438 715.506C217.882 715.506 218.236 715.434 218.5 715.29C218.764 715.134 218.896 714.918 218.896 714.642C218.896 714.486 218.854 714.348 218.77 714.228C218.686 714.108 218.572 714.012 218.428 713.94C218.296 713.856 218.134 713.784 217.942 713.724C217.762 713.652 217.564 713.592 217.348 713.544C217.144 713.484 216.928 713.418 216.7 713.346C216.4 713.262 216.1 713.16 215.8 713.04C215.5 712.92 215.23 712.764 214.99 712.572C214.762 712.38 214.576 712.14 214.432 711.852C214.288 711.564 214.216 711.204 214.216 710.772C214.216 710.232 214.342 709.776 214.594 709.404C214.858 709.02 215.236 708.726 215.728 708.522C216.22 708.318 216.814 708.216 217.51 708.216C217.75 708.216 217.978 708.234 218.194 708.27C218.422 708.306 218.638 708.36 218.842 708.432C219.058 708.492 219.262 708.57 219.454 708.666C219.658 708.762 219.85 708.87 220.03 708.99C220.33 709.158 220.486 709.356 220.498 709.584C220.51 709.8 220.426 710.034 220.246 710.286C220.114 710.454 219.982 710.574 219.85 710.646C219.718 710.706 219.58 710.706 219.436 710.646C219.244 710.55 219.034 710.448 218.806 710.34C218.59 710.22 218.362 710.118 218.122 710.034C217.894 709.95 217.654 709.908 217.402 709.908C217.162 709.908 216.946 709.944 216.754 710.016C216.562 710.088 216.418 710.19 216.322 710.322C216.226 710.454 216.178 710.61 216.178 710.79C216.178 710.958 216.226 711.096 216.322 711.204C216.418 711.312 216.544 711.402 216.7 711.474C216.856 711.546 217.042 711.612 217.258 711.672C217.474 711.72 217.702 711.768 217.942 711.816C218.278 711.888 218.62 711.978 218.968 712.086C219.316 712.194 219.634 712.344 219.922 712.536C220.222 712.728 220.462 712.986 220.642 713.31C220.822 713.622 220.912 714.03 220.912 714.534C220.912 715.41 220.588 716.088 219.94 716.568C219.304 717.048 218.422 717.288 217.294 717.288ZM226.762 717.288C225.982 717.288 225.298 717.162 224.71 716.91C224.134 716.658 223.648 716.316 223.252 715.884C222.868 715.44 222.574 714.948 222.37 714.408C222.178 713.856 222.082 713.286 222.082 712.698C222.082 711.834 222.28 711.066 222.676 710.394C223.072 709.722 223.618 709.194 224.314 708.81C225.022 708.426 225.832 708.234 226.744 708.234C227.392 708.234 227.962 708.336 228.454 708.54C228.946 708.744 229.354 709.014 229.678 709.35C230.014 709.674 230.266 710.034 230.434 710.43C230.614 710.826 230.704 711.21 230.704 711.582C230.704 712.218 230.548 712.68 230.236 712.968C229.936 713.256 229.558 713.4 229.102 713.4H224.35C224.362 713.808 224.488 714.162 224.728 714.462C224.98 714.762 225.292 714.996 225.664 715.164C226.048 715.32 226.438 715.398 226.834 715.398C227.134 715.398 227.398 715.38 227.626 715.344C227.866 715.308 228.07 715.266 228.238 715.218C228.406 715.158 228.55 715.098 228.67 715.038C228.802 714.978 228.922 714.924 229.03 714.876C229.138 714.828 229.24 714.798 229.336 714.786C229.468 714.774 229.6 714.804 229.732 714.876C229.864 714.948 229.972 715.074 230.056 715.254C230.128 715.374 230.176 715.488 230.2 715.596C230.236 715.692 230.254 715.788 230.254 715.884C230.254 716.124 230.11 716.352 229.822 716.568C229.534 716.772 229.126 716.94 228.598 717.072C228.082 717.216 227.47 717.288 226.762 717.288ZM224.35 712.122H228.04C228.244 712.122 228.4 712.092 228.508 712.032C228.616 711.96 228.67 711.816 228.67 711.6C228.67 711.324 228.586 711.078 228.418 710.862C228.25 710.634 228.022 710.46 227.734 710.34C227.446 710.208 227.11 710.142 226.726 710.142C226.282 710.142 225.88 710.232 225.52 710.412C225.16 710.58 224.872 710.814 224.656 711.114C224.452 711.414 224.35 711.75 224.35 712.122ZM233.243 717.18C232.919 717.18 232.679 717.126 232.523 717.018C232.379 716.922 232.289 716.79 232.253 716.622C232.217 716.454 232.199 716.268 232.199 716.064V709.386C232.199 709.17 232.217 708.984 232.253 708.828C232.289 708.66 232.379 708.534 232.523 708.45C232.679 708.354 232.925 708.306 233.261 708.306C233.585 708.306 233.819 708.348 233.963 708.432C234.119 708.516 234.215 708.624 234.251 708.756C234.299 708.876 234.323 708.996 234.323 709.116L234.179 709.44C234.239 709.344 234.323 709.23 234.431 709.098C234.539 708.954 234.683 708.816 234.863 708.684C235.043 708.54 235.259 708.426 235.511 708.342C235.763 708.246 236.063 708.198 236.411 708.198C236.555 708.198 236.705 708.216 236.861 708.252C237.029 708.276 237.191 708.318 237.347 708.378C237.515 708.426 237.665 708.492 237.797 708.576C237.929 708.66 238.031 708.762 238.103 708.882C238.175 708.99 238.211 709.116 238.211 709.26C238.211 709.644 238.115 709.968 237.923 710.232C237.731 710.496 237.503 710.628 237.239 710.628C237.059 710.628 236.927 710.61 236.843 710.574C236.759 710.538 236.687 710.496 236.627 710.448C236.579 710.4 236.501 710.358 236.393 710.322C236.297 710.286 236.141 710.268 235.925 710.268C235.745 710.268 235.559 710.298 235.367 710.358C235.187 710.418 235.019 710.508 234.863 710.628C234.707 710.748 234.581 710.904 234.485 711.096C234.389 711.276 234.341 711.486 234.341 711.726V716.1C234.341 716.304 234.323 716.49 234.287 716.658C234.251 716.814 234.155 716.94 233.999 717.036C233.843 717.132 233.591 717.18 233.243 717.18Z" fill="white"/>
<path d="M83.2803 447V435.8H84.4003V445.88H89.5443V447H83.2803ZM94.0034 447.208C93.2674 447.208 92.5954 447.019 91.9874 446.64C91.3848 446.261 90.9021 445.755 90.5394 445.12C90.1821 444.48 90.0034 443.773 90.0034 443C90.0034 442.413 90.1074 441.867 90.3154 441.36C90.5234 440.848 90.8088 440.4 91.1714 440.016C91.5394 439.627 91.9661 439.323 92.4514 439.104C92.9368 438.885 93.4541 438.776 94.0034 438.776C94.5954 438.776 95.1394 438.893 95.6354 439.128C96.1368 439.363 96.5661 439.691 96.9234 440.112C97.2861 440.533 97.5581 441.027 97.7394 441.592C97.9261 442.157 98.0034 442.768 97.9714 443.424H91.1874C91.2514 443.931 91.4114 444.384 91.6674 444.784C91.9288 445.184 92.2594 445.501 92.6594 445.736C93.0648 445.965 93.5128 446.083 94.0034 446.088C94.5368 446.088 95.0168 445.949 95.4434 445.672C95.8754 445.395 96.2221 445.013 96.4834 444.528L97.6194 444.792C97.2994 445.501 96.8168 446.083 96.1714 446.536C95.5261 446.984 94.8034 447.208 94.0034 447.208ZM91.1554 442.52H96.8434C96.8061 442.024 96.6541 441.571 96.3874 441.16C96.1261 440.744 95.7874 440.413 95.3714 440.168C94.9554 439.917 94.4994 439.792 94.0034 439.792C93.5074 439.792 93.0541 439.915 92.6434 440.16C92.2328 440.4 91.8968 440.728 91.6354 441.144C91.3741 441.555 91.2141 442.013 91.1554 442.52ZM105.841 439H106.961V447H105.841L105.801 445.512C105.539 446.019 105.174 446.429 104.705 446.744C104.235 447.053 103.675 447.208 103.025 447.208C102.438 447.208 101.889 447.099 101.377 446.88C100.865 446.656 100.414 446.349 100.025 445.96C99.6354 445.571 99.3314 445.12 99.1127 444.608C98.894 444.096 98.7847 443.547 98.7847 442.96C98.7847 442.384 98.8914 441.843 99.1047 441.336C99.3234 440.829 99.622 440.384 100.001 440C100.385 439.616 100.827 439.317 101.329 439.104C101.835 438.885 102.377 438.776 102.953 438.776C103.619 438.776 104.201 438.936 104.697 439.256C105.193 439.571 105.587 439.984 105.881 440.496L105.841 439ZM103.001 446.12C103.571 446.12 104.062 445.981 104.473 445.704C104.883 445.421 105.198 445.043 105.417 444.568C105.641 444.093 105.753 443.571 105.753 443C105.753 442.413 105.641 441.885 105.417 441.416C105.193 440.941 104.875 440.565 104.465 440.288C104.054 440.011 103.566 439.872 103.001 439.872C102.435 439.872 101.918 440.013 101.449 440.296C100.985 440.573 100.614 440.949 100.337 441.424C100.065 441.899 99.9287 442.424 99.9287 443C99.9287 443.581 100.07 444.109 100.353 444.584C100.635 445.053 101.009 445.427 101.473 445.704C101.942 445.981 102.451 446.12 103.001 446.12ZM108.562 447V439H109.682V440.104C109.964 439.699 110.332 439.376 110.786 439.136C111.239 438.896 111.732 438.776 112.266 438.776C112.575 438.776 112.874 438.816 113.162 438.896L112.706 440.008C112.482 439.939 112.263 439.904 112.05 439.904C111.618 439.904 111.22 440.011 110.858 440.224C110.5 440.437 110.215 440.723 110.002 441.08C109.788 441.437 109.682 441.835 109.682 442.272V447H108.562ZM121.178 442.048V447H120.058V442.272C120.058 441.835 119.952 441.437 119.738 441.08C119.525 440.723 119.24 440.437 118.882 440.224C118.525 440.011 118.128 439.904 117.69 439.904C117.258 439.904 116.861 440.011 116.498 440.224C116.141 440.437 115.856 440.723 115.642 441.08C115.429 441.437 115.322 441.835 115.322 442.272V447H114.202V439H115.322V440.104C115.605 439.699 115.973 439.376 116.426 439.136C116.88 438.896 117.373 438.776 117.906 438.776C118.509 438.776 119.058 438.923 119.554 439.216C120.05 439.509 120.445 439.904 120.738 440.4C121.032 440.896 121.178 441.445 121.178 442.048ZM133.2 439H134.32V447H133.2L133.16 445.512C132.899 446.019 132.533 446.429 132.064 446.744C131.595 447.053 131.035 447.208 130.384 447.208C129.797 447.208 129.248 447.099 128.736 446.88C128.224 446.656 127.773 446.349 127.384 445.96C126.995 445.571 126.691 445.12 126.472 444.608C126.253 444.096 126.144 443.547 126.144 442.96C126.144 442.384 126.251 441.843 126.464 441.336C126.683 440.829 126.981 440.384 127.36 440C127.744 439.616 128.187 439.317 128.688 439.104C129.195 438.885 129.736 438.776 130.312 438.776C130.979 438.776 131.56 438.936 132.056 439.256C132.552 439.571 132.947 439.984 133.24 440.496L133.2 439ZM130.36 446.12C130.931 446.12 131.421 445.981 131.832 445.704C132.243 445.421 132.557 445.043 132.776 444.568C133 444.093 133.112 443.571 133.112 443C133.112 442.413 133 441.885 132.776 441.416C132.552 440.941 132.235 440.565 131.824 440.288C131.413 440.011 130.925 439.872 130.36 439.872C129.795 439.872 129.277 440.013 128.808 440.296C128.344 440.573 127.973 440.949 127.696 441.424C127.424 441.899 127.288 442.424 127.288 443C127.288 443.581 127.429 444.109 127.712 444.584C127.995 445.053 128.368 445.427 128.832 445.704C129.301 445.981 129.811 446.12 130.36 446.12ZM139.998 438.776C140.777 438.776 141.484 438.965 142.118 439.344C142.758 439.723 143.268 440.232 143.646 440.872C144.025 441.507 144.214 442.213 144.214 442.992C144.214 443.573 144.105 444.12 143.886 444.632C143.668 445.139 143.364 445.587 142.974 445.976C142.59 446.36 142.142 446.661 141.63 446.88C141.124 447.099 140.58 447.208 139.998 447.208C139.337 447.208 138.766 447.051 138.286 446.736C137.806 446.421 137.428 446.011 137.15 445.504V447H136.03V435H137.15V440.48C137.428 439.973 137.806 439.563 138.286 439.248C138.766 438.933 139.337 438.776 139.998 438.776ZM139.99 446.112C140.561 446.112 141.078 445.973 141.542 445.696C142.006 445.413 142.377 445.035 142.654 444.56C142.932 444.085 143.07 443.563 143.07 442.992C143.07 442.405 142.929 441.877 142.646 441.408C142.364 440.933 141.988 440.557 141.518 440.28C141.054 440.003 140.545 439.864 139.99 439.864C139.425 439.864 138.934 440.005 138.518 440.288C138.108 440.571 137.79 440.949 137.566 441.424C137.348 441.899 137.238 442.421 137.238 442.992C137.238 443.573 137.35 444.101 137.574 444.576C137.798 445.045 138.116 445.419 138.526 445.696C138.942 445.973 139.43 446.112 139.99 446.112ZM149.019 447.208C148.283 447.208 147.611 447.019 147.003 446.64C146.4 446.261 145.918 445.755 145.555 445.12C145.198 444.48 145.019 443.773 145.019 443C145.019 442.413 145.123 441.867 145.331 441.36C145.539 440.848 145.824 440.4 146.187 440.016C146.555 439.627 146.982 439.323 147.467 439.104C147.952 438.885 148.47 438.776 149.019 438.776C149.755 438.776 150.424 438.965 151.027 439.344C151.635 439.723 152.118 440.232 152.475 440.872C152.838 441.512 153.019 442.221 153.019 443C153.019 443.581 152.915 444.125 152.707 444.632C152.499 445.139 152.211 445.587 151.843 445.976C151.48 446.36 151.056 446.661 150.571 446.88C150.091 447.099 149.574 447.208 149.019 447.208ZM149.019 446.088C149.563 446.088 150.051 445.947 150.483 445.664C150.92 445.376 151.264 444.997 151.515 444.528C151.771 444.059 151.899 443.549 151.899 443C151.899 442.44 151.771 441.925 151.515 441.456C151.259 440.981 150.912 440.603 150.475 440.32C150.043 440.037 149.558 439.896 149.019 439.896C148.475 439.896 147.984 440.04 147.547 440.328C147.115 440.611 146.771 440.987 146.515 441.456C146.264 441.925 146.139 442.44 146.139 443C146.139 443.576 146.27 444.099 146.531 444.568C146.792 445.032 147.142 445.403 147.579 445.68C148.016 445.952 148.496 446.088 149.019 446.088ZM153.976 443.936V439H155.096V443.712C155.096 444.149 155.203 444.547 155.416 444.904C155.629 445.261 155.915 445.547 156.272 445.76C156.635 445.973 157.032 446.08 157.464 446.08C157.901 446.08 158.296 445.973 158.648 445.76C159.005 445.547 159.291 445.261 159.504 444.904C159.717 444.547 159.824 444.149 159.824 443.712V439H160.944L160.952 447H159.832L159.824 445.88C159.541 446.285 159.173 446.608 158.72 446.848C158.272 447.088 157.781 447.208 157.248 447.208C156.645 447.208 156.096 447.061 155.6 446.768C155.104 446.475 154.709 446.08 154.416 445.584C154.123 445.088 153.976 444.539 153.976 443.936ZM166.634 440.12H164.722L164.714 447H163.594L163.602 440.12H162.154V439H163.602L163.594 436.488H164.714L164.722 439H166.634V440.12ZM177.617 444.992L178.617 445.536C178.255 446.043 177.793 446.448 177.233 446.752C176.679 447.056 176.076 447.208 175.425 447.208C174.689 447.208 174.017 447.019 173.409 446.64C172.807 446.261 172.324 445.755 171.961 445.12C171.604 444.48 171.425 443.773 171.425 443C171.425 442.413 171.529 441.867 171.737 441.36C171.945 440.848 172.231 440.4 172.593 440.016C172.961 439.627 173.388 439.323 173.873 439.104C174.359 438.885 174.876 438.776 175.425 438.776C176.076 438.776 176.679 438.928 177.233 439.232C177.793 439.536 178.255 439.944 178.617 440.456L177.617 440.992C177.34 440.64 177.007 440.371 176.617 440.184C176.228 439.992 175.831 439.896 175.425 439.896C174.887 439.896 174.399 440.04 173.961 440.328C173.524 440.611 173.177 440.987 172.921 441.456C172.671 441.925 172.545 442.44 172.545 443C172.545 443.56 172.673 444.075 172.929 444.544C173.191 445.013 173.54 445.389 173.977 445.672C174.415 445.949 174.897 446.088 175.425 446.088C175.863 446.088 176.273 445.987 176.657 445.784C177.041 445.581 177.361 445.317 177.617 444.992ZM180.062 447V439H181.182V440.104C181.464 439.699 181.832 439.376 182.286 439.136C182.739 438.896 183.232 438.776 183.766 438.776C184.075 438.776 184.374 438.816 184.662 438.896L184.206 440.008C183.982 439.939 183.763 439.904 183.55 439.904C183.118 439.904 182.72 440.011 182.358 440.224C182 440.437 181.715 440.723 181.502 441.08C181.288 441.437 181.182 441.835 181.182 442.272V447H180.062ZM188.769 447.208C188.033 447.208 187.361 447.019 186.753 446.64C186.15 446.261 185.668 445.755 185.305 445.12C184.948 444.48 184.769 443.773 184.769 443C184.769 442.413 184.873 441.867 185.081 441.36C185.289 440.848 185.574 440.4 185.937 440.016C186.305 439.627 186.732 439.323 187.217 439.104C187.702 438.885 188.22 438.776 188.769 438.776C189.361 438.776 189.905 438.893 190.401 439.128C190.902 439.363 191.332 439.691 191.689 440.112C192.052 440.533 192.324 441.027 192.505 441.592C192.692 442.157 192.769 442.768 192.737 443.424H185.953C186.017 443.931 186.177 444.384 186.433 444.784C186.694 445.184 187.025 445.501 187.425 445.736C187.83 445.965 188.278 446.083 188.769 446.088C189.302 446.088 189.782 445.949 190.209 445.672C190.641 445.395 190.988 445.013 191.249 444.528L192.385 444.792C192.065 445.501 191.582 446.083 190.937 446.536C190.292 446.984 189.569 447.208 188.769 447.208ZM185.921 442.52H191.609C191.572 442.024 191.42 441.571 191.153 441.16C190.892 440.744 190.553 440.413 190.137 440.168C189.721 439.917 189.265 439.792 188.769 439.792C188.273 439.792 187.82 439.915 187.409 440.16C186.998 440.4 186.662 440.728 186.401 441.144C186.14 441.555 185.98 442.013 185.921 442.52ZM200.614 435H201.734V447H200.614V445.504C200.337 446.016 199.956 446.429 199.47 446.744C198.99 447.053 198.42 447.208 197.758 447.208C197.177 447.208 196.633 447.099 196.126 446.88C195.62 446.661 195.172 446.36 194.782 445.976C194.398 445.587 194.097 445.139 193.878 444.632C193.66 444.125 193.55 443.581 193.55 443C193.55 442.419 193.66 441.875 193.878 441.368C194.097 440.856 194.398 440.408 194.782 440.024C195.172 439.635 195.62 439.331 196.126 439.112C196.633 438.893 197.177 438.784 197.758 438.784C198.42 438.784 198.99 438.941 199.47 439.256C199.956 439.565 200.337 439.973 200.614 440.48V435ZM197.766 446.12C198.337 446.12 198.828 445.981 199.238 445.704C199.649 445.421 199.964 445.043 200.182 444.568C200.406 444.093 200.518 443.571 200.518 443C200.518 442.413 200.406 441.885 200.182 441.416C199.958 440.941 199.641 440.565 199.23 440.288C198.82 440.011 198.332 439.872 197.766 439.872C197.201 439.872 196.686 440.013 196.222 440.296C195.758 440.573 195.388 440.949 195.11 441.424C194.833 441.899 194.694 442.424 194.694 443C194.694 443.581 194.836 444.109 195.118 444.584C195.401 445.053 195.774 445.427 196.238 445.704C196.708 445.981 197.217 446.12 197.766 446.12ZM203.655 439H204.775V447H203.655V439ZM204.223 437.6C204.042 437.6 203.887 437.541 203.759 437.424C203.637 437.301 203.575 437.149 203.575 436.968C203.575 436.787 203.637 436.637 203.759 436.52C203.887 436.397 204.042 436.336 204.223 436.336C204.399 436.336 204.549 436.397 204.671 436.52C204.799 436.637 204.863 436.787 204.863 436.968C204.863 437.149 204.802 437.301 204.679 437.424C204.557 437.541 204.405 437.6 204.223 437.6ZM210.79 440.12H208.878L208.87 447H207.75L207.758 440.12H206.31V439H207.758L207.75 436.488H208.87L208.878 439H210.79V440.12ZM218.534 447.152C218.096 447.141 217.67 447.061 217.254 446.912C216.838 446.763 216.475 446.56 216.166 446.304C215.856 446.048 215.635 445.757 215.502 445.432L216.47 445.016C216.555 445.224 216.712 445.416 216.942 445.592C217.176 445.763 217.443 445.901 217.742 446.008C218.04 446.109 218.336 446.16 218.63 446.16C218.955 446.16 219.259 446.107 219.542 446C219.824 445.893 220.054 445.741 220.23 445.544C220.411 445.341 220.502 445.104 220.502 444.832C220.502 444.539 220.406 444.309 220.214 444.144C220.022 443.973 219.779 443.84 219.486 443.744C219.192 443.643 218.891 443.547 218.582 443.456C218.016 443.301 217.518 443.131 217.086 442.944C216.654 442.757 216.315 442.52 216.07 442.232C215.83 441.939 215.71 441.563 215.71 441.104C215.71 440.619 215.846 440.2 216.118 439.848C216.395 439.491 216.755 439.216 217.198 439.024C217.646 438.827 218.123 438.728 218.63 438.728C219.28 438.728 219.872 438.869 220.406 439.152C220.944 439.435 221.334 439.811 221.574 440.28L220.67 440.816C220.574 440.597 220.422 440.408 220.214 440.248C220.006 440.088 219.768 439.963 219.502 439.872C219.24 439.781 218.974 439.733 218.702 439.728C218.36 439.723 218.043 439.773 217.75 439.88C217.456 439.981 217.219 440.133 217.038 440.336C216.862 440.539 216.774 440.787 216.774 441.08C216.774 441.373 216.862 441.597 217.038 441.752C217.214 441.901 217.451 442.024 217.75 442.12C218.054 442.211 218.395 442.317 218.774 442.44C219.259 442.595 219.715 442.771 220.142 442.968C220.568 443.165 220.912 443.411 221.174 443.704C221.435 443.997 221.563 444.368 221.558 444.816C221.558 445.296 221.414 445.715 221.126 446.072C220.838 446.429 220.464 446.704 220.006 446.896C219.547 447.083 219.056 447.168 218.534 447.152ZM228.586 444.992L229.586 445.536C229.223 446.043 228.762 446.448 228.202 446.752C227.647 447.056 227.045 447.208 226.394 447.208C225.658 447.208 224.986 447.019 224.378 446.64C223.775 446.261 223.293 445.755 222.93 445.12C222.573 444.48 222.394 443.773 222.394 443C222.394 442.413 222.498 441.867 222.706 441.36C222.914 440.848 223.199 440.4 223.562 440.016C223.93 439.627 224.357 439.323 224.842 439.104C225.327 438.885 225.845 438.776 226.394 438.776C227.045 438.776 227.647 438.928 228.202 439.232C228.762 439.536 229.223 439.944 229.586 440.456L228.586 440.992C228.309 440.64 227.975 440.371 227.586 440.184C227.197 439.992 226.799 439.896 226.394 439.896C225.855 439.896 225.367 440.04 224.93 440.328C224.493 440.611 224.146 440.987 223.89 441.456C223.639 441.925 223.514 442.44 223.514 443C223.514 443.56 223.642 444.075 223.898 444.544C224.159 445.013 224.509 445.389 224.946 445.672C225.383 445.949 225.866 446.088 226.394 446.088C226.831 446.088 227.242 445.987 227.626 445.784C228.01 445.581 228.33 445.317 228.586 444.992ZM234.441 447.208C233.705 447.208 233.033 447.019 232.425 446.64C231.822 446.261 231.34 445.755 230.977 445.12C230.62 444.48 230.441 443.773 230.441 443C230.441 442.413 230.545 441.867 230.753 441.36C230.961 440.848 231.246 440.4 231.609 440.016C231.977 439.627 232.404 439.323 232.889 439.104C233.374 438.885 233.892 438.776 234.441 438.776C235.177 438.776 235.846 438.965 236.449 439.344C237.057 439.723 237.54 440.232 237.897 440.872C238.26 441.512 238.441 442.221 238.441 443C238.441 443.581 238.337 444.125 238.129 444.632C237.921 445.139 237.633 445.587 237.265 445.976C236.902 446.36 236.478 446.661 235.993 446.88C235.513 447.099 234.996 447.208 234.441 447.208ZM234.441 446.088C234.985 446.088 235.473 445.947 235.905 445.664C236.342 445.376 236.686 444.997 236.937 444.528C237.193 444.059 237.321 443.549 237.321 443C237.321 442.44 237.193 441.925 236.937 441.456C236.681 440.981 236.334 440.603 235.897 440.32C235.465 440.037 234.98 439.896 234.441 439.896C233.897 439.896 233.406 440.04 232.969 440.328C232.537 440.611 232.193 440.987 231.937 441.456C231.686 441.925 231.561 442.44 231.561 443C231.561 443.576 231.692 444.099 231.953 444.568C232.214 445.032 232.564 445.403 233.001 445.68C233.438 445.952 233.918 446.088 234.441 446.088ZM239.796 447V439H240.916V440.104C241.199 439.699 241.567 439.376 242.02 439.136C242.473 438.896 242.967 438.776 243.5 438.776C243.809 438.776 244.108 438.816 244.396 438.896L243.94 440.008C243.716 439.939 243.497 439.904 243.284 439.904C242.852 439.904 242.455 440.011 242.092 440.224C241.735 440.437 241.449 440.723 241.236 441.08C241.023 441.437 240.916 441.835 240.916 442.272V447H239.796ZM248.503 447.208C247.767 447.208 247.095 447.019 246.487 446.64C245.885 446.261 245.402 445.755 245.039 445.12C244.682 444.48 244.503 443.773 244.503 443C244.503 442.413 244.607 441.867 244.815 441.36C245.023 440.848 245.309 440.4 245.671 440.016C246.039 439.627 246.466 439.323 246.951 439.104C247.437 438.885 247.954 438.776 248.503 438.776C249.095 438.776 249.639 438.893 250.135 439.128C250.637 439.363 251.066 439.691 251.423 440.112C251.786 440.533 252.058 441.027 252.239 441.592C252.426 442.157 252.503 442.768 252.471 443.424H245.687C245.751 443.931 245.911 444.384 246.167 444.784C246.429 445.184 246.759 445.501 247.159 445.736C247.565 445.965 248.013 446.083 248.503 446.088C249.037 446.088 249.517 445.949 249.943 445.672C250.375 445.395 250.722 445.013 250.983 444.528L252.119 444.792C251.799 445.501 251.317 446.083 250.671 446.536C250.026 446.984 249.303 447.208 248.503 447.208ZM245.655 442.52H251.343C251.306 442.024 251.154 441.571 250.887 441.16C250.626 440.744 250.287 440.413 249.871 440.168C249.455 439.917 248.999 439.792 248.503 439.792C248.007 439.792 247.554 439.915 247.143 440.16C246.733 440.4 246.397 440.728 246.135 441.144C245.874 441.555 245.714 442.013 245.655 442.52ZM256.33 447.152C255.893 447.141 255.466 447.061 255.05 446.912C254.634 446.763 254.272 446.56 253.962 446.304C253.653 446.048 253.432 445.757 253.298 445.432L254.266 445.016C254.352 445.224 254.509 445.416 254.738 445.592C254.973 445.763 255.24 445.901 255.538 446.008C255.837 446.109 256.133 446.16 256.426 446.16C256.752 446.16 257.056 446.107 257.338 446C257.621 445.893 257.85 445.741 258.026 445.544C258.208 445.341 258.298 445.104 258.298 444.832C258.298 444.539 258.202 444.309 258.01 444.144C257.818 443.973 257.576 443.84 257.282 443.744C256.989 443.643 256.688 443.547 256.378 443.456C255.813 443.301 255.314 443.131 254.882 442.944C254.45 442.757 254.112 442.52 253.866 442.232C253.626 441.939 253.506 441.563 253.506 441.104C253.506 440.619 253.642 440.2 253.914 439.848C254.192 439.491 254.552 439.216 254.994 439.024C255.442 438.827 255.92 438.728 256.426 438.728C257.077 438.728 257.669 438.869 258.202 439.152C258.741 439.435 259.13 439.811 259.37 440.28L258.466 440.816C258.37 440.597 258.218 440.408 258.01 440.248C257.802 440.088 257.565 439.963 257.298 439.872C257.037 439.781 256.77 439.733 256.498 439.728C256.157 439.723 255.84 439.773 255.546 439.88C255.253 439.981 255.016 440.133 254.834 440.336C254.658 440.539 254.57 440.787 254.57 441.08C254.57 441.373 254.658 441.597 254.834 441.752C255.01 441.901 255.248 442.024 255.546 442.12C255.85 442.211 256.192 442.317 256.57 442.44C257.056 442.595 257.512 442.771 257.938 442.968C258.365 443.165 258.709 443.411 258.97 443.704C259.232 443.997 259.36 444.368 259.354 444.816C259.354 445.296 259.21 445.715 258.922 446.072C258.634 446.429 258.261 446.704 257.802 446.896C257.344 447.083 256.853 447.168 256.33 447.152ZM271.153 439H272.273V447H271.153L271.113 445.512C270.852 446.019 270.487 446.429 270.017 446.744C269.548 447.053 268.988 447.208 268.337 447.208C267.751 447.208 267.201 447.099 266.689 446.88C266.177 446.656 265.727 446.349 265.337 445.96C264.948 445.571 264.644 445.12 264.425 444.608C264.207 444.096 264.097 443.547 264.097 442.96C264.097 442.384 264.204 441.843 264.417 441.336C264.636 440.829 264.935 440.384 265.313 440C265.697 439.616 266.14 439.317 266.641 439.104C267.148 438.885 267.689 438.776 268.265 438.776C268.932 438.776 269.513 438.936 270.009 439.256C270.505 439.571 270.9 439.984 271.193 440.496L271.153 439ZM268.313 446.12C268.884 446.12 269.375 445.981 269.785 445.704C270.196 445.421 270.511 445.043 270.729 444.568C270.953 444.093 271.065 443.571 271.065 443C271.065 442.413 270.953 441.885 270.729 441.416C270.505 440.941 270.188 440.565 269.777 440.288C269.367 440.011 268.879 439.872 268.313 439.872C267.748 439.872 267.231 440.013 266.761 440.296C266.297 440.573 265.927 440.949 265.649 441.424C265.377 441.899 265.241 442.424 265.241 443C265.241 443.581 265.383 444.109 265.665 444.584C265.948 445.053 266.321 445.427 266.785 445.704C267.255 445.981 267.764 446.12 268.313 446.12ZM280.85 442.048V447H279.73V442.272C279.73 441.835 279.623 441.437 279.41 441.08C279.197 440.723 278.911 440.437 278.554 440.224C278.197 440.011 277.799 439.904 277.362 439.904C276.93 439.904 276.533 440.011 276.17 440.224C275.813 440.437 275.527 440.723 275.314 441.08C275.101 441.437 274.994 441.835 274.994 442.272V447H273.874V439H274.994V440.104C275.277 439.699 275.645 439.376 276.098 439.136C276.551 438.896 277.045 438.776 277.578 438.776C278.181 438.776 278.73 438.923 279.226 439.216C279.722 439.509 280.117 439.904 280.41 440.4C280.703 440.896 280.85 441.445 280.85 442.048ZM288.88 435H290V447H288.88V445.504C288.603 446.016 288.221 446.429 287.736 446.744C287.256 447.053 286.685 447.208 286.024 447.208C285.443 447.208 284.899 447.099 284.392 446.88C283.885 446.661 283.437 446.36 283.048 445.976C282.664 445.587 282.363 445.139 282.144 444.632C281.925 444.125 281.816 443.581 281.816 443C281.816 442.419 281.925 441.875 282.144 441.368C282.363 440.856 282.664 440.408 283.048 440.024C283.437 439.635 283.885 439.331 284.392 439.112C284.899 438.893 285.443 438.784 286.024 438.784C286.685 438.784 287.256 438.941 287.736 439.256C288.221 439.565 288.603 439.973 288.88 440.48V435ZM286.032 446.12C286.603 446.12 287.093 445.981 287.504 445.704C287.915 445.421 288.229 445.043 288.448 444.568C288.672 444.093 288.784 443.571 288.784 443C288.784 442.413 288.672 441.885 288.448 441.416C288.224 440.941 287.907 440.565 287.496 440.288C287.085 440.011 286.597 439.872 286.032 439.872C285.467 439.872 284.952 440.013 284.488 440.296C284.024 440.573 283.653 440.949 283.376 441.424C283.099 441.899 282.96 442.424 282.96 443C282.96 443.581 283.101 444.109 283.384 444.584C283.667 445.053 284.04 445.427 284.504 445.704C284.973 445.981 285.483 446.12 286.032 446.12ZM299.853 440.12H297.941L297.933 447H296.813L296.821 440.12H295.373V439H296.821L296.813 436.488H297.933L297.941 439H299.853V440.12ZM308.256 442.048V447H307.136V442.272C307.136 441.835 307.03 441.437 306.816 441.08C306.603 440.723 306.318 440.437 305.96 440.224C305.603 440.011 305.206 439.904 304.768 439.904C304.336 439.904 303.939 440.011 303.576 440.224C303.219 440.437 302.934 440.723 302.72 441.08C302.507 441.437 302.4 441.835 302.4 442.272V447H301.28V435H302.4V440.104C302.683 439.699 303.051 439.376 303.504 439.136C303.958 438.896 304.451 438.776 304.984 438.776C305.587 438.776 306.136 438.923 306.632 439.216C307.128 439.509 307.523 439.904 307.816 440.4C308.11 440.896 308.256 441.445 308.256 442.048ZM313.222 447.208C312.486 447.208 311.814 447.019 311.206 446.64C310.604 446.261 310.121 445.755 309.758 445.12C309.401 444.48 309.222 443.773 309.222 443C309.222 442.413 309.326 441.867 309.534 441.36C309.742 440.848 310.028 440.4 310.39 440.016C310.758 439.627 311.185 439.323 311.67 439.104C312.156 438.885 312.673 438.776 313.222 438.776C313.814 438.776 314.358 438.893 314.854 439.128C315.356 439.363 315.785 439.691 316.142 440.112C316.505 440.533 316.777 441.027 316.958 441.592C317.145 442.157 317.222 442.768 317.19 443.424H310.406C310.47 443.931 310.63 444.384 310.886 444.784C311.148 445.184 311.478 445.501 311.878 445.736C312.284 445.965 312.732 446.083 313.222 446.088C313.756 446.088 314.236 445.949 314.662 445.672C315.094 445.395 315.441 445.013 315.702 444.528L316.838 444.792C316.518 445.501 316.036 446.083 315.39 446.536C314.745 446.984 314.022 447.208 313.222 447.208ZM310.374 442.52H316.062C316.025 442.024 315.873 441.571 315.606 441.16C315.345 440.744 315.006 440.413 314.59 440.168C314.174 439.917 313.718 439.792 313.222 439.792C312.726 439.792 312.273 439.915 311.862 440.16C311.452 440.4 311.116 440.728 310.854 441.144C310.593 441.555 310.433 442.013 310.374 442.52ZM109.256 457.776C110.035 457.776 110.741 457.965 111.376 458.344C112.016 458.723 112.525 459.232 112.904 459.872C113.283 460.507 113.472 461.213 113.472 461.992C113.472 462.573 113.363 463.12 113.144 463.632C112.925 464.139 112.621 464.587 112.232 464.976C111.848 465.36 111.4 465.661 110.888 465.88C110.381 466.099 109.837 466.208 109.256 466.208C108.595 466.208 108.024 466.051 107.544 465.736C107.064 465.421 106.685 465.011 106.408 464.504V466H105.288V454H106.408V459.48C106.685 458.973 107.064 458.563 107.544 458.248C108.024 457.933 108.595 457.776 109.256 457.776ZM109.248 465.112C109.819 465.112 110.336 464.973 110.8 464.696C111.264 464.413 111.635 464.035 111.912 463.56C112.189 463.085 112.328 462.563 112.328 461.992C112.328 461.405 112.187 460.877 111.904 460.408C111.621 459.933 111.245 459.557 110.776 459.28C110.312 459.003 109.803 458.864 109.248 458.864C108.683 458.864 108.192 459.005 107.776 459.288C107.365 459.571 107.048 459.949 106.824 460.424C106.605 460.899 106.496 461.421 106.496 461.992C106.496 462.573 106.608 463.101 106.832 463.576C107.056 464.045 107.373 464.419 107.784 464.696C108.2 464.973 108.688 465.112 109.248 465.112ZM118.277 466.208C117.541 466.208 116.869 466.019 116.261 465.64C115.658 465.261 115.176 464.755 114.813 464.12C114.456 463.48 114.277 462.773 114.277 462C114.277 461.413 114.381 460.867 114.589 460.36C114.797 459.848 115.082 459.4 115.445 459.016C115.813 458.627 116.24 458.323 116.725 458.104C117.21 457.885 117.728 457.776 118.277 457.776C118.869 457.776 119.413 457.893 119.909 458.128C120.41 458.363 120.84 458.691 121.197 459.112C121.56 459.533 121.832 460.027 122.013 460.592C122.2 461.157 122.277 461.768 122.245 462.424H115.461C115.525 462.931 115.685 463.384 115.941 463.784C116.202 464.184 116.533 464.501 116.933 464.736C117.338 464.965 117.786 465.083 118.277 465.088C118.81 465.088 119.29 464.949 119.717 464.672C120.149 464.395 120.496 464.013 120.757 463.528L121.893 463.792C121.573 464.501 121.09 465.083 120.445 465.536C119.8 465.984 119.077 466.208 118.277 466.208ZM115.429 461.52H121.117C121.08 461.024 120.928 460.571 120.661 460.16C120.4 459.744 120.061 459.413 119.645 459.168C119.229 458.917 118.773 458.792 118.277 458.792C117.781 458.792 117.328 458.915 116.917 459.16C116.506 459.4 116.17 459.728 115.909 460.144C115.648 460.555 115.488 461.013 115.429 461.52ZM126.104 466.152C125.667 466.141 125.24 466.061 124.824 465.912C124.408 465.763 124.045 465.56 123.736 465.304C123.427 465.048 123.205 464.757 123.072 464.432L124.04 464.016C124.125 464.224 124.283 464.416 124.512 464.592C124.747 464.763 125.013 464.901 125.312 465.008C125.611 465.109 125.907 465.16 126.2 465.16C126.525 465.16 126.829 465.107 127.112 465C127.395 464.893 127.624 464.741 127.8 464.544C127.981 464.341 128.072 464.104 128.072 463.832C128.072 463.539 127.976 463.309 127.784 463.144C127.592 462.973 127.349 462.84 127.056 462.744C126.763 462.643 126.461 462.547 126.152 462.456C125.587 462.301 125.088 462.131 124.656 461.944C124.224 461.757 123.885 461.52 123.64 461.232C123.4 460.939 123.28 460.563 123.28 460.104C123.28 459.619 123.416 459.2 123.688 458.848C123.965 458.491 124.325 458.216 124.768 458.024C125.216 457.827 125.693 457.728 126.2 457.728C126.851 457.728 127.443 457.869 127.976 458.152C128.515 458.435 128.904 458.811 129.144 459.28L128.24 459.816C128.144 459.597 127.992 459.408 127.784 459.248C127.576 459.088 127.339 458.963 127.072 458.872C126.811 458.781 126.544 458.733 126.272 458.728C125.931 458.723 125.613 458.773 125.32 458.88C125.027 458.981 124.789 459.133 124.608 459.336C124.432 459.539 124.344 459.787 124.344 460.08C124.344 460.373 124.432 460.597 124.608 460.752C124.784 460.901 125.021 461.024 125.32 461.12C125.624 461.211 125.965 461.317 126.344 461.44C126.829 461.595 127.285 461.771 127.712 461.968C128.139 462.165 128.483 462.411 128.744 462.704C129.005 462.997 129.133 463.368 129.128 463.816C129.128 464.296 128.984 464.715 128.696 465.072C128.408 465.429 128.035 465.704 127.576 465.896C127.117 466.083 126.627 466.168 126.104 466.152ZM134.595 459.12H132.683L132.675 466H131.555L131.563 459.12H130.115V458H131.563L131.555 455.488H132.675L132.683 458H134.595V459.12ZM143.218 466H142.066L139.386 458H140.482L142.658 464.448L144.818 458H146.002L148.162 464.448L150.322 458H151.426L148.746 466H147.586L145.394 459.488L143.218 466ZM159.02 458H160.14V466H159.02L158.98 464.512C158.719 465.019 158.354 465.429 157.884 465.744C157.415 466.053 156.855 466.208 156.204 466.208C155.618 466.208 155.068 466.099 154.556 465.88C154.044 465.656 153.594 465.349 153.204 464.96C152.815 464.571 152.511 464.12 152.292 463.608C152.074 463.096 151.964 462.547 151.964 461.96C151.964 461.384 152.071 460.843 152.284 460.336C152.503 459.829 152.802 459.384 153.18 459C153.564 458.616 154.007 458.317 154.508 458.104C155.015 457.885 155.556 457.776 156.132 457.776C156.799 457.776 157.38 457.936 157.876 458.256C158.372 458.571 158.767 458.984 159.06 459.496L159.02 458ZM156.18 465.12C156.751 465.12 157.242 464.981 157.652 464.704C158.063 464.421 158.378 464.043 158.596 463.568C158.82 463.093 158.932 462.571 158.932 462C158.932 461.413 158.82 460.885 158.596 460.416C158.372 459.941 158.055 459.565 157.644 459.288C157.234 459.011 156.746 458.872 156.18 458.872C155.615 458.872 155.098 459.013 154.628 459.296C154.164 459.573 153.794 459.949 153.516 460.424C153.244 460.899 153.108 461.424 153.108 462C153.108 462.581 153.25 463.109 153.532 463.584C153.815 464.053 154.188 464.427 154.652 464.704C155.122 464.981 155.631 465.12 156.18 465.12ZM167.034 458H168.218L163.842 470H162.65L164.106 466L161.234 458H162.458L164.666 464.456L167.034 458ZM177.751 459.12H175.839L175.831 466H174.711L174.719 459.12H173.271V458H174.719L174.711 455.488H175.831L175.839 458H177.751V459.12ZM182.48 466.208C181.744 466.208 181.072 466.019 180.464 465.64C179.861 465.261 179.379 464.755 179.016 464.12C178.659 463.48 178.48 462.773 178.48 462C178.48 461.413 178.584 460.867 178.792 460.36C179 459.848 179.285 459.4 179.648 459.016C180.016 458.627 180.443 458.323 180.928 458.104C181.413 457.885 181.931 457.776 182.48 457.776C183.216 457.776 183.885 457.965 184.488 458.344C185.096 458.723 185.579 459.232 185.936 459.872C186.299 460.512 186.48 461.221 186.48 462C186.48 462.581 186.376 463.125 186.168 463.632C185.96 464.139 185.672 464.587 185.304 464.976C184.941 465.36 184.517 465.661 184.032 465.88C183.552 466.099 183.035 466.208 182.48 466.208ZM182.48 465.088C183.024 465.088 183.512 464.947 183.944 464.664C184.381 464.376 184.725 463.997 184.976 463.528C185.232 463.059 185.36 462.549 185.36 462C185.36 461.44 185.232 460.925 184.976 460.456C184.72 459.981 184.373 459.603 183.936 459.32C183.504 459.037 183.019 458.896 182.48 458.896C181.936 458.896 181.445 459.04 181.008 459.328C180.576 459.611 180.232 459.987 179.976 460.456C179.725 460.925 179.6 461.44 179.6 462C179.6 462.576 179.731 463.099 179.992 463.568C180.253 464.032 180.603 464.403 181.04 464.68C181.477 464.952 181.957 465.088 182.48 465.088ZM191.757 466V458H192.877V459.104C193.165 458.699 193.533 458.376 193.981 458.136C194.429 457.896 194.92 457.776 195.453 457.776C196.056 457.776 196.608 457.925 197.109 458.224C197.61 458.517 198.002 458.909 198.285 459.4C198.568 458.909 198.957 458.517 199.453 458.224C199.949 457.925 200.498 457.776 201.101 457.776C201.704 457.776 202.253 457.923 202.749 458.216C203.245 458.509 203.64 458.904 203.933 459.4C204.226 459.896 204.373 460.445 204.373 461.048V466H203.253V461.296C203.253 460.869 203.149 460.475 202.941 460.112C202.733 459.749 202.453 459.459 202.101 459.24C201.754 459.016 201.368 458.904 200.941 458.904C200.514 458.904 200.125 459.008 199.773 459.216C199.426 459.419 199.149 459.701 198.941 460.064C198.733 460.421 198.629 460.832 198.629 461.296V466H197.509V461.296C197.509 460.832 197.405 460.421 197.197 460.064C196.989 459.701 196.709 459.419 196.357 459.216C196.005 459.008 195.616 458.904 195.189 458.904C194.768 458.904 194.381 459.016 194.029 459.24C193.677 459.459 193.397 459.749 193.189 460.112C192.981 460.475 192.877 460.869 192.877 461.296V466H191.757ZM212.395 458H213.515V466H212.395L212.355 464.512C212.094 465.019 211.729 465.429 211.259 465.744C210.79 466.053 210.23 466.208 209.579 466.208C208.993 466.208 208.443 466.099 207.931 465.88C207.419 465.656 206.969 465.349 206.579 464.96C206.19 464.571 205.886 464.12 205.667 463.608C205.449 463.096 205.339 462.547 205.339 461.96C205.339 461.384 205.446 460.843 205.659 460.336C205.878 459.829 206.177 459.384 206.555 459C206.939 458.616 207.382 458.317 207.883 458.104C208.39 457.885 208.931 457.776 209.507 457.776C210.174 457.776 210.755 457.936 211.251 458.256C211.747 458.571 212.142 458.984 212.435 459.496L212.395 458ZM209.555 465.12C210.126 465.12 210.617 464.981 211.027 464.704C211.438 464.421 211.753 464.043 211.971 463.568C212.195 463.093 212.307 462.571 212.307 462C212.307 461.413 212.195 460.885 211.971 460.416C211.747 459.941 211.43 459.565 211.019 459.288C210.609 459.011 210.121 458.872 209.555 458.872C208.99 458.872 208.473 459.013 208.003 459.296C207.539 459.573 207.169 459.949 206.891 460.424C206.619 460.899 206.483 461.424 206.483 462C206.483 462.581 206.625 463.109 206.907 463.584C207.19 464.053 207.563 464.427 208.027 464.704C208.497 464.981 209.006 465.12 209.555 465.12ZM215.116 458H216.236V466H215.116V458ZM215.684 456.6C215.503 456.6 215.348 456.541 215.22 456.424C215.098 456.301 215.036 456.149 215.036 455.968C215.036 455.787 215.098 455.637 215.22 455.52C215.348 455.397 215.503 455.336 215.684 455.336C215.86 455.336 216.01 455.397 216.132 455.52C216.26 455.637 216.324 455.787 216.324 455.968C216.324 456.149 216.263 456.301 216.14 456.424C216.018 456.541 215.866 456.6 215.684 456.6ZM225.108 461.048V466H223.988V461.272C223.988 460.835 223.881 460.437 223.668 460.08C223.455 459.723 223.169 459.437 222.812 459.224C222.455 459.011 222.057 458.904 221.62 458.904C221.188 458.904 220.791 459.011 220.428 459.224C220.071 459.437 219.785 459.723 219.572 460.08C219.359 460.437 219.252 460.835 219.252 461.272V466H218.132V458H219.252V459.104C219.535 458.699 219.903 458.376 220.356 458.136C220.809 457.896 221.303 457.776 221.836 457.776C222.439 457.776 222.988 457.923 223.484 458.216C223.98 458.509 224.375 458.904 224.668 459.4C224.961 459.896 225.108 460.445 225.108 461.048ZM230.798 459.12H228.886L228.878 466H227.758L227.766 459.12H226.318V458H227.766L227.758 455.488H228.878L228.886 458H230.798V459.12ZM238.583 458H239.703V466H238.583L238.543 464.512C238.282 465.019 237.916 465.429 237.447 465.744C236.978 466.053 236.418 466.208 235.767 466.208C235.18 466.208 234.631 466.099 234.119 465.88C233.607 465.656 233.156 465.349 232.767 464.96C232.378 464.571 232.074 464.12 231.855 463.608C231.636 463.096 231.527 462.547 231.527 461.96C231.527 461.384 231.634 460.843 231.847 460.336C232.066 459.829 232.364 459.384 232.743 459C233.127 458.616 233.57 458.317 234.071 458.104C234.578 457.885 235.119 457.776 235.695 457.776C236.362 457.776 236.943 457.936 237.439 458.256C237.935 458.571 238.33 458.984 238.623 459.496L238.583 458ZM235.743 465.12C236.314 465.12 236.804 464.981 237.215 464.704C237.626 464.421 237.94 464.043 238.159 463.568C238.383 463.093 238.495 462.571 238.495 462C238.495 461.413 238.383 460.885 238.159 460.416C237.935 459.941 237.618 459.565 237.207 459.288C236.796 459.011 236.308 458.872 235.743 458.872C235.178 458.872 234.66 459.013 234.191 459.296C233.727 459.573 233.356 459.949 233.079 460.424C232.807 460.899 232.671 461.424 232.671 462C232.671 462.581 232.812 463.109 233.095 463.584C233.378 464.053 233.751 464.427 234.215 464.704C234.684 464.981 235.194 465.12 235.743 465.12ZM241.304 458H242.424V466H241.304V458ZM241.872 456.6C241.69 456.6 241.536 456.541 241.408 456.424C241.285 456.301 241.224 456.149 241.224 455.968C241.224 455.787 241.285 455.637 241.408 455.52C241.536 455.397 241.69 455.336 241.872 455.336C242.048 455.336 242.197 455.397 242.32 455.52C242.448 455.637 242.512 455.787 242.512 455.968C242.512 456.149 242.45 456.301 242.328 456.424C242.205 456.541 242.053 456.6 241.872 456.6ZM251.295 461.048V466H250.175V461.272C250.175 460.835 250.069 460.437 249.855 460.08C249.642 459.723 249.357 459.437 248.999 459.224C248.642 459.011 248.245 458.904 247.807 458.904C247.375 458.904 246.978 459.011 246.615 459.224C246.258 459.437 245.973 459.723 245.759 460.08C245.546 460.437 245.439 460.835 245.439 461.272V466H244.319V458H245.439V459.104C245.722 458.699 246.09 458.376 246.543 458.136C246.997 457.896 247.49 457.776 248.023 457.776C248.626 457.776 249.175 457.923 249.671 458.216C250.167 458.509 250.562 458.904 250.855 459.4C251.149 459.896 251.295 460.445 251.295 461.048ZM260.829 459.12H258.917L258.909 466H257.789L257.797 459.12H256.349V458H257.797L257.789 455.488H258.909L258.917 458H260.829V459.12ZM269.233 461.048V466H268.113V461.272C268.113 460.835 268.006 460.437 267.793 460.08C267.58 459.723 267.294 459.437 266.937 459.224C266.58 459.011 266.182 458.904 265.745 458.904C265.313 458.904 264.916 459.011 264.553 459.224C264.196 459.437 263.91 459.723 263.697 460.08C263.484 460.437 263.377 460.835 263.377 461.272V466H262.257V454H263.377V459.104C263.66 458.699 264.028 458.376 264.481 458.136C264.934 457.896 265.428 457.776 265.961 457.776C266.564 457.776 267.113 457.923 267.609 458.216C268.105 458.509 268.5 458.904 268.793 459.4C269.086 459.896 269.233 460.445 269.233 461.048ZM274.199 466.208C273.463 466.208 272.791 466.019 272.183 465.64C271.58 465.261 271.097 464.755 270.735 464.12C270.377 463.48 270.199 462.773 270.199 462C270.199 461.413 270.303 460.867 270.511 460.36C270.719 459.848 271.004 459.4 271.367 459.016C271.735 458.627 272.161 458.323 272.647 458.104C273.132 457.885 273.649 457.776 274.199 457.776C274.791 457.776 275.335 457.893 275.831 458.128C276.332 458.363 276.761 458.691 277.119 459.112C277.481 459.533 277.753 460.027 277.935 460.592C278.121 461.157 278.199 461.768 278.167 462.424H271.383C271.447 462.931 271.607 463.384 271.863 463.784C272.124 464.184 272.455 464.501 272.855 464.736C273.26 464.965 273.708 465.083 274.199 465.088C274.732 465.088 275.212 464.949 275.639 464.672C276.071 464.395 276.417 464.013 276.679 463.528L277.815 463.792C277.495 464.501 277.012 465.083 276.367 465.536C275.721 465.984 274.999 466.208 274.199 466.208ZM271.351 461.52H277.039C277.001 461.024 276.849 460.571 276.583 460.16C276.321 459.744 275.983 459.413 275.567 459.168C275.151 458.917 274.695 458.792 274.199 458.792C273.703 458.792 273.249 458.915 272.839 459.16C272.428 459.4 272.092 459.728 271.831 460.144C271.569 460.555 271.409 461.013 271.351 461.52ZM279.538 466V458H280.658V459.104C280.946 458.699 281.314 458.376 281.762 458.136C282.21 457.896 282.701 457.776 283.234 457.776C283.837 457.776 284.389 457.925 284.89 458.224C285.391 458.517 285.783 458.909 286.066 459.4C286.349 458.909 286.738 458.517 287.234 458.224C287.73 457.925 288.279 457.776 288.882 457.776C289.485 457.776 290.034 457.923 290.53 458.216C291.026 458.509 291.421 458.904 291.714 459.4C292.007 459.896 292.154 460.445 292.154 461.048V466H291.034V461.296C291.034 460.869 290.93 460.475 290.722 460.112C290.514 459.749 290.234 459.459 289.882 459.24C289.535 459.016 289.149 458.904 288.722 458.904C288.295 458.904 287.906 459.008 287.554 459.216C287.207 459.419 286.93 459.701 286.722 460.064C286.514 460.421 286.41 460.832 286.41 461.296V466H285.29V461.296C285.29 460.832 285.186 460.421 284.978 460.064C284.77 459.701 284.49 459.419 284.138 459.216C283.786 459.008 283.397 458.904 282.97 458.904C282.549 458.904 282.162 459.016 281.81 459.24C281.458 459.459 281.178 459.749 280.97 460.112C280.762 460.475 280.658 460.869 280.658 461.296V466H279.538ZM293.589 462.64V454.8H294.573V462.64H293.589ZM294.085 466.208C293.904 466.208 293.749 466.144 293.621 466.016C293.498 465.893 293.437 465.741 293.437 465.56C293.437 465.384 293.498 465.235 293.621 465.112C293.749 464.989 293.904 464.928 294.085 464.928C294.256 464.928 294.402 464.989 294.525 465.112C294.648 465.235 294.709 465.384 294.709 465.56C294.709 465.741 294.648 465.893 294.525 466.016C294.402 466.144 294.256 466.208 294.085 466.208Z" fill="black"/>
<path d="M105.957 91.5893C105.957 93.9787 108.347 97.3067 113.893 97.3067C117.17 97.3067 122 93.808 122 87.7493C122 83.4827 119.269 78.0213 114.32 78.0213C110.139 78.0213 107.067 79.8133 105.957 83.4827C104.848 87.152 103.653 89.712 98.0213 89.712C92.669 89.712 90 85.7867 90 79.8133C90 72.816 94.1813 70 98.0213 70C103.653 70 105.957 74.0107 105.957 75.2053" stroke="white" stroke-width="4.26666"/>
</g>
<defs>
<clipPath id="clip0_9_278">
<rect width="393" height="852" fill="white"/>
</clipPath>
</defs>
</svg>
