<svg width="242" height="168" viewBox="0 0 242 168" fill="none" xmlns="http://www.w3.org/2000/svg">
<g filter="url(#filter0_d_9_76)">
<rect x="2.89676" width="236.085" height="161.494" rx="11.587" fill="#FCFCFC"/>
</g>
<path d="M102.289 18.111H103.125L100.733 21.9941V25.208H100.023V21.9941L97.6353 18.111H98.4717L100.378 21.2185L102.289 18.111ZM105.457 25.3398C104.991 25.3398 104.565 25.2198 104.18 24.9799C103.798 24.7399 103.492 24.4189 103.262 24.0167C103.036 23.6112 102.922 23.1634 102.922 22.6734C102.922 22.3016 102.988 21.9552 103.12 21.6341C103.252 21.3097 103.433 21.0258 103.663 20.7825C103.896 20.5358 104.166 20.3432 104.474 20.2046C104.781 20.066 105.109 19.9968 105.457 19.9968C105.923 19.9968 106.348 20.1167 106.729 20.3567C107.115 20.5966 107.421 20.9194 107.647 21.3249C107.877 21.7305 107.992 22.1799 107.992 22.6734C107.992 23.0417 107.926 23.3864 107.794 23.7075C107.662 24.0285 107.48 24.3124 107.247 24.5591C107.017 24.8025 106.748 24.9934 106.441 25.132C106.136 25.2705 105.809 25.3398 105.457 25.3398ZM105.457 24.6301C105.802 24.6301 106.111 24.5405 106.385 24.3614C106.662 24.1789 106.88 23.939 107.039 23.6416C107.201 23.3442 107.282 23.0214 107.282 22.6734C107.282 22.3185 107.201 21.9924 107.039 21.695C106.876 21.3942 106.657 21.1542 106.38 20.9751C106.106 20.796 105.798 20.7065 105.457 20.7065C105.112 20.7065 104.801 20.7977 104.524 20.9802C104.251 21.1593 104.033 21.3976 103.87 21.695C103.712 21.9924 103.632 22.3185 103.632 22.6734C103.632 23.0383 103.715 23.3695 103.88 23.6669C104.046 23.961 104.267 24.1958 104.545 24.3716C104.822 24.5439 105.126 24.6301 105.457 24.6301ZM108.598 23.2665V20.1387H109.308V23.1245C109.308 23.4016 109.375 23.6534 109.511 23.8798C109.646 24.1063 109.827 24.2871 110.053 24.4223C110.283 24.5574 110.535 24.625 110.808 24.625C111.085 24.625 111.335 24.5574 111.559 24.4223C111.785 24.2871 111.966 24.1063 112.101 23.8798C112.236 23.6534 112.304 23.4016 112.304 23.1245V20.1387H113.013L113.018 25.208H112.309L112.304 24.4983C112.125 24.7551 111.891 24.9596 111.604 25.1117C111.32 25.2638 111.009 25.3398 110.671 25.3398C110.29 25.3398 109.941 25.2469 109.627 25.061C109.313 24.8751 109.063 24.625 108.877 24.3107C108.691 23.9964 108.598 23.6483 108.598 23.2665ZM114.029 25.208V20.1387H114.738V20.8383C114.917 20.5814 115.151 20.377 115.438 20.2249C115.725 20.0728 116.038 19.9968 116.376 19.9968C116.572 19.9968 116.761 20.0221 116.943 20.0728L116.654 20.7774C116.513 20.7335 116.374 20.7115 116.239 20.7115C115.965 20.7115 115.713 20.7791 115.483 20.9143C115.257 21.0495 115.076 21.2303 114.941 21.4567C114.806 21.6831 114.738 21.9349 114.738 22.212V25.208H114.029ZM122.567 25.3398C122.188 25.3398 121.822 25.2807 121.467 25.1624C121.115 25.0441 120.808 24.8751 120.544 24.6555C120.281 24.4358 120.095 24.1739 119.987 23.8697L120.651 23.6213C120.725 23.8308 120.86 24.0116 121.056 24.1637C121.256 24.3124 121.487 24.4273 121.751 24.5084C122.018 24.5896 122.29 24.6301 122.567 24.6301C122.891 24.6301 123.194 24.576 123.474 24.4679C123.755 24.3597 123.981 24.2094 124.154 24.0167C124.326 23.8207 124.412 23.5909 124.412 23.3273C124.412 23.0603 124.323 22.8406 124.143 22.6683C123.964 22.4959 123.733 22.3607 123.449 22.2627C123.168 22.1613 122.874 22.0836 122.567 22.0295C122.084 21.9451 121.649 21.8302 121.264 21.6848C120.882 21.5395 120.58 21.3351 120.357 21.0714C120.134 20.8045 120.022 20.453 120.022 20.017C120.022 19.6081 120.14 19.2533 120.377 18.9525C120.613 18.6517 120.924 18.4185 121.31 18.2529C121.698 18.0873 122.117 18.0045 122.567 18.0045C122.935 18.0045 123.295 18.062 123.647 18.1769C123.998 18.2918 124.307 18.4591 124.574 18.6787C124.845 18.8984 125.039 19.1671 125.157 19.4848L124.483 19.7281C124.409 19.5152 124.272 19.3344 124.072 19.1857C123.876 19.0336 123.647 18.9187 123.383 18.8409C123.119 18.7598 122.847 18.7193 122.567 18.7193C122.246 18.7159 121.945 18.77 121.665 18.8815C121.387 18.9896 121.163 19.1417 120.99 19.3377C120.818 19.5304 120.732 19.7568 120.732 20.017C120.732 20.3212 120.811 20.5561 120.97 20.7217C121.132 20.8839 121.352 21.0055 121.629 21.0867C121.906 21.1678 122.219 21.2404 122.567 21.3046C123.02 21.3824 123.44 21.504 123.829 21.6696C124.218 21.8318 124.53 22.0498 124.767 22.3236C125.004 22.5939 125.122 22.9285 125.122 23.3273C125.122 23.7328 125.004 24.0877 124.767 24.3918C124.53 24.6926 124.218 24.9258 123.829 25.0914C123.444 25.257 123.023 25.3398 122.567 25.3398ZM129.826 23.9356L130.46 24.2803C130.23 24.6014 129.938 24.8582 129.583 25.0509C129.231 25.2435 128.85 25.3398 128.437 25.3398C127.971 25.3398 127.545 25.2198 127.16 24.9799C126.778 24.7399 126.472 24.4189 126.242 24.0167C126.016 23.6112 125.903 23.1634 125.903 22.6734C125.903 22.3016 125.969 21.9552 126.1 21.6341C126.232 21.3097 126.413 21.0258 126.643 20.7825C126.876 20.5358 127.146 20.3432 127.454 20.2046C127.761 20.066 128.089 19.9968 128.437 19.9968C128.85 19.9968 129.231 20.0931 129.583 20.2857C129.938 20.4783 130.23 20.7369 130.46 21.0613L129.826 21.401C129.651 21.1779 129.439 21.0072 129.193 20.889C128.946 20.7673 128.694 20.7065 128.437 20.7065C128.096 20.7065 127.787 20.7977 127.51 20.9802C127.232 21.1593 127.013 21.3976 126.851 21.695C126.692 21.9924 126.612 22.3185 126.612 22.6734C126.612 23.0282 126.693 23.3543 126.856 23.6517C127.021 23.9491 127.243 24.1874 127.52 24.3665C127.797 24.5422 128.103 24.6301 128.437 24.6301C128.714 24.6301 128.975 24.5659 129.218 24.4375C129.461 24.309 129.664 24.1418 129.826 23.9356ZM133.536 25.3398C133.07 25.3398 132.644 25.2198 132.259 24.9799C131.877 24.7399 131.571 24.4189 131.341 24.0167C131.115 23.6112 131.002 23.1634 131.002 22.6734C131.002 22.3016 131.068 21.9552 131.199 21.6341C131.331 21.3097 131.512 21.0258 131.742 20.7825C131.975 20.5358 132.245 20.3432 132.553 20.2046C132.86 20.066 133.188 19.9968 133.536 19.9968C134.003 19.9968 134.427 20.1167 134.809 20.3567C135.194 20.5966 135.5 20.9194 135.726 21.3249C135.956 21.7305 136.071 22.1799 136.071 22.6734C136.071 23.0417 136.005 23.3864 135.873 23.7075C135.741 24.0285 135.559 24.3124 135.326 24.5591C135.096 24.8025 134.827 24.9934 134.52 25.132C134.216 25.2705 133.888 25.3398 133.536 25.3398ZM133.536 24.6301C133.881 24.6301 134.19 24.5405 134.464 24.3614C134.741 24.1789 134.959 23.939 135.118 23.6416C135.28 23.3442 135.361 23.0214 135.361 22.6734C135.361 22.3185 135.28 21.9924 135.118 21.695C134.956 21.3942 134.736 21.1542 134.459 20.9751C134.185 20.796 133.878 20.7065 133.536 20.7065C133.192 20.7065 132.881 20.7977 132.604 20.9802C132.33 21.1593 132.112 21.3976 131.95 21.695C131.791 21.9924 131.711 22.3185 131.711 22.6734C131.711 23.0383 131.794 23.3695 131.96 23.6669C132.125 23.961 132.347 24.1958 132.624 24.3716C132.901 24.5439 133.205 24.6301 133.536 24.6301ZM136.93 25.208V20.1387H137.639V20.8383C137.818 20.5814 138.052 20.377 138.339 20.2249C138.626 20.0728 138.939 19.9968 139.277 19.9968C139.473 19.9968 139.662 20.0221 139.844 20.0728L139.555 20.7774C139.414 20.7335 139.275 20.7115 139.14 20.7115C138.866 20.7115 138.614 20.7791 138.384 20.9143C138.158 21.0495 137.977 21.2303 137.842 21.4567C137.707 21.6831 137.639 21.9349 137.639 22.212V25.208H136.93ZM142.447 25.3398C141.981 25.3398 141.555 25.2198 141.17 24.9799C140.788 24.7399 140.482 24.4189 140.252 24.0167C140.026 23.6112 139.913 23.1634 139.913 22.6734C139.913 22.3016 139.978 21.9552 140.11 21.6341C140.242 21.3097 140.423 21.0258 140.653 20.7825C140.886 20.5358 141.156 20.3432 141.464 20.2046C141.771 20.066 142.099 19.9968 142.447 19.9968C142.822 19.9968 143.167 20.0711 143.481 20.2198C143.799 20.3685 144.071 20.5763 144.298 20.8433C144.527 21.1103 144.7 21.4229 144.815 21.7812C144.933 22.1394 144.982 22.5263 144.962 22.942H140.663C140.703 23.2631 140.805 23.5503 140.967 23.8038C141.133 24.0573 141.342 24.2584 141.596 24.4071C141.852 24.5524 142.136 24.6267 142.447 24.6301C142.785 24.6301 143.089 24.5422 143.36 24.3665C143.633 24.1908 143.853 23.9491 144.019 23.6416L144.739 23.8089C144.536 24.2584 144.23 24.6267 143.821 24.914C143.412 25.1979 142.954 25.3398 142.447 25.3398ZM140.643 22.3692H144.247C144.223 22.0549 144.127 21.7676 143.958 21.5074C143.792 21.2438 143.578 21.0343 143.314 20.8788C143.05 20.72 142.762 20.6406 142.447 20.6406C142.133 20.6406 141.846 20.7183 141.585 20.8737C141.325 21.0258 141.112 21.2337 140.947 21.4973C140.781 21.7575 140.68 22.0481 140.643 22.3692Z" fill="#434343"/>
<path d="M112.343 117.312C111.853 117.312 111.395 117.217 110.969 117.028C110.546 116.835 110.176 116.57 109.859 116.232C109.544 115.891 109.298 115.499 109.118 115.056C108.939 114.61 108.85 114.133 108.85 113.626C108.85 113.103 108.943 112.618 109.129 112.171C109.318 111.725 109.575 111.337 109.899 111.006C110.227 110.674 110.6 110.417 111.019 110.235C111.442 110.049 111.888 109.956 112.358 109.956C112.892 109.956 113.4 110.081 113.884 110.331C114.367 110.581 114.783 110.943 115.131 111.416L114.37 111.827C114.11 111.496 113.801 111.242 113.443 111.066C113.088 110.891 112.723 110.803 112.348 110.803C111.989 110.803 111.65 110.875 111.329 111.021C111.011 111.166 110.729 111.369 110.482 111.629C110.239 111.889 110.048 112.19 109.909 112.531C109.771 112.873 109.701 113.243 109.701 113.642C109.701 114.03 109.771 114.395 109.909 114.737C110.048 115.078 110.237 115.379 110.477 115.639C110.72 115.896 111.003 116.097 111.324 116.242C111.645 116.387 111.988 116.46 112.353 116.46C112.643 116.46 112.919 116.411 113.179 116.313C113.443 116.215 113.684 116.077 113.904 115.897C114.127 115.718 114.316 115.507 114.472 115.264C114.631 115.02 114.751 114.753 114.832 114.463H113.083V113.702H115.825C115.822 114.199 115.727 114.666 115.541 115.102C115.359 115.537 115.107 115.921 114.786 116.252C114.468 116.583 114.1 116.844 113.681 117.033C113.265 117.219 112.819 117.312 112.343 117.312ZM118.976 117.312C118.51 117.312 118.084 117.192 117.699 116.952C117.317 116.712 117.011 116.391 116.781 115.989C116.555 115.583 116.442 115.135 116.442 114.645C116.442 114.274 116.507 113.927 116.639 113.606C116.771 113.282 116.952 112.998 117.182 112.754C117.415 112.508 117.685 112.315 117.993 112.177C118.3 112.038 118.628 111.969 118.976 111.969C119.443 111.969 119.867 112.089 120.249 112.329C120.634 112.569 120.94 112.891 121.166 113.297C121.396 113.702 121.511 114.152 121.511 114.645C121.511 115.014 121.445 115.358 121.313 115.679C121.181 116 120.999 116.284 120.766 116.531C120.536 116.774 120.267 116.965 119.96 117.104C119.655 117.242 119.328 117.312 118.976 117.312ZM118.976 116.46C119.294 116.46 119.579 116.377 119.833 116.212C120.09 116.043 120.291 115.821 120.436 115.548C120.585 115.27 120.659 114.97 120.659 114.645C120.659 114.314 120.583 114.01 120.431 113.733C120.282 113.456 120.081 113.234 119.828 113.069C119.574 112.903 119.29 112.82 118.976 112.82C118.658 112.82 118.373 112.905 118.119 113.074C117.866 113.239 117.665 113.461 117.516 113.738C117.368 114.015 117.293 114.317 117.293 114.645C117.293 114.983 117.369 115.291 117.521 115.568C117.673 115.842 117.878 116.06 118.135 116.222C118.392 116.381 118.672 116.46 118.976 116.46ZM124.55 117.312C124.084 117.312 123.658 117.192 123.273 116.952C122.891 116.712 122.585 116.391 122.355 115.989C122.129 115.583 122.016 115.135 122.016 114.645C122.016 114.274 122.082 113.927 122.213 113.606C122.345 113.282 122.526 112.998 122.756 112.754C122.989 112.508 123.259 112.315 123.567 112.177C123.875 112.038 124.202 111.969 124.55 111.969C125.017 111.969 125.441 112.089 125.823 112.329C126.208 112.569 126.514 112.891 126.74 113.297C126.97 113.702 127.085 114.152 127.085 114.645C127.085 115.014 127.019 115.358 126.887 115.679C126.756 116 126.573 116.284 126.34 116.531C126.11 116.774 125.841 116.965 125.534 117.104C125.23 117.242 124.902 117.312 124.55 117.312ZM124.55 116.46C124.868 116.46 125.154 116.377 125.407 116.212C125.664 116.043 125.865 115.821 126.01 115.548C126.159 115.27 126.233 114.97 126.233 114.645C126.233 114.314 126.157 114.01 126.005 113.733C125.857 113.456 125.656 113.234 125.402 113.069C125.149 112.903 124.865 112.82 124.55 112.82C124.233 112.82 123.947 112.905 123.694 113.074C123.44 113.239 123.239 113.461 123.09 113.738C122.942 114.015 122.867 114.317 122.867 114.645C122.867 114.983 122.943 115.291 123.096 115.568C123.248 115.842 123.452 116.06 123.709 116.222C123.966 116.381 124.246 116.46 124.55 116.46ZM131.975 109.576H132.827V117.18H131.975V116.318C131.803 116.616 131.571 116.855 131.281 117.038C130.99 117.22 130.649 117.312 130.257 117.312C129.888 117.312 129.543 117.242 129.222 117.104C128.901 116.965 128.617 116.774 128.371 116.531C128.127 116.284 127.936 116 127.798 115.679C127.659 115.358 127.59 115.014 127.59 114.645C127.59 114.277 127.659 113.932 127.798 113.611C127.936 113.287 128.127 113.003 128.371 112.759C128.617 112.513 128.901 112.32 129.222 112.182C129.543 112.043 129.888 111.974 130.257 111.974C130.649 111.974 130.99 112.065 131.281 112.247C131.571 112.43 131.803 112.67 131.975 112.967V109.576ZM130.267 116.485C130.601 116.485 130.89 116.404 131.134 116.242C131.38 116.077 131.569 115.853 131.701 115.573C131.836 115.292 131.904 114.983 131.904 114.645C131.904 114.301 131.836 113.99 131.701 113.713C131.566 113.432 131.375 113.211 131.128 113.048C130.885 112.883 130.598 112.8 130.267 112.8C129.932 112.8 129.628 112.883 129.354 113.048C129.084 113.214 128.868 113.437 128.705 113.718C128.543 113.995 128.462 114.304 128.462 114.645C128.462 114.987 128.545 115.298 128.71 115.578C128.876 115.855 129.096 116.077 129.369 116.242C129.643 116.404 129.942 116.485 130.267 116.485Z" fill="#434343"/>
<path d="M100.867 102.488L109.561 87.4191H99.9543V84.2385H113.25V87.4191L104.53 102.488H100.867ZM114.81 102.488V99.6463C115.374 99.2205 116.044 98.6947 116.817 98.069C117.59 97.4347 118.386 96.7525 119.202 96.0225C120.019 95.2838 120.775 94.5451 121.471 93.8065C122.166 93.0678 122.731 92.3639 123.165 91.6947C123.608 91.0256 123.83 90.452 123.83 89.9741C123.83 89.444 123.7 88.9617 123.439 88.5271C123.178 88.0839 122.831 87.732 122.396 87.4713C121.97 87.2106 121.492 87.0802 120.962 87.0802C120.432 87.0802 119.95 87.2106 119.515 87.4713C119.081 87.732 118.733 88.0839 118.473 88.5271C118.212 88.9617 118.081 89.444 118.081 89.9741H114.901C114.901 88.827 115.179 87.7972 115.735 86.8847C116.291 85.9635 117.026 85.2379 117.938 84.7078C118.859 84.169 119.867 83.8996 120.962 83.8996C122.075 83.8996 123.087 84.1733 124 84.7208C124.912 85.2596 125.642 85.9896 126.189 86.9108C126.737 87.8319 127.011 88.853 127.011 89.9741C127.011 90.565 126.902 91.1603 126.685 91.7599C126.468 92.3595 126.163 92.9635 125.772 93.5718C125.381 94.1802 124.921 94.7972 124.391 95.4229C123.86 96.0399 123.274 96.6743 122.631 97.326C121.996 97.9691 121.327 98.6296 120.623 99.3074H127.102V102.488H114.81ZM130.095 102.488L138.789 87.4191H129.182V84.2385H142.478V87.4191L133.758 102.488H130.095Z" fill="#5F4BF5"/>
<path d="M55.0383 115.266C55.0383 24.8198 186.84 24.1828 186.84 115.266" stroke="#A483F2" stroke-width="12.1446" stroke-linecap="round"/>
<path d="M55.0383 115.266C55.6577 51.8635 117.291 35.2962 153.528 55.0497" stroke="#07004D" stroke-width="12.1446" stroke-linecap="round"/>
<defs>
<filter id="filter0_d_9_76" x="7.86781e-06" y="0" width="241.879" height="167.287" filterUnits="userSpaceOnUse" color-interpolation-filters="sRGB">
<feFlood flood-opacity="0" result="BackgroundImageFix"/>
<feColorMatrix in="SourceAlpha" type="matrix" values="0 0 0 0 0 0 0 0 0 0 0 0 0 0 0 0 0 0 127 0" result="hardAlpha"/>
<feOffset dy="2.89675"/>
<feGaussianBlur stdDeviation="1.44838"/>
<feComposite in2="hardAlpha" operator="out"/>
<feColorMatrix type="matrix" values="0 0 0 0 0 0 0 0 0 0 0 0 0 0 0 0 0 0 0.1 0"/>
<feBlend mode="normal" in2="BackgroundImageFix" result="effect1_dropShadow_9_76"/>
<feBlend mode="normal" in="SourceGraphic" in2="effect1_dropShadow_9_76" result="shape"/>
</filter>
</defs>
</svg>
