<svg width="393" height="852" viewBox="0 0 393 852" fill="none" xmlns="http://www.w3.org/2000/svg">
<g clip-path="url(#clip0_9_217)">
<rect width="393" height="852" fill="white"/>
<path d="M-184 309.5C-290.8 308.7 -372.5 239.833 -400 205.5V-5.5L792.5 -10.5L812.5 313C847.5 296.5 881.4 281.8 737 355C556.5 446.5 400 272.5 168 226C68.1068 205.978 -94 310.174 -184 309.5Z" fill="#A483F2"/>
<path d="M-202.485 265.451C-317.451 264.675 -405.397 197.863 -435 164.554V-40.1492L848.674 -45L870.203 268.847C907.879 252.839 944.371 238.578 788.931 309.593C594.63 398.363 426.165 229.555 176.427 184.443C68.8966 165.018 -105.604 266.105 -202.485 265.451Z" fill="url(#paint0_linear_9_217)"/>
<path d="M148.824 98.468C147.12 98.468 145.518 98.132 144.018 97.46C142.518 96.776 141.198 95.834 140.058 94.634C138.93 93.434 138.042 92.048 137.394 90.476C136.758 88.892 136.44 87.2 136.44 85.4C136.44 83.588 136.758 81.896 137.394 80.324C138.042 78.74 138.93 77.354 140.058 76.166C141.198 74.966 142.518 74.03 144.018 73.358C145.518 72.674 147.12 72.332 148.824 72.332C150.864 72.332 152.742 72.806 154.458 73.754C156.174 74.69 157.596 75.944 158.724 77.516L154.8 79.622C154.092 78.746 153.21 78.044 152.154 77.516C151.11 76.988 150 76.724 148.824 76.724C147.72 76.724 146.682 76.952 145.71 77.408C144.738 77.852 143.886 78.476 143.154 79.28C142.422 80.072 141.852 80.996 141.444 82.052C141.036 83.096 140.832 84.212 140.832 85.4C140.832 86.6 141.036 87.722 141.444 88.766C141.864 89.81 142.44 90.734 143.172 91.538C143.904 92.33 144.75 92.954 145.71 93.41C146.682 93.854 147.72 94.076 148.824 94.076C150.024 94.076 151.14 93.812 152.172 93.284C153.216 92.744 154.092 92.036 154.8 91.16L158.724 93.284C157.596 94.844 156.174 96.098 154.458 97.046C152.742 97.994 150.864 98.468 148.824 98.468ZM161.998 98L161.98 80H166.372L166.39 81.602C167.002 80.954 167.734 80.444 168.586 80.072C169.438 79.688 170.356 79.496 171.34 79.496C172 79.496 172.66 79.592 173.32 79.784L171.592 84.212C171.136 84.032 170.68 83.942 170.224 83.942C169.516 83.942 168.868 84.116 168.28 84.464C167.704 84.8 167.242 85.262 166.894 85.85C166.558 86.426 166.39 87.068 166.39 87.776V98H161.998ZM182.416 98.468C180.76 98.468 179.248 98.042 177.88 97.19C176.524 96.338 175.438 95.192 174.622 93.752C173.818 92.312 173.416 90.722 173.416 88.982C173.416 87.674 173.65 86.45 174.118 85.31C174.586 84.158 175.228 83.15 176.044 82.286C176.872 81.41 177.832 80.726 178.924 80.234C180.016 79.742 181.18 79.496 182.416 79.496C183.82 79.496 185.104 79.796 186.268 80.396C187.444 80.984 188.44 81.794 189.256 82.826C190.072 83.858 190.666 85.034 191.038 86.354C191.41 87.674 191.494 89.054 191.29 90.494H178.132C178.3 91.166 178.576 91.772 178.96 92.312C179.344 92.84 179.83 93.266 180.418 93.59C181.006 93.902 181.672 94.064 182.416 94.076C183.184 94.088 183.88 93.908 184.504 93.536C185.14 93.152 185.668 92.636 186.088 91.988L190.57 93.032C189.838 94.628 188.746 95.936 187.294 96.956C185.842 97.964 184.216 98.468 182.416 98.468ZM177.988 87.2H186.844C186.712 86.48 186.43 85.832 185.998 85.256C185.578 84.668 185.056 84.2 184.432 83.852C183.808 83.504 183.136 83.33 182.416 83.33C181.696 83.33 181.03 83.504 180.418 83.852C179.806 84.188 179.284 84.65 178.852 85.238C178.432 85.814 178.144 86.468 177.988 87.2ZM207.897 71H212.289V98H207.897V95.75C207.321 96.554 206.595 97.208 205.719 97.712C204.843 98.216 203.829 98.468 202.677 98.468C201.369 98.468 200.145 98.222 199.005 97.73C197.865 97.238 196.857 96.56 195.981 95.696C195.117 94.82 194.439 93.812 193.947 92.672C193.455 91.532 193.209 90.308 193.209 89C193.209 87.692 193.455 86.468 193.947 85.328C194.439 84.188 195.117 83.186 195.981 82.322C196.857 81.446 197.865 80.762 199.005 80.27C200.145 79.778 201.369 79.532 202.677 79.532C203.829 79.532 204.843 79.784 205.719 80.288C206.595 80.78 207.321 81.434 207.897 82.25V71ZM202.731 94.238C203.667 94.238 204.495 94.004 205.215 93.536C205.935 93.068 206.499 92.438 206.907 91.646C207.315 90.842 207.519 89.96 207.519 89C207.519 88.028 207.315 87.146 206.907 86.354C206.499 85.55 205.929 84.914 205.197 84.446C204.477 83.978 203.655 83.744 202.731 83.744C201.807 83.744 200.961 83.984 200.193 84.464C199.437 84.932 198.831 85.562 198.375 86.354C197.931 87.146 197.709 88.028 197.709 89C197.709 89.972 197.937 90.854 198.393 91.646C198.849 92.438 199.455 93.068 200.211 93.536C200.979 94.004 201.819 94.238 202.731 94.238ZM216.613 80H221.005V98H216.613V80ZM218.845 77.678C218.197 77.678 217.651 77.468 217.207 77.048C216.763 76.616 216.541 76.076 216.541 75.428C216.541 74.792 216.763 74.258 217.207 73.826C217.651 73.394 218.191 73.178 218.827 73.178C219.463 73.178 219.997 73.394 220.429 73.826C220.873 74.258 221.095 74.792 221.095 75.428C221.095 76.076 220.879 76.616 220.447 77.048C220.015 77.468 219.481 77.678 218.845 77.678ZM230.426 76.22V80H235.34V84.392H230.426V98H226.034V84.392H224.072V80H226.034V76.22C226.034 75.188 226.286 74.246 226.79 73.394C227.306 72.53 227.996 71.846 228.86 71.342C229.724 70.826 230.678 70.568 231.722 70.568C232.478 70.568 233.228 70.724 233.972 71.036C234.716 71.348 235.376 71.828 235.952 72.476L232.784 75.572C232.676 75.368 232.52 75.218 232.316 75.122C232.124 75.014 231.926 74.96 231.722 74.96C231.374 74.96 231.068 75.086 230.804 75.338C230.552 75.578 230.426 75.872 230.426 76.22ZM250.336 80H254.998L245.152 107H240.49L243.748 98L237.268 80H242.074L245.944 91.988L250.336 80Z" fill="white"/>
<path d="M86.4723 450H85.0243L81.3523 444.968L80.4003 446.112V450H79.2803V438.8H80.4003V444.368L85.0643 438.8H86.5283L82.0883 444.088L86.4723 450ZM90.7534 450.208C90.0174 450.208 89.3454 450.019 88.7374 449.64C88.1348 449.261 87.6521 448.755 87.2894 448.12C86.9321 447.48 86.7534 446.773 86.7534 446C86.7534 445.413 86.8574 444.867 87.0654 444.36C87.2734 443.848 87.5588 443.4 87.9214 443.016C88.2894 442.627 88.7161 442.323 89.2014 442.104C89.6868 441.885 90.2041 441.776 90.7534 441.776C91.3454 441.776 91.8894 441.893 92.3854 442.128C92.8868 442.363 93.3161 442.691 93.6734 443.112C94.0361 443.533 94.3081 444.027 94.4894 444.592C94.6761 445.157 94.7534 445.768 94.7214 446.424H87.9374C88.0014 446.931 88.1614 447.384 88.4174 447.784C88.6788 448.184 89.0094 448.501 89.4094 448.736C89.8148 448.965 90.2628 449.083 90.7534 449.088C91.2868 449.088 91.7668 448.949 92.1934 448.672C92.6254 448.395 92.9721 448.013 93.2334 447.528L94.3694 447.792C94.0494 448.501 93.5668 449.083 92.9214 449.536C92.2761 449.984 91.5534 450.208 90.7534 450.208ZM87.9054 445.52H93.5934C93.5561 445.024 93.4041 444.571 93.1374 444.16C92.8761 443.744 92.5374 443.413 92.1214 443.168C91.7054 442.917 91.2494 442.792 90.7534 442.792C90.2574 442.792 89.8041 442.915 89.3934 443.16C88.9828 443.4 88.6468 443.728 88.3854 444.144C88.1241 444.555 87.9641 445.013 87.9054 445.52ZM99.5347 450.208C98.7987 450.208 98.1267 450.019 97.5187 449.64C96.916 449.261 96.4334 448.755 96.0707 448.12C95.7134 447.48 95.5347 446.773 95.5347 446C95.5347 445.413 95.6387 444.867 95.8467 444.36C96.0547 443.848 96.34 443.4 96.7027 443.016C97.0707 442.627 97.4974 442.323 97.9827 442.104C98.468 441.885 98.9854 441.776 99.5347 441.776C100.127 441.776 100.671 441.893 101.167 442.128C101.668 442.363 102.097 442.691 102.455 443.112C102.817 443.533 103.089 444.027 103.271 444.592C103.457 445.157 103.535 445.768 103.503 446.424H96.7187C96.7827 446.931 96.9427 447.384 97.1987 447.784C97.46 448.184 97.7907 448.501 98.1907 448.736C98.596 448.965 99.044 449.083 99.5347 449.088C100.068 449.088 100.548 448.949 100.975 448.672C101.407 448.395 101.753 448.013 102.015 447.528L103.151 447.792C102.831 448.501 102.348 449.083 101.703 449.536C101.057 449.984 100.335 450.208 99.5347 450.208ZM96.6867 445.52H102.375C102.337 445.024 102.185 444.571 101.919 444.16C101.657 443.744 101.319 443.413 100.903 443.168C100.487 442.917 100.031 442.792 99.5347 442.792C99.0387 442.792 98.5854 442.915 98.1747 443.16C97.764 443.4 97.428 443.728 97.1667 444.144C96.9054 444.555 96.7454 445.013 96.6867 445.52ZM105.994 454H104.874V442H105.994V443.496C106.271 442.989 106.65 442.579 107.13 442.264C107.61 441.949 108.181 441.792 108.842 441.792C109.423 441.792 109.967 441.901 110.474 442.12C110.986 442.339 111.434 442.643 111.818 443.032C112.202 443.416 112.503 443.861 112.722 444.368C112.941 444.875 113.05 445.419 113.05 446C113.05 446.581 112.941 447.128 112.722 447.64C112.503 448.152 112.202 448.603 111.818 448.992C111.434 449.376 110.986 449.677 110.474 449.896C109.967 450.115 109.423 450.224 108.842 450.224C108.181 450.224 107.61 450.067 107.13 449.752C106.65 449.437 106.271 449.027 105.994 448.52V454ZM108.834 442.88C108.274 442.88 107.786 443.021 107.37 443.304C106.959 443.581 106.642 443.955 106.418 444.424C106.194 444.893 106.082 445.419 106.082 446C106.082 446.571 106.191 447.093 106.41 447.568C106.634 448.043 106.951 448.421 107.362 448.704C107.778 448.987 108.269 449.128 108.834 449.128C109.389 449.128 109.898 448.989 110.362 448.712C110.831 448.435 111.207 448.061 111.49 447.592C111.773 447.117 111.914 446.587 111.914 446C111.914 445.429 111.775 444.909 111.498 444.44C111.221 443.965 110.85 443.587 110.386 443.304C109.922 443.021 109.405 442.88 108.834 442.88ZM122.415 443.12H120.503L120.495 450H119.375L119.383 443.12H117.935V442H119.383L119.375 439.488H120.495L120.503 442H122.415V443.12ZM123.843 450V442H124.963V443.104C125.245 442.699 125.613 442.376 126.067 442.136C126.52 441.896 127.013 441.776 127.547 441.776C127.856 441.776 128.155 441.816 128.443 441.896L127.987 443.008C127.763 442.939 127.544 442.904 127.331 442.904C126.899 442.904 126.501 443.011 126.139 443.224C125.781 443.437 125.496 443.723 125.283 444.08C125.069 444.437 124.963 444.835 124.963 445.272V450H123.843ZM135.606 442H136.726V450H135.606L135.566 448.512C135.305 449.019 134.94 449.429 134.47 449.744C134.001 450.053 133.441 450.208 132.79 450.208C132.204 450.208 131.654 450.099 131.142 449.88C130.63 449.656 130.18 449.349 129.79 448.96C129.401 448.571 129.097 448.12 128.878 447.608C128.66 447.096 128.55 446.547 128.55 445.96C128.55 445.384 128.657 444.843 128.87 444.336C129.089 443.829 129.388 443.384 129.766 443C130.15 442.616 130.593 442.317 131.094 442.104C131.601 441.885 132.142 441.776 132.718 441.776C133.385 441.776 133.966 441.936 134.462 442.256C134.958 442.571 135.353 442.984 135.646 443.496L135.606 442ZM132.766 449.12C133.337 449.12 133.828 448.981 134.238 448.704C134.649 448.421 134.964 448.043 135.182 447.568C135.406 447.093 135.518 446.571 135.518 446C135.518 445.413 135.406 444.885 135.182 444.416C134.958 443.941 134.641 443.565 134.23 443.288C133.82 443.011 133.332 442.872 132.766 442.872C132.201 442.872 131.684 443.013 131.214 443.296C130.75 443.573 130.38 443.949 130.102 444.424C129.83 444.899 129.694 445.424 129.694 446C129.694 446.581 129.836 447.109 130.118 447.584C130.401 448.053 130.774 448.427 131.238 448.704C131.708 448.981 132.217 449.12 132.766 449.12ZM143.883 447.992L144.883 448.536C144.52 449.043 144.059 449.448 143.499 449.752C142.944 450.056 142.342 450.208 141.691 450.208C140.955 450.208 140.283 450.019 139.675 449.64C139.072 449.261 138.59 448.755 138.227 448.12C137.87 447.48 137.691 446.773 137.691 446C137.691 445.413 137.795 444.867 138.003 444.36C138.211 443.848 138.496 443.4 138.859 443.016C139.227 442.627 139.654 442.323 140.139 442.104C140.624 441.885 141.142 441.776 141.691 441.776C142.342 441.776 142.944 441.928 143.499 442.232C144.059 442.536 144.52 442.944 144.883 443.456L143.883 443.992C143.606 443.64 143.272 443.371 142.883 443.184C142.494 442.992 142.096 442.896 141.691 442.896C141.152 442.896 140.664 443.04 140.227 443.328C139.79 443.611 139.443 443.987 139.187 444.456C138.936 444.925 138.811 445.44 138.811 446C138.811 446.56 138.939 447.075 139.195 447.544C139.456 448.013 139.806 448.389 140.243 448.672C140.68 448.949 141.163 449.088 141.691 449.088C142.128 449.088 142.539 448.987 142.923 448.784C143.307 448.581 143.627 448.317 143.883 447.992ZM152.466 450H151.178L148.938 446.136L147.338 448.048V450H146.218V438H147.338V446.304L150.946 442H152.41L149.698 445.224L152.466 450ZM161.441 450.208C160.705 450.208 160.033 450.019 159.425 449.64C158.822 449.261 158.34 448.755 157.977 448.12C157.62 447.48 157.441 446.773 157.441 446C157.441 445.413 157.545 444.867 157.753 444.36C157.961 443.848 158.246 443.4 158.609 443.016C158.977 442.627 159.404 442.323 159.889 442.104C160.374 441.885 160.892 441.776 161.441 441.776C162.177 441.776 162.846 441.965 163.449 442.344C164.057 442.723 164.54 443.232 164.897 443.872C165.26 444.512 165.441 445.221 165.441 446C165.441 446.581 165.337 447.125 165.129 447.632C164.921 448.139 164.633 448.587 164.265 448.976C163.902 449.36 163.478 449.661 162.993 449.88C162.513 450.099 161.996 450.208 161.441 450.208ZM161.441 449.088C161.985 449.088 162.473 448.947 162.905 448.664C163.342 448.376 163.686 447.997 163.937 447.528C164.193 447.059 164.321 446.549 164.321 446C164.321 445.44 164.193 444.925 163.937 444.456C163.681 443.981 163.334 443.603 162.897 443.32C162.465 443.037 161.98 442.896 161.441 442.896C160.897 442.896 160.406 443.04 159.969 443.328C159.537 443.611 159.193 443.987 158.937 444.456C158.686 444.925 158.561 445.44 158.561 446C158.561 446.576 158.692 447.099 158.953 447.568C159.214 448.032 159.564 448.403 160.001 448.68C160.438 448.952 160.918 449.088 161.441 449.088ZM168.53 439.912V442H170.93V443.12H168.53V450H167.41V443.12H166.314V442H167.41V439.912C167.41 439.523 167.503 439.171 167.69 438.856C167.882 438.536 168.138 438.283 168.458 438.096C168.778 437.904 169.133 437.808 169.522 437.808C169.805 437.808 170.077 437.864 170.338 437.976C170.605 438.088 170.842 438.253 171.05 438.472L170.25 439.264C170.165 439.157 170.055 439.075 169.922 439.016C169.794 438.957 169.661 438.928 169.522 438.928C169.25 438.928 169.015 439.024 168.818 439.216C168.626 439.408 168.53 439.64 168.53 439.912ZM181.542 442H182.726L178.35 454H177.158L178.614 450L175.742 442H176.966L179.174 448.456L181.542 442ZM187.363 450.208C186.627 450.208 185.955 450.019 185.347 449.64C184.744 449.261 184.261 448.755 183.899 448.12C183.541 447.48 183.363 446.773 183.363 446C183.363 445.413 183.467 444.867 183.675 444.36C183.883 443.848 184.168 443.4 184.531 443.016C184.899 442.627 185.325 442.323 185.811 442.104C186.296 441.885 186.813 441.776 187.363 441.776C188.099 441.776 188.768 441.965 189.371 442.344C189.979 442.723 190.461 443.232 190.819 443.872C191.181 444.512 191.363 445.221 191.363 446C191.363 446.581 191.259 447.125 191.051 447.632C190.843 448.139 190.555 448.587 190.187 448.976C189.824 449.36 189.4 449.661 188.915 449.88C188.435 450.099 187.917 450.208 187.363 450.208ZM187.363 449.088C187.907 449.088 188.395 448.947 188.827 448.664C189.264 448.376 189.608 447.997 189.859 447.528C190.115 447.059 190.243 446.549 190.243 446C190.243 445.44 190.115 444.925 189.859 444.456C189.603 443.981 189.256 443.603 188.819 443.32C188.387 443.037 187.901 442.896 187.363 442.896C186.819 442.896 186.328 443.04 185.891 443.328C185.459 443.611 185.115 443.987 184.859 444.456C184.608 444.925 184.483 445.44 184.483 446C184.483 446.576 184.613 447.099 184.875 447.568C185.136 448.032 185.485 448.403 185.923 448.68C186.36 448.952 186.84 449.088 187.363 449.088ZM192.32 446.936V442H193.44V446.712C193.44 447.149 193.546 447.547 193.76 447.904C193.973 448.261 194.258 448.547 194.616 448.76C194.978 448.973 195.376 449.08 195.808 449.08C196.245 449.08 196.64 448.973 196.992 448.76C197.349 448.547 197.634 448.261 197.848 447.904C198.061 447.547 198.168 447.149 198.168 446.712V442H199.288L199.296 450H198.176L198.168 448.88C197.885 449.285 197.517 449.608 197.064 449.848C196.616 450.088 196.125 450.208 195.592 450.208C194.989 450.208 194.44 450.061 193.944 449.768C193.448 449.475 193.053 449.08 192.76 448.584C192.466 448.088 192.32 447.539 192.32 446.936ZM200.89 450V442H202.01V443.104C202.292 442.699 202.66 442.376 203.114 442.136C203.567 441.896 204.06 441.776 204.594 441.776C204.903 441.776 205.202 441.816 205.49 441.896L205.034 443.008C204.81 442.939 204.591 442.904 204.378 442.904C203.946 442.904 203.548 443.011 203.186 443.224C202.828 443.437 202.543 443.723 202.33 444.08C202.116 444.437 202.01 444.835 202.01 445.272V450H200.89ZM216.164 447.992L217.164 448.536C216.802 449.043 216.34 449.448 215.78 449.752C215.226 450.056 214.623 450.208 213.972 450.208C213.236 450.208 212.564 450.019 211.956 449.64C211.354 449.261 210.871 448.755 210.508 448.12C210.151 447.48 209.972 446.773 209.972 446C209.972 445.413 210.076 444.867 210.284 444.36C210.492 443.848 210.778 443.4 211.14 443.016C211.508 442.627 211.935 442.323 212.42 442.104C212.906 441.885 213.423 441.776 213.972 441.776C214.623 441.776 215.226 441.928 215.78 442.232C216.34 442.536 216.802 442.944 217.164 443.456L216.164 443.992C215.887 443.64 215.554 443.371 215.164 443.184C214.775 442.992 214.378 442.896 213.972 442.896C213.434 442.896 212.946 443.04 212.508 443.328C212.071 443.611 211.724 443.987 211.468 444.456C211.218 444.925 211.092 445.44 211.092 446C211.092 446.56 211.22 447.075 211.476 447.544C211.738 448.013 212.087 448.389 212.524 448.672C212.962 448.949 213.444 449.088 213.972 449.088C214.41 449.088 214.82 448.987 215.204 448.784C215.588 448.581 215.908 448.317 216.164 447.992ZM218.608 450V442H219.728V443.104C220.011 442.699 220.379 442.376 220.832 442.136C221.286 441.896 221.779 441.776 222.312 441.776C222.622 441.776 222.92 441.816 223.208 441.896L222.752 443.008C222.528 442.939 222.31 442.904 222.096 442.904C221.664 442.904 221.267 443.011 220.904 443.224C220.547 443.437 220.262 443.723 220.048 444.08C219.835 444.437 219.728 444.835 219.728 445.272V450H218.608ZM227.316 450.208C226.58 450.208 225.908 450.019 225.3 449.64C224.697 449.261 224.215 448.755 223.852 448.12C223.495 447.48 223.316 446.773 223.316 446C223.316 445.413 223.42 444.867 223.628 444.36C223.836 443.848 224.121 443.4 224.484 443.016C224.852 442.627 225.279 442.323 225.764 442.104C226.249 441.885 226.767 441.776 227.316 441.776C227.908 441.776 228.452 441.893 228.948 442.128C229.449 442.363 229.879 442.691 230.236 443.112C230.599 443.533 230.871 444.027 231.052 444.592C231.239 445.157 231.316 445.768 231.284 446.424H224.5C224.564 446.931 224.724 447.384 224.98 447.784C225.241 448.184 225.572 448.501 225.972 448.736C226.377 448.965 226.825 449.083 227.316 449.088C227.849 449.088 228.329 448.949 228.756 448.672C229.188 448.395 229.535 448.013 229.796 447.528L230.932 447.792C230.612 448.501 230.129 449.083 229.484 449.536C228.839 449.984 228.116 450.208 227.316 450.208ZM224.468 445.52H230.156C230.119 445.024 229.967 444.571 229.7 444.16C229.439 443.744 229.1 443.413 228.684 443.168C228.268 442.917 227.812 442.792 227.316 442.792C226.82 442.792 226.367 442.915 225.956 443.16C225.545 443.4 225.209 443.728 224.948 444.144C224.687 444.555 224.527 445.013 224.468 445.52ZM239.161 438H240.281V450H239.161V448.504C238.884 449.016 238.503 449.429 238.017 449.744C237.537 450.053 236.967 450.208 236.305 450.208C235.724 450.208 235.18 450.099 234.673 449.88C234.167 449.661 233.719 449.36 233.329 448.976C232.945 448.587 232.644 448.139 232.425 447.632C232.207 447.125 232.097 446.581 232.097 446C232.097 445.419 232.207 444.875 232.425 444.368C232.644 443.856 232.945 443.408 233.329 443.024C233.719 442.635 234.167 442.331 234.673 442.112C235.18 441.893 235.724 441.784 236.305 441.784C236.967 441.784 237.537 441.941 238.017 442.256C238.503 442.565 238.884 442.973 239.161 443.48V438ZM236.313 449.12C236.884 449.12 237.375 448.981 237.785 448.704C238.196 448.421 238.511 448.043 238.729 447.568C238.953 447.093 239.065 446.571 239.065 446C239.065 445.413 238.953 444.885 238.729 444.416C238.505 443.941 238.188 443.565 237.777 443.288C237.367 443.011 236.879 442.872 236.313 442.872C235.748 442.872 235.233 443.013 234.769 443.296C234.305 443.573 233.935 443.949 233.657 444.424C233.38 444.899 233.241 445.424 233.241 446C233.241 446.581 233.383 447.109 233.665 447.584C233.948 448.053 234.321 448.427 234.785 448.704C235.255 448.981 235.764 449.12 236.313 449.12ZM242.202 442H243.322V450H242.202V442ZM242.77 440.6C242.589 440.6 242.434 440.541 242.306 440.424C242.184 440.301 242.122 440.149 242.122 439.968C242.122 439.787 242.184 439.637 242.306 439.52C242.434 439.397 242.589 439.336 242.77 439.336C242.946 439.336 243.096 439.397 243.218 439.52C243.346 439.637 243.41 439.787 243.41 439.968C243.41 440.149 243.349 440.301 243.226 440.424C243.104 440.541 242.952 440.6 242.77 440.6ZM249.337 443.12H247.425L247.417 450H246.297L246.305 443.12H244.857V442H246.305L246.297 439.488H247.417L247.425 442H249.337V443.12ZM254.608 450V438H255.728V450H254.608ZM257.655 442H258.775V450H257.655V442ZM258.223 440.6C258.042 440.6 257.887 440.541 257.759 440.424C257.637 440.301 257.575 440.149 257.575 439.968C257.575 439.787 257.637 439.637 257.759 439.52C257.887 439.397 258.042 439.336 258.223 439.336C258.399 439.336 258.549 439.397 258.671 439.52C258.799 439.637 258.863 439.787 258.863 439.968C258.863 440.149 258.802 440.301 258.679 440.424C258.557 440.541 258.405 440.6 258.223 440.6ZM260.671 450V442H261.791V443.104C262.079 442.699 262.447 442.376 262.895 442.136C263.343 441.896 263.834 441.776 264.367 441.776C264.97 441.776 265.522 441.925 266.023 442.224C266.524 442.517 266.916 442.909 267.199 443.4C267.482 442.909 267.871 442.517 268.367 442.224C268.863 441.925 269.412 441.776 270.015 441.776C270.618 441.776 271.167 441.923 271.663 442.216C272.159 442.509 272.554 442.904 272.847 443.4C273.14 443.896 273.287 444.445 273.287 445.048V450H272.167V445.296C272.167 444.869 272.063 444.475 271.855 444.112C271.647 443.749 271.367 443.459 271.015 443.24C270.668 443.016 270.282 442.904 269.855 442.904C269.428 442.904 269.039 443.008 268.687 443.216C268.34 443.419 268.063 443.701 267.855 444.064C267.647 444.421 267.543 444.832 267.543 445.296V450H266.423V445.296C266.423 444.832 266.319 444.421 266.111 444.064C265.903 443.701 265.623 443.419 265.271 443.216C264.919 443.008 264.53 442.904 264.103 442.904C263.682 442.904 263.295 443.016 262.943 443.24C262.591 443.459 262.311 443.749 262.103 444.112C261.895 444.475 261.791 444.869 261.791 445.296V450H260.671ZM274.89 442H276.01V450H274.89V442ZM275.458 440.6C275.276 440.6 275.122 440.541 274.994 440.424C274.871 440.301 274.81 440.149 274.81 439.968C274.81 439.787 274.871 439.637 274.994 439.52C275.122 439.397 275.276 439.336 275.458 439.336C275.634 439.336 275.783 439.397 275.906 439.52C276.034 439.637 276.098 439.787 276.098 439.968C276.098 440.149 276.036 440.301 275.914 440.424C275.791 440.541 275.639 440.6 275.458 440.6ZM282.025 443.12H280.113L280.105 450H278.985L278.993 443.12H277.545V442H278.993L278.985 439.488H280.105L280.113 442H282.025V443.12ZM293.872 442H294.992V450H293.872L293.832 448.512C293.571 449.019 293.205 449.429 292.736 449.744C292.267 450.053 291.707 450.208 291.056 450.208C290.469 450.208 289.92 450.099 289.408 449.88C288.896 449.656 288.445 449.349 288.056 448.96C287.667 448.571 287.363 448.12 287.144 447.608C286.925 447.096 286.816 446.547 286.816 445.96C286.816 445.384 286.923 444.843 287.136 444.336C287.355 443.829 287.653 443.384 288.032 443C288.416 442.616 288.859 442.317 289.36 442.104C289.867 441.885 290.408 441.776 290.984 441.776C291.651 441.776 292.232 441.936 292.728 442.256C293.224 442.571 293.619 442.984 293.912 443.496L293.872 442ZM291.032 449.12C291.603 449.12 292.093 448.981 292.504 448.704C292.915 448.421 293.229 448.043 293.448 447.568C293.672 447.093 293.784 446.571 293.784 446C293.784 445.413 293.672 444.885 293.448 444.416C293.224 443.941 292.907 443.565 292.496 443.288C292.085 443.011 291.597 442.872 291.032 442.872C290.467 442.872 289.949 443.013 289.48 443.296C289.016 443.573 288.645 443.949 288.368 444.424C288.096 444.899 287.96 445.424 287.96 446C287.96 446.581 288.101 447.109 288.384 447.584C288.667 448.053 289.04 448.427 289.504 448.704C289.973 448.981 290.483 449.12 291.032 449.12ZM303.569 445.048V450H302.449V445.272C302.449 444.835 302.342 444.437 302.129 444.08C301.915 443.723 301.63 443.437 301.273 443.224C300.915 443.011 300.518 442.904 300.081 442.904C299.649 442.904 299.251 443.011 298.889 443.224C298.531 443.437 298.246 443.723 298.033 444.08C297.819 444.437 297.713 444.835 297.713 445.272V450H296.593V442H297.713V443.104C297.995 442.699 298.363 442.376 298.817 442.136C299.27 441.896 299.763 441.776 300.297 441.776C300.899 441.776 301.449 441.923 301.945 442.216C302.441 442.509 302.835 442.904 303.129 443.4C303.422 443.896 303.569 444.445 303.569 445.048ZM311.599 438H312.719V450H311.599V448.504C311.321 449.016 310.94 449.429 310.455 449.744C309.975 450.053 309.404 450.208 308.743 450.208C308.161 450.208 307.617 450.099 307.111 449.88C306.604 449.661 306.156 449.36 305.767 448.976C305.383 448.587 305.081 448.139 304.863 447.632C304.644 447.125 304.535 446.581 304.535 446C304.535 445.419 304.644 444.875 304.863 444.368C305.081 443.856 305.383 443.408 305.767 443.024C306.156 442.635 306.604 442.331 307.111 442.112C307.617 441.893 308.161 441.784 308.743 441.784C309.404 441.784 309.975 441.941 310.455 442.256C310.94 442.565 311.321 442.973 311.599 443.48V438ZM308.751 449.12C309.321 449.12 309.812 448.981 310.223 448.704C310.633 448.421 310.948 448.043 311.167 447.568C311.391 447.093 311.503 446.571 311.503 446C311.503 445.413 311.391 444.885 311.167 444.416C310.943 443.941 310.625 443.565 310.215 443.288C309.804 443.011 309.316 442.872 308.751 442.872C308.185 442.872 307.671 443.013 307.207 443.296C306.743 443.573 306.372 443.949 306.095 444.424C305.817 444.899 305.679 445.424 305.679 446C305.679 446.581 305.82 447.109 306.103 447.584C306.385 448.053 306.759 448.427 307.223 448.704C307.692 448.981 308.201 449.12 308.751 449.12ZM79.3506 469V461H80.4706V462.104C80.7586 461.699 81.1266 461.376 81.5746 461.136C82.0226 460.896 82.5133 460.776 83.0466 460.776C83.6493 460.776 84.2013 460.925 84.7026 461.224C85.204 461.517 85.596 461.909 85.8786 462.4C86.1613 461.909 86.5506 461.517 87.0466 461.224C87.5426 460.925 88.092 460.776 88.6946 460.776C89.2973 460.776 89.8466 460.923 90.3426 461.216C90.8386 461.509 91.2333 461.904 91.5266 462.4C91.82 462.896 91.9666 463.445 91.9666 464.048V469H90.8466V464.296C90.8466 463.869 90.7426 463.475 90.5346 463.112C90.3266 462.749 90.0466 462.459 89.6946 462.24C89.348 462.016 88.9613 461.904 88.5346 461.904C88.108 461.904 87.7186 462.008 87.3666 462.216C87.02 462.419 86.7426 462.701 86.5346 463.064C86.3266 463.421 86.2226 463.832 86.2226 464.296V469H85.1026V464.296C85.1026 463.832 84.9986 463.421 84.7906 463.064C84.5826 462.701 84.3026 462.419 83.9506 462.216C83.5986 462.008 83.2093 461.904 82.7826 461.904C82.3613 461.904 81.9746 462.016 81.6226 462.24C81.2706 462.459 80.9906 462.749 80.7826 463.112C80.5746 463.475 80.4706 463.869 80.4706 464.296V469H79.3506ZM99.9891 461H101.109V469H99.9891L99.9491 467.512C99.6878 468.019 99.3225 468.429 98.8531 468.744C98.3838 469.053 97.8238 469.208 97.1731 469.208C96.5865 469.208 96.0371 469.099 95.5251 468.88C95.0131 468.656 94.5625 468.349 94.1731 467.96C93.7838 467.571 93.4798 467.12 93.2611 466.608C93.0425 466.096 92.9331 465.547 92.9331 464.96C92.9331 464.384 93.0398 463.843 93.2531 463.336C93.4718 462.829 93.7705 462.384 94.1491 462C94.5331 461.616 94.9758 461.317 95.4771 461.104C95.9838 460.885 96.5251 460.776 97.1011 460.776C97.7678 460.776 98.3491 460.936 98.8451 461.256C99.3411 461.571 99.7358 461.984 100.029 462.496L99.9891 461ZM97.1491 468.12C97.7198 468.12 98.2105 467.981 98.6211 467.704C99.0318 467.421 99.3465 467.043 99.5651 466.568C99.7891 466.093 99.9011 465.571 99.9011 465C99.9011 464.413 99.7891 463.885 99.5651 463.416C99.3411 462.941 99.0238 462.565 98.6131 462.288C98.2025 462.011 97.7145 461.872 97.1491 461.872C96.5838 461.872 96.0665 462.013 95.5971 462.296C95.1331 462.573 94.7625 462.949 94.4851 463.424C94.2131 463.899 94.0771 464.424 94.0771 465C94.0771 465.581 94.2185 466.109 94.5011 466.584C94.7838 467.053 95.1571 467.427 95.6211 467.704C96.0905 467.981 96.5998 468.12 97.1491 468.12ZM102.71 461H103.83V469H102.71V461ZM103.278 459.6C103.097 459.6 102.942 459.541 102.814 459.424C102.691 459.301 102.63 459.149 102.63 458.968C102.63 458.787 102.691 458.637 102.814 458.52C102.942 458.397 103.097 458.336 103.278 458.336C103.454 458.336 103.603 458.397 103.726 458.52C103.854 458.637 103.918 458.787 103.918 458.968C103.918 459.149 103.857 459.301 103.734 459.424C103.611 459.541 103.459 459.6 103.278 459.6ZM112.702 464.048V469H111.582V464.272C111.582 463.835 111.475 463.437 111.262 463.08C111.048 462.723 110.763 462.437 110.406 462.224C110.048 462.011 109.651 461.904 109.214 461.904C108.782 461.904 108.384 462.011 108.022 462.224C107.664 462.437 107.379 462.723 107.166 463.08C106.952 463.437 106.846 463.835 106.846 464.272V469H105.726V461H106.846V462.104C107.128 461.699 107.496 461.376 107.95 461.136C108.403 460.896 108.896 460.776 109.43 460.776C110.032 460.776 110.582 460.923 111.078 461.216C111.574 461.509 111.968 461.904 112.262 462.4C112.555 462.896 112.702 463.445 112.702 464.048ZM118.392 462.12H116.48L116.472 469H115.352L115.36 462.12H113.912V461H115.36L115.352 458.488H116.472L116.48 461H118.392V462.12ZM126.177 461H127.297V469H126.177L126.137 467.512C125.875 468.019 125.51 468.429 125.041 468.744C124.571 469.053 124.011 469.208 123.361 469.208C122.774 469.208 122.225 469.099 121.713 468.88C121.201 468.656 120.75 468.349 120.361 467.96C119.971 467.571 119.667 467.12 119.449 466.608C119.23 466.096 119.121 465.547 119.121 464.96C119.121 464.384 119.227 463.843 119.441 463.336C119.659 462.829 119.958 462.384 120.337 462C120.721 461.616 121.163 461.317 121.665 461.104C122.171 460.885 122.713 460.776 123.289 460.776C123.955 460.776 124.537 460.936 125.033 461.256C125.529 461.571 125.923 461.984 126.217 462.496L126.177 461ZM123.337 468.12C123.907 468.12 124.398 467.981 124.809 467.704C125.219 467.421 125.534 467.043 125.753 466.568C125.977 466.093 126.089 465.571 126.089 465C126.089 464.413 125.977 463.885 125.753 463.416C125.529 462.941 125.211 462.565 124.801 462.288C124.39 462.011 123.902 461.872 123.337 461.872C122.771 461.872 122.254 462.013 121.785 462.296C121.321 462.573 120.95 462.949 120.673 463.424C120.401 463.899 120.265 464.424 120.265 465C120.265 465.581 120.406 466.109 120.689 466.584C120.971 467.053 121.345 467.427 121.809 467.704C122.278 467.981 122.787 468.12 123.337 468.12ZM128.898 461H130.018V469H128.898V461ZM129.466 459.6C129.284 459.6 129.13 459.541 129.002 459.424C128.879 459.301 128.818 459.149 128.818 458.968C128.818 458.787 128.879 458.637 129.002 458.52C129.13 458.397 129.284 458.336 129.466 458.336C129.642 458.336 129.791 458.397 129.914 458.52C130.042 458.637 130.106 458.787 130.106 458.968C130.106 459.149 130.044 459.301 129.922 459.424C129.799 459.541 129.647 459.6 129.466 459.6ZM138.889 464.048V469H137.769V464.272C137.769 463.835 137.662 463.437 137.449 463.08C137.236 462.723 136.95 462.437 136.593 462.224C136.236 462.011 135.838 461.904 135.401 461.904C134.969 461.904 134.572 462.011 134.209 462.224C133.852 462.437 133.566 462.723 133.353 463.08C133.14 463.437 133.033 463.835 133.033 464.272V469H131.913V461H133.033V462.104C133.316 461.699 133.684 461.376 134.137 461.136C134.59 460.896 135.084 460.776 135.617 460.776C136.22 460.776 136.769 460.923 137.265 461.216C137.761 461.509 138.156 461.904 138.449 462.4C138.742 462.896 138.889 463.445 138.889 464.048ZM147.855 469.208C147.119 469.208 146.447 469.019 145.839 468.64C145.236 468.261 144.754 467.755 144.391 467.12C144.034 466.48 143.855 465.773 143.855 465C143.855 464.413 143.959 463.867 144.167 463.36C144.375 462.848 144.66 462.4 145.023 462.016C145.391 461.627 145.818 461.323 146.303 461.104C146.788 460.885 147.306 460.776 147.855 460.776C148.591 460.776 149.26 460.965 149.863 461.344C150.471 461.723 150.954 462.232 151.311 462.872C151.674 463.512 151.855 464.221 151.855 465C151.855 465.581 151.751 466.125 151.543 466.632C151.335 467.139 151.047 467.587 150.679 467.976C150.316 468.36 149.892 468.661 149.407 468.88C148.927 469.099 148.41 469.208 147.855 469.208ZM147.855 468.088C148.399 468.088 148.887 467.947 149.319 467.664C149.756 467.376 150.1 466.997 150.351 466.528C150.607 466.059 150.735 465.549 150.735 465C150.735 464.44 150.607 463.925 150.351 463.456C150.095 462.981 149.748 462.603 149.311 462.32C148.879 462.037 148.394 461.896 147.855 461.896C147.311 461.896 146.82 462.04 146.383 462.328C145.951 462.611 145.607 462.987 145.351 463.456C145.1 463.925 144.975 464.44 144.975 465C144.975 465.576 145.106 466.099 145.367 466.568C145.628 467.032 145.978 467.403 146.415 467.68C146.852 467.952 147.332 468.088 147.855 468.088ZM154.33 473H153.21V461H154.33V462.496C154.607 461.989 154.986 461.579 155.466 461.264C155.946 460.949 156.517 460.792 157.178 460.792C157.759 460.792 158.303 460.901 158.81 461.12C159.322 461.339 159.77 461.643 160.154 462.032C160.538 462.416 160.839 462.861 161.058 463.368C161.277 463.875 161.386 464.419 161.386 465C161.386 465.581 161.277 466.128 161.058 466.64C160.839 467.152 160.538 467.603 160.154 467.992C159.77 468.376 159.322 468.677 158.81 468.896C158.303 469.115 157.759 469.224 157.178 469.224C156.517 469.224 155.946 469.067 155.466 468.752C154.986 468.437 154.607 468.027 154.33 467.52V473ZM157.17 461.88C156.61 461.88 156.122 462.021 155.706 462.304C155.295 462.581 154.978 462.955 154.754 463.424C154.53 463.893 154.418 464.419 154.418 465C154.418 465.571 154.527 466.093 154.746 466.568C154.97 467.043 155.287 467.421 155.698 467.704C156.114 467.987 156.605 468.128 157.17 468.128C157.725 468.128 158.234 467.989 158.698 467.712C159.167 467.435 159.543 467.061 159.826 466.592C160.109 466.117 160.25 465.587 160.25 465C160.25 464.429 160.111 463.909 159.834 463.44C159.557 462.965 159.186 462.587 158.722 462.304C158.258 462.021 157.741 461.88 157.17 461.88ZM166.689 462.12H164.777L164.769 469H163.649L163.657 462.12H162.209V461H163.657L163.649 458.488H164.769L164.777 461H166.689V462.12ZM168.054 461H169.174V469H168.054V461ZM168.622 459.6C168.44 459.6 168.286 459.541 168.158 459.424C168.035 459.301 167.974 459.149 167.974 458.968C167.974 458.787 168.035 458.637 168.158 458.52C168.286 458.397 168.44 458.336 168.622 458.336C168.798 458.336 168.947 458.397 169.07 458.52C169.198 458.637 169.262 458.787 169.262 458.968C169.262 459.149 169.2 459.301 169.078 459.424C168.955 459.541 168.803 459.6 168.622 459.6ZM171.069 469V461H172.189V462.104C172.477 461.699 172.845 461.376 173.293 461.136C173.741 460.896 174.232 460.776 174.765 460.776C175.368 460.776 175.92 460.925 176.421 461.224C176.923 461.517 177.315 461.909 177.597 462.4C177.88 461.909 178.269 461.517 178.765 461.224C179.261 460.925 179.811 460.776 180.413 460.776C181.016 460.776 181.565 460.923 182.061 461.216C182.557 461.509 182.952 461.904 183.245 462.4C183.539 462.896 183.685 463.445 183.685 464.048V469H182.565V464.296C182.565 463.869 182.461 463.475 182.253 463.112C182.045 462.749 181.765 462.459 181.413 462.24C181.067 462.016 180.68 461.904 180.253 461.904C179.827 461.904 179.437 462.008 179.085 462.216C178.739 462.419 178.461 462.701 178.253 463.064C178.045 463.421 177.941 463.832 177.941 464.296V469H176.821V464.296C176.821 463.832 176.717 463.421 176.509 463.064C176.301 462.701 176.021 462.419 175.669 462.216C175.317 462.008 174.928 461.904 174.501 461.904C174.08 461.904 173.693 462.016 173.341 462.24C172.989 462.459 172.709 462.749 172.501 463.112C172.293 463.475 172.189 463.869 172.189 464.296V469H171.069ZM191.708 461H192.828V469H191.708L191.668 467.512C191.407 468.019 191.041 468.429 190.572 468.744C190.103 469.053 189.543 469.208 188.892 469.208C188.305 469.208 187.756 469.099 187.244 468.88C186.732 468.656 186.281 468.349 185.892 467.96C185.503 467.571 185.199 467.12 184.98 466.608C184.761 466.096 184.652 465.547 184.652 464.96C184.652 464.384 184.759 463.843 184.972 463.336C185.191 462.829 185.489 462.384 185.868 462C186.252 461.616 186.695 461.317 187.196 461.104C187.703 460.885 188.244 460.776 188.82 460.776C189.487 460.776 190.068 460.936 190.564 461.256C191.06 461.571 191.455 461.984 191.748 462.496L191.708 461ZM188.868 468.12C189.439 468.12 189.929 467.981 190.34 467.704C190.751 467.421 191.065 467.043 191.284 466.568C191.508 466.093 191.62 465.571 191.62 465C191.62 464.413 191.508 463.885 191.284 463.416C191.06 462.941 190.743 462.565 190.332 462.288C189.921 462.011 189.433 461.872 188.868 461.872C188.303 461.872 187.785 462.013 187.316 462.296C186.852 462.573 186.481 462.949 186.204 463.424C185.932 463.899 185.796 464.424 185.796 465C185.796 465.581 185.937 466.109 186.22 466.584C186.503 467.053 186.876 467.427 187.34 467.704C187.809 467.981 188.319 468.12 188.868 468.12ZM194.538 469V457H195.658V469H194.538ZM207.141 466.992L208.141 467.536C207.778 468.043 207.317 468.448 206.757 468.752C206.202 469.056 205.599 469.208 204.949 469.208C204.213 469.208 203.541 469.019 202.933 468.64C202.33 468.261 201.847 467.755 201.485 467.12C201.127 466.48 200.949 465.773 200.949 465C200.949 464.413 201.053 463.867 201.261 463.36C201.469 462.848 201.754 462.4 202.117 462.016C202.485 461.627 202.911 461.323 203.397 461.104C203.882 460.885 204.399 460.776 204.949 460.776C205.599 460.776 206.202 460.928 206.757 461.232C207.317 461.536 207.778 461.944 208.141 462.456L207.141 462.992C206.863 462.64 206.53 462.371 206.141 462.184C205.751 461.992 205.354 461.896 204.949 461.896C204.41 461.896 203.922 462.04 203.485 462.328C203.047 462.611 202.701 462.987 202.445 463.456C202.194 463.925 202.069 464.44 202.069 465C202.069 465.56 202.197 466.075 202.453 466.544C202.714 467.013 203.063 467.389 203.501 467.672C203.938 467.949 204.421 468.088 204.949 468.088C205.386 468.088 205.797 467.987 206.181 467.784C206.565 467.581 206.885 467.317 207.141 466.992ZM209.585 469V461H210.705V462.104C210.988 461.699 211.356 461.376 211.809 461.136C212.262 460.896 212.756 460.776 213.289 460.776C213.598 460.776 213.897 460.816 214.185 460.896L213.729 462.008C213.505 461.939 213.286 461.904 213.073 461.904C212.641 461.904 212.244 462.011 211.881 462.224C211.524 462.437 211.238 462.723 211.025 463.08C210.812 463.437 210.705 463.835 210.705 464.272V469H209.585ZM218.293 469.208C217.557 469.208 216.885 469.019 216.277 468.64C215.674 468.261 215.191 467.755 214.829 467.12C214.471 466.48 214.293 465.773 214.293 465C214.293 464.413 214.397 463.867 214.605 463.36C214.813 462.848 215.098 462.4 215.461 462.016C215.829 461.627 216.255 461.323 216.741 461.104C217.226 460.885 217.743 460.776 218.293 460.776C218.885 460.776 219.429 460.893 219.925 461.128C220.426 461.363 220.855 461.691 221.213 462.112C221.575 462.533 221.847 463.027 222.029 463.592C222.215 464.157 222.293 464.768 222.26 465.424H215.477C215.541 465.931 215.701 466.384 215.957 466.784C216.218 467.184 216.549 467.501 216.949 467.736C217.354 467.965 217.802 468.083 218.293 468.088C218.826 468.088 219.306 467.949 219.733 467.672C220.165 467.395 220.511 467.013 220.773 466.528L221.909 466.792C221.589 467.501 221.106 468.083 220.461 468.536C219.815 468.984 219.093 469.208 218.293 469.208ZM215.445 464.52H221.133C221.095 464.024 220.943 463.571 220.677 463.16C220.415 462.744 220.077 462.413 219.661 462.168C219.245 461.917 218.789 461.792 218.293 461.792C217.797 461.792 217.343 461.915 216.933 462.16C216.522 462.4 216.186 462.728 215.924 463.144C215.663 463.555 215.503 464.013 215.445 464.52ZM230.138 457H231.258V469H230.138V467.504C229.86 468.016 229.479 468.429 228.994 468.744C228.514 469.053 227.943 469.208 227.282 469.208C226.7 469.208 226.156 469.099 225.65 468.88C225.143 468.661 224.695 468.36 224.306 467.976C223.922 467.587 223.62 467.139 223.402 466.632C223.183 466.125 223.074 465.581 223.074 465C223.074 464.419 223.183 463.875 223.402 463.368C223.62 462.856 223.922 462.408 224.306 462.024C224.695 461.635 225.143 461.331 225.65 461.112C226.156 460.893 226.7 460.784 227.282 460.784C227.943 460.784 228.514 460.941 228.994 461.256C229.479 461.565 229.86 461.973 230.138 462.48V457ZM227.29 468.12C227.86 468.12 228.351 467.981 228.762 467.704C229.172 467.421 229.487 467.043 229.706 466.568C229.93 466.093 230.042 465.571 230.042 465C230.042 464.413 229.93 463.885 229.706 463.416C229.482 462.941 229.164 462.565 228.754 462.288C228.343 462.011 227.855 461.872 227.29 461.872C226.724 461.872 226.21 462.013 225.746 462.296C225.282 462.573 224.911 462.949 224.634 463.424C224.356 463.899 224.218 464.424 224.218 465C224.218 465.581 224.359 466.109 224.642 466.584C224.924 467.053 225.298 467.427 225.762 467.704C226.231 467.981 226.74 468.12 227.29 468.12ZM233.179 461H234.299V469H233.179V461ZM233.747 459.6C233.565 459.6 233.411 459.541 233.283 459.424C233.16 459.301 233.099 459.149 233.099 458.968C233.099 458.787 233.16 458.637 233.283 458.52C233.411 458.397 233.565 458.336 233.747 458.336C233.923 458.336 234.072 458.397 234.195 458.52C234.323 458.637 234.387 458.787 234.387 458.968C234.387 459.149 234.325 459.301 234.203 459.424C234.08 459.541 233.928 459.6 233.747 459.6ZM240.314 462.12H238.402L238.394 469H237.274L237.282 462.12H235.834V461H237.282L237.274 458.488H238.394L238.402 461H240.314V462.12ZM245.265 465.936V461H246.385V465.712C246.385 466.149 246.492 466.547 246.705 466.904C246.918 467.261 247.204 467.547 247.561 467.76C247.924 467.973 248.321 468.08 248.753 468.08C249.19 468.08 249.585 467.973 249.937 467.76C250.294 467.547 250.58 467.261 250.793 466.904C251.006 466.547 251.113 466.149 251.113 465.712V461H252.233L252.241 469H251.121L251.113 467.88C250.83 468.285 250.462 468.608 250.009 468.848C249.561 469.088 249.07 469.208 248.537 469.208C247.934 469.208 247.385 469.061 246.889 468.768C246.393 468.475 245.998 468.08 245.705 467.584C245.412 467.088 245.265 466.539 245.265 465.936ZM257.923 462.12H256.011L256.003 469H254.883L254.891 462.12H253.443V461H254.891L254.883 458.488H256.003L256.011 461H257.923V462.12ZM259.288 461H260.408V469H259.288V461ZM259.856 459.6C259.675 459.6 259.52 459.541 259.392 459.424C259.269 459.301 259.208 459.149 259.208 458.968C259.208 458.787 259.269 458.637 259.392 458.52C259.52 458.397 259.675 458.336 259.856 458.336C260.032 458.336 260.181 458.397 260.304 458.52C260.432 458.637 260.496 458.787 260.496 458.968C260.496 459.149 260.435 459.301 260.312 459.424C260.189 459.541 260.037 459.6 259.856 459.6ZM262.398 469V457H263.518V469H262.398ZM265.444 461H266.564V469H265.444V461ZM266.012 459.6C265.831 459.6 265.676 459.541 265.548 459.424C265.426 459.301 265.364 459.149 265.364 458.968C265.364 458.787 265.426 458.637 265.548 458.52C265.676 458.397 265.831 458.336 266.012 458.336C266.188 458.336 266.338 458.397 266.46 458.52C266.588 458.637 266.652 458.787 266.652 458.968C266.652 459.149 266.591 459.301 266.468 459.424C266.346 459.541 266.194 459.6 266.012 459.6ZM275.003 462.12L269.755 467.88H275.003V469H268.171V467.88L273.419 462.12H268.171V461H275.003V462.12ZM283.099 461H284.219V469H283.099L283.059 467.512C282.797 468.019 282.432 468.429 281.963 468.744C281.493 469.053 280.933 469.208 280.283 469.208C279.696 469.208 279.147 469.099 278.635 468.88C278.123 468.656 277.672 468.349 277.283 467.96C276.893 467.571 276.589 467.12 276.371 466.608C276.152 466.096 276.043 465.547 276.043 464.96C276.043 464.384 276.149 463.843 276.363 463.336C276.581 462.829 276.88 462.384 277.259 462C277.643 461.616 278.085 461.317 278.587 461.104C279.093 460.885 279.635 460.776 280.211 460.776C280.877 460.776 281.459 460.936 281.955 461.256C282.451 461.571 282.845 461.984 283.139 462.496L283.099 461ZM280.259 468.12C280.829 468.12 281.32 467.981 281.731 467.704C282.141 467.421 282.456 467.043 282.675 466.568C282.899 466.093 283.011 465.571 283.011 465C283.011 464.413 282.899 463.885 282.675 463.416C282.451 462.941 282.133 462.565 281.723 462.288C281.312 462.011 280.824 461.872 280.259 461.872C279.693 461.872 279.176 462.013 278.707 462.296C278.243 462.573 277.872 462.949 277.595 463.424C277.323 463.899 277.187 464.424 277.187 465C277.187 465.581 277.328 466.109 277.611 466.584C277.893 467.053 278.267 467.427 278.731 467.704C279.2 467.981 279.709 468.12 280.259 468.12ZM289.907 462.12H287.995L287.987 469H286.867L286.875 462.12H285.427V461H286.875L286.867 458.488H287.987L287.995 461H289.907V462.12ZM291.273 461H292.393V469H291.273V461ZM291.841 459.6C291.659 459.6 291.505 459.541 291.377 459.424C291.254 459.301 291.193 459.149 291.193 458.968C291.193 458.787 291.254 458.637 291.377 458.52C291.505 458.397 291.659 458.336 291.841 458.336C292.017 458.336 292.166 458.397 292.289 458.52C292.417 458.637 292.481 458.787 292.481 458.968C292.481 459.149 292.419 459.301 292.297 459.424C292.174 459.541 292.022 459.6 291.841 459.6ZM297.761 469.208C297.025 469.208 296.353 469.019 295.745 468.64C295.143 468.261 294.66 467.755 294.297 467.12C293.94 466.48 293.761 465.773 293.761 465C293.761 464.413 293.865 463.867 294.073 463.36C294.281 462.848 294.567 462.4 294.929 462.016C295.297 461.627 295.724 461.323 296.209 461.104C296.695 460.885 297.212 460.776 297.761 460.776C298.497 460.776 299.167 460.965 299.769 461.344C300.377 461.723 300.86 462.232 301.217 462.872C301.58 463.512 301.761 464.221 301.761 465C301.761 465.581 301.657 466.125 301.449 466.632C301.241 467.139 300.953 467.587 300.585 467.976C300.223 468.36 299.799 468.661 299.313 468.88C298.833 469.099 298.316 469.208 297.761 469.208ZM297.761 468.088C298.305 468.088 298.793 467.947 299.225 467.664C299.663 467.376 300.007 466.997 300.257 466.528C300.513 466.059 300.641 465.549 300.641 465C300.641 464.44 300.513 463.925 300.257 463.456C300.001 462.981 299.655 462.603 299.217 462.32C298.785 462.037 298.3 461.896 297.761 461.896C297.217 461.896 296.727 462.04 296.289 462.328C295.857 462.611 295.513 462.987 295.257 463.456C295.007 463.925 294.881 464.44 294.881 465C294.881 465.576 295.012 466.099 295.273 466.568C295.535 467.032 295.884 467.403 296.321 467.68C296.759 467.952 297.239 468.088 297.761 468.088ZM310.092 464.048V469H308.972V464.272C308.972 463.835 308.866 463.437 308.652 463.08C308.439 462.723 308.154 462.437 307.796 462.224C307.439 462.011 307.042 461.904 306.604 461.904C306.172 461.904 305.775 462.011 305.412 462.224C305.055 462.437 304.77 462.723 304.556 463.08C304.343 463.437 304.236 463.835 304.236 464.272V469H303.116V461H304.236V462.104C304.519 461.699 304.887 461.376 305.34 461.136C305.794 460.896 306.287 460.776 306.82 460.776C307.423 460.776 307.972 460.923 308.468 461.216C308.964 461.509 309.359 461.904 309.652 462.4C309.946 462.896 310.092 463.445 310.092 464.048ZM312.006 469.208C311.83 469.208 311.681 469.144 311.558 469.016C311.436 468.893 311.374 468.741 311.374 468.56C311.374 468.389 311.436 468.243 311.558 468.12C311.681 467.992 311.83 467.928 312.006 467.928C312.188 467.928 312.34 467.992 312.462 468.12C312.59 468.243 312.654 468.389 312.654 468.56C312.654 468.741 312.59 468.893 312.462 469.016C312.34 469.144 312.188 469.208 312.006 469.208Z" fill="black"/>
<path d="M105.957 91.5893C105.957 93.9787 108.347 97.3067 113.893 97.3067C117.17 97.3067 122 93.808 122 87.7493C122 83.4827 119.269 78.0213 114.32 78.0213C110.139 78.0213 107.067 79.8133 105.957 83.4827C104.848 87.152 103.653 89.712 98.0213 89.712C92.669 89.712 90 85.7867 90 79.8133C90 72.816 94.1813 70 98.0213 70C103.653 70 105.957 74.0107 105.957 75.2053" stroke="white" stroke-width="4.26666"/>
</g>
<defs>
<linearGradient id="paint0_linear_9_217" x1="344.244" y1="-23.7295" x2="184.756" y2="210.229" gradientUnits="userSpaceOnUse">
<stop stop-color="#5F4BF5"/>
<stop offset="1" stop-color="#A483F2"/>
</linearGradient>
<clipPath id="clip0_9_217">
<rect width="393" height="852" fill="white"/>
</clipPath>
</defs>
</svg>
