<svg width="249" height="151" viewBox="0 0 249 151" fill="none" xmlns="http://www.w3.org/2000/svg">
<g filter="url(#filter0_d_9_18)">
<g filter="url(#filter1_d_9_18)">
<rect x="2.97406" width="242.386" height="144.242" rx="11.8963" fill="#333333"/>
</g>
<mask id="mask0_9_18" style="mask-type:alpha" maskUnits="userSpaceOnUse" x="2" y="0" width="244" height="145">
<rect x="2.97406" width="242.386" height="144.242" rx="11.8963" fill="#333333"/>
</mask>
<g mask="url(#mask0_9_18)">
<path d="M277.893 -27.3641C295.37 2.30099 286.844 40.9058 259.938 59.1165C233.031 77.3271 196.846 68.9832 179.369 39.3182C161.892 9.65314 170.418 -28.9516 197.325 -47.1623C224.231 -65.3729 260.416 -57.0291 277.893 -27.3641Z" stroke="url(#paint0_linear_9_18)" stroke-width="26.0231"/>
<ellipse cx="74.6873" cy="72.4962" rx="74.6873" ry="72.4962" transform="matrix(0.507601 0.861592 -0.828153 0.560502 68.7732 38.2522)" fill="url(#paint1_linear_9_18)"/>
<path d="M132.421 125.501V124.615C132.726 124.342 133.069 124.036 133.45 123.699C133.831 123.358 134.209 123.003 134.586 122.634C134.967 122.262 135.316 121.893 135.633 121.528C135.95 121.163 136.206 120.818 136.4 120.493C136.595 120.164 136.692 119.877 136.692 119.631C136.692 119.337 136.62 119.07 136.478 118.828C136.335 118.582 136.142 118.386 135.901 118.239C135.663 118.092 135.397 118.019 135.104 118.019C134.81 118.019 134.54 118.092 134.295 118.239C134.053 118.386 133.858 118.582 133.712 118.828C133.569 119.07 133.498 119.337 133.498 119.631H132.498C132.498 119.143 132.617 118.703 132.855 118.31C133.093 117.914 133.408 117.6 133.801 117.37C134.193 117.136 134.628 117.019 135.104 117.019C135.579 117.019 136.012 117.136 136.4 117.37C136.793 117.604 137.106 117.92 137.34 118.316C137.574 118.709 137.691 119.147 137.691 119.631C137.691 119.908 137.624 120.208 137.489 120.529C137.354 120.846 137.17 121.173 136.936 121.51C136.702 121.847 136.436 122.188 136.139 122.533C135.841 122.874 135.528 123.211 135.199 123.545C134.87 123.878 134.542 124.197 134.217 124.502H137.798V125.501H132.421ZM142.205 125.501V123.253H138.625V122.242L141.956 117.174H143.205V122.254H144.032V123.253H143.205V125.501H142.205ZM139.796 122.242L142.205 122.254L142.188 118.578L139.796 122.242ZM147.698 125.656C147.194 125.656 146.746 125.543 146.354 125.317C145.965 125.087 145.66 124.782 145.437 124.401C145.215 124.016 145.104 123.59 145.104 123.122H146.104C146.104 123.404 146.169 123.662 146.3 123.895C146.431 124.125 146.615 124.31 146.853 124.449C147.091 124.587 147.373 124.657 147.698 124.657C147.979 124.657 148.241 124.587 148.483 124.449C148.729 124.31 148.927 124.125 149.078 123.895C149.228 123.662 149.304 123.404 149.304 123.122C149.304 122.769 149.213 122.476 149.03 122.242C148.852 122.004 148.602 121.828 148.281 121.713C147.963 121.594 147.601 121.534 147.192 121.534V120.731C147.755 120.731 148.205 120.614 148.542 120.38C148.883 120.146 149.054 119.801 149.054 119.345C149.054 119.103 148.989 118.881 148.858 118.679C148.727 118.477 148.554 118.316 148.34 118.197C148.13 118.074 147.904 118.013 147.662 118.013C147.416 118.013 147.18 118.074 146.954 118.197C146.728 118.316 146.544 118.477 146.401 118.679C146.258 118.881 146.187 119.103 146.187 119.345H145.188C145.188 119.024 145.253 118.723 145.384 118.441C145.519 118.159 145.701 117.912 145.931 117.698C146.165 117.483 146.429 117.317 146.722 117.198C147.016 117.075 147.325 117.013 147.65 117.013C148.074 117.013 148.469 117.119 148.834 117.329C149.199 117.539 149.492 117.82 149.714 118.173C149.94 118.526 150.053 118.917 150.053 119.345C150.053 119.73 149.956 120.085 149.762 120.41C149.567 120.735 149.304 120.963 148.971 121.094C149.26 121.193 149.504 121.348 149.702 121.558C149.901 121.764 150.049 122.002 150.148 122.272C150.252 122.541 150.303 122.825 150.303 123.122C150.303 123.586 150.182 124.01 149.94 124.395C149.702 124.78 149.385 125.087 148.989 125.317C148.596 125.543 148.166 125.656 147.698 125.656ZM154.717 125.501V123.253H151.137V122.242L154.468 117.174H155.717V122.254H156.543V123.253H155.717V125.501H154.717ZM152.308 122.242L154.717 122.254L154.7 118.578L152.308 122.242Z" fill="white"/>
</g>
<path d="M22.9969 23.81C22.5557 23.805 22.1443 23.8769 21.7626 24.0256C21.381 24.1743 21.0712 24.38 20.8332 24.6427C20.5953 24.9054 20.4764 25.2103 20.4764 25.5572C20.4764 25.9736 20.5854 26.2933 20.8035 26.5164C21.0266 26.7345 21.3289 26.898 21.7106 27.0071C22.0923 27.1161 22.521 27.2128 22.9969 27.2971C23.671 27.4111 24.2956 27.592 24.8705 27.8398C25.4455 28.0827 25.9065 28.4074 26.2535 28.8138C26.6054 29.2203 26.7814 29.7209 26.7814 30.3157C26.7814 30.8709 26.6302 31.3616 26.3278 31.7879C26.0255 32.2142 25.624 32.5587 25.1233 32.8214C24.6227 33.0791 24.07 33.2353 23.4653 33.2898V34.7917H22.5508V33.2898C22.0402 33.2501 21.5569 33.1386 21.1009 32.9552C20.6449 32.7718 20.2483 32.5265 19.9113 32.2191C19.5742 31.9069 19.3313 31.545 19.1826 31.1336L20.35 30.6949C20.4491 30.9725 20.6325 31.2154 20.9002 31.4236C21.1728 31.6268 21.4925 31.7854 21.8593 31.8994C22.2261 32.0134 22.6053 32.0704 22.9969 32.0704C23.443 32.0704 23.8569 31.9986 24.2386 31.8548C24.6252 31.7061 24.9375 31.5004 25.1754 31.2377C25.4133 30.975 25.5323 30.6677 25.5323 30.3157C25.5323 29.9539 25.4083 29.659 25.1605 29.4309C24.9127 29.198 24.5954 29.0146 24.2088 28.8807C23.8222 28.742 23.4182 28.6354 22.9969 28.561C22.2781 28.4421 21.6338 28.2735 21.0637 28.0554C20.4987 27.8324 20.0501 27.5226 19.718 27.126C19.3908 26.7295 19.2273 26.2066 19.2273 25.5572C19.2273 25.0021 19.3784 24.5113 19.6808 24.0851C19.9832 23.6538 20.3847 23.3093 20.8853 23.0516C21.3909 22.7938 21.946 22.6377 22.5508 22.5832V21.0515H23.4653V22.5832C23.956 22.6278 24.4269 22.7418 24.878 22.9252C25.329 23.1036 25.7256 23.3465 26.0676 23.6538C26.4146 23.9611 26.6674 24.3279 26.826 24.7542L25.6438 25.1855C25.5447 24.9029 25.3588 24.6601 25.0862 24.4568C24.8185 24.2486 24.5013 24.09 24.1345 23.981C23.7726 23.867 23.3934 23.81 22.9969 23.81ZM28.0119 33.1262V32.0184C28.3936 31.6764 28.8223 31.2947 29.2982 30.8734C29.774 30.4471 30.2474 30.0035 30.7183 29.5425C31.1941 29.0765 31.6303 28.6156 32.0269 28.1595C32.4234 27.7035 32.7431 27.2723 32.986 26.8658C33.2289 26.4544 33.3503 26.095 33.3503 25.7877C33.3503 25.4209 33.2611 25.0863 33.0827 24.784C32.9042 24.4767 32.6638 24.2313 32.3615 24.0479C32.0641 23.8645 31.732 23.7728 31.3652 23.7728C30.9983 23.7728 30.6613 23.8645 30.354 24.0479C30.0516 24.2313 29.8087 24.4767 29.6253 24.784C29.4469 25.0863 29.3577 25.4209 29.3577 25.7877H28.1086C28.1086 25.178 28.2573 24.6278 28.5547 24.1371C28.8521 23.6414 29.2461 23.2499 29.7369 22.9624C30.2276 22.6699 30.7703 22.5237 31.3652 22.5237C31.96 22.5237 32.5003 22.6699 32.986 22.9624C33.4767 23.2548 33.8683 23.6489 34.1608 24.1445C34.4532 24.6353 34.5994 25.183 34.5994 25.7877C34.5994 26.1347 34.5152 26.5089 34.3466 26.9104C34.1781 27.307 33.9476 27.7159 33.6552 28.1372C33.3627 28.5586 33.0306 28.9848 32.6589 29.4161C32.2871 29.8424 31.8955 30.2637 31.4841 30.6801C31.0727 31.0964 30.6638 31.4954 30.2573 31.8771H34.7333V33.1262H28.0119ZM37.384 33.1262V23.9661H36.2167L36.5662 22.717H38.6331V33.1262H37.384ZM43.5065 33.3195C42.877 33.3195 42.3169 33.1783 41.8262 32.8957C41.3404 32.6082 40.9588 32.2266 40.6812 31.7507C40.4036 31.2699 40.2648 30.7371 40.2648 30.1522H41.5139C41.5139 30.5041 41.5957 30.8263 41.7593 31.1187C41.9228 31.4062 42.1533 31.6367 42.4507 31.8102C42.7481 31.9837 43.1001 32.0704 43.5065 32.0704C43.8585 32.0704 44.1856 31.9837 44.488 31.8102C44.7953 31.6367 45.0431 31.4062 45.2315 31.1187C45.4198 30.8263 45.514 30.5041 45.514 30.1522C45.514 29.711 45.4 29.3442 45.172 29.0518C44.949 28.7543 44.6367 28.5338 44.2352 28.39C43.8386 28.2413 43.3851 28.167 42.8745 28.167V27.1632C43.5784 27.1632 44.141 27.017 44.5623 26.7245C44.9886 26.4321 45.2017 26.0009 45.2017 25.4308C45.2017 25.1285 45.12 24.8509 44.9564 24.5981C44.7928 24.3453 44.5772 24.1445 44.3095 23.9958C44.0468 23.8422 43.7643 23.7654 43.4619 23.7654C43.1546 23.7654 42.8597 23.8422 42.5771 23.9958C42.2946 24.1445 42.0641 24.3453 41.8857 24.5981C41.7072 24.8509 41.618 25.1285 41.618 25.4308H40.3689C40.3689 25.0293 40.4507 24.6526 40.6143 24.3007C40.7828 23.9488 41.0108 23.639 41.2983 23.3713C41.5907 23.1036 41.9204 22.8954 42.2872 22.7467C42.654 22.5931 43.0406 22.5162 43.4471 22.5162C43.9774 22.5162 44.4706 22.6476 44.9266 22.9103C45.3827 23.173 45.7495 23.525 46.0271 23.9661C46.3096 24.4073 46.4509 24.8955 46.4509 25.4308C46.4509 25.9116 46.3294 26.3553 46.0865 26.7617C45.8437 27.1682 45.514 27.4532 45.0977 27.6168C45.4595 27.7407 45.7643 27.934 46.0122 28.1967C46.26 28.4545 46.4459 28.7519 46.5698 29.0889C46.6987 29.426 46.7631 29.7804 46.7631 30.1522C46.7631 30.7321 46.612 31.2625 46.3096 31.7433C46.0122 32.2241 45.6156 32.6082 45.12 32.8957C44.6292 33.1783 44.0914 33.3195 43.5065 33.3195ZM48.4817 33.3195C48.2933 33.3195 48.1322 33.2526 47.9984 33.1188C47.8695 32.985 47.8051 32.8214 47.8051 32.6281C47.8051 32.4447 47.8695 32.286 47.9984 32.1522C48.1322 32.0184 48.2933 31.9515 48.4817 31.9515C48.675 31.9515 48.8386 32.0184 48.9724 32.1522C49.1063 32.286 49.1732 32.4447 49.1732 32.6281C49.1732 32.8214 49.1063 32.985 48.9724 33.1188C48.8386 33.2526 48.675 33.3195 48.4817 33.3195ZM54.5247 33.3195C53.9051 33.3195 53.35 33.1807 52.8593 32.9032C52.3685 32.6206 51.9472 32.2315 51.5953 31.7358C51.2434 31.2402 50.9757 30.6677 50.7923 30.0183C50.6089 29.364 50.5172 28.6651 50.5172 27.9216C50.5172 27.1781 50.6089 26.4792 50.7923 25.8249C50.9757 25.1706 51.2434 24.5981 51.5953 24.1074C51.9472 23.6117 52.3685 23.2251 52.8593 22.9475C53.35 22.665 53.9051 22.5237 54.5247 22.5237C55.1394 22.5237 55.6921 22.665 56.1828 22.9475C56.6785 23.2251 57.0973 23.6117 57.4393 24.1074C57.7863 24.5981 58.0515 25.1706 58.2349 25.8249C58.4232 26.4792 58.5174 27.1781 58.5174 27.9216C58.5174 28.6651 58.4232 29.364 58.2349 30.0183C58.0515 30.6677 57.7863 31.2402 57.4393 31.7358C57.0973 32.2315 56.6785 32.6206 56.1828 32.9032C55.6921 33.1807 55.1394 33.3195 54.5247 33.3195ZM54.5247 32.0704C55.1443 32.0704 55.6623 31.8796 56.0787 31.4979C56.5 31.1113 56.8148 30.6032 57.023 29.9737C57.2311 29.3442 57.3352 28.6602 57.3352 27.9216C57.3352 27.1434 57.2262 26.442 57.0081 25.8175C56.7949 25.1879 56.4777 24.6898 56.0564 24.323C55.64 23.9562 55.1295 23.7728 54.5247 23.7728C54.0489 23.7728 53.6325 23.8843 53.2756 24.1074C52.9237 24.3304 52.6313 24.6353 52.3983 25.0219C52.1653 25.4085 51.9894 25.8522 51.8704 26.3528C51.7564 26.8485 51.6994 27.3714 51.6994 27.9216C51.6994 28.6602 51.806 29.3467 52.0191 29.9811C52.2322 30.6107 52.547 31.1162 52.9634 31.4979C53.3847 31.8796 53.9051 32.0704 54.5247 32.0704ZM63.2088 33.3195C62.5892 33.3195 62.034 33.1807 61.5433 32.9032C61.0526 32.6206 60.6313 32.2315 60.2793 31.7358C59.9274 31.2402 59.6597 30.6677 59.4763 30.0183C59.2929 29.364 59.2012 28.6651 59.2012 27.9216C59.2012 27.1781 59.2929 26.4792 59.4763 25.8249C59.6597 25.1706 59.9274 24.5981 60.2793 24.1074C60.6313 23.6117 61.0526 23.2251 61.5433 22.9475C62.034 22.665 62.5892 22.5237 63.2088 22.5237C63.8234 22.5237 64.3761 22.665 64.8668 22.9475C65.3625 23.2251 65.7813 23.6117 66.1234 24.1074C66.4703 24.5981 66.7355 25.1706 66.9189 25.8249C67.1073 26.4792 67.2015 27.1781 67.2015 27.9216C67.2015 28.6651 67.1073 29.364 66.9189 30.0183C66.7355 30.6677 66.4703 31.2402 66.1234 31.7358C65.7813 32.2315 65.3625 32.6206 64.8668 32.9032C64.3761 33.1807 63.8234 33.3195 63.2088 33.3195ZM63.2088 32.0704C63.8284 32.0704 64.3464 31.8796 64.7627 31.4979C65.1841 31.1113 65.4988 30.6032 65.707 29.9737C65.9152 29.3442 66.0193 28.6602 66.0193 27.9216C66.0193 27.1434 65.9102 26.442 65.6921 25.8175C65.479 25.1879 65.1617 24.6898 64.7404 24.323C64.324 23.9562 63.8135 23.7728 63.2088 23.7728C62.7329 23.7728 62.3166 23.8843 61.9597 24.1074C61.6077 24.3304 61.3153 24.6353 61.0823 25.0219C60.8494 25.4085 60.6734 25.8522 60.5544 26.3528C60.4404 26.8485 60.3834 27.3714 60.3834 27.9216C60.3834 28.6602 60.49 29.3467 60.7031 29.9811C60.9163 30.6107 61.231 31.1162 61.6474 31.4979C62.0687 31.8796 62.5892 32.0704 63.2088 32.0704Z" fill="white"/>
<path d="M22.014 50.0093C21.5916 50.0093 21.1946 49.926 20.8228 49.7595C20.4511 49.59 20.1239 49.358 19.8414 49.0635C19.5618 48.7661 19.3418 48.4211 19.1812 48.0286C19.0235 47.636 18.9447 47.2167 18.9447 46.7705C18.9447 46.3244 19.0235 45.9051 19.1812 45.5125C19.3418 45.1199 19.5618 44.7764 19.8414 44.482C20.1239 44.1846 20.4511 43.9526 20.8228 43.7861C21.1946 43.6165 21.5916 43.5318 22.014 43.5318C22.5195 43.5318 22.985 43.6493 23.4103 43.8842C23.8356 44.1192 24.188 44.4314 24.4676 44.821L23.8029 45.1779C23.5947 44.9043 23.3315 44.6872 23.0132 44.5266C22.698 44.363 22.3649 44.2813 22.014 44.2813C21.6898 44.2813 21.3864 44.3467 21.1039 44.4775C20.8243 44.6084 20.579 44.7883 20.3678 45.0173C20.1566 45.2463 19.9916 45.511 19.8726 45.8114C19.7537 46.1118 19.6942 46.4315 19.6942 46.7705C19.6942 47.1126 19.7537 47.4338 19.8726 47.7341C19.9946 48.0345 20.1611 48.2992 20.3723 48.5282C20.5864 48.7572 20.8332 48.9371 21.1128 49.068C21.3953 49.1959 21.6957 49.2598 22.014 49.2598C22.3768 49.2598 22.7129 49.178 23.0222 49.0145C23.3344 48.8479 23.5947 48.6308 23.8029 48.3632L24.4676 48.7245C24.188 49.1141 23.8356 49.4264 23.4103 49.6613C22.985 49.8933 22.5195 50.0093 22.014 50.0093ZM25.3443 49.8933V45.4322H26.0938V45.9899C26.2514 45.7817 26.4507 45.6166 26.6915 45.4947C26.9324 45.3698 27.1942 45.3073 27.4767 45.3073C27.6492 45.3073 27.8157 45.3296 27.9763 45.3742L27.673 46.1237C27.5511 46.085 27.4321 46.0657 27.3161 46.0657C27.093 46.0657 26.8878 46.1207 26.7005 46.2308C26.5161 46.3378 26.3689 46.4835 26.2588 46.6679C26.1488 46.8523 26.0938 47.0575 26.0938 47.2836V49.8933H25.3443ZM30.2609 50.0093C29.8505 50.0093 29.4758 49.9037 29.1367 49.6926C28.8006 49.4814 28.5315 49.1989 28.3293 48.845C28.13 48.4881 28.0304 48.094 28.0304 47.6628C28.0304 47.3356 28.0884 47.0308 28.2043 46.7482C28.3203 46.4627 28.4795 46.2129 28.6817 45.9988C28.8869 45.7817 29.1248 45.6121 29.3955 45.4902C29.6661 45.3683 29.9546 45.3073 30.2609 45.3073C30.597 45.3073 30.9048 45.3757 31.1844 45.5125C31.4669 45.6463 31.7078 45.8337 31.9071 46.0746C32.1093 46.3155 32.2595 46.5951 32.3576 46.9133C32.4587 47.2315 32.4959 47.5721 32.4692 47.9349H28.8289C28.8646 48.1877 28.9479 48.4137 29.0787 48.613C29.2096 48.8093 29.3761 48.9654 29.5784 49.0814C29.7836 49.1974 30.0111 49.2569 30.2609 49.2598C30.5286 49.2598 30.771 49.1914 30.9881 49.0546C31.2052 48.9148 31.3806 48.7245 31.5145 48.4836L32.2773 48.662C32.0989 49.0576 31.8297 49.3818 31.4699 49.6346C31.11 49.8844 30.707 50.0093 30.2609 50.0093ZM28.8066 47.346H31.7152C31.6914 47.0962 31.6111 46.8687 31.4743 46.6635C31.3375 46.4553 31.1635 46.2887 30.9524 46.1638C30.7412 46.0389 30.5107 45.9765 30.2609 45.9765C30.0111 45.9765 29.7821 46.0374 29.5739 46.1594C29.3657 46.2813 29.1932 46.4464 29.0564 46.6546C28.9226 46.8598 28.8393 47.0903 28.8066 47.346ZM36.786 43.2017H37.5354V49.8933H36.786V49.1349C36.6343 49.3966 36.4306 49.6078 36.1748 49.7684C35.919 49.929 35.6186 50.0093 35.2737 50.0093C34.9495 50.0093 34.6461 49.9483 34.3636 49.8264C34.0811 49.7045 33.8312 49.5364 33.6141 49.3223C33.4 49.1052 33.232 48.8554 33.11 48.5728C32.9881 48.2903 32.9271 47.9869 32.9271 47.6628C32.9271 47.3386 32.9881 47.0352 33.11 46.7527C33.232 46.4672 33.4 46.2174 33.6141 46.0032C33.8312 45.7861 34.0811 45.6166 34.3636 45.4947C34.6461 45.3727 34.9495 45.3118 35.2737 45.3118C35.6186 45.3118 35.919 45.3921 36.1748 45.5527C36.4306 45.7133 36.6343 45.9244 36.786 46.1861V43.2017ZM35.2826 49.2821C35.577 49.2821 35.8313 49.2108 36.0454 49.068C36.2625 48.9223 36.4291 48.726 36.5451 48.4791C36.664 48.2323 36.7235 47.9602 36.7235 47.6628C36.7235 47.3594 36.664 47.0858 36.5451 46.8419C36.4261 46.5951 36.2581 46.4003 36.041 46.2575C35.8268 46.1118 35.574 46.0389 35.2826 46.0389C34.9881 46.0389 34.7205 46.1118 34.4796 46.2575C34.2417 46.4032 34.0513 46.5995 33.9086 46.8464C33.7658 47.0903 33.6944 47.3624 33.6944 47.6628C33.6944 47.9631 33.7673 48.2368 33.913 48.4836C34.0587 48.7275 34.2521 48.9223 34.493 49.068C34.7339 49.2108 34.9971 49.2821 35.2826 49.2821ZM38.6056 45.4322H39.3551V49.8933H38.6056V45.4322ZM38.9893 44.7051C38.8703 44.7051 38.7707 44.6664 38.6904 44.5891C38.6101 44.5117 38.5699 44.4151 38.5699 44.2991C38.5699 44.1831 38.6101 44.0865 38.6904 44.0091C38.7707 43.9318 38.8688 43.8931 38.9848 43.8931C39.1008 43.8931 39.1989 43.9318 39.2792 44.0091C39.3595 44.0865 39.3997 44.1831 39.3997 44.2991C39.3997 44.4151 39.3595 44.5117 39.2792 44.5891C39.2019 44.6664 39.1052 44.7051 38.9893 44.7051ZM42.7375 46.1817H41.7248L41.7204 49.8933H40.9709L40.9754 46.1817H40.208V45.4322H40.9754L40.9709 44.0314H41.7204L41.7248 45.4322H42.7375V46.1817ZM47.7729 43.6478H48.6785L50.9492 49.8933H50.1551L49.6911 48.6174H46.7602L46.3007 49.8933H45.5022L47.7729 43.6478ZM47.0368 47.868H49.4146L48.2234 44.6069L47.0368 47.868ZM53.4722 49.8933H52.5131L50.8848 45.4233H51.6833L52.9904 49.0234L54.2975 45.4233H55.096L53.4722 49.8933ZM59.2351 45.4322H59.9846V49.8933H59.2351L59.2039 49.1394C59.0641 49.3981 58.8708 49.6078 58.6239 49.7684C58.3801 49.929 58.0886 50.0093 57.7496 50.0093C57.4224 50.0093 57.1161 49.9483 56.8306 49.8264C56.5451 49.7015 56.2923 49.5305 56.0722 49.3134C55.8551 49.0933 55.6856 48.8405 55.5636 48.555C55.4417 48.2695 55.3807 47.9617 55.3807 47.6315C55.3807 47.3133 55.4402 47.0129 55.5592 46.7304C55.6781 46.4479 55.8432 46.201 56.0543 45.9899C56.2685 45.7757 56.5153 45.6092 56.7949 45.4902C57.0744 45.3683 57.3748 45.3073 57.696 45.3073C58.047 45.3073 58.3548 45.3906 58.6195 45.5571C58.8842 45.7207 59.0983 45.9333 59.2619 46.1951L59.2351 45.4322ZM57.7362 49.2821C58.0306 49.2821 58.2849 49.2108 58.499 49.068C58.7161 48.9223 58.8827 48.726 58.9987 48.4791C59.1176 48.2323 59.1771 47.9602 59.1771 47.6628C59.1771 47.3594 59.1176 47.0858 58.9987 46.8419C58.8797 46.5951 58.7117 46.4003 58.4946 46.2575C58.2804 46.1118 58.0276 46.0389 57.7362 46.0389C57.4417 46.0389 57.1741 46.1118 56.9332 46.2575C56.6923 46.4032 56.5005 46.5995 56.3577 46.8464C56.2179 47.0903 56.148 47.3624 56.148 47.6628C56.148 47.9631 56.2209 48.2368 56.3666 48.4836C56.5123 48.7275 56.7057 48.9223 56.9466 49.068C57.1875 49.2108 57.4507 49.2821 57.7362 49.2821ZM60.8762 45.4322H61.6257V49.8933H60.8762V45.4322ZM61.2599 44.7051C61.1409 44.7051 61.0413 44.6664 60.961 44.5891C60.8807 44.5117 60.8405 44.4151 60.8405 44.2991C60.8405 44.1831 60.8807 44.0865 60.961 44.0091C61.0413 43.9318 61.1394 43.8931 61.2554 43.8931C61.3714 43.8931 61.4696 43.9318 61.5499 44.0091C61.6302 44.0865 61.6703 44.1831 61.6703 44.2991C61.6703 44.4151 61.6302 44.5117 61.5499 44.5891C61.4725 44.6664 61.3759 44.7051 61.2599 44.7051ZM62.7234 49.8933V43.2017H63.4729V49.8933H62.7234ZM68.0876 45.4322H68.8371V49.8933H68.0876L68.0564 49.1394C67.9166 49.3981 67.7233 49.6078 67.4764 49.7684C67.2325 49.929 66.9411 50.0093 66.602 50.0093C66.2749 50.0093 65.9686 49.9483 65.6831 49.8264C65.3975 49.7015 65.1448 49.5305 64.9247 49.3134C64.7076 49.0933 64.538 48.8405 64.4161 48.555C64.2942 48.2695 64.2332 47.9617 64.2332 47.6315C64.2332 47.3133 64.2927 47.0129 64.4116 46.7304C64.5306 46.4479 64.6957 46.201 64.9068 45.9899C65.121 45.7757 65.3678 45.6092 65.6474 45.4902C65.9269 45.3683 66.2273 45.3073 66.5485 45.3073C66.8995 45.3073 67.2073 45.3906 67.472 45.5571C67.7367 45.7207 67.9508 45.9333 68.1144 46.1951L68.0876 45.4322ZM66.5887 49.2821C66.8831 49.2821 67.1374 49.2108 67.3515 49.068C67.5686 48.9223 67.7352 48.726 67.8512 48.4791C67.9701 48.2323 68.0296 47.9602 68.0296 47.6628C68.0296 47.3594 67.9701 47.0858 67.8512 46.8419C67.7322 46.5951 67.5642 46.4003 67.347 46.2575C67.1329 46.1118 66.8801 46.0389 66.5887 46.0389C66.2942 46.0389 66.0266 46.1118 65.7857 46.2575C65.5448 46.4032 65.3529 46.5995 65.2102 46.8464C65.0704 47.0903 65.0005 47.3624 65.0005 47.6628C65.0005 47.9631 65.0734 48.2368 65.2191 48.4836C65.3648 48.7275 65.5581 48.9223 65.799 49.068C66.0399 49.2108 66.3032 49.2821 66.5887 49.2821ZM72.0383 45.3073C72.4725 45.3073 72.8666 45.4129 73.2205 45.624C73.5774 45.8352 73.8614 46.1192 74.0726 46.4761C74.2837 46.83 74.3893 47.2241 74.3893 47.6583C74.3893 47.9825 74.3283 48.2873 74.2064 48.5728C74.0845 48.8554 73.9149 49.1052 73.6978 49.3223C73.4837 49.5364 73.2339 49.7045 72.9484 49.8264C72.6658 49.9483 72.3625 50.0093 72.0383 50.0093C71.6933 50.0093 71.3929 49.929 71.1372 49.7684C70.8844 49.6048 70.6821 49.3922 70.5305 49.1305V49.8933H69.781V43.2017H70.5305V46.1861C70.6821 45.9244 70.8844 45.7133 71.1372 45.5527C71.3929 45.3891 71.6933 45.3073 72.0383 45.3073ZM72.0294 49.2777C72.3238 49.2777 72.5915 49.2048 72.8324 49.0591C73.0733 48.9134 73.2651 48.7186 73.4079 48.4747C73.5506 48.2278 73.622 47.9557 73.622 47.6583C73.622 47.3549 73.5491 47.0813 73.4034 46.8375C73.2577 46.5906 73.0644 46.3958 72.8235 46.2531C72.5826 46.1073 72.3179 46.0345 72.0294 46.0345C71.7379 46.0345 71.4836 46.1073 71.2665 46.2531C71.0524 46.3988 70.8859 46.5951 70.7669 46.8419C70.6509 47.0888 70.5929 47.3609 70.5929 47.6583C70.5929 47.9587 70.6509 48.2323 70.7669 48.4791C70.8859 48.723 71.0539 48.9178 71.271 49.0635C71.4881 49.2063 71.7409 49.2777 72.0294 49.2777ZM75.0873 49.8933V43.2017H75.8367V49.8933H75.0873ZM78.8276 50.0093C78.4172 50.0093 78.0425 49.9037 77.7034 49.6926C77.3673 49.4814 77.0982 49.1989 76.896 48.845C76.6967 48.4881 76.5971 48.094 76.5971 47.6628C76.5971 47.3356 76.6551 47.0308 76.771 46.7482C76.887 46.4627 77.0461 46.2129 77.2484 45.9988C77.4536 45.7817 77.6915 45.6121 77.9622 45.4902C78.2328 45.3683 78.5213 45.3073 78.8276 45.3073C79.1637 45.3073 79.4715 45.3757 79.7511 45.5125C80.0336 45.6463 80.2745 45.8337 80.4738 46.0746C80.676 46.3155 80.8262 46.5951 80.9243 46.9133C81.0254 47.2315 81.0626 47.5721 81.0359 47.9349H77.3956C77.4313 48.1877 77.5146 48.4137 77.6454 48.613C77.7763 48.8093 77.9428 48.9654 78.1451 49.0814C78.3503 49.1974 78.5778 49.2569 78.8276 49.2598C79.0953 49.2598 79.3377 49.1914 79.5548 49.0546C79.7719 48.9148 79.9473 48.7245 80.0812 48.4836L80.844 48.662C80.6656 49.0576 80.3964 49.3818 80.0366 49.6346C79.6767 49.8844 79.2737 50.0093 78.8276 50.0093ZM77.3733 47.346H80.2819C80.2581 47.0962 80.1778 46.8687 80.041 46.6635C79.9042 46.4553 79.7302 46.2887 79.5191 46.1638C79.3079 46.0389 79.0774 45.9765 78.8276 45.9765C78.5778 45.9765 78.3488 46.0374 78.1406 46.1594C77.9324 46.2813 77.7599 46.4464 77.6231 46.6546C77.4893 46.8598 77.406 47.0903 77.3733 47.346Z" fill="#DADADA"/>
<path d="M204.401 127.238H200.956L203.111 113.918H206.555L204.401 127.238Z" fill="white"/>
<path d="M216.887 114.243C216.208 113.974 215.13 113.676 213.797 113.676C210.396 113.676 208 115.49 207.985 118.083C207.957 119.996 209.701 121.059 211.004 121.697C212.337 122.349 212.79 122.774 212.79 123.355C212.777 124.248 211.713 124.659 210.722 124.659C209.346 124.659 208.609 124.447 207.49 123.951L207.036 123.738L206.554 126.728C207.362 127.096 208.85 127.423 210.396 127.437C214.01 127.437 216.363 125.651 216.391 122.888C216.405 121.371 215.484 120.209 213.5 119.26C212.295 118.65 211.557 118.24 211.557 117.616C211.571 117.049 212.181 116.468 213.541 116.468C214.661 116.44 215.484 116.709 216.107 116.978L216.419 117.12L216.887 114.243Z" fill="white"/>
<path d="M221.467 122.519C221.751 121.754 222.842 118.792 222.842 118.792C222.828 118.821 223.126 118.013 223.296 117.517L223.536 118.665C223.536 118.665 224.189 121.853 224.33 122.519C223.792 122.519 222.148 122.519 221.467 122.519ZM225.719 113.918H223.055C222.233 113.918 221.609 114.158 221.254 115.023L216.138 127.238H219.752C219.752 127.238 220.347 125.594 220.475 125.24C220.872 125.24 224.388 125.24 224.898 125.24C224.997 125.708 225.309 127.238 225.309 127.238H228.498L225.719 113.918V113.918Z" fill="white"/>
<path d="M198.079 113.918L194.705 123.001L194.337 121.159C193.713 119.033 191.757 116.724 189.574 115.575L192.664 127.224H196.307L201.721 113.918H198.079V113.918Z" fill="white"/>
<path d="M191.573 113.918H186.031L185.974 114.187C190.297 115.292 193.16 117.957 194.337 121.16L193.132 115.038C192.934 114.187 192.324 113.946 191.573 113.918Z" fill="white"/>
<path d="M21.793 123.213C21.3276 123.213 20.9295 123.047 20.5988 122.716C20.2804 122.386 20.1212 121.982 20.1212 121.504C20.1212 121.051 20.2804 120.659 20.5988 120.328C20.9295 119.998 21.3276 119.832 21.793 119.832C22.2706 119.832 22.6748 119.998 23.0055 120.328C23.3362 120.659 23.5015 121.051 23.5015 121.504C23.5015 121.982 23.3362 122.386 23.0055 122.716C22.6748 123.047 22.2706 123.213 21.793 123.213ZM28.8617 123.213C28.3963 123.213 27.9982 123.047 27.6675 122.716C27.3491 122.386 27.1899 121.982 27.1899 121.504C27.1899 121.051 27.3491 120.659 27.6675 120.328C27.9982 119.998 28.3963 119.832 28.8617 119.832C29.3393 119.832 29.7435 119.998 30.0742 120.328C30.4049 120.659 30.5702 121.051 30.5702 121.504C30.5702 121.982 30.4049 122.386 30.0742 122.716C29.7435 123.047 29.3393 123.213 28.8617 123.213ZM35.9304 123.213C35.465 123.213 35.0669 123.047 34.7362 122.716C34.4178 122.386 34.2586 121.982 34.2586 121.504C34.2586 121.051 34.4178 120.659 34.7362 120.328C35.0669 119.998 35.465 119.832 35.9304 119.832C36.408 119.832 36.8122 119.998 37.1429 120.328C37.4736 120.659 37.6389 121.051 37.6389 121.504C37.6389 121.982 37.4736 122.386 37.1429 122.716C36.8122 123.047 36.408 123.213 35.9304 123.213ZM42.9991 123.213C42.5337 123.213 42.1356 123.047 41.8049 122.716C41.4865 122.386 41.3273 121.982 41.3273 121.504C41.3273 121.051 41.4865 120.659 41.8049 120.328C42.1356 119.998 42.5337 119.832 42.9991 119.832C43.4767 119.832 43.8809 119.998 44.2116 120.328C44.5423 120.659 44.7076 121.051 44.7076 121.504C44.7076 121.982 44.5423 122.386 44.2116 122.716C43.8809 123.047 43.4767 123.213 42.9991 123.213ZM58.8947 123.213C58.4293 123.213 58.0312 123.047 57.7005 122.716C57.3821 122.386 57.2229 121.982 57.2229 121.504C57.2229 121.051 57.3821 120.659 57.7005 120.328C58.0312 119.998 58.4293 119.832 58.8947 119.832C59.3723 119.832 59.7765 119.998 60.1072 120.328C60.4379 120.659 60.6032 121.051 60.6032 121.504C60.6032 121.982 60.4379 122.386 60.1072 122.716C59.7765 123.047 59.3723 123.213 58.8947 123.213ZM65.9634 123.213C65.498 123.213 65.0999 123.047 64.7692 122.716C64.4508 122.386 64.2916 121.982 64.2916 121.504C64.2916 121.051 64.4508 120.659 64.7692 120.328C65.0999 119.998 65.498 119.832 65.9634 119.832C66.441 119.832 66.8452 119.998 67.1759 120.328C67.5066 120.659 67.6719 121.051 67.6719 121.504C67.6719 121.982 67.5066 122.386 67.1759 122.716C66.8452 123.047 66.441 123.213 65.9634 123.213ZM73.0321 123.213C72.5666 123.213 72.1686 123.047 71.8379 122.716C71.5195 122.386 71.3603 121.982 71.3603 121.504C71.3603 121.051 71.5195 120.659 71.8379 120.328C72.1686 119.998 72.5666 119.832 73.0321 119.832C73.5097 119.832 73.9139 119.998 74.2446 120.328C74.5753 120.659 74.7406 121.051 74.7406 121.504C74.7406 121.982 74.5753 122.386 74.2446 122.716C73.9139 123.047 73.5097 123.213 73.0321 123.213ZM80.1008 123.213C79.6353 123.213 79.2373 123.047 78.9066 122.716C78.5882 122.386 78.429 121.982 78.429 121.504C78.429 121.051 78.5882 120.659 78.9066 120.328C79.2373 119.998 79.6353 119.832 80.1008 119.832C80.5784 119.832 80.9826 119.998 81.3133 120.328C81.644 120.659 81.8093 121.051 81.8093 121.504C81.8093 121.982 81.644 122.386 81.3133 122.716C80.9826 123.047 80.5784 123.213 80.1008 123.213ZM95.9963 123.213C95.5309 123.213 95.1329 123.047 94.8022 122.716C94.4838 122.386 94.3245 121.982 94.3245 121.504C94.3245 121.051 94.4838 120.659 94.8022 120.328C95.1329 119.998 95.5309 119.832 95.9963 119.832C96.474 119.832 96.8782 119.998 97.2089 120.328C97.5395 120.659 97.7049 121.051 97.7049 121.504C97.7049 121.982 97.5395 122.386 97.2089 122.716C96.8782 123.047 96.474 123.213 95.9963 123.213ZM103.065 123.213C102.6 123.213 102.202 123.047 101.871 122.716C101.552 122.386 101.393 121.982 101.393 121.504C101.393 121.051 101.552 120.659 101.871 120.328C102.202 119.998 102.6 119.832 103.065 119.832C103.543 119.832 103.947 119.998 104.278 120.328C104.608 120.659 104.774 121.051 104.774 121.504C104.774 121.982 104.608 122.386 104.278 122.716C103.947 123.047 103.543 123.213 103.065 123.213ZM110.134 123.213C109.668 123.213 109.27 123.047 108.94 122.716C108.621 122.386 108.462 121.982 108.462 121.504C108.462 121.051 108.621 120.659 108.94 120.328C109.27 119.998 109.668 119.832 110.134 119.832C110.611 119.832 111.016 119.998 111.346 120.328C111.677 120.659 111.842 121.051 111.842 121.504C111.842 121.982 111.677 122.386 111.346 122.716C111.016 123.047 110.611 123.213 110.134 123.213ZM117.202 123.213C116.737 123.213 116.339 123.047 116.008 122.716C115.69 122.386 115.531 121.982 115.531 121.504C115.531 121.051 115.69 120.659 116.008 120.328C116.339 119.998 116.737 119.832 117.202 119.832C117.68 119.832 118.084 119.998 118.415 120.328C118.746 120.659 118.911 121.051 118.911 121.504C118.911 121.982 118.746 122.386 118.415 122.716C118.084 123.047 117.68 123.213 117.202 123.213Z" fill="white"/>
</g>
<defs>
<filter id="filter0_d_9_18" x="-3.8147e-06" y="0" width="248.334" height="150.19" filterUnits="userSpaceOnUse" color-interpolation-filters="sRGB">
<feFlood flood-opacity="0" result="BackgroundImageFix"/>
<feColorMatrix in="SourceAlpha" type="matrix" values="0 0 0 0 0 0 0 0 0 0 0 0 0 0 0 0 0 0 127 0" result="hardAlpha"/>
<feOffset dy="2.97406"/>
<feGaussianBlur stdDeviation="1.48703"/>
<feComposite in2="hardAlpha" operator="out"/>
<feColorMatrix type="matrix" values="0 0 0 0 0 0 0 0 0 0 0 0 0 0 0 0 0 0 0.1 0"/>
<feBlend mode="normal" in2="BackgroundImageFix" result="effect1_dropShadow_9_18"/>
<feBlend mode="normal" in="SourceGraphic" in2="effect1_dropShadow_9_18" result="shape"/>
</filter>
<filter id="filter1_d_9_18" x="-3.8147e-06" y="0" width="248.334" height="150.19" filterUnits="userSpaceOnUse" color-interpolation-filters="sRGB">
<feFlood flood-opacity="0" result="BackgroundImageFix"/>
<feColorMatrix in="SourceAlpha" type="matrix" values="0 0 0 0 0 0 0 0 0 0 0 0 0 0 0 0 0 0 127 0" result="hardAlpha"/>
<feOffset dy="2.97406"/>
<feGaussianBlur stdDeviation="1.48703"/>
<feComposite in2="hardAlpha" operator="out"/>
<feColorMatrix type="matrix" values="0 0 0 0 0 0 0 0 0 0 0 0 0 0 0 0 0 0 0.1 0"/>
<feBlend mode="normal" in2="BackgroundImageFix" result="effect1_dropShadow_9_18"/>
<feBlend mode="normal" in="SourceGraphic" in2="effect1_dropShadow_9_18" result="shape"/>
</filter>
<linearGradient id="paint0_linear_9_18" x1="230.032" y1="74.7741" x2="223.623" y2="-67.4996" gradientUnits="userSpaceOnUse">
<stop stop-color="#333333"/>
<stop offset="1" stop-color="#6F6F6F"/>
</linearGradient>
<linearGradient id="paint1_linear_9_18" x1="50.255" y1="5.21307" x2="85.8815" y2="54.5156" gradientUnits="userSpaceOnUse">
<stop stop-color="#515151"/>
<stop offset="1" stop-color="#333333"/>
</linearGradient>
</defs>
</svg>
