<svg width="250" height="67" viewBox="0 0 250 67" fill="none" xmlns="http://www.w3.org/2000/svg">
<g filter="url(#filter0_d_9_307)">
<rect x="3.71759" y="0.74353" width="242.386" height="59.4813" rx="8.92219" fill="#FCFCFC"/>
</g>
<path d="M18.6121 34.049V25.7216H21.6456C22.0858 25.7216 22.4823 25.8128 22.8353 25.9952C23.1921 26.1736 23.4737 26.4314 23.6799 26.7684C23.8901 27.1015 23.9951 27.4961 23.9951 27.9521C23.9951 28.1544 23.9654 28.3586 23.9059 28.5648C23.8464 28.771 23.7552 28.9574 23.6323 29.1239C23.5094 29.2865 23.3508 29.4074 23.1565 29.4867C23.4142 29.5502 23.6244 29.6652 23.787 29.8317C23.9495 29.9983 24.0764 30.1946 24.1676 30.4206C24.2588 30.6427 24.3203 30.8707 24.352 31.1046C24.3877 31.3346 24.4056 31.5488 24.4056 31.747C24.4056 32.1872 24.2965 32.5798 24.0784 32.9248C23.8603 33.2697 23.5669 33.5434 23.1981 33.7456C22.8333 33.9478 22.4288 34.049 21.9847 34.049H18.6121ZM20.0634 32.8058H21.836C22.0739 32.8058 22.288 32.7483 22.4784 32.6333C22.6687 32.5183 22.8214 32.3597 22.9364 32.1574C23.0514 31.9552 23.1089 31.7252 23.1089 31.4675C23.1089 31.2454 23.0514 31.0352 22.9364 30.837C22.8214 30.6387 22.6687 30.4781 22.4784 30.3552C22.288 30.2322 22.0739 30.1708 21.836 30.1708H20.0634V32.8058ZM20.0634 28.9455H21.4791C21.7725 28.9455 22.0224 28.8543 22.2286 28.6718C22.4387 28.4894 22.5438 28.2475 22.5438 27.9462C22.5438 27.625 22.4387 27.3831 22.2286 27.2205C22.0224 27.054 21.7725 26.9707 21.4791 26.9707H20.0634V28.9455ZM29.7654 28.1008H31.2167V34.049H29.7654L29.7 33.3114C29.5374 33.5771 29.3213 33.7932 29.0516 33.9597C28.7859 34.1223 28.4707 34.2036 28.1059 34.2036C27.6657 34.2036 27.2533 34.1203 26.8686 33.9538C26.484 33.7872 26.145 33.5572 25.8515 33.2638C25.562 32.9704 25.334 32.6313 25.1675 32.2467C25.0049 31.862 24.9236 31.4496 24.9236 31.0095C24.9236 30.5852 25.0009 30.1866 25.1556 29.8139C25.3142 29.4411 25.5343 29.114 25.8158 28.8324C26.0974 28.5509 26.4225 28.3308 26.7913 28.1722C27.1601 28.0136 27.5566 27.9343 27.9809 27.9343C28.3735 27.9343 28.7245 28.0215 29.0338 28.196C29.347 28.3705 29.6127 28.5925 29.8308 28.8622L29.7654 28.1008ZM28.0702 32.8058C28.3795 32.8058 28.6531 32.7285 28.891 32.5738C29.1289 32.4192 29.3153 32.211 29.4501 31.9493C29.585 31.6836 29.6524 31.3921 29.6524 31.0749C29.6524 30.7537 29.585 30.4622 29.4501 30.2005C29.3153 29.9348 29.127 29.7247 28.8851 29.57C28.6471 29.4154 28.3755 29.338 28.0702 29.338C27.7648 29.338 27.4853 29.4173 27.2315 29.576C26.9817 29.7306 26.7814 29.9388 26.6307 30.2005C26.484 30.4622 26.4106 30.7537 26.4106 31.0749C26.4106 31.3961 26.486 31.6875 26.6367 31.9493C26.7874 32.211 26.9876 32.4192 27.2374 32.5738C27.4912 32.7285 27.7688 32.8058 28.0702 32.8058ZM32.4368 34.049V25.1268H33.8882V34.049H32.4368ZM39.7099 28.1008H41.1613V34.049H39.7099L39.6445 33.3114C39.4819 33.5771 39.2658 33.7932 38.9961 33.9597C38.7305 34.1223 38.4152 34.2036 38.0504 34.2036C37.6102 34.2036 37.1978 34.1203 36.8132 33.9538C36.4285 33.7872 36.0895 33.5572 35.796 33.2638C35.5066 32.9704 35.2786 32.6313 35.112 32.2467C34.9494 31.862 34.8681 31.4496 34.8681 31.0095C34.8681 30.5852 34.9455 30.1866 35.1001 29.8139C35.2587 29.4411 35.4788 29.114 35.7604 28.8324C36.0419 28.5509 36.3671 28.3308 36.7358 28.1722C37.1046 28.0136 37.5012 27.9343 37.9255 27.9343C38.3181 27.9343 38.669 28.0215 38.9783 28.196C39.2916 28.3705 39.5572 28.5925 39.7753 28.8622L39.7099 28.1008ZM38.0147 32.8058C38.324 32.8058 38.5976 32.7285 38.8355 32.5738C39.0735 32.4192 39.2598 32.211 39.3947 31.9493C39.5295 31.6836 39.5969 31.3921 39.5969 31.0749C39.5969 30.7537 39.5295 30.4622 39.3947 30.2005C39.2598 29.9348 39.0715 29.7247 38.8296 29.57C38.5917 29.4154 38.32 29.338 38.0147 29.338C37.7094 29.338 37.4298 29.4173 37.176 29.576C36.9262 29.7306 36.7259 29.9388 36.5752 30.2005C36.4285 30.4622 36.3552 30.7537 36.3552 31.0749C36.3552 31.3961 36.4305 31.6875 36.5812 31.9493C36.7319 32.211 36.9321 32.4192 37.182 32.5738C37.4357 32.7285 37.7133 32.8058 38.0147 32.8058ZM47.795 30.2897V34.049H46.3437V30.6704C46.3437 30.4365 46.2862 30.2243 46.1712 30.034C46.0562 29.8397 45.9015 29.687 45.7072 29.576C45.5169 29.461 45.3047 29.4035 45.0708 29.4035C44.8368 29.4035 44.6227 29.461 44.4284 29.576C44.238 29.687 44.0854 29.8397 43.9704 30.034C43.8593 30.2243 43.8038 30.4365 43.8038 30.6704V34.049H42.3525L42.3465 28.1008H43.7979L43.8038 28.6302C44.006 28.4161 44.2479 28.2475 44.5295 28.1246C44.811 27.9977 45.1144 27.9343 45.4395 27.9343C45.8718 27.9343 46.2663 28.0413 46.6232 28.2555C46.9801 28.4656 47.2636 28.7492 47.4738 29.1061C47.6879 29.459 47.795 29.8535 47.795 30.2897ZM52.5517 32.2586L53.8603 32.9664C53.5867 33.3391 53.2437 33.6385 52.8313 33.8646C52.4189 34.0906 51.9688 34.2036 51.4811 34.2036C50.9338 34.2036 50.4342 34.0628 49.9821 33.7813C49.5341 33.4997 49.1752 33.123 48.9055 32.6511C48.6399 32.1753 48.507 31.6499 48.507 31.0749C48.507 30.6387 48.5843 30.2322 48.739 29.8555C48.8936 29.4748 49.1058 29.1417 49.3754 28.8562C49.649 28.5668 49.9663 28.3407 50.3271 28.1781C50.688 28.0156 51.0726 27.9343 51.4811 27.9343C51.9688 27.9343 52.4189 28.0473 52.8313 28.2733C53.2437 28.4993 53.5867 28.8027 53.8603 29.1834L52.5517 29.8853C52.4129 29.7266 52.2484 29.6037 52.058 29.5165C51.8717 29.4292 51.6793 29.3856 51.4811 29.3856C51.1956 29.3856 50.9378 29.4649 50.7078 29.6235C50.4778 29.7782 50.2954 29.9844 50.1606 30.2421C50.0258 30.4959 49.9584 30.7735 49.9584 31.0749C49.9584 31.3723 50.0258 31.6499 50.1606 31.9076C50.2954 32.1614 50.4778 32.3656 50.7078 32.5203C50.9378 32.6749 51.1956 32.7523 51.4811 32.7523C51.6873 32.7523 51.8836 32.7086 52.0699 32.6214C52.2563 32.5302 52.4169 32.4092 52.5517 32.2586ZM57.3595 34.2036C56.8123 34.2036 56.3126 34.0628 55.8606 33.7813C55.4125 33.4997 55.0536 33.121 54.784 32.6452C54.5183 32.1693 54.3854 31.6439 54.3854 31.0689C54.3854 30.6367 54.4628 30.2322 54.6174 29.8555C54.7721 29.4748 54.9842 29.1417 55.2539 28.8562C55.5275 28.5668 55.8447 28.3407 56.2056 28.1781C56.5664 28.0156 56.9511 27.9343 57.3595 27.9343C57.8235 27.9343 58.2478 28.0334 58.6324 28.2317C59.021 28.426 59.3501 28.6937 59.6198 29.0347C59.8894 29.3757 60.0857 29.7643 60.2087 30.2005C60.3316 30.6367 60.3593 31.0927 60.2919 31.5686H55.9438C55.9994 31.7906 56.0906 31.9909 56.2175 32.1693C56.3443 32.3438 56.5049 32.4846 56.6993 32.5917C56.8936 32.6948 57.1136 32.7483 57.3595 32.7523C57.6133 32.7562 57.8433 32.6967 58.0495 32.5738C58.2596 32.4469 58.4341 32.2764 58.5729 32.0623L60.054 32.4073C59.8121 32.9347 59.4513 33.3669 58.9714 33.704C58.4916 34.0371 57.9543 34.2036 57.3595 34.2036ZM55.8963 30.4801H58.8227C58.7791 30.2421 58.6859 30.028 58.5432 29.8377C58.4044 29.6434 58.2319 29.4887 58.0257 29.3737C57.8195 29.2587 57.5974 29.2012 57.3595 29.2012C57.1216 29.2012 56.9015 29.2587 56.6993 29.3737C56.497 29.4848 56.3245 29.6374 56.1818 29.8317C56.043 30.0221 55.9478 30.2382 55.8963 30.4801ZM68.1233 34.2036C67.5602 34.2036 67.0308 34.0926 66.5351 33.8705C66.0395 33.6445 65.6033 33.3332 65.2265 32.9367C64.8498 32.5401 64.5544 32.0821 64.3403 31.5626C64.1261 31.0392 64.0191 30.4801 64.0191 29.8853C64.0191 29.2904 64.1261 28.7333 64.3403 28.2138C64.5544 27.6904 64.8498 27.2304 65.2265 26.8339C65.6033 26.4373 66.0395 26.128 66.5351 25.906C67.0308 25.6799 67.5602 25.5669 68.1233 25.5669C68.6903 25.5669 69.2217 25.6799 69.7174 25.906C70.2131 26.128 70.6493 26.4373 71.026 26.8339C71.4027 27.2304 71.6961 27.6904 71.9063 28.2138C72.1204 28.7333 72.2275 29.2904 72.2275 29.8853C72.2275 30.4801 72.1204 31.0392 71.9063 31.5626C71.6961 32.0821 71.4027 32.5401 71.026 32.9367C70.6493 33.3332 70.2131 33.6445 69.7174 33.8705C69.2217 34.0926 68.6903 34.2036 68.1233 34.2036ZM68.1233 32.7523C68.4881 32.7523 68.8311 32.6769 69.1523 32.5262C69.4735 32.3755 69.7551 32.1693 69.9969 31.9076C70.2428 31.6419 70.4331 31.3366 70.568 30.9916C70.7068 30.6466 70.7761 30.2778 70.7761 29.8853C70.7761 29.4927 70.7068 29.1239 70.568 28.7789C70.4292 28.43 70.2369 28.1246 69.991 27.8629C69.7491 27.6012 69.4676 27.395 69.1464 27.2443C68.8291 27.0936 68.4881 27.0183 68.1233 27.0183C67.7585 27.0183 67.4155 27.0936 67.0943 27.2443C66.7731 27.395 66.4895 27.6032 66.2437 27.8688C66.0018 28.1306 65.8114 28.4339 65.6727 28.7789C65.5378 29.1239 65.4704 29.4927 65.4704 29.8853C65.4704 30.2818 65.5398 30.6526 65.6786 30.9976C65.8174 31.3426 66.0077 31.6479 66.2496 31.9136C66.4955 32.1753 66.777 32.3815 67.0943 32.5322C67.4155 32.6789 67.7585 32.7523 68.1233 32.7523ZM76.2484 34.049H74.809L72.8223 28.1008H74.2439L75.5347 31.9493L76.8194 28.1008H78.2529L79.5377 31.9493L80.8285 28.1008H82.2501L80.2634 34.049H78.824L77.5332 30.1827L76.2484 34.049ZM85.5202 34.2036C84.9729 34.2036 84.4733 34.0628 84.0212 33.7813C83.5731 33.4997 83.2143 33.121 82.9446 32.6452C82.6789 32.1693 82.5461 31.6439 82.5461 31.0689C82.5461 30.6367 82.6234 30.2322 82.7781 29.8555C82.9327 29.4748 83.1449 29.1417 83.4145 28.8562C83.6881 28.5668 84.0054 28.3407 84.3662 28.1781C84.7271 28.0156 85.1117 27.9343 85.5202 27.9343C85.9841 27.9343 86.4084 28.0334 86.7931 28.2317C87.1817 28.426 87.5108 28.6937 87.7804 29.0347C88.0501 29.3757 88.2464 29.7643 88.3693 30.2005C88.4922 30.6367 88.52 31.0927 88.4526 31.5686H84.1045C84.16 31.7906 84.2512 31.9909 84.3781 32.1693C84.505 32.3438 84.6656 32.4846 84.8599 32.5917C85.0542 32.6948 85.2743 32.7483 85.5202 32.7523C85.7739 32.7562 86.0039 32.6967 86.2101 32.5738C86.4203 32.4469 86.5948 32.2764 86.7336 32.0623L88.2147 32.4073C87.9728 32.9347 87.6119 33.3669 87.1321 33.704C86.6523 34.0371 86.115 34.2036 85.5202 34.2036ZM84.0569 30.4801H86.9834C86.9398 30.2421 86.8466 30.028 86.7038 29.8377C86.565 29.6434 86.3926 29.4887 86.1864 29.3737C85.9801 29.2587 85.7581 29.2012 85.5202 29.2012C85.2822 29.2012 85.0622 29.2587 84.8599 29.3737C84.6577 29.4848 84.4852 29.6374 84.3424 29.8317C84.2036 30.0221 84.1085 30.2382 84.0569 30.4801ZM93.9404 25.1268H95.3917V34.049H93.9404V33.3054C93.75 33.5711 93.5101 33.7872 93.2207 33.9538C92.9312 34.1203 92.5961 34.2036 92.2154 34.2036C91.7832 34.2036 91.3787 34.1223 91.002 33.9597C90.6253 33.7971 90.2922 33.5731 90.0027 33.2876C89.7172 32.9981 89.4932 32.665 89.3306 32.2883C89.168 31.9116 89.0867 31.5071 89.0867 31.0749C89.0867 30.6427 89.168 30.2382 89.3306 29.8615C89.4932 29.4848 89.7172 29.1536 90.0027 28.8681C90.2922 28.5787 90.6253 28.3526 91.002 28.19C91.3787 28.0275 91.7832 27.9462 92.2154 27.9462C92.5961 27.9462 92.9312 28.0294 93.2207 28.196C93.5101 28.3586 93.75 28.5747 93.9404 28.8443V25.1268ZM92.2333 32.8058C92.5426 32.8058 92.8162 32.7285 93.0541 32.5738C93.292 32.4192 93.4784 32.211 93.6132 31.9493C93.7481 31.6836 93.8155 31.3921 93.8155 31.0749C93.8155 30.7537 93.7481 30.4622 93.6132 30.2005C93.4784 29.9348 93.2901 29.7247 93.0482 29.57C92.8102 29.4154 92.5386 29.338 92.2333 29.338C91.9279 29.338 91.6484 29.4173 91.3946 29.576C91.1448 29.7306 90.9445 29.9388 90.7938 30.2005C90.6471 30.4622 90.5737 30.7537 90.5737 31.0749C90.5737 31.3961 90.6491 31.6875 90.7998 31.9493C90.9505 32.211 91.1507 32.4192 91.4005 32.5738C91.6543 32.7285 91.9319 32.8058 92.2333 32.8058ZM97.3263 29.5938C97.1201 29.5938 96.9436 29.5224 96.7969 29.3797C96.6541 29.2329 96.5828 29.0545 96.5828 28.8443C96.5828 28.6421 96.6541 28.4676 96.7969 28.3209C96.9436 28.1742 97.1201 28.1008 97.3263 28.1008C97.5325 28.1008 97.7089 28.1742 97.8557 28.3209C98.0024 28.4676 98.0757 28.6421 98.0757 28.8443C98.0757 29.0545 98.0024 29.2329 97.8557 29.3797C97.7089 29.5224 97.5325 29.5938 97.3263 29.5938ZM97.3263 34.2036C97.1201 34.2036 96.9436 34.1322 96.7969 33.9895C96.6541 33.8427 96.5828 33.6643 96.5828 33.4541C96.5828 33.2519 96.6541 33.0774 96.7969 32.9307C96.9436 32.784 97.1201 32.7106 97.3263 32.7106C97.5325 32.7106 97.7089 32.784 97.8557 32.9307C98.0024 33.0774 98.0757 33.2519 98.0757 33.4541C98.0757 33.6643 98.0024 33.8427 97.8557 33.9895C97.7089 34.1322 97.5325 34.2036 97.3263 34.2036Z" fill="#07004D"/>
<path d="M189.109 27.0361C188.827 27.0321 188.559 27.0777 188.306 27.1729C188.056 27.2641 187.852 27.389 187.693 27.5476C187.534 27.7063 187.455 27.8887 187.455 28.0949C187.455 28.3606 187.528 28.5608 187.675 28.6956C187.826 28.8305 188.026 28.9296 188.276 28.993C188.526 29.0525 188.803 29.108 189.109 29.1596C189.664 29.2468 190.177 29.3935 190.649 29.5998C191.121 29.806 191.5 30.0815 191.785 30.4265C192.071 30.7676 192.214 31.1859 192.214 31.6816C192.214 32.1337 192.097 32.5361 191.863 32.8891C191.629 33.238 191.313 33.5235 190.917 33.7456C190.524 33.9677 190.088 34.1084 189.608 34.1679V35.3813H188.615V34.1679C188.214 34.1203 187.838 34.0192 187.485 33.8646C187.132 33.7099 186.825 33.5077 186.563 33.2578C186.305 33.008 186.115 32.7166 185.992 32.3835L187.354 31.8838C187.409 32.0424 187.522 32.1872 187.693 32.318C187.863 32.4489 188.072 32.554 188.318 32.6333C188.563 32.7126 188.827 32.7523 189.109 32.7523C189.398 32.7523 189.668 32.7086 189.918 32.6214C190.171 32.5302 190.376 32.4053 190.53 32.2467C190.685 32.0841 190.762 31.8957 190.762 31.6816C190.762 31.4635 190.681 31.2851 190.518 31.1463C190.356 31.0035 190.148 30.8905 189.894 30.8072C189.64 30.7239 189.378 30.6605 189.109 30.6169C188.518 30.5257 187.988 30.3849 187.52 30.1946C187.053 30.0042 186.682 29.7405 186.408 29.4035C186.139 29.0664 186.004 28.6302 186.004 28.0949C186.004 27.6428 186.121 27.2403 186.355 26.8874C186.593 26.5345 186.908 26.249 187.3 26.0309C187.697 25.8088 188.135 25.668 188.615 25.6086V24.3892H189.608V25.6086C190.001 25.6561 190.374 25.7573 190.727 25.9119C191.079 26.0666 191.387 26.2708 191.648 26.5246C191.914 26.7744 192.108 27.0678 192.231 27.4049L190.863 27.8986C190.808 27.74 190.695 27.5952 190.524 27.4644C190.354 27.3335 190.146 27.2304 189.9 27.1551C189.654 27.0758 189.39 27.0361 189.109 27.0361ZM195.979 34.2036C195.443 34.2036 194.96 34.0747 194.527 33.817C194.095 33.5553 193.752 33.2083 193.498 32.7761C193.248 32.3438 193.124 31.87 193.124 31.3544H194.575C194.575 31.6122 194.638 31.8481 194.765 32.0623C194.892 32.2724 195.061 32.441 195.271 32.5679C195.485 32.6908 195.721 32.7523 195.979 32.7523C196.236 32.7523 196.47 32.6908 196.681 32.5679C196.891 32.441 197.059 32.2724 197.186 32.0623C197.313 31.8481 197.376 31.6122 197.376 31.3544C197.376 31.0967 197.321 30.8608 197.21 30.6466C197.103 30.4285 196.926 30.256 196.681 30.1291C196.439 29.9983 196.117 29.9328 195.717 29.9328H193.576L194.456 25.7216H198.548V27.1729H195.634L195.366 28.4815L195.955 28.4875C196.518 28.5073 197.016 28.6441 197.448 28.8979C197.88 29.1517 198.217 29.4927 198.459 29.9209C198.705 30.3452 198.828 30.8231 198.828 31.3544C198.828 31.7431 198.754 32.1099 198.608 32.4549C198.461 32.7998 198.257 33.1032 197.995 33.3649C197.733 33.6266 197.43 33.8328 197.085 33.9835C196.744 34.1302 196.375 34.2036 195.979 34.2036ZM202.762 34.2036C202.231 34.2036 201.743 34.0708 201.299 33.8051C200.855 33.5394 200.5 33.1845 200.234 32.7404C199.968 32.2962 199.836 31.8045 199.836 31.2652C199.836 30.9876 199.867 30.7299 199.931 30.492C199.998 30.254 200.101 30.0141 200.24 29.7722L202.572 25.7216H204.255L202.691 28.428C203.012 28.4042 203.321 28.4319 203.619 28.5112C203.916 28.5906 204.192 28.7155 204.445 28.886C204.699 29.0565 204.921 29.2627 205.112 29.5046C205.302 29.7465 205.449 30.0161 205.552 30.3135C205.659 30.6109 205.712 30.9282 205.712 31.2652C205.712 31.6697 205.635 32.0484 205.48 32.4013C205.33 32.7542 205.12 33.0675 204.85 33.3411C204.58 33.6108 204.267 33.8229 203.91 33.9776C203.553 34.1283 203.171 34.2036 202.762 34.2036ZM202.762 32.7523C203.052 32.7523 203.309 32.6829 203.535 32.5441C203.761 32.4013 203.938 32.2169 204.065 31.9909C204.196 31.7649 204.261 31.525 204.261 31.2712C204.261 30.9976 204.196 30.7477 204.065 30.5217C203.934 30.2957 203.755 30.1153 203.529 29.9804C203.307 29.8456 203.056 29.7782 202.774 29.7782C202.485 29.7782 202.227 29.8496 202.001 29.9923C201.779 30.1311 201.604 30.3135 201.477 30.5396C201.35 30.7656 201.287 31.0095 201.287 31.2712C201.287 31.5527 201.356 31.8045 201.495 32.0266C201.634 32.2487 201.814 32.4251 202.036 32.556C202.262 32.6868 202.504 32.7523 202.762 32.7523ZM210.088 34.049V32.0325H206.543V30.5752L209.749 25.7216H211.539V30.5812H212.241V32.0325H211.539V34.049H210.088ZM208.226 30.5752L210.088 30.5812L210.082 27.7023L208.226 30.5752ZM214.176 34.2036C213.97 34.2036 213.793 34.1322 213.646 33.9895C213.504 33.8427 213.432 33.6643 213.432 33.4541C213.432 33.2519 213.504 33.0774 213.646 32.9307C213.793 32.784 213.97 32.7106 214.176 32.7106C214.382 32.7106 214.558 32.784 214.705 32.9307C214.852 33.0774 214.925 33.2519 214.925 33.4541C214.925 33.6643 214.852 33.8427 214.705 33.9895C214.558 34.1322 214.382 34.2036 214.176 34.2036ZM219.239 34.2036C218.755 34.2036 218.315 34.0926 217.918 33.8705C217.522 33.6445 217.179 33.3332 216.889 32.9367C216.604 32.5401 216.383 32.0821 216.229 31.5626C216.074 31.0392 215.997 30.4801 215.997 29.8853C215.997 29.2904 216.074 28.7333 216.229 28.2138C216.383 27.6904 216.604 27.2304 216.889 26.8339C217.179 26.4373 217.522 26.128 217.918 25.906C218.315 25.6799 218.755 25.5669 219.239 25.5669C219.722 25.5669 220.163 25.6799 220.559 25.906C220.956 26.128 221.295 26.4373 221.576 26.8339C221.862 27.2304 222.082 27.6904 222.236 28.2138C222.395 28.7333 222.474 29.2904 222.474 29.8853C222.474 30.4801 222.395 31.0392 222.236 31.5626C222.082 32.0821 221.862 32.5401 221.576 32.9367C221.295 33.3332 220.956 33.6445 220.559 33.8705C220.163 34.0926 219.722 34.2036 219.239 34.2036ZM219.239 32.7523C219.663 32.7523 220.014 32.6174 220.291 32.3478C220.569 32.0781 220.775 31.7252 220.91 31.289C221.045 30.8528 221.112 30.3849 221.112 29.8853C221.112 29.3579 221.041 28.878 220.898 28.4458C220.755 28.0096 220.545 27.6626 220.268 27.4049C219.99 27.1471 219.647 27.0183 219.239 27.0183C218.917 27.0183 218.638 27.0976 218.4 27.2562C218.166 27.4108 217.972 27.623 217.817 27.8926C217.662 28.1623 217.547 28.4696 217.472 28.8146C217.397 29.1556 217.359 29.5125 217.359 29.8853C217.359 30.3809 217.426 30.8489 217.561 31.289C217.7 31.7252 217.908 32.0781 218.186 32.3478C218.467 32.6174 218.818 32.7523 219.239 32.7523ZM226.163 34.2036C225.679 34.2036 225.239 34.0926 224.842 33.8705C224.446 33.6445 224.103 33.3332 223.813 32.9367C223.528 32.5401 223.307 32.0821 223.153 31.5626C222.998 31.0392 222.921 30.4801 222.921 29.8853C222.921 29.2904 222.998 28.7333 223.153 28.2138C223.307 27.6904 223.528 27.2304 223.813 26.8339C224.103 26.4373 224.446 26.128 224.842 25.906C225.239 25.6799 225.679 25.5669 226.163 25.5669C226.646 25.5669 227.087 25.6799 227.483 25.906C227.88 26.128 228.219 26.4373 228.5 26.8339C228.786 27.2304 229.006 27.6904 229.16 28.2138C229.319 28.7333 229.398 29.2904 229.398 29.8853C229.398 30.4801 229.319 31.0392 229.16 31.5626C229.006 32.0821 228.786 32.5401 228.5 32.9367C228.219 33.3332 227.88 33.6445 227.483 33.8705C227.087 34.0926 226.646 34.2036 226.163 34.2036ZM226.163 32.7523C226.587 32.7523 226.938 32.6174 227.215 32.3478C227.493 32.0781 227.699 31.7252 227.834 31.289C227.969 30.8528 228.036 30.3849 228.036 29.8853C228.036 29.3579 227.965 28.878 227.822 28.4458C227.679 28.0096 227.469 27.6626 227.192 27.4049C226.914 27.1471 226.571 27.0183 226.163 27.0183C225.841 27.0183 225.562 27.0976 225.324 27.2562C225.09 27.4108 224.896 27.623 224.741 27.8926C224.586 28.1623 224.471 28.4696 224.396 28.8146C224.321 29.1556 224.283 29.5125 224.283 29.8853C224.283 30.3809 224.35 30.8489 224.485 31.289C224.624 31.7252 224.832 32.0781 225.11 32.3478C225.391 32.6174 225.742 32.7523 226.163 32.7523Z" fill="#07004D"/>
<defs>
<filter id="filter0_d_9_307" x="1.04904e-05" y="1.43051e-05" width="249.821" height="66.9165" filterUnits="userSpaceOnUse" color-interpolation-filters="sRGB">
<feFlood flood-opacity="0" result="BackgroundImageFix"/>
<feColorMatrix in="SourceAlpha" type="matrix" values="0 0 0 0 0 0 0 0 0 0 0 0 0 0 0 0 0 0 127 0" result="hardAlpha"/>
<feMorphology radius="0.743516" operator="dilate" in="SourceAlpha" result="effect1_dropShadow_9_307"/>
<feOffset dy="2.97406"/>
<feGaussianBlur stdDeviation="1.48703"/>
<feComposite in2="hardAlpha" operator="out"/>
<feColorMatrix type="matrix" values="0 0 0 0 0 0 0 0 0 0 0 0 0 0 0 0 0 0 0.12 0"/>
<feBlend mode="normal" in2="BackgroundImageFix" result="effect1_dropShadow_9_307"/>
<feBlend mode="normal" in="SourceGraphic" in2="effect1_dropShadow_9_307" result="shape"/>
</filter>
</defs>
</svg>
