<svg width="393" height="852" viewBox="0 0 393 852" fill="none" xmlns="http://www.w3.org/2000/svg">
<g clip-path="url(#clip0_9_250)">
<rect width="393" height="852" fill="white"/>
<path d="M-577 309.5C-683.8 308.7 -765.5 239.833 -793 205.5V-5.5L399.5 -10.5L419.5 313C454.5 296.5 488.4 281.8 344 355C163.5 446.5 7 272.5 -225 226C-324.893 205.978 -487 310.174 -577 309.5Z" fill="#D4A7F5"/>
<path d="M-594.485 265.451C-709.451 264.675 -797.397 197.863 -827 164.554V-40.1492L456.674 -45L478.203 268.847C515.879 252.839 552.371 238.578 396.931 309.593C202.63 398.363 34.1652 229.555 -215.573 184.443C-323.103 165.018 -497.604 266.105 -594.485 265.451Z" fill="url(#paint0_linear_9_250)"/>
<path d="M148.824 98.468C147.12 98.468 145.518 98.132 144.018 97.46C142.518 96.776 141.198 95.834 140.058 94.634C138.93 93.434 138.042 92.048 137.394 90.476C136.758 88.892 136.44 87.2 136.44 85.4C136.44 83.588 136.758 81.896 137.394 80.324C138.042 78.74 138.93 77.354 140.058 76.166C141.198 74.966 142.518 74.03 144.018 73.358C145.518 72.674 147.12 72.332 148.824 72.332C150.864 72.332 152.742 72.806 154.458 73.754C156.174 74.69 157.596 75.944 158.724 77.516L154.8 79.622C154.092 78.746 153.21 78.044 152.154 77.516C151.11 76.988 150 76.724 148.824 76.724C147.72 76.724 146.682 76.952 145.71 77.408C144.738 77.852 143.886 78.476 143.154 79.28C142.422 80.072 141.852 80.996 141.444 82.052C141.036 83.096 140.832 84.212 140.832 85.4C140.832 86.6 141.036 87.722 141.444 88.766C141.864 89.81 142.44 90.734 143.172 91.538C143.904 92.33 144.75 92.954 145.71 93.41C146.682 93.854 147.72 94.076 148.824 94.076C150.024 94.076 151.14 93.812 152.172 93.284C153.216 92.744 154.092 92.036 154.8 91.16L158.724 93.284C157.596 94.844 156.174 96.098 154.458 97.046C152.742 97.994 150.864 98.468 148.824 98.468ZM161.998 98L161.98 80H166.372L166.39 81.602C167.002 80.954 167.734 80.444 168.586 80.072C169.438 79.688 170.356 79.496 171.34 79.496C172 79.496 172.66 79.592 173.32 79.784L171.592 84.212C171.136 84.032 170.68 83.942 170.224 83.942C169.516 83.942 168.868 84.116 168.28 84.464C167.704 84.8 167.242 85.262 166.894 85.85C166.558 86.426 166.39 87.068 166.39 87.776V98H161.998ZM182.416 98.468C180.76 98.468 179.248 98.042 177.88 97.19C176.524 96.338 175.438 95.192 174.622 93.752C173.818 92.312 173.416 90.722 173.416 88.982C173.416 87.674 173.65 86.45 174.118 85.31C174.586 84.158 175.228 83.15 176.044 82.286C176.872 81.41 177.832 80.726 178.924 80.234C180.016 79.742 181.18 79.496 182.416 79.496C183.82 79.496 185.104 79.796 186.268 80.396C187.444 80.984 188.44 81.794 189.256 82.826C190.072 83.858 190.666 85.034 191.038 86.354C191.41 87.674 191.494 89.054 191.29 90.494H178.132C178.3 91.166 178.576 91.772 178.96 92.312C179.344 92.84 179.83 93.266 180.418 93.59C181.006 93.902 181.672 94.064 182.416 94.076C183.184 94.088 183.88 93.908 184.504 93.536C185.14 93.152 185.668 92.636 186.088 91.988L190.57 93.032C189.838 94.628 188.746 95.936 187.294 96.956C185.842 97.964 184.216 98.468 182.416 98.468ZM177.988 87.2H186.844C186.712 86.48 186.43 85.832 185.998 85.256C185.578 84.668 185.056 84.2 184.432 83.852C183.808 83.504 183.136 83.33 182.416 83.33C181.696 83.33 181.03 83.504 180.418 83.852C179.806 84.188 179.284 84.65 178.852 85.238C178.432 85.814 178.144 86.468 177.988 87.2ZM207.897 71H212.289V98H207.897V95.75C207.321 96.554 206.595 97.208 205.719 97.712C204.843 98.216 203.829 98.468 202.677 98.468C201.369 98.468 200.145 98.222 199.005 97.73C197.865 97.238 196.857 96.56 195.981 95.696C195.117 94.82 194.439 93.812 193.947 92.672C193.455 91.532 193.209 90.308 193.209 89C193.209 87.692 193.455 86.468 193.947 85.328C194.439 84.188 195.117 83.186 195.981 82.322C196.857 81.446 197.865 80.762 199.005 80.27C200.145 79.778 201.369 79.532 202.677 79.532C203.829 79.532 204.843 79.784 205.719 80.288C206.595 80.78 207.321 81.434 207.897 82.25V71ZM202.731 94.238C203.667 94.238 204.495 94.004 205.215 93.536C205.935 93.068 206.499 92.438 206.907 91.646C207.315 90.842 207.519 89.96 207.519 89C207.519 88.028 207.315 87.146 206.907 86.354C206.499 85.55 205.929 84.914 205.197 84.446C204.477 83.978 203.655 83.744 202.731 83.744C201.807 83.744 200.961 83.984 200.193 84.464C199.437 84.932 198.831 85.562 198.375 86.354C197.931 87.146 197.709 88.028 197.709 89C197.709 89.972 197.937 90.854 198.393 91.646C198.849 92.438 199.455 93.068 200.211 93.536C200.979 94.004 201.819 94.238 202.731 94.238ZM216.613 80H221.005V98H216.613V80ZM218.845 77.678C218.197 77.678 217.651 77.468 217.207 77.048C216.763 76.616 216.541 76.076 216.541 75.428C216.541 74.792 216.763 74.258 217.207 73.826C217.651 73.394 218.191 73.178 218.827 73.178C219.463 73.178 219.997 73.394 220.429 73.826C220.873 74.258 221.095 74.792 221.095 75.428C221.095 76.076 220.879 76.616 220.447 77.048C220.015 77.468 219.481 77.678 218.845 77.678ZM230.426 76.22V80H235.34V84.392H230.426V98H226.034V84.392H224.072V80H226.034V76.22C226.034 75.188 226.286 74.246 226.79 73.394C227.306 72.53 227.996 71.846 228.86 71.342C229.724 70.826 230.678 70.568 231.722 70.568C232.478 70.568 233.228 70.724 233.972 71.036C234.716 71.348 235.376 71.828 235.952 72.476L232.784 75.572C232.676 75.368 232.52 75.218 232.316 75.122C232.124 75.014 231.926 74.96 231.722 74.96C231.374 74.96 231.068 75.086 230.804 75.338C230.552 75.578 230.426 75.872 230.426 76.22ZM250.336 80H254.998L245.152 107H240.49L243.748 98L237.268 80H242.074L245.944 91.988L250.336 80Z" fill="white"/>
<path d="M163.3 717.162C162.976 717.162 162.736 717.108 162.58 717C162.436 716.904 162.34 716.772 162.292 716.604C162.256 716.436 162.238 716.256 162.238 716.064V705.624C162.238 705.444 162.262 705.276 162.31 705.12C162.358 704.964 162.46 704.838 162.616 704.742C162.784 704.646 163.03 704.598 163.354 704.598C163.714 704.598 163.96 704.64 164.092 704.724C164.236 704.796 164.368 704.904 164.488 705.048L170.5 713.454V705.624C170.5 705.444 170.524 705.276 170.572 705.12C170.62 704.964 170.722 704.838 170.878 704.742C171.034 704.646 171.274 704.598 171.598 704.598C171.934 704.598 172.174 704.652 172.318 704.76C172.474 704.856 172.57 704.988 172.606 705.156C172.654 705.324 172.678 705.51 172.678 705.714V716.082C172.678 716.274 172.648 716.454 172.588 716.622C172.54 716.778 172.432 716.904 172.264 717C172.108 717.108 171.862 717.162 171.526 717.162C171.262 717.162 171.052 717.138 170.896 717.09C170.752 717.042 170.62 716.94 170.5 716.784L164.398 708.396V716.082C164.398 716.274 164.374 716.454 164.326 716.622C164.29 716.778 164.194 716.904 164.038 717C163.882 717.108 163.636 717.162 163.3 717.162ZM179.02 717.288C178.24 717.288 177.556 717.162 176.968 716.91C176.392 716.658 175.906 716.316 175.51 715.884C175.126 715.44 174.832 714.948 174.628 714.408C174.436 713.856 174.34 713.286 174.34 712.698C174.34 711.834 174.538 711.066 174.934 710.394C175.33 709.722 175.876 709.194 176.572 708.81C177.28 708.426 178.09 708.234 179.002 708.234C179.65 708.234 180.22 708.336 180.712 708.54C181.204 708.744 181.612 709.014 181.936 709.35C182.272 709.674 182.524 710.034 182.692 710.43C182.872 710.826 182.962 711.21 182.962 711.582C182.962 712.218 182.806 712.68 182.494 712.968C182.194 713.256 181.816 713.4 181.36 713.4H176.608C176.62 713.808 176.746 714.162 176.986 714.462C177.238 714.762 177.55 714.996 177.922 715.164C178.306 715.32 178.696 715.398 179.092 715.398C179.392 715.398 179.656 715.38 179.884 715.344C180.124 715.308 180.328 715.266 180.496 715.218C180.664 715.158 180.808 715.098 180.928 715.038C181.06 714.978 181.18 714.924 181.288 714.876C181.396 714.828 181.498 714.798 181.594 714.786C181.726 714.774 181.858 714.804 181.99 714.876C182.122 714.948 182.23 715.074 182.314 715.254C182.386 715.374 182.434 715.488 182.458 715.596C182.494 715.692 182.512 715.788 182.512 715.884C182.512 716.124 182.368 716.352 182.08 716.568C181.792 716.772 181.384 716.94 180.856 717.072C180.34 717.216 179.728 717.288 179.02 717.288ZM176.608 712.122H180.298C180.502 712.122 180.658 712.092 180.766 712.032C180.874 711.96 180.928 711.816 180.928 711.6C180.928 711.324 180.844 711.078 180.676 710.862C180.508 710.634 180.28 710.46 179.992 710.34C179.704 710.208 179.368 710.142 178.984 710.142C178.54 710.142 178.138 710.232 177.778 710.412C177.418 710.58 177.13 710.814 176.914 711.114C176.71 711.414 176.608 711.75 176.608 712.122ZM187.134 717.162C186.894 717.162 186.702 717.114 186.558 717.018C186.426 716.934 186.324 716.826 186.252 716.694C186.192 716.562 186.138 716.442 186.09 716.334L183.444 709.638C183.372 709.41 183.336 709.218 183.336 709.062C183.348 708.906 183.408 708.774 183.516 708.666C183.636 708.546 183.81 708.444 184.038 708.36C184.422 708.204 184.722 708.162 184.938 708.234C185.166 708.306 185.334 708.51 185.442 708.846L187.152 713.382L188.7 709.044C188.736 708.936 188.79 708.822 188.862 708.702C188.934 708.582 189.036 708.48 189.168 708.396C189.312 708.3 189.504 708.252 189.744 708.252C189.996 708.252 190.194 708.3 190.338 708.396C190.482 708.48 190.59 708.582 190.662 708.702C190.746 708.822 190.8 708.936 190.824 709.044L192.372 713.418L194.01 709.008C194.154 708.636 194.334 708.39 194.55 708.27C194.766 708.15 195.06 708.162 195.432 708.306C195.768 708.45 195.996 708.63 196.116 708.846C196.236 709.05 196.224 709.32 196.08 709.656L193.416 716.334C193.368 716.454 193.308 716.58 193.236 716.712C193.176 716.832 193.074 716.934 192.93 717.018C192.798 717.114 192.618 717.162 192.39 717.162C192.15 717.162 191.958 717.12 191.814 717.036C191.682 716.964 191.58 716.862 191.508 716.73C191.436 716.598 191.376 716.46 191.328 716.316L189.762 711.87L188.196 716.316C188.124 716.484 188.058 716.634 187.998 716.766C187.938 716.898 187.842 716.994 187.71 717.054C187.578 717.126 187.386 717.162 187.134 717.162ZM207.293 717.27C206.453 717.27 205.703 717.12 205.043 716.82C204.395 716.508 203.849 716.082 203.405 715.542C202.961 714.99 202.625 714.366 202.397 713.67C202.169 712.962 202.055 712.212 202.055 711.42V705.678C202.055 705.474 202.073 705.294 202.109 705.138C202.157 704.97 202.253 704.838 202.397 704.742C202.553 704.634 202.805 704.58 203.153 704.58C203.501 704.58 203.747 704.634 203.891 704.742C204.047 704.838 204.143 704.97 204.179 705.138C204.227 705.294 204.251 705.48 204.251 705.696V711.42C204.251 712.08 204.359 712.692 204.575 713.256C204.803 713.808 205.145 714.252 205.601 714.588C206.057 714.924 206.639 715.092 207.347 715.092C207.983 715.092 208.529 714.942 208.985 714.642C209.441 714.342 209.789 713.916 210.029 713.364C210.281 712.812 210.407 712.158 210.407 711.402V705.588C210.407 705.396 210.425 705.228 210.461 705.084C210.509 704.94 210.611 704.82 210.767 704.724C210.923 704.628 211.169 704.58 211.505 704.58C211.853 704.58 212.099 704.634 212.243 704.742C212.399 704.838 212.495 704.97 212.531 705.138C212.567 705.306 212.585 705.492 212.585 705.696V711.456C212.585 712.248 212.471 712.998 212.243 713.706C212.015 714.402 211.673 715.02 211.217 715.56C210.761 716.088 210.203 716.508 209.543 716.82C208.895 717.12 208.145 717.27 207.293 717.27ZM217.294 717.288C216.982 717.288 216.652 717.252 216.304 717.18C215.956 717.12 215.62 717.03 215.296 716.91C214.972 716.778 214.69 716.628 214.45 716.46C214.222 716.28 214.078 716.082 214.018 715.866C213.97 715.746 213.952 715.632 213.964 715.524C213.976 715.404 214.012 715.284 214.072 715.164C214.132 715.032 214.222 714.9 214.342 714.768C214.45 714.636 214.558 714.564 214.666 714.552C214.786 714.528 214.936 714.564 215.116 714.66C215.272 714.72 215.44 714.798 215.62 714.894C215.812 714.99 216.004 715.086 216.196 715.182C216.4 715.278 216.604 715.356 216.808 715.416C217.024 715.476 217.234 715.506 217.438 715.506C217.882 715.506 218.236 715.434 218.5 715.29C218.764 715.134 218.896 714.918 218.896 714.642C218.896 714.486 218.854 714.348 218.77 714.228C218.686 714.108 218.572 714.012 218.428 713.94C218.296 713.856 218.134 713.784 217.942 713.724C217.762 713.652 217.564 713.592 217.348 713.544C217.144 713.484 216.928 713.418 216.7 713.346C216.4 713.262 216.1 713.16 215.8 713.04C215.5 712.92 215.23 712.764 214.99 712.572C214.762 712.38 214.576 712.14 214.432 711.852C214.288 711.564 214.216 711.204 214.216 710.772C214.216 710.232 214.342 709.776 214.594 709.404C214.858 709.02 215.236 708.726 215.728 708.522C216.22 708.318 216.814 708.216 217.51 708.216C217.75 708.216 217.978 708.234 218.194 708.27C218.422 708.306 218.638 708.36 218.842 708.432C219.058 708.492 219.262 708.57 219.454 708.666C219.658 708.762 219.85 708.87 220.03 708.99C220.33 709.158 220.486 709.356 220.498 709.584C220.51 709.8 220.426 710.034 220.246 710.286C220.114 710.454 219.982 710.574 219.85 710.646C219.718 710.706 219.58 710.706 219.436 710.646C219.244 710.55 219.034 710.448 218.806 710.34C218.59 710.22 218.362 710.118 218.122 710.034C217.894 709.95 217.654 709.908 217.402 709.908C217.162 709.908 216.946 709.944 216.754 710.016C216.562 710.088 216.418 710.19 216.322 710.322C216.226 710.454 216.178 710.61 216.178 710.79C216.178 710.958 216.226 711.096 216.322 711.204C216.418 711.312 216.544 711.402 216.7 711.474C216.856 711.546 217.042 711.612 217.258 711.672C217.474 711.72 217.702 711.768 217.942 711.816C218.278 711.888 218.62 711.978 218.968 712.086C219.316 712.194 219.634 712.344 219.922 712.536C220.222 712.728 220.462 712.986 220.642 713.31C220.822 713.622 220.912 714.03 220.912 714.534C220.912 715.41 220.588 716.088 219.94 716.568C219.304 717.048 218.422 717.288 217.294 717.288ZM226.762 717.288C225.982 717.288 225.298 717.162 224.71 716.91C224.134 716.658 223.648 716.316 223.252 715.884C222.868 715.44 222.574 714.948 222.37 714.408C222.178 713.856 222.082 713.286 222.082 712.698C222.082 711.834 222.28 711.066 222.676 710.394C223.072 709.722 223.618 709.194 224.314 708.81C225.022 708.426 225.832 708.234 226.744 708.234C227.392 708.234 227.962 708.336 228.454 708.54C228.946 708.744 229.354 709.014 229.678 709.35C230.014 709.674 230.266 710.034 230.434 710.43C230.614 710.826 230.704 711.21 230.704 711.582C230.704 712.218 230.548 712.68 230.236 712.968C229.936 713.256 229.558 713.4 229.102 713.4H224.35C224.362 713.808 224.488 714.162 224.728 714.462C224.98 714.762 225.292 714.996 225.664 715.164C226.048 715.32 226.438 715.398 226.834 715.398C227.134 715.398 227.398 715.38 227.626 715.344C227.866 715.308 228.07 715.266 228.238 715.218C228.406 715.158 228.55 715.098 228.67 715.038C228.802 714.978 228.922 714.924 229.03 714.876C229.138 714.828 229.24 714.798 229.336 714.786C229.468 714.774 229.6 714.804 229.732 714.876C229.864 714.948 229.972 715.074 230.056 715.254C230.128 715.374 230.176 715.488 230.2 715.596C230.236 715.692 230.254 715.788 230.254 715.884C230.254 716.124 230.11 716.352 229.822 716.568C229.534 716.772 229.126 716.94 228.598 717.072C228.082 717.216 227.47 717.288 226.762 717.288ZM224.35 712.122H228.04C228.244 712.122 228.4 712.092 228.508 712.032C228.616 711.96 228.67 711.816 228.67 711.6C228.67 711.324 228.586 711.078 228.418 710.862C228.25 710.634 228.022 710.46 227.734 710.34C227.446 710.208 227.11 710.142 226.726 710.142C226.282 710.142 225.88 710.232 225.52 710.412C225.16 710.58 224.872 710.814 224.656 711.114C224.452 711.414 224.35 711.75 224.35 712.122ZM233.243 717.18C232.919 717.18 232.679 717.126 232.523 717.018C232.379 716.922 232.289 716.79 232.253 716.622C232.217 716.454 232.199 716.268 232.199 716.064V709.386C232.199 709.17 232.217 708.984 232.253 708.828C232.289 708.66 232.379 708.534 232.523 708.45C232.679 708.354 232.925 708.306 233.261 708.306C233.585 708.306 233.819 708.348 233.963 708.432C234.119 708.516 234.215 708.624 234.251 708.756C234.299 708.876 234.323 708.996 234.323 709.116L234.179 709.44C234.239 709.344 234.323 709.23 234.431 709.098C234.539 708.954 234.683 708.816 234.863 708.684C235.043 708.54 235.259 708.426 235.511 708.342C235.763 708.246 236.063 708.198 236.411 708.198C236.555 708.198 236.705 708.216 236.861 708.252C237.029 708.276 237.191 708.318 237.347 708.378C237.515 708.426 237.665 708.492 237.797 708.576C237.929 708.66 238.031 708.762 238.103 708.882C238.175 708.99 238.211 709.116 238.211 709.26C238.211 709.644 238.115 709.968 237.923 710.232C237.731 710.496 237.503 710.628 237.239 710.628C237.059 710.628 236.927 710.61 236.843 710.574C236.759 710.538 236.687 710.496 236.627 710.448C236.579 710.4 236.501 710.358 236.393 710.322C236.297 710.286 236.141 710.268 235.925 710.268C235.745 710.268 235.559 710.298 235.367 710.358C235.187 710.418 235.019 710.508 234.863 710.628C234.707 710.748 234.581 710.904 234.485 711.096C234.389 711.276 234.341 711.486 234.341 711.726V716.1C234.341 716.304 234.323 716.49 234.287 716.658C234.251 716.814 234.155 716.94 233.999 717.036C233.843 717.132 233.591 717.18 233.243 717.18Z" fill="white"/>
<path d="M88.3897 466V454.8H89.5097V464.88H94.6537V466H88.3897ZM99.1128 466.208C98.3768 466.208 97.7048 466.019 97.0968 465.64C96.4941 465.261 96.0115 464.755 95.6488 464.12C95.2915 463.48 95.1128 462.773 95.1128 462C95.1128 461.413 95.2168 460.867 95.4248 460.36C95.6328 459.848 95.9181 459.4 96.2808 459.016C96.6488 458.627 97.0755 458.323 97.5608 458.104C98.0461 457.885 98.5635 457.776 99.1128 457.776C99.7048 457.776 100.249 457.893 100.745 458.128C101.246 458.363 101.675 458.691 102.033 459.112C102.395 459.533 102.667 460.027 102.849 460.592C103.035 461.157 103.113 461.768 103.081 462.424H96.2968C96.3608 462.931 96.5208 463.384 96.7768 463.784C97.0381 464.184 97.3688 464.501 97.7688 464.736C98.1741 464.965 98.6221 465.083 99.1128 465.088C99.6461 465.088 100.126 464.949 100.553 464.672C100.985 464.395 101.331 464.013 101.593 463.528L102.729 463.792C102.409 464.501 101.926 465.083 101.281 465.536C100.635 465.984 99.9128 466.208 99.1128 466.208ZM96.2648 461.52H101.953C101.915 461.024 101.763 460.571 101.497 460.16C101.235 459.744 100.897 459.413 100.481 459.168C100.065 458.917 99.6088 458.792 99.1128 458.792C98.6168 458.792 98.1635 458.915 97.7528 459.16C97.3421 459.4 97.0061 459.728 96.7448 460.144C96.4835 460.555 96.3235 461.013 96.2648 461.52ZM107.972 466H106.548L103.628 457.976H104.82L107.26 464.688L109.7 457.976H110.892L107.972 466ZM115.425 466.208C114.689 466.208 114.017 466.019 113.409 465.64C112.807 465.261 112.324 464.755 111.961 464.12C111.604 463.48 111.425 462.773 111.425 462C111.425 461.413 111.529 460.867 111.737 460.36C111.945 459.848 112.231 459.4 112.593 459.016C112.961 458.627 113.388 458.323 113.873 458.104C114.359 457.885 114.876 457.776 115.425 457.776C116.017 457.776 116.561 457.893 117.057 458.128C117.559 458.363 117.988 458.691 118.345 459.112C118.708 459.533 118.98 460.027 119.161 460.592C119.348 461.157 119.425 461.768 119.393 462.424H112.609C112.673 462.931 112.833 463.384 113.089 463.784C113.351 464.184 113.681 464.501 114.081 464.736C114.487 464.965 114.935 465.083 115.425 465.088C115.959 465.088 116.439 464.949 116.865 464.672C117.297 464.395 117.644 464.013 117.905 463.528L119.041 463.792C118.721 464.501 118.239 465.083 117.593 465.536C116.948 465.984 116.225 466.208 115.425 466.208ZM112.577 461.52H118.265C118.228 461.024 118.076 460.571 117.809 460.16C117.548 459.744 117.209 459.413 116.793 459.168C116.377 458.917 115.921 458.792 115.425 458.792C114.929 458.792 114.476 458.915 114.065 459.16C113.655 459.4 113.319 459.728 113.057 460.144C112.796 460.555 112.636 461.013 112.577 461.52ZM120.702 466V454H121.822V466H120.702ZM127.273 462.936V458H128.393V462.712C128.393 463.149 128.499 463.547 128.713 463.904C128.926 464.261 129.211 464.547 129.569 464.76C129.931 464.973 130.329 465.08 130.761 465.08C131.198 465.08 131.593 464.973 131.945 464.76C132.302 464.547 132.587 464.261 132.801 463.904C133.014 463.547 133.121 463.149 133.121 462.712V458H134.241L134.249 466H133.129L133.121 464.88C132.838 465.285 132.47 465.608 132.017 465.848C131.569 466.088 131.078 466.208 130.545 466.208C129.942 466.208 129.393 466.061 128.897 465.768C128.401 465.475 128.006 465.08 127.713 464.584C127.419 464.088 127.273 463.539 127.273 462.936ZM136.807 470H135.687V458H136.807V459.496C137.084 458.989 137.463 458.579 137.943 458.264C138.423 457.949 138.993 457.792 139.655 457.792C140.236 457.792 140.78 457.901 141.287 458.12C141.799 458.339 142.247 458.643 142.631 459.032C143.015 459.416 143.316 459.861 143.535 460.368C143.753 460.875 143.863 461.419 143.863 462C143.863 462.581 143.753 463.128 143.535 463.64C143.316 464.152 143.015 464.603 142.631 464.992C142.247 465.376 141.799 465.677 141.287 465.896C140.78 466.115 140.236 466.224 139.655 466.224C138.993 466.224 138.423 466.067 137.943 465.752C137.463 465.437 137.084 465.027 136.807 464.52V470ZM139.647 458.88C139.087 458.88 138.599 459.021 138.183 459.304C137.772 459.581 137.455 459.955 137.231 460.424C137.007 460.893 136.895 461.419 136.895 462C136.895 462.571 137.004 463.093 137.223 463.568C137.447 464.043 137.764 464.421 138.175 464.704C138.591 464.987 139.081 465.128 139.647 465.128C140.201 465.128 140.711 464.989 141.175 464.712C141.644 464.435 142.02 464.061 142.303 463.592C142.585 463.117 142.727 462.587 142.727 462C142.727 461.429 142.588 460.909 142.311 460.44C142.033 459.965 141.663 459.587 141.199 459.304C140.735 459.021 140.217 458.88 139.647 458.88ZM154.62 458H155.804L151.428 470H150.236L151.692 466L148.82 458H150.044L152.252 464.456L154.62 458ZM160.441 466.208C159.705 466.208 159.033 466.019 158.425 465.64C157.822 465.261 157.34 464.755 156.977 464.12C156.62 463.48 156.441 462.773 156.441 462C156.441 461.413 156.545 460.867 156.753 460.36C156.961 459.848 157.246 459.4 157.609 459.016C157.977 458.627 158.404 458.323 158.889 458.104C159.374 457.885 159.892 457.776 160.441 457.776C161.177 457.776 161.846 457.965 162.449 458.344C163.057 458.723 163.54 459.232 163.897 459.872C164.26 460.512 164.441 461.221 164.441 462C164.441 462.581 164.337 463.125 164.129 463.632C163.921 464.139 163.633 464.587 163.265 464.976C162.902 465.36 162.478 465.661 161.993 465.88C161.513 466.099 160.996 466.208 160.441 466.208ZM160.441 465.088C160.985 465.088 161.473 464.947 161.905 464.664C162.342 464.376 162.686 463.997 162.937 463.528C163.193 463.059 163.321 462.549 163.321 462C163.321 461.44 163.193 460.925 162.937 460.456C162.681 459.981 162.334 459.603 161.897 459.32C161.465 459.037 160.98 458.896 160.441 458.896C159.897 458.896 159.406 459.04 158.969 459.328C158.537 459.611 158.193 459.987 157.937 460.456C157.686 460.925 157.561 461.44 157.561 462C157.561 462.576 157.692 463.099 157.953 463.568C158.214 464.032 158.564 464.403 159.001 464.68C159.438 464.952 159.918 465.088 160.441 465.088ZM165.398 462.936V458H166.518V462.712C166.518 463.149 166.624 463.547 166.838 463.904C167.051 464.261 167.336 464.547 167.694 464.76C168.056 464.973 168.454 465.08 168.886 465.08C169.323 465.08 169.718 464.973 170.07 464.76C170.427 464.547 170.712 464.261 170.926 463.904C171.139 463.547 171.246 463.149 171.246 462.712V458H172.366L172.374 466H171.254L171.246 464.88C170.963 465.285 170.595 465.608 170.142 465.848C169.694 466.088 169.203 466.208 168.67 466.208C168.067 466.208 167.518 466.061 167.022 465.768C166.526 465.475 166.131 465.08 165.838 464.584C165.544 464.088 165.398 463.539 165.398 462.936ZM173.968 466V458H175.088V459.104C175.37 458.699 175.738 458.376 176.192 458.136C176.645 457.896 177.138 457.776 177.672 457.776C177.981 457.776 178.28 457.816 178.568 457.896L178.112 459.008C177.888 458.939 177.669 458.904 177.456 458.904C177.024 458.904 176.626 459.011 176.264 459.224C175.906 459.437 175.621 459.723 175.408 460.08C175.194 460.437 175.088 460.835 175.088 461.272V466H173.968ZM189.778 466H188.49L186.25 462.136L184.65 464.048V466H183.53V454H184.65V462.304L188.258 458H189.722L187.01 461.224L189.778 466ZM198.366 461.048V466H197.246V461.272C197.246 460.835 197.139 460.437 196.926 460.08C196.712 459.723 196.427 459.437 196.07 459.224C195.712 459.011 195.315 458.904 194.878 458.904C194.446 458.904 194.048 459.011 193.686 459.224C193.328 459.437 193.043 459.723 192.83 460.08C192.616 460.437 192.51 460.835 192.51 461.272V466H191.39V458H192.51V459.104C192.792 458.699 193.16 458.376 193.614 458.136C194.067 457.896 194.56 457.776 195.094 457.776C195.696 457.776 196.246 457.923 196.742 458.216C197.238 458.509 197.632 458.904 197.926 459.4C198.219 459.896 198.366 460.445 198.366 461.048ZM203.332 466.208C202.596 466.208 201.924 466.019 201.316 465.64C200.713 465.261 200.23 464.755 199.868 464.12C199.51 463.48 199.332 462.773 199.332 462C199.332 461.413 199.436 460.867 199.644 460.36C199.852 459.848 200.137 459.4 200.5 459.016C200.868 458.627 201.294 458.323 201.78 458.104C202.265 457.885 202.782 457.776 203.332 457.776C204.068 457.776 204.737 457.965 205.34 458.344C205.948 458.723 206.43 459.232 206.788 459.872C207.15 460.512 207.332 461.221 207.332 462C207.332 462.581 207.228 463.125 207.02 463.632C206.812 464.139 206.524 464.587 206.156 464.976C205.793 465.36 205.369 465.661 204.884 465.88C204.404 466.099 203.886 466.208 203.332 466.208ZM203.332 465.088C203.876 465.088 204.364 464.947 204.796 464.664C205.233 464.376 205.577 463.997 205.828 463.528C206.084 463.059 206.212 462.549 206.212 462C206.212 461.44 206.084 460.925 205.828 460.456C205.572 459.981 205.225 459.603 204.788 459.32C204.356 459.037 203.87 458.896 203.332 458.896C202.788 458.896 202.297 459.04 201.86 459.328C201.428 459.611 201.084 459.987 200.828 460.456C200.577 460.925 200.452 461.44 200.452 462C200.452 462.576 200.582 463.099 200.844 463.568C201.105 464.032 201.454 464.403 201.892 464.68C202.329 464.952 202.809 465.088 203.332 465.088ZM211.695 466H210.543L207.863 458H208.959L211.135 464.448L213.295 458H214.479L216.639 464.448L218.799 458H219.903L217.223 466H216.063L213.871 459.488L211.695 466ZM221.343 466V454H222.463V466H221.343ZM227.847 466.208C227.111 466.208 226.439 466.019 225.831 465.64C225.229 465.261 224.746 464.755 224.383 464.12C224.026 463.48 223.847 462.773 223.847 462C223.847 461.413 223.951 460.867 224.159 460.36C224.367 459.848 224.653 459.4 225.015 459.016C225.383 458.627 225.81 458.323 226.295 458.104C226.781 457.885 227.298 457.776 227.847 457.776C228.439 457.776 228.983 457.893 229.479 458.128C229.981 458.363 230.41 458.691 230.767 459.112C231.13 459.533 231.402 460.027 231.583 460.592C231.77 461.157 231.847 461.768 231.815 462.424H225.031C225.095 462.931 225.255 463.384 225.511 463.784C225.773 464.184 226.103 464.501 226.503 464.736C226.909 464.965 227.357 465.083 227.847 465.088C228.381 465.088 228.861 464.949 229.287 464.672C229.719 464.395 230.066 464.013 230.327 463.528L231.463 463.792C231.143 464.501 230.661 465.083 230.015 465.536C229.37 465.984 228.647 466.208 227.847 466.208ZM224.999 461.52H230.687C230.65 461.024 230.498 460.571 230.231 460.16C229.97 459.744 229.631 459.413 229.215 459.168C228.799 458.917 228.343 458.792 227.847 458.792C227.351 458.792 226.898 458.915 226.487 459.16C226.077 459.4 225.741 459.728 225.479 460.144C225.218 460.555 225.058 461.013 224.999 461.52ZM239.692 454H240.812V466H239.692V464.504C239.415 465.016 239.034 465.429 238.548 465.744C238.068 466.053 237.498 466.208 236.836 466.208C236.255 466.208 235.711 466.099 235.204 465.88C234.698 465.661 234.25 465.36 233.86 464.976C233.476 464.587 233.175 464.139 232.956 463.632C232.738 463.125 232.628 462.581 232.628 462C232.628 461.419 232.738 460.875 232.956 460.368C233.175 459.856 233.476 459.408 233.86 459.024C234.25 458.635 234.698 458.331 235.204 458.112C235.711 457.893 236.255 457.784 236.836 457.784C237.498 457.784 238.068 457.941 238.548 458.256C239.034 458.565 239.415 458.973 239.692 459.48V454ZM236.844 465.12C237.415 465.12 237.906 464.981 238.316 464.704C238.727 464.421 239.042 464.043 239.26 463.568C239.484 463.093 239.596 462.571 239.596 462C239.596 461.413 239.484 460.885 239.26 460.416C239.036 459.941 238.719 459.565 238.308 459.288C237.898 459.011 237.41 458.872 236.844 458.872C236.279 458.872 235.764 459.013 235.3 459.296C234.836 459.573 234.466 459.949 234.188 460.424C233.911 460.899 233.772 461.424 233.772 462C233.772 462.581 233.914 463.109 234.196 463.584C234.479 464.053 234.852 464.427 235.316 464.704C235.786 464.981 236.295 465.12 236.844 465.12ZM249.031 458H250.151V466.296C250.151 466.808 250.039 467.288 249.815 467.736C249.596 468.184 249.298 468.576 248.919 468.912C248.546 469.253 248.119 469.52 247.639 469.712C247.159 469.904 246.66 470 246.143 470C245.588 470 245.052 469.872 244.535 469.616C244.018 469.365 243.567 469.029 243.183 468.608C242.804 468.187 242.535 467.72 242.375 467.208L243.407 466.736C243.508 467.136 243.698 467.496 243.975 467.816C244.258 468.141 244.588 468.397 244.967 468.584C245.351 468.776 245.743 468.872 246.143 468.872C246.511 468.872 246.866 468.803 247.207 468.664C247.554 468.531 247.863 468.347 248.135 468.112C248.412 467.877 248.631 467.603 248.791 467.288C248.951 466.979 249.031 466.648 249.031 466.296V464.528C248.754 465.029 248.378 465.435 247.903 465.744C247.434 466.053 246.887 466.208 246.263 466.208C245.703 466.208 245.175 466.099 244.679 465.88C244.188 465.661 243.756 465.36 243.383 464.976C243.01 464.587 242.716 464.139 242.503 463.632C242.295 463.125 242.191 462.581 242.191 462C242.191 461.419 242.295 460.875 242.503 460.368C242.716 459.856 243.01 459.408 243.383 459.024C243.756 458.635 244.188 458.331 244.679 458.112C245.175 457.893 245.703 457.784 246.263 457.784C246.887 457.784 247.434 457.939 247.903 458.248C248.378 458.552 248.754 458.957 249.031 459.464V458ZM246.271 465.12C246.826 465.12 247.303 464.976 247.703 464.688C248.108 464.4 248.42 464.019 248.639 463.544C248.858 463.069 248.967 462.555 248.967 462C248.967 461.429 248.855 460.909 248.631 460.44C248.412 459.965 248.1 459.587 247.695 459.304C247.29 459.016 246.815 458.872 246.271 458.872C245.727 458.872 245.231 459.013 244.783 459.296C244.34 459.573 243.988 459.949 243.727 460.424C243.466 460.899 243.335 461.424 243.335 462C243.335 462.576 243.468 463.101 243.735 463.576C244.002 464.045 244.356 464.421 244.799 464.704C245.247 464.981 245.738 465.12 246.271 465.12ZM255.519 466.208C254.783 466.208 254.111 466.019 253.503 465.64C252.9 465.261 252.418 464.755 252.055 464.12C251.698 463.48 251.519 462.773 251.519 462C251.519 461.413 251.623 460.867 251.831 460.36C252.039 459.848 252.324 459.4 252.687 459.016C253.055 458.627 253.482 458.323 253.967 458.104C254.452 457.885 254.97 457.776 255.519 457.776C256.111 457.776 256.655 457.893 257.151 458.128C257.652 458.363 258.082 458.691 258.439 459.112C258.802 459.533 259.074 460.027 259.255 460.592C259.442 461.157 259.519 461.768 259.487 462.424H252.703C252.767 462.931 252.927 463.384 253.183 463.784C253.444 464.184 253.775 464.501 254.175 464.736C254.58 464.965 255.028 465.083 255.519 465.088C256.052 465.088 256.532 464.949 256.959 464.672C257.391 464.395 257.738 464.013 257.999 463.528L259.135 463.792C258.815 464.501 258.332 465.083 257.687 465.536C257.042 465.984 256.319 466.208 255.519 466.208ZM252.671 461.52H258.359C258.322 461.024 258.17 460.571 257.903 460.16C257.642 459.744 257.303 459.413 256.887 459.168C256.471 458.917 256.015 458.792 255.519 458.792C255.023 458.792 254.57 458.915 254.159 459.16C253.748 459.4 253.412 459.728 253.151 460.144C252.89 460.555 252.73 461.013 252.671 461.52ZM268.132 466H266.98L264.3 458H265.396L267.572 464.448L269.732 458H270.916L273.076 464.448L275.236 458H276.34L273.66 466H272.5L270.308 459.488L268.132 466ZM277.671 458H278.791V466H277.671V458ZM278.239 456.6C278.058 456.6 277.903 456.541 277.775 456.424C277.652 456.301 277.591 456.149 277.591 455.968C277.591 455.787 277.652 455.637 277.775 455.52C277.903 455.397 278.058 455.336 278.239 455.336C278.415 455.336 278.564 455.397 278.687 455.52C278.815 455.637 278.879 455.787 278.879 455.968C278.879 456.149 278.818 456.301 278.695 456.424C278.572 456.541 278.42 456.6 278.239 456.6ZM284.806 459.12H282.894L282.886 466H281.766L281.774 459.12H280.326V458H281.774L281.766 455.488H282.886L282.894 458H284.806V459.12ZM293.209 461.048V466H292.089V461.272C292.089 460.835 291.983 460.437 291.769 460.08C291.556 459.723 291.271 459.437 290.913 459.224C290.556 459.011 290.159 458.904 289.721 458.904C289.289 458.904 288.892 459.011 288.529 459.224C288.172 459.437 287.887 459.723 287.673 460.08C287.46 460.437 287.353 460.835 287.353 461.272V466H286.233V454H287.353V459.104C287.636 458.699 288.004 458.376 288.457 458.136C288.911 457.896 289.404 457.776 289.937 457.776C290.54 457.776 291.089 457.923 291.585 458.216C292.081 458.509 292.476 458.904 292.769 459.4C293.063 459.896 293.209 460.445 293.209 461.048ZM305.231 458H306.351V466H305.231L305.191 464.512C304.93 465.019 304.565 465.429 304.095 465.744C303.626 466.053 303.066 466.208 302.415 466.208C301.829 466.208 301.279 466.099 300.767 465.88C300.255 465.656 299.805 465.349 299.415 464.96C299.026 464.571 298.722 464.12 298.503 463.608C298.285 463.096 298.175 462.547 298.175 461.96C298.175 461.384 298.282 460.843 298.495 460.336C298.714 459.829 299.013 459.384 299.391 459C299.775 458.616 300.218 458.317 300.719 458.104C301.226 457.885 301.767 457.776 302.343 457.776C303.01 457.776 303.591 457.936 304.087 458.256C304.583 458.571 304.978 458.984 305.271 459.496L305.231 458ZM302.391 465.12C302.962 465.12 303.453 464.981 303.863 464.704C304.274 464.421 304.589 464.043 304.807 463.568C305.031 463.093 305.143 462.571 305.143 462C305.143 461.413 305.031 460.885 304.807 460.416C304.583 459.941 304.266 459.565 303.855 459.288C303.445 459.011 302.957 458.872 302.391 458.872C301.826 458.872 301.309 459.013 300.839 459.296C300.375 459.573 300.005 459.949 299.727 460.424C299.455 460.899 299.319 461.424 299.319 462C299.319 462.581 299.461 463.109 299.743 463.584C300.026 464.053 300.399 464.427 300.863 464.704C301.333 464.981 301.842 465.12 302.391 465.12ZM314.928 461.048V466H313.808V461.272C313.808 460.835 313.702 460.437 313.488 460.08C313.275 459.723 312.99 459.437 312.632 459.224C312.275 459.011 311.878 458.904 311.44 458.904C311.008 458.904 310.611 459.011 310.248 459.224C309.891 459.437 309.606 459.723 309.392 460.08C309.179 460.437 309.072 460.835 309.072 461.272V466H307.952V458H309.072V459.104C309.355 458.699 309.723 458.376 310.176 458.136C310.63 457.896 311.123 457.776 311.656 457.776C312.259 457.776 312.808 457.923 313.304 458.216C313.8 458.509 314.195 458.904 314.488 459.4C314.782 459.896 314.928 460.445 314.928 461.048ZM108.046 477H109.166V485H108.046V477ZM108.614 475.6C108.433 475.6 108.278 475.541 108.15 475.424C108.027 475.301 107.966 475.149 107.966 474.968C107.966 474.787 108.027 474.637 108.15 474.52C108.278 474.397 108.433 474.336 108.614 474.336C108.79 474.336 108.939 474.397 109.062 474.52C109.19 474.637 109.254 474.787 109.254 474.968C109.254 475.149 109.193 475.301 109.07 475.424C108.947 475.541 108.795 475.6 108.614 475.6ZM111.062 485V477H112.182V478.104C112.47 477.699 112.838 477.376 113.286 477.136C113.734 476.896 114.224 476.776 114.758 476.776C115.36 476.776 115.912 476.925 116.414 477.224C116.915 477.517 117.307 477.909 117.59 478.4C117.872 477.909 118.262 477.517 118.758 477.224C119.254 476.925 119.803 476.776 120.406 476.776C121.008 476.776 121.558 476.923 122.054 477.216C122.55 477.509 122.944 477.904 123.238 478.4C123.531 478.896 123.678 479.445 123.678 480.048V485H122.558V480.296C122.558 479.869 122.454 479.475 122.246 479.112C122.038 478.749 121.758 478.459 121.406 478.24C121.059 478.016 120.672 477.904 120.246 477.904C119.819 477.904 119.43 478.008 119.078 478.216C118.731 478.419 118.454 478.701 118.246 479.064C118.038 479.421 117.934 479.832 117.934 480.296V485H116.814V480.296C116.814 479.832 116.71 479.421 116.502 479.064C116.294 478.701 116.014 478.419 115.662 478.216C115.31 478.008 114.92 477.904 114.494 477.904C114.072 477.904 113.686 478.016 113.334 478.24C112.982 478.459 112.702 478.749 112.494 479.112C112.286 479.475 112.182 479.869 112.182 480.296V485H111.062ZM125.28 485V477H126.4V478.104C126.688 477.699 127.056 477.376 127.504 477.136C127.952 476.896 128.443 476.776 128.976 476.776C129.579 476.776 130.131 476.925 130.632 477.224C131.134 477.517 131.526 477.909 131.808 478.4C132.091 477.909 132.48 477.517 132.976 477.224C133.472 476.925 134.022 476.776 134.624 476.776C135.227 476.776 135.776 476.923 136.272 477.216C136.768 477.509 137.163 477.904 137.456 478.4C137.75 478.896 137.896 479.445 137.896 480.048V485H136.776V480.296C136.776 479.869 136.672 479.475 136.464 479.112C136.256 478.749 135.976 478.459 135.624 478.24C135.278 478.016 134.891 477.904 134.464 477.904C134.038 477.904 133.648 478.008 133.296 478.216C132.95 478.419 132.672 478.701 132.464 479.064C132.256 479.421 132.152 479.832 132.152 480.296V485H131.032V480.296C131.032 479.832 130.928 479.421 130.72 479.064C130.512 478.701 130.232 478.419 129.88 478.216C129.528 478.008 129.139 477.904 128.712 477.904C128.291 477.904 127.904 478.016 127.552 478.24C127.2 478.459 126.92 478.749 126.712 479.112C126.504 479.475 126.4 479.869 126.4 480.296V485H125.28ZM142.863 485.208C142.127 485.208 141.455 485.019 140.847 484.64C140.244 484.261 139.761 483.755 139.399 483.12C139.041 482.48 138.863 481.773 138.863 481C138.863 480.413 138.967 479.867 139.175 479.36C139.383 478.848 139.668 478.4 140.031 478.016C140.399 477.627 140.825 477.323 141.311 477.104C141.796 476.885 142.313 476.776 142.863 476.776C143.455 476.776 143.999 476.893 144.495 477.128C144.996 477.363 145.425 477.691 145.783 478.112C146.145 478.533 146.417 479.027 146.599 479.592C146.785 480.157 146.863 480.768 146.831 481.424H140.047C140.111 481.931 140.271 482.384 140.527 482.784C140.788 483.184 141.119 483.501 141.519 483.736C141.924 483.965 142.372 484.083 142.863 484.088C143.396 484.088 143.876 483.949 144.303 483.672C144.735 483.395 145.081 483.013 145.343 482.528L146.479 482.792C146.159 483.501 145.676 484.083 145.031 484.536C144.385 484.984 143.663 485.208 142.863 485.208ZM140.015 480.52H145.703C145.665 480.024 145.513 479.571 145.247 479.16C144.985 478.744 144.647 478.413 144.231 478.168C143.815 477.917 143.359 477.792 142.863 477.792C142.367 477.792 141.913 477.915 141.503 478.16C141.092 478.4 140.756 478.728 140.495 479.144C140.233 479.555 140.073 480.013 140.015 480.52ZM148.202 485V477H149.322V478.104C149.605 477.699 149.973 477.376 150.426 477.136C150.88 476.896 151.373 476.776 151.906 476.776C152.216 476.776 152.514 476.816 152.802 476.896L152.346 478.008C152.122 477.939 151.904 477.904 151.69 477.904C151.258 477.904 150.861 478.011 150.498 478.224C150.141 478.437 149.856 478.723 149.642 479.08C149.429 479.437 149.322 479.835 149.322 480.272V485H148.202ZM156.284 485.152C155.846 485.141 155.42 485.061 155.004 484.912C154.588 484.763 154.225 484.56 153.916 484.304C153.606 484.048 153.385 483.757 153.252 483.432L154.22 483.016C154.305 483.224 154.462 483.416 154.692 483.592C154.926 483.763 155.193 483.901 155.492 484.008C155.79 484.109 156.086 484.16 156.38 484.16C156.705 484.16 157.009 484.107 157.292 484C157.574 483.893 157.804 483.741 157.98 483.544C158.161 483.341 158.252 483.104 158.252 482.832C158.252 482.539 158.156 482.309 157.964 482.144C157.772 481.973 157.529 481.84 157.236 481.744C156.942 481.643 156.641 481.547 156.332 481.456C155.766 481.301 155.268 481.131 154.836 480.944C154.404 480.757 154.065 480.52 153.82 480.232C153.58 479.939 153.46 479.563 153.46 479.104C153.46 478.619 153.596 478.2 153.868 477.848C154.145 477.491 154.505 477.216 154.948 477.024C155.396 476.827 155.873 476.728 156.38 476.728C157.03 476.728 157.622 476.869 158.156 477.152C158.694 477.435 159.084 477.811 159.324 478.28L158.42 478.816C158.324 478.597 158.172 478.408 157.964 478.248C157.756 478.088 157.518 477.963 157.252 477.872C156.99 477.781 156.724 477.733 156.452 477.728C156.11 477.723 155.793 477.773 155.5 477.88C155.206 477.981 154.969 478.133 154.788 478.336C154.612 478.539 154.524 478.787 154.524 479.08C154.524 479.373 154.612 479.597 154.788 479.752C154.964 479.901 155.201 480.024 155.5 480.12C155.804 480.211 156.145 480.317 156.524 480.44C157.009 480.595 157.465 480.771 157.892 480.968C158.318 481.165 158.662 481.411 158.924 481.704C159.185 481.997 159.313 482.368 159.308 482.816C159.308 483.296 159.164 483.715 158.876 484.072C158.588 484.429 158.214 484.704 157.756 484.896C157.297 485.083 156.806 485.168 156.284 485.152ZM160.608 477H161.728V485H160.608V477ZM161.176 475.6C160.995 475.6 160.84 475.541 160.712 475.424C160.59 475.301 160.528 475.149 160.528 474.968C160.528 474.787 160.59 474.637 160.712 474.52C160.84 474.397 160.995 474.336 161.176 474.336C161.352 474.336 161.502 474.397 161.624 474.52C161.752 474.637 161.816 474.787 161.816 474.968C161.816 475.149 161.755 475.301 161.632 475.424C161.51 475.541 161.358 475.6 161.176 475.6ZM167.41 485H165.986L163.066 476.976H164.258L166.698 483.688L169.138 476.976H170.33L167.41 485ZM174.863 485.208C174.127 485.208 173.455 485.019 172.847 484.64C172.244 484.261 171.761 483.755 171.399 483.12C171.041 482.48 170.863 481.773 170.863 481C170.863 480.413 170.967 479.867 171.175 479.36C171.383 478.848 171.668 478.4 172.031 478.016C172.399 477.627 172.825 477.323 173.311 477.104C173.796 476.885 174.313 476.776 174.863 476.776C175.455 476.776 175.999 476.893 176.495 477.128C176.996 477.363 177.425 477.691 177.783 478.112C178.145 478.533 178.417 479.027 178.599 479.592C178.785 480.157 178.863 480.768 178.831 481.424H172.047C172.111 481.931 172.271 482.384 172.527 482.784C172.788 483.184 173.119 483.501 173.519 483.736C173.924 483.965 174.372 484.083 174.863 484.088C175.396 484.088 175.876 483.949 176.303 483.672C176.735 483.395 177.081 483.013 177.343 482.528L178.479 482.792C178.159 483.501 177.676 484.083 177.031 484.536C176.385 484.984 175.663 485.208 174.863 485.208ZM172.015 480.52H177.703C177.665 480.024 177.513 479.571 177.247 479.16C176.985 478.744 176.647 478.413 176.231 478.168C175.815 477.917 175.359 477.792 174.863 477.792C174.367 477.792 173.913 477.915 173.503 478.16C173.092 478.4 172.756 478.728 172.495 479.144C172.233 479.555 172.073 480.013 172.015 480.52ZM184.124 485V473H185.244V485H184.124ZM190.628 485.208C189.892 485.208 189.22 485.019 188.612 484.64C188.01 484.261 187.527 483.755 187.164 483.12C186.807 482.48 186.628 481.773 186.628 481C186.628 480.413 186.732 479.867 186.94 479.36C187.148 478.848 187.434 478.4 187.796 478.016C188.164 477.627 188.591 477.323 189.076 477.104C189.562 476.885 190.079 476.776 190.628 476.776C191.22 476.776 191.764 476.893 192.26 477.128C192.762 477.363 193.191 477.691 193.548 478.112C193.911 478.533 194.183 479.027 194.364 479.592C194.551 480.157 194.628 480.768 194.596 481.424H187.812C187.876 481.931 188.036 482.384 188.292 482.784C188.554 483.184 188.884 483.501 189.284 483.736C189.69 483.965 190.138 484.083 190.628 484.088C191.162 484.088 191.642 483.949 192.068 483.672C192.5 483.395 192.847 483.013 193.108 482.528L194.244 482.792C193.924 483.501 193.442 484.083 192.796 484.536C192.151 484.984 191.428 485.208 190.628 485.208ZM187.78 480.52H193.468C193.431 480.024 193.279 479.571 193.012 479.16C192.751 478.744 192.412 478.413 191.996 478.168C191.58 477.917 191.124 477.792 190.628 477.792C190.132 477.792 189.679 477.915 189.268 478.16C188.858 478.4 188.522 478.728 188.26 479.144C187.999 479.555 187.839 480.013 187.78 480.52ZM202.466 477H203.586V485H202.466L202.426 483.512C202.164 484.019 201.799 484.429 201.33 484.744C200.86 485.053 200.3 485.208 199.65 485.208C199.063 485.208 198.514 485.099 198.002 484.88C197.49 484.656 197.039 484.349 196.65 483.96C196.26 483.571 195.956 483.12 195.738 482.608C195.519 482.096 195.41 481.547 195.41 480.96C195.41 480.384 195.516 479.843 195.73 479.336C195.948 478.829 196.247 478.384 196.626 478C197.01 477.616 197.452 477.317 197.954 477.104C198.46 476.885 199.002 476.776 199.578 476.776C200.244 476.776 200.826 476.936 201.322 477.256C201.818 477.571 202.212 477.984 202.506 478.496L202.466 477ZM199.626 484.12C200.196 484.12 200.687 483.981 201.098 483.704C201.508 483.421 201.823 483.043 202.042 482.568C202.266 482.093 202.378 481.571 202.378 481C202.378 480.413 202.266 479.885 202.042 479.416C201.818 478.941 201.5 478.565 201.09 478.288C200.679 478.011 200.191 477.872 199.626 477.872C199.06 477.872 198.543 478.013 198.074 478.296C197.61 478.573 197.239 478.949 196.962 479.424C196.69 479.899 196.554 480.424 196.554 481C196.554 481.581 196.695 482.109 196.978 482.584C197.26 483.053 197.634 483.427 198.098 483.704C198.567 483.981 199.076 484.12 199.626 484.12ZM205.187 485V477H206.307V478.104C206.589 477.699 206.957 477.376 207.411 477.136C207.864 476.896 208.357 476.776 208.891 476.776C209.2 476.776 209.499 476.816 209.787 476.896L209.331 478.008C209.107 477.939 208.888 477.904 208.675 477.904C208.243 477.904 207.845 478.011 207.483 478.224C207.125 478.437 206.84 478.723 206.627 479.08C206.413 479.437 206.307 479.835 206.307 480.272V485H205.187ZM217.803 480.048V485H216.683V480.272C216.683 479.835 216.577 479.437 216.363 479.08C216.15 478.723 215.865 478.437 215.507 478.224C215.15 478.011 214.753 477.904 214.315 477.904C213.883 477.904 213.486 478.011 213.123 478.224C212.766 478.437 212.481 478.723 212.267 479.08C212.054 479.437 211.947 479.835 211.947 480.272V485H210.827V477H211.947V478.104C212.23 477.699 212.598 477.376 213.051 477.136C213.505 476.896 213.998 476.776 214.531 476.776C215.134 476.776 215.683 476.923 216.179 477.216C216.675 477.509 217.07 477.904 217.363 478.4C217.657 478.896 217.803 479.445 217.803 480.048ZM219.405 477H220.525V485H219.405V477ZM219.973 475.6C219.792 475.6 219.637 475.541 219.509 475.424C219.387 475.301 219.325 475.149 219.325 474.968C219.325 474.787 219.387 474.637 219.509 474.52C219.637 474.397 219.792 474.336 219.973 474.336C220.149 474.336 220.299 474.397 220.421 474.52C220.549 474.637 220.613 474.787 220.613 474.968C220.613 475.149 220.552 475.301 220.429 475.424C220.307 475.541 220.155 475.6 219.973 475.6ZM229.397 480.048V485H228.277V480.272C228.277 479.835 228.17 479.437 227.957 479.08C227.744 478.723 227.458 478.437 227.101 478.224C226.744 478.011 226.346 477.904 225.909 477.904C225.477 477.904 225.08 478.011 224.717 478.224C224.36 478.437 224.074 478.723 223.861 479.08C223.648 479.437 223.541 479.835 223.541 480.272V485H222.421V477H223.541V478.104C223.824 477.699 224.192 477.376 224.645 477.136C225.098 476.896 225.592 476.776 226.125 476.776C226.728 476.776 227.277 476.923 227.773 477.216C228.269 477.509 228.664 477.904 228.957 478.4C229.25 478.896 229.397 479.445 229.397 480.048ZM237.203 477H238.323V485.296C238.323 485.808 238.211 486.288 237.987 486.736C237.768 487.184 237.469 487.576 237.091 487.912C236.717 488.253 236.291 488.52 235.811 488.712C235.331 488.904 234.832 489 234.315 489C233.76 489 233.224 488.872 232.707 488.616C232.189 488.365 231.739 488.029 231.355 487.608C230.976 487.187 230.707 486.72 230.547 486.208L231.579 485.736C231.68 486.136 231.869 486.496 232.147 486.816C232.429 487.141 232.76 487.397 233.139 487.584C233.523 487.776 233.915 487.872 234.315 487.872C234.683 487.872 235.037 487.803 235.379 487.664C235.725 487.531 236.035 487.347 236.307 487.112C236.584 486.877 236.803 486.603 236.963 486.288C237.123 485.979 237.203 485.648 237.203 485.296V483.528C236.925 484.029 236.549 484.435 236.075 484.744C235.605 485.053 235.059 485.208 234.435 485.208C233.875 485.208 233.347 485.099 232.851 484.88C232.36 484.661 231.928 484.36 231.555 483.976C231.181 483.587 230.888 483.139 230.675 482.632C230.467 482.125 230.363 481.581 230.363 481C230.363 480.419 230.467 479.875 230.675 479.368C230.888 478.856 231.181 478.408 231.555 478.024C231.928 477.635 232.36 477.331 232.851 477.112C233.347 476.893 233.875 476.784 234.435 476.784C235.059 476.784 235.605 476.939 236.075 477.248C236.549 477.552 236.925 477.957 237.203 478.464V477ZM234.443 484.12C234.997 484.12 235.475 483.976 235.875 483.688C236.28 483.4 236.592 483.019 236.811 482.544C237.029 482.069 237.139 481.555 237.139 481C237.139 480.429 237.027 479.909 236.803 479.44C236.584 478.965 236.272 478.587 235.867 478.304C235.461 478.016 234.987 477.872 234.443 477.872C233.899 477.872 233.403 478.013 232.955 478.296C232.512 478.573 232.16 478.949 231.899 479.424C231.637 479.899 231.507 480.424 231.507 481C231.507 481.576 231.64 482.101 231.907 482.576C232.173 483.045 232.528 483.421 232.971 483.704C233.419 483.981 233.909 484.12 234.443 484.12ZM246.565 485.152C246.127 485.141 245.701 485.061 245.285 484.912C244.869 484.763 244.506 484.56 244.197 484.304C243.887 484.048 243.666 483.757 243.533 483.432L244.501 483.016C244.586 483.224 244.743 483.416 244.973 483.592C245.207 483.763 245.474 483.901 245.773 484.008C246.071 484.109 246.367 484.16 246.661 484.16C246.986 484.16 247.29 484.107 247.573 484C247.855 483.893 248.085 483.741 248.261 483.544C248.442 483.341 248.533 483.104 248.533 482.832C248.533 482.539 248.437 482.309 248.245 482.144C248.053 481.973 247.81 481.84 247.517 481.744C247.223 481.643 246.922 481.547 246.613 481.456C246.047 481.301 245.549 481.131 245.117 480.944C244.685 480.757 244.346 480.52 244.101 480.232C243.861 479.939 243.741 479.563 243.741 479.104C243.741 478.619 243.877 478.2 244.149 477.848C244.426 477.491 244.786 477.216 245.229 477.024C245.677 476.827 246.154 476.728 246.661 476.728C247.311 476.728 247.903 476.869 248.437 477.152C248.975 477.435 249.365 477.811 249.605 478.28L248.701 478.816C248.605 478.597 248.453 478.408 248.245 478.248C248.037 478.088 247.799 477.963 247.533 477.872C247.271 477.781 247.005 477.733 246.733 477.728C246.391 477.723 246.074 477.773 245.781 477.88C245.487 477.981 245.25 478.133 245.069 478.336C244.893 478.539 244.805 478.787 244.805 479.08C244.805 479.373 244.893 479.597 245.069 479.752C245.245 479.901 245.482 480.024 245.781 480.12C246.085 480.211 246.426 480.317 246.805 480.44C247.29 480.595 247.746 480.771 248.173 480.968C248.599 481.165 248.943 481.411 249.205 481.704C249.466 481.997 249.594 482.368 249.589 482.816C249.589 483.296 249.445 483.715 249.157 484.072C248.869 484.429 248.495 484.704 248.037 484.896C247.578 485.083 247.087 485.168 246.565 485.152ZM256.182 477H257.366L252.99 489H251.798L253.254 485L250.382 477H251.606L253.814 483.456L256.182 477ZM261.221 485.152C260.784 485.141 260.357 485.061 259.941 484.912C259.525 484.763 259.162 484.56 258.853 484.304C258.544 484.048 258.322 483.757 258.189 483.432L259.157 483.016C259.242 483.224 259.4 483.416 259.629 483.592C259.864 483.763 260.13 483.901 260.429 484.008C260.728 484.109 261.024 484.16 261.317 484.16C261.642 484.16 261.946 484.107 262.229 484C262.512 483.893 262.741 483.741 262.917 483.544C263.098 483.341 263.189 483.104 263.189 482.832C263.189 482.539 263.093 482.309 262.901 482.144C262.709 481.973 262.466 481.84 262.173 481.744C261.88 481.643 261.578 481.547 261.269 481.456C260.704 481.301 260.205 481.131 259.773 480.944C259.341 480.757 259.002 480.52 258.757 480.232C258.517 479.939 258.397 479.563 258.397 479.104C258.397 478.619 258.533 478.2 258.805 477.848C259.082 477.491 259.442 477.216 259.885 477.024C260.333 476.827 260.81 476.728 261.317 476.728C261.968 476.728 262.56 476.869 263.093 477.152C263.632 477.435 264.021 477.811 264.261 478.28L263.357 478.816C263.261 478.597 263.109 478.408 262.901 478.248C262.693 478.088 262.456 477.963 262.189 477.872C261.928 477.781 261.661 477.733 261.389 477.728C261.048 477.723 260.73 477.773 260.437 477.88C260.144 477.981 259.906 478.133 259.725 478.336C259.549 478.539 259.461 478.787 259.461 479.08C259.461 479.373 259.549 479.597 259.725 479.752C259.901 479.901 260.138 480.024 260.437 480.12C260.741 480.211 261.082 480.317 261.461 480.44C261.946 480.595 262.402 480.771 262.829 480.968C263.256 481.165 263.6 481.411 263.861 481.704C264.122 481.997 264.25 482.368 264.245 482.816C264.245 483.296 264.101 483.715 263.813 484.072C263.525 484.429 263.152 484.704 262.693 484.896C262.234 485.083 261.744 485.168 261.221 485.152ZM269.712 478.12H267.8L267.792 485H266.672L266.68 478.12H265.232V477H266.68L266.672 474.488H267.792L267.8 477H269.712V478.12ZM274.441 485.208C273.705 485.208 273.033 485.019 272.425 484.64C271.822 484.261 271.34 483.755 270.977 483.12C270.62 482.48 270.441 481.773 270.441 481C270.441 480.413 270.545 479.867 270.753 479.36C270.961 478.848 271.246 478.4 271.609 478.016C271.977 477.627 272.404 477.323 272.889 477.104C273.374 476.885 273.892 476.776 274.441 476.776C275.033 476.776 275.577 476.893 276.073 477.128C276.574 477.363 277.004 477.691 277.361 478.112C277.724 478.533 277.996 479.027 278.177 479.592C278.364 480.157 278.441 480.768 278.409 481.424H271.625C271.689 481.931 271.849 482.384 272.105 482.784C272.366 483.184 272.697 483.501 273.097 483.736C273.502 483.965 273.95 484.083 274.441 484.088C274.974 484.088 275.454 483.949 275.881 483.672C276.313 483.395 276.66 483.013 276.921 482.528L278.057 482.792C277.737 483.501 277.254 484.083 276.609 484.536C275.964 484.984 275.241 485.208 274.441 485.208ZM271.593 480.52H277.281C277.244 480.024 277.092 479.571 276.825 479.16C276.564 478.744 276.225 478.413 275.809 478.168C275.393 477.917 274.937 477.792 274.441 477.792C273.945 477.792 273.492 477.915 273.081 478.16C272.67 478.4 272.334 478.728 272.073 479.144C271.812 479.555 271.652 480.013 271.593 480.52ZM279.78 485V477H280.9V478.104C281.188 477.699 281.556 477.376 282.004 477.136C282.452 476.896 282.943 476.776 283.476 476.776C284.079 476.776 284.631 476.925 285.132 477.224C285.634 477.517 286.026 477.909 286.308 478.4C286.591 477.909 286.98 477.517 287.476 477.224C287.972 476.925 288.522 476.776 289.124 476.776C289.727 476.776 290.276 476.923 290.772 477.216C291.268 477.509 291.663 477.904 291.956 478.4C292.25 478.896 292.396 479.445 292.396 480.048V485H291.276V480.296C291.276 479.869 291.172 479.475 290.964 479.112C290.756 478.749 290.476 478.459 290.124 478.24C289.778 478.016 289.391 477.904 288.964 477.904C288.538 477.904 288.148 478.008 287.796 478.216C287.45 478.419 287.172 478.701 286.964 479.064C286.756 479.421 286.652 479.832 286.652 480.296V485H285.532V480.296C285.532 479.832 285.428 479.421 285.22 479.064C285.012 478.701 284.732 478.419 284.38 478.216C284.028 478.008 283.639 477.904 283.212 477.904C282.791 477.904 282.404 478.016 282.052 478.24C281.7 478.459 281.42 478.749 281.212 479.112C281.004 479.475 280.9 479.869 280.9 480.296V485H279.78ZM293.831 481.64V473.8H294.815V481.64H293.831ZM294.327 485.208C294.146 485.208 293.991 485.144 293.863 485.016C293.74 484.893 293.679 484.741 293.679 484.56C293.679 484.384 293.74 484.235 293.863 484.112C293.991 483.989 294.146 483.928 294.327 483.928C294.498 483.928 294.644 483.989 294.767 484.112C294.89 484.235 294.951 484.384 294.951 484.56C294.951 484.741 294.89 484.893 294.767 485.016C294.644 485.144 294.498 485.208 294.327 485.208Z" fill="black"/>
<path d="M105.957 91.5893C105.957 93.9787 108.347 97.3067 113.893 97.3067C117.17 97.3067 122 93.808 122 87.7493C122 83.4827 119.269 78.0213 114.32 78.0213C110.139 78.0213 107.067 79.8133 105.957 83.4827C104.848 87.152 103.653 89.712 98.0213 89.712C92.669 89.712 90 85.7867 90 79.8133C90 72.816 94.1813 70 98.0213 70C103.653 70 105.957 74.0107 105.957 75.2053" stroke="white" stroke-width="4.26666"/>
</g>
<defs>
<linearGradient id="paint0_linear_9_250" x1="190.5" y1="320.5" x2="177.5" y2="-101" gradientUnits="userSpaceOnUse">
<stop offset="0.0702096" stop-color="#A483F2"/>
<stop offset="1" stop-color="#5F4BF5"/>
</linearGradient>
<clipPath id="clip0_9_250">
<rect width="393" height="852" fill="white"/>
</clipPath>
</defs>
</svg>
