<svg width="223" height="228" viewBox="0 0 223 228" fill="none" xmlns="http://www.w3.org/2000/svg">
<g filter="url(#filter0_d_9_308)">
<rect x="3.53235" width="215.47" height="220.768" rx="14.1292" fill="#FCFCFC"/>
</g>
<circle cx="111.43" cy="76.1781" r="47.6533" fill="#5F4BF5" stroke="white" stroke-width="4.76533"/>
<path d="M85.5779 134.198H89.0019L95.204 151.257H92.0481L90.9514 148.235H83.6405L82.5439 151.257H79.388L85.5779 134.198ZM84.725 145.262H89.8548L87.2838 138.231L84.725 145.262ZM97.2483 151.257V132.979H100.221V151.257H97.2483ZM106.124 157.349H103.15V139.072H106.124V140.619C106.522 140.067 107.009 139.62 107.586 139.279C108.171 138.93 108.853 138.755 109.633 138.755C110.526 138.755 111.359 138.921 112.131 139.254C112.902 139.588 113.581 140.051 114.166 140.644C114.759 141.228 115.217 141.907 115.542 142.678C115.875 143.45 116.042 144.279 116.042 145.164C116.042 146.05 115.875 146.882 115.542 147.662C115.217 148.442 114.759 149.128 114.166 149.721C113.581 150.306 112.902 150.765 112.131 151.098C111.359 151.431 110.526 151.598 109.633 151.598C108.853 151.598 108.171 151.427 107.586 151.086C107.009 150.737 106.522 150.286 106.124 149.733V157.349ZM109.596 141.618C108.979 141.618 108.426 141.781 107.939 142.106C107.452 142.423 107.07 142.849 106.794 143.385C106.517 143.921 106.379 144.514 106.379 145.164C106.379 145.814 106.517 146.411 106.794 146.955C107.07 147.491 107.452 147.922 107.939 148.247C108.426 148.564 108.979 148.722 109.596 148.722C110.222 148.722 110.794 148.564 111.314 148.247C111.834 147.93 112.248 147.504 112.557 146.968C112.866 146.423 113.02 145.822 113.02 145.164C113.02 144.514 112.866 143.921 112.557 143.385C112.248 142.849 111.834 142.423 111.314 142.106C110.802 141.781 110.23 141.618 109.596 141.618ZM128.924 143.556V151.257H125.951V144.336C125.951 143.856 125.833 143.422 125.598 143.032C125.362 142.634 125.045 142.321 124.647 142.094C124.257 141.858 123.823 141.74 123.343 141.74C122.864 141.74 122.425 141.858 122.027 142.094C121.638 142.321 121.325 142.634 121.089 143.032C120.862 143.422 120.748 143.856 120.748 144.336V151.257H117.775L117.763 132.979H120.736L120.748 140.156C121.162 139.718 121.658 139.372 122.235 139.12C122.811 138.861 123.433 138.731 124.099 138.731C124.984 138.731 125.793 138.95 126.524 139.389C127.255 139.819 127.836 140.4 128.266 141.131C128.705 141.854 128.924 142.662 128.924 143.556ZM140.301 139.072H143.274V151.257H140.301L140.167 149.746C139.834 150.29 139.391 150.733 138.839 151.074C138.295 151.407 137.649 151.573 136.902 151.573C136 151.573 135.155 151.403 134.367 151.062C133.579 150.72 132.885 150.249 132.283 149.648C131.69 149.047 131.223 148.353 130.882 147.565C130.549 146.777 130.383 145.932 130.383 145.03C130.383 144.161 130.541 143.345 130.858 142.581C131.183 141.817 131.634 141.147 132.21 140.57C132.787 139.994 133.453 139.543 134.209 139.218C134.964 138.893 135.776 138.731 136.646 138.731C137.45 138.731 138.169 138.909 138.802 139.267C139.444 139.624 139.988 140.079 140.435 140.631L140.301 139.072ZM136.828 148.71C137.462 148.71 138.023 148.552 138.51 148.235C138.997 147.918 139.379 147.491 139.655 146.955C139.931 146.411 140.07 145.814 140.07 145.164C140.07 144.506 139.931 143.909 139.655 143.373C139.379 142.829 138.993 142.398 138.498 142.081C138.01 141.765 137.454 141.606 136.828 141.606C136.203 141.606 135.63 141.769 135.11 142.094C134.599 142.41 134.188 142.837 133.88 143.373C133.579 143.909 133.429 144.506 133.429 145.164C133.429 145.822 133.583 146.419 133.892 146.955C134.201 147.491 134.611 147.918 135.123 148.235C135.642 148.552 136.211 148.71 136.828 148.71Z" fill="black"/>
<path d="M36.2061 170.463H186.995" stroke="#D4A7F5" stroke-width="4.76533" stroke-linecap="round"/>
<path d="M36.2061 170.463H138.32" stroke="#5F4BF5" stroke-width="4.76533" stroke-linecap="round"/>
<path d="M70.5314 187.994V182.962H69.8901L70.0821 182.276H71.2176V187.994H70.5314ZM72.1957 187.994V187.386C72.4053 187.198 72.6409 186.988 72.9023 186.757C73.1637 186.522 73.4238 186.279 73.6825 186.025C73.9439 185.769 74.1835 185.516 74.4013 185.266C74.6192 185.015 74.7948 184.778 74.9282 184.555C75.0617 184.329 75.1284 184.131 75.1284 183.963C75.1284 183.761 75.0794 183.577 74.9813 183.411C74.8833 183.242 74.7512 183.108 74.5851 183.007C74.4218 182.906 74.2393 182.856 74.0378 182.856C73.8363 182.856 73.6511 182.906 73.4823 183.007C73.3162 183.108 73.1828 183.242 73.082 183.411C72.984 183.577 72.935 183.761 72.935 183.963H72.2488C72.2488 183.628 72.3305 183.325 72.4938 183.056C72.6572 182.784 72.8737 182.568 73.1433 182.411C73.4129 182.25 73.711 182.17 74.0378 182.17C74.3646 182.17 74.6614 182.25 74.9282 182.411C75.1978 182.571 75.4129 182.788 75.5736 183.06C75.7343 183.33 75.8146 183.63 75.8146 183.963C75.8146 184.153 75.7683 184.359 75.6757 184.579C75.5831 184.797 75.4565 185.022 75.2959 185.253C75.1352 185.485 74.9528 185.719 74.7485 185.956C74.5443 186.19 74.3292 186.422 74.1032 186.65C73.8771 186.879 73.6525 187.098 73.4292 187.308H75.8881V187.994H72.1957ZM78.5615 188.1C78.2075 188.1 77.8862 188.015 77.5976 187.843C77.3089 187.671 77.0802 187.443 76.9114 187.157C76.7453 186.868 76.6622 186.551 76.6622 186.205H77.3484C77.3484 186.426 77.4029 186.629 77.5118 186.814C77.6207 186.996 77.7664 187.142 77.9488 187.251C78.134 187.36 78.3382 187.414 78.5615 187.414C78.7821 187.414 78.9836 187.36 79.166 187.251C79.3485 187.142 79.4942 186.996 79.6031 186.814C79.712 186.629 79.7665 186.426 79.7665 186.205C79.7665 185.985 79.7147 185.782 79.6113 185.596C79.5105 185.411 79.3621 185.264 79.166 185.155C78.97 185.044 78.7317 184.988 78.4512 184.988H77.0421L77.5976 182.276H80.3097V182.962H78.1531L77.8876 184.302L78.4798 184.306C78.8692 184.314 79.211 184.401 79.5051 184.567C79.8019 184.731 80.0333 184.954 80.1994 185.237C80.3683 185.518 80.4527 185.84 80.4527 186.205C80.4527 186.464 80.4037 186.709 80.3056 186.94C80.2076 187.169 80.0715 187.371 79.8972 187.545C79.7229 187.719 79.5214 187.855 79.2927 187.953C79.0667 188.051 78.8229 188.1 78.5615 188.1ZM83.3922 187.994V182.276H86.9008V182.962H84.0784V184.588H86.3902V185.274H84.0784V187.308H86.9008V187.994H83.3922ZM87.4091 187.994L88.904 185.944L87.4173 183.901H88.2628L89.3288 185.356L90.3908 183.901H91.2363L89.7496 185.944L91.2445 187.994H90.399L89.3288 186.524L88.2546 187.994H87.4091ZM92.6384 190.036H91.9522V183.91H92.6384V184.608C92.7773 184.368 92.9625 184.175 93.1939 184.028C93.4254 183.878 93.7004 183.803 94.019 183.803C94.3158 183.803 94.5936 183.859 94.8523 183.971C95.1137 184.082 95.3424 184.238 95.5385 184.436C95.7345 184.633 95.8884 184.86 96 185.119C96.1117 185.377 96.1675 185.655 96.1675 185.952C96.1675 186.249 96.1117 186.528 96 186.789C95.8884 187.051 95.7345 187.281 95.5385 187.479C95.3424 187.676 95.1137 187.829 94.8523 187.941C94.5936 188.053 94.3158 188.109 94.019 188.109C93.7004 188.109 93.4254 188.035 93.1939 187.888C92.9625 187.738 92.7773 187.543 92.6384 187.304V190.036ZM94.0108 184.469C93.7467 184.469 93.5152 184.536 93.3165 184.669C93.1177 184.803 92.9638 184.981 92.8549 185.204C92.7487 185.428 92.6956 185.677 92.6956 185.952C92.6956 186.224 92.7487 186.473 92.8549 186.699C92.9638 186.925 93.1163 187.105 93.3124 187.238C93.5112 187.372 93.744 187.439 94.0108 187.439C94.275 187.439 94.5173 187.373 94.7379 187.243C94.9585 187.109 95.1355 186.931 95.2689 186.708C95.4023 186.481 95.469 186.23 95.469 185.952C95.469 185.68 95.4037 185.432 95.273 185.208C95.1423 184.982 94.9666 184.803 94.7461 184.669C94.5255 184.536 94.2804 184.469 94.0108 184.469ZM101.107 188.1C100.65 188.1 100.252 187.989 99.9145 187.765C99.5796 187.542 99.3209 187.243 99.1384 186.867C98.9587 186.488 98.8689 186.069 98.8689 185.609V182.276H99.5551V185.609C99.5551 185.936 99.615 186.236 99.7348 186.511C99.8573 186.786 100.033 187.006 100.262 187.169C100.493 187.332 100.775 187.414 101.107 187.414C101.445 187.414 101.728 187.332 101.957 187.169C102.186 187.003 102.358 186.784 102.476 186.511C102.595 186.236 102.655 185.936 102.655 185.609V182.276H103.341V185.609C103.341 185.955 103.29 186.279 103.186 186.581C103.083 186.88 102.933 187.145 102.737 187.373C102.544 187.602 102.309 187.78 102.034 187.908C101.759 188.036 101.45 188.1 101.107 188.1ZM107.865 185.454V187.994H107.178V185.605C107.178 185.398 107.128 185.21 107.027 185.041C106.926 184.872 106.792 184.739 106.623 184.641C106.454 184.54 106.266 184.49 106.059 184.49C105.855 184.49 105.667 184.54 105.496 184.641C105.327 184.739 105.192 184.872 105.091 185.041C104.99 185.21 104.94 185.398 104.94 185.605V187.994H104.254V183.91H104.94V184.42C105.084 184.23 105.267 184.078 105.487 183.967C105.708 183.852 105.948 183.795 106.206 183.795C106.511 183.795 106.789 183.87 107.039 184.02C107.293 184.167 107.493 184.366 107.64 184.616C107.79 184.867 107.865 185.146 107.865 185.454ZM110.797 184.596H109.87L109.866 187.994H109.18L109.184 184.596H108.481V183.91H109.184L109.18 182.627H109.866L109.87 183.91H110.797V184.596ZM111.49 183.91H112.176V187.994H111.49V183.91ZM111.841 183.244C111.732 183.244 111.641 183.208 111.567 183.138C111.494 183.067 111.457 182.978 111.457 182.872C111.457 182.766 111.494 182.677 111.567 182.607C111.641 182.536 111.731 182.5 111.837 182.5C111.943 182.5 112.033 182.536 112.106 182.607C112.18 182.677 112.217 182.766 112.217 182.872C112.217 182.978 112.18 183.067 112.106 183.138C112.036 183.208 111.947 183.244 111.841 183.244ZM113.181 187.994V181.867H113.867V187.994H113.181ZM116.811 187.994V182.276H117.554L120.409 186.752V182.276H121.095V187.994H120.356L117.497 183.517V187.994H116.811ZM123.833 188.1C123.457 188.1 123.114 188.004 122.804 187.81C122.496 187.617 122.25 187.358 122.065 187.034C121.882 186.708 121.791 186.347 121.791 185.952C121.791 185.652 121.844 185.373 121.95 185.115C122.056 184.853 122.202 184.624 122.387 184.428C122.575 184.23 122.793 184.074 123.041 183.963C123.289 183.851 123.553 183.795 123.833 183.795C124.141 183.795 124.423 183.858 124.679 183.983C124.937 184.106 125.158 184.277 125.34 184.498C125.526 184.718 125.663 184.974 125.753 185.266C125.846 185.557 125.88 185.869 125.855 186.201H122.522C122.555 186.432 122.631 186.639 122.751 186.822C122.871 187.002 123.023 187.145 123.208 187.251C123.396 187.357 123.605 187.411 123.833 187.414C124.078 187.414 124.3 187.352 124.499 187.226C124.698 187.098 124.858 186.924 124.981 186.703L125.679 186.867C125.516 187.229 125.27 187.526 124.94 187.757C124.611 187.986 124.242 188.1 123.833 188.1ZM122.502 185.662H125.165C125.143 185.433 125.07 185.225 124.944 185.037C124.819 184.846 124.66 184.694 124.466 184.579C124.273 184.465 124.062 184.408 123.833 184.408C123.605 184.408 123.395 184.464 123.204 184.575C123.014 184.687 122.856 184.838 122.73 185.029C122.608 185.217 122.532 185.428 122.502 185.662ZM126.077 187.994L127.572 185.944L126.085 183.901H126.931L127.997 185.356L129.059 183.901H129.904L128.417 185.944L129.912 187.994H129.067L127.997 186.524L126.922 187.994H126.077ZM132.848 184.596H131.92L131.916 187.994H131.23L131.234 184.596H130.532V183.91H131.234L131.23 182.627H131.916L131.92 183.91H132.848V184.596ZM135.542 187.994V182.276H136.228V187.308H138.789V187.994H135.542ZM141.089 188.1C140.713 188.1 140.37 188.004 140.06 187.81C139.752 187.617 139.505 187.358 139.32 187.034C139.138 186.708 139.047 186.347 139.047 185.952C139.047 185.652 139.1 185.373 139.206 185.115C139.312 184.853 139.458 184.624 139.643 184.428C139.831 184.23 140.049 184.074 140.297 183.963C140.544 183.851 140.808 183.795 141.089 183.795C141.397 183.795 141.678 183.858 141.934 183.983C142.193 184.106 142.414 184.277 142.596 184.498C142.781 184.718 142.919 184.974 143.009 185.266C143.101 185.557 143.135 185.869 143.111 186.201H139.778C139.81 186.432 139.887 186.639 140.007 186.822C140.126 187.002 140.279 187.145 140.464 187.251C140.652 187.357 140.86 187.411 141.089 187.414C141.334 187.414 141.556 187.352 141.755 187.226C141.954 187.098 142.114 186.924 142.237 186.703L142.935 186.867C142.772 187.229 142.525 187.526 142.196 187.757C141.866 187.986 141.497 188.1 141.089 188.1ZM139.757 185.662H142.421C142.399 185.433 142.325 185.225 142.2 185.037C142.075 184.846 141.915 184.694 141.722 184.579C141.529 184.465 141.318 184.408 141.089 184.408C140.86 184.408 140.651 184.464 140.46 184.575C140.269 184.687 140.111 184.838 139.986 185.029C139.864 185.217 139.787 185.428 139.757 185.662ZM145.748 187.994H144.869L143.379 183.901H144.11L145.306 187.198L146.503 183.901H147.234L145.748 187.994ZM149.537 188.1C149.162 188.1 148.818 188.004 148.508 187.81C148.2 187.617 147.954 187.358 147.769 187.034C147.586 186.708 147.495 186.347 147.495 185.952C147.495 185.652 147.548 185.373 147.654 185.115C147.761 184.853 147.906 184.624 148.091 184.428C148.279 184.23 148.497 184.074 148.745 183.963C148.993 183.851 149.257 183.795 149.537 183.795C149.845 183.795 150.127 183.858 150.383 183.983C150.642 184.106 150.862 184.277 151.045 184.498C151.23 184.718 151.367 184.974 151.457 185.266C151.55 185.557 151.584 185.869 151.559 186.201H148.226C148.259 186.432 148.335 186.639 148.455 186.822C148.575 187.002 148.727 187.145 148.912 187.251C149.1 187.357 149.309 187.411 149.537 187.414C149.782 187.414 150.004 187.352 150.203 187.226C150.402 187.098 150.563 186.924 150.685 186.703L151.384 186.867C151.22 187.229 150.974 187.526 150.644 187.757C150.315 187.986 149.946 188.1 149.537 188.1ZM148.206 185.662H150.869C150.847 185.433 150.774 185.225 150.648 185.037C150.523 184.846 150.364 184.694 150.17 184.579C149.977 184.465 149.766 184.408 149.537 184.408C149.309 184.408 149.099 184.464 148.908 184.575C148.718 184.687 148.56 184.838 148.434 185.029C148.312 185.217 148.236 185.428 148.206 185.662ZM152.208 187.994V181.867H152.894V187.994H152.208Z" fill="black"/>
<path d="M68.1624 86.4578L111.619 89.8356L154.782 86.4578L161.536 97.0318L111.619 108.781L61.7026 97.0318L68.1624 86.4578Z" fill="#D9D9D9"/>
<path d="M140.856 52.904L116.103 38.6127C112.99 36.8155 109.149 36.8424 106.061 38.683L81.6565 53.2331C78.6972 54.9975 76.8651 58.1708 76.8168 61.6158L76.4185 90.0261C76.3681 93.62 78.2655 96.9601 81.3782 98.7573L106.132 113.049C109.17 114.803 112.909 114.822 115.965 113.099L141.061 98.9473C144.211 97.1709 146.145 93.821 146.109 90.2046L145.816 61.3954C145.781 57.887 143.895 54.6583 140.856 52.904Z" fill="#EBEBEB"/>
<path d="M132.702 57.7483L116.215 48.2292C113.102 46.432 109.261 46.459 106.174 48.2996L89.9081 57.9969C86.9488 59.7613 85.1167 62.9346 85.0684 66.3796L84.8029 85.3146C84.7525 88.9085 86.6499 92.2486 89.7626 94.0457L106.25 103.565C109.289 105.319 113.028 105.338 116.084 103.615L132.81 94.1832C135.96 92.4068 137.894 89.0569 137.857 85.4404L137.662 66.2396C137.627 62.7312 135.741 59.5025 132.702 57.7483Z" fill="url(#paint0_linear_9_308)"/>
<mask id="path-10-outside-1_9_308" maskUnits="userSpaceOnUse" x="100.148" y="63.4934" width="24" height="24" fill="black">
<rect fill="white" x="100.148" y="63.4934" width="24" height="24"/>
<path d="M110.492 85.9026C108.855 85.8855 107.419 85.4423 106.183 84.5728C104.947 83.7034 103.984 82.5015 103.294 80.9673C102.603 79.433 102.258 77.6685 102.258 75.674C102.258 73.6964 102.62 71.9533 103.345 70.4446C104.069 68.9273 105.062 67.7425 106.324 66.8901C107.594 66.0292 109.039 65.5988 110.658 65.5988C111.809 65.5988 112.819 65.8161 113.688 66.2509C114.558 66.677 115.299 67.2737 115.913 68.0409C116.535 68.808 117.047 69.6987 117.447 70.7131H118.777L119.531 75.6228L122.037 85.4934H118.764L116.412 75.6228C116.284 74.992 116.092 74.2888 115.836 73.5132C115.581 72.7375 115.244 71.9959 114.826 71.2884C114.409 70.581 113.88 69.9971 113.241 69.5368C112.61 69.0765 111.847 68.8464 110.952 68.8464C109.972 68.8464 109.111 69.1404 108.37 69.7286C107.628 70.3082 107.053 71.1137 106.643 72.1451C106.234 73.1765 106.03 74.3613 106.03 75.6995C106.03 77.0122 106.226 78.1927 106.618 79.2412C107.018 80.2896 107.573 81.1164 108.28 81.7216C108.987 82.3183 109.814 82.6166 110.76 82.6166C111.621 82.6166 112.376 82.3822 113.024 81.9134C113.671 81.4446 114.221 80.8479 114.673 80.1234C115.125 79.3989 115.491 78.6445 115.772 77.8603C116.062 77.0676 116.275 76.3559 116.412 75.7251L118.521 65.8545H121.782L119.531 75.7251L118.777 80.6988H117.562C117.153 81.7131 116.625 82.6166 115.977 83.4093C115.338 84.1935 114.562 84.8072 113.65 85.2505C112.747 85.6937 111.694 85.9111 110.492 85.9026Z"/>
</mask>
<path d="M110.492 85.9026C108.855 85.8855 107.419 85.4423 106.183 84.5728C104.947 83.7034 103.984 82.5015 103.294 80.9673C102.603 79.433 102.258 77.6685 102.258 75.674C102.258 73.6964 102.62 71.9533 103.345 70.4446C104.069 68.9273 105.062 67.7425 106.324 66.8901C107.594 66.0292 109.039 65.5988 110.658 65.5988C111.809 65.5988 112.819 65.8161 113.688 66.2509C114.558 66.677 115.299 67.2737 115.913 68.0409C116.535 68.808 117.047 69.6987 117.447 70.7131H118.777L119.531 75.6228L122.037 85.4934H118.764L116.412 75.6228C116.284 74.992 116.092 74.2888 115.836 73.5132C115.581 72.7375 115.244 71.9959 114.826 71.2884C114.409 70.581 113.88 69.9971 113.241 69.5368C112.61 69.0765 111.847 68.8464 110.952 68.8464C109.972 68.8464 109.111 69.1404 108.37 69.7286C107.628 70.3082 107.053 71.1137 106.643 72.1451C106.234 73.1765 106.03 74.3613 106.03 75.6995C106.03 77.0122 106.226 78.1927 106.618 79.2412C107.018 80.2896 107.573 81.1164 108.28 81.7216C108.987 82.3183 109.814 82.6166 110.76 82.6166C111.621 82.6166 112.376 82.3822 113.024 81.9134C113.671 81.4446 114.221 80.8479 114.673 80.1234C115.125 79.3989 115.491 78.6445 115.772 77.8603C116.062 77.0676 116.275 76.3559 116.412 75.7251L118.521 65.8545H121.782L119.531 75.7251L118.777 80.6988H117.562C117.153 81.7131 116.625 82.6166 115.977 83.4093C115.338 84.1935 114.562 84.8072 113.65 85.2505C112.747 85.6937 111.694 85.9111 110.492 85.9026Z" fill="#525252"/>
<path d="M110.492 85.9026L110.476 87.4727L110.481 87.4727L110.492 85.9026ZM106.183 84.5728L107.087 83.2886V83.2886L106.183 84.5728ZM103.294 80.9673L104.725 80.3229V80.3229L103.294 80.9673ZM103.345 70.4446L104.76 71.1243L104.762 71.1212L103.345 70.4446ZM106.324 66.8901L107.203 68.1912L107.205 68.1899L106.324 66.8901ZM113.688 66.2509L112.986 67.6553L112.997 67.6608L113.688 66.2509ZM115.913 68.0409L114.687 69.0218L114.694 69.03L115.913 68.0409ZM117.447 70.7131L115.987 71.2899L116.379 72.2833H117.447V70.7131ZM118.777 70.7131L120.329 70.4746L120.124 69.1429H118.777V70.7131ZM119.531 75.6228L117.979 75.8613L117.991 75.936L118.01 76.0092L119.531 75.6228ZM122.037 85.4934V87.0636H124.056L123.559 85.107L122.037 85.4934ZM118.764 85.4934L117.237 85.8575L117.524 87.0636H118.764V85.4934ZM116.412 75.6228L114.873 75.9347L114.878 75.9609L114.884 75.9869L116.412 75.6228ZM115.836 73.5132L117.328 73.0215V73.0215L115.836 73.5132ZM114.826 71.2884L113.474 72.0867H113.474L114.826 71.2884ZM113.241 69.5368L112.315 70.8052L112.323 70.8111L113.241 69.5368ZM108.37 69.7286L109.337 70.9657L109.345 70.9588L108.37 69.7286ZM106.643 72.1451L105.184 71.5661V71.5661L106.643 72.1451ZM106.618 79.2412L105.147 79.7912L105.151 79.8016L106.618 79.2412ZM108.28 81.7216L107.259 82.9148L107.268 82.9219L108.28 81.7216ZM113.024 81.9134L112.103 80.6414H112.103L113.024 81.9134ZM114.673 80.1234L116.005 80.9542V80.9542L114.673 80.1234ZM115.772 77.8603L114.298 77.3212L114.294 77.3302L115.772 77.8603ZM116.412 75.7251L117.946 76.0569L117.947 76.0533L116.412 75.7251ZM118.521 65.8545V64.2843H117.251L116.986 65.5263L118.521 65.8545ZM121.782 65.8545L123.313 66.2035L123.75 64.2843H121.782V65.8545ZM119.531 75.7251L118.001 75.3761L117.988 75.4325L117.979 75.4896L119.531 75.7251ZM118.777 80.6988V82.2689H120.127L120.33 80.9342L118.777 80.6988ZM117.562 80.6988V79.1286H116.503L116.106 80.1114L117.562 80.6988ZM115.977 83.4093L114.761 82.4157L114.76 82.4172L115.977 83.4093ZM113.65 85.2505L112.964 83.8382L112.958 83.8408L113.65 85.2505ZM110.492 85.9026L110.508 84.3324C109.162 84.3184 108.041 83.9598 107.087 83.2886L106.183 84.5728L105.28 85.8571C106.797 86.9247 108.549 87.4526 110.476 87.4727L110.492 85.9026ZM106.183 84.5728L107.087 83.2886C106.106 82.599 105.314 81.6302 104.725 80.3229L103.294 80.9673L101.862 81.6116C102.654 83.3729 103.788 84.8078 105.28 85.8571L106.183 84.5728ZM103.294 80.9673L104.725 80.3229C104.142 79.0252 103.828 77.487 103.828 75.674H102.258H100.688C100.688 77.85 101.065 79.8407 101.862 81.6116L103.294 80.9673ZM102.258 75.674H103.828C103.828 73.8894 104.154 72.3858 104.76 71.1243L103.345 70.4446L101.929 69.7648C101.086 71.5208 100.688 73.5035 100.688 75.674H102.258ZM103.345 70.4446L104.762 71.1212C105.379 69.8292 106.197 68.8711 107.203 68.1912L106.324 66.8901L105.445 65.5891C103.928 66.614 102.76 68.0254 101.928 69.768L103.345 70.4446ZM106.324 66.8901L107.205 68.1899C108.2 67.5153 109.334 67.169 110.658 67.169V65.5988V64.0286C108.743 64.0286 106.988 64.5432 105.443 65.5904L106.324 66.8901ZM110.658 65.5988V67.169C111.61 67.169 112.371 67.3479 112.986 67.6553L113.688 66.2509L114.391 64.8464C113.267 64.2844 112.008 64.0286 110.658 64.0286V65.5988ZM113.688 66.2509L112.997 67.6608C113.656 67.9836 114.216 68.4326 114.687 69.0218L115.913 68.0409L117.139 67.06C116.383 66.1149 115.46 65.3705 114.38 64.8409L113.688 66.2509ZM115.913 68.0409L114.694 69.03C115.205 69.6606 115.639 70.4091 115.987 71.2899L117.447 70.7131L118.908 70.1363C118.454 68.9884 117.866 67.9554 117.133 67.0517L115.913 68.0409ZM117.447 70.7131V72.2833H118.777V70.7131V69.1429H117.447V70.7131ZM118.777 70.7131L117.225 70.9515L117.979 75.8613L119.531 75.6228L121.083 75.3843L120.329 70.4746L118.777 70.7131ZM119.531 75.6228L118.01 76.0092L120.516 85.8798L122.037 85.4934L123.559 85.107L121.053 75.2364L119.531 75.6228ZM122.037 85.4934V83.9232H118.764V85.4934V87.0636H122.037V85.4934ZM118.764 85.4934L120.292 85.1294L117.939 75.2588L116.412 75.6228L114.884 75.9869L117.237 85.8575L118.764 85.4934ZM116.412 75.6228L117.951 75.3109C117.808 74.6057 117.598 73.8413 117.328 73.0215L115.836 73.5132L114.345 74.0048C114.586 74.7364 114.76 75.3784 114.873 75.9347L116.412 75.6228ZM115.836 73.5132L117.328 73.0215C117.036 72.1383 116.653 71.294 116.178 70.4902L114.826 71.2884L113.474 72.0867C113.835 72.6978 114.125 73.3366 114.345 74.0048L115.836 73.5132ZM114.826 71.2884L116.178 70.4902C115.655 69.6039 114.981 68.8552 114.158 68.2625L113.241 69.5368L112.323 70.8111C112.779 71.139 113.162 71.558 113.474 72.0867L114.826 71.2884ZM113.241 69.5368L114.166 68.2684C113.229 67.5841 112.129 67.2762 110.952 67.2762V68.8464V70.4166C111.565 70.4166 111.991 70.5689 112.315 70.8052L113.241 69.5368ZM110.952 68.8464V67.2762C109.631 67.2762 108.423 67.6817 107.394 68.4983L108.37 69.7286L109.345 70.9588C109.799 70.5992 110.313 70.4166 110.952 70.4166V68.8464ZM108.37 69.7286L107.403 68.4914C106.405 69.2713 105.677 70.3222 105.184 71.5661L106.643 72.1451L108.103 72.7241C108.428 71.9052 108.851 71.3451 109.336 70.9657L108.37 69.7286ZM106.643 72.1451L105.184 71.5661C104.688 72.8155 104.46 74.2029 104.46 75.6995H106.03H107.6C107.6 74.5197 107.78 73.5375 108.103 72.7241L106.643 72.1451ZM106.03 75.6995H104.46C104.46 77.1682 104.679 78.5393 105.147 79.7912L106.618 79.2412L108.089 78.6912C107.773 77.8461 107.6 76.8562 107.6 75.6995H106.03ZM106.618 79.2412L105.151 79.8016C105.626 81.0449 106.316 82.1075 107.259 82.9148L108.28 81.7216L109.301 80.5284C108.829 80.1253 108.411 79.5344 108.085 78.6807L106.618 79.2412ZM108.28 81.7216L107.268 82.9219C108.265 83.7632 109.453 84.1868 110.76 84.1868V82.6166V81.0464C110.176 81.0464 109.71 80.8733 109.292 80.5213L108.28 81.7216ZM110.76 82.6166V84.1868C111.925 84.1868 113.008 83.8632 113.944 83.1854L113.024 81.9134L112.103 80.6414C111.744 80.9012 111.318 81.0464 110.76 81.0464V82.6166ZM113.024 81.9134L113.944 83.1854C114.767 82.5897 115.453 81.8392 116.005 80.9542L114.673 80.1234L113.34 79.2926C112.989 79.8566 112.575 80.2995 112.103 80.6414L113.024 81.9134ZM114.673 80.1234L116.005 80.9542C116.515 80.1373 116.931 79.2824 117.25 78.3905L115.772 77.8603L114.294 77.3302C114.052 78.0067 113.735 78.6605 113.34 79.2926L114.673 80.1234ZM115.772 77.8603L117.247 78.3995C117.555 77.5584 117.791 76.7757 117.946 76.0569L116.412 75.7251L114.877 75.3933C114.76 75.936 114.57 76.5768 114.298 77.3212L115.772 77.8603ZM116.412 75.7251L117.947 76.0533L120.057 66.1827L118.521 65.8545L116.986 65.5263L114.876 75.3969L116.412 75.7251ZM118.521 65.8545V67.4247H121.782V65.8545V64.2843H118.521V65.8545ZM121.782 65.8545L120.251 65.5055L118.001 75.3761L119.531 75.7251L121.062 76.0741L123.313 66.2035L121.782 65.8545ZM119.531 75.7251L117.979 75.4896L117.225 80.4633L118.777 80.6988L120.33 80.9342L121.084 75.9606L119.531 75.7251ZM118.777 80.6988V79.1286H117.562V80.6988V82.2689H118.777V80.6988ZM117.562 80.6988L116.106 80.1114C115.752 80.989 115.302 81.7536 114.761 82.4157L115.977 83.4093L117.193 84.4029C117.947 83.4796 118.554 82.4372 119.019 81.2861L117.562 80.6988ZM115.977 83.4093L114.76 82.4172C114.265 83.024 113.671 83.4945 112.964 83.8382L113.65 85.2505L114.336 86.6627C115.453 86.1199 116.41 85.363 117.194 84.4015L115.977 83.4093ZM113.65 85.2505L112.958 83.8408C112.312 84.1579 111.508 84.3395 110.503 84.3324L110.492 85.9026L110.481 87.4727C111.879 87.4826 113.181 87.2296 114.342 86.6602L113.65 85.2505Z" fill="#E0E0E0" mask="url(#path-10-outside-1_9_308)"/>
<rect x="71.3138" y="92.0383" width="80.6105" height="19.2225" rx="5.27068" fill="url(#paint1_linear_9_308)"/>
<rect opacity="0.29" x="71.3138" y="97.6187" width="80.6105" height="8.06105" fill="#B5B5B5"/>
<defs>
<filter id="filter0_d_9_308" x="5.96046e-05" y="0" width="222.534" height="227.833" filterUnits="userSpaceOnUse" color-interpolation-filters="sRGB">
<feFlood flood-opacity="0" result="BackgroundImageFix"/>
<feColorMatrix in="SourceAlpha" type="matrix" values="0 0 0 0 0 0 0 0 0 0 0 0 0 0 0 0 0 0 127 0" result="hardAlpha"/>
<feOffset dy="3.53229"/>
<feGaussianBlur stdDeviation="1.76614"/>
<feComposite in2="hardAlpha" operator="out"/>
<feColorMatrix type="matrix" values="0 0 0 0 0 0 0 0 0 0 0 0 0 0 0 0 0 0 0.12 0"/>
<feBlend mode="normal" in2="BackgroundImageFix" result="effect1_dropShadow_9_308"/>
<feBlend mode="normal" in="SourceGraphic" in2="effect1_dropShadow_9_308" result="shape"/>
</filter>
<linearGradient id="paint0_linear_9_308" x1="115.495" y1="53.5933" x2="116.735" y2="123.352" gradientUnits="userSpaceOnUse">
<stop stop-color="#F8F8F8"/>
<stop offset="0.826923" stop-color="#737373"/>
</linearGradient>
<linearGradient id="paint1_linear_9_308" x1="95.962" y1="101.65" x2="165.101" y2="106.61" gradientUnits="userSpaceOnUse">
<stop stop-color="#CCCCCC"/>
<stop offset="0.382455" stop-color="#F0F0F0"/>
<stop offset="0.849117" stop-color="#D0D0D0"/>
</linearGradient>
</defs>
</svg>
