<svg width="393" height="852" viewBox="0 0 393 852" fill="none" xmlns="http://www.w3.org/2000/svg">
<g clip-path="url(#clip0_1_156)">
<rect width="393" height="852" fill="white"/>
<ellipse cx="136.632" cy="-76.9824" rx="349" ry="493.5" transform="rotate(76.6715 136.632 -76.9824)" fill="url(#paint0_linear_1_156)"/>
<ellipse cx="151.635" cy="-113.423" rx="330" ry="457.5" transform="rotate(76.6715 151.635 -113.423)" fill="url(#paint1_linear_1_156)"/>
<path d="M51.704 101L45.26 75.8H49.112L53.828 94.286L58.526 75.8H61.928L66.644 94.286L71.36 75.8H75.212L68.804 101H64.502L60.236 84.314L55.97 101H51.704ZM83.9277 101.468C82.2717 101.468 80.7597 101.042 79.3917 100.19C78.0357 99.338 76.9497 98.198 76.1337 96.77C75.3297 95.33 74.9277 93.74 74.9277 92C74.9277 90.68 75.1617 89.45 75.6297 88.31C76.0977 87.158 76.7397 86.15 77.5557 85.286C78.3837 84.41 79.3437 83.726 80.4357 83.234C81.5277 82.742 82.6917 82.496 83.9277 82.496C85.3077 82.496 86.5737 82.784 87.7257 83.36C88.8777 83.924 89.8617 84.71 90.6777 85.718C91.4937 86.714 92.0937 87.866 92.4777 89.174C92.8617 90.47 92.9757 91.85 92.8197 93.314H78.9417C79.0977 94.142 79.3977 94.892 79.8417 95.564C80.2977 96.224 80.8737 96.746 81.5697 97.13C82.2777 97.514 83.0637 97.712 83.9277 97.724C84.8397 97.724 85.6677 97.496 86.4117 97.04C87.1677 96.584 87.7857 95.954 88.2657 95.15L92.0637 96.032C91.3437 97.628 90.2577 98.936 88.8057 99.956C87.3537 100.964 85.7277 101.468 83.9277 101.468ZM78.8157 90.452H89.0397C88.9197 89.588 88.6137 88.808 88.1217 88.112C87.6417 87.404 87.0357 86.846 86.3037 86.438C85.5837 86.018 84.7917 85.808 83.9277 85.808C83.0757 85.808 82.2837 86.012 81.5517 86.42C80.8317 86.828 80.2317 87.386 79.7517 88.094C79.2837 88.79 78.9717 89.576 78.8157 90.452ZM95.5545 101V74H99.2985V101H95.5545ZM115.113 95.888L118.461 97.706C117.645 98.846 116.607 99.758 115.347 100.442C114.099 101.126 112.743 101.468 111.279 101.468C109.623 101.468 108.111 101.042 106.743 100.19C105.387 99.338 104.301 98.198 103.485 96.77C102.681 95.33 102.279 93.74 102.279 92C102.279 90.68 102.513 89.45 102.981 88.31C103.449 87.158 104.091 86.15 104.907 85.286C105.735 84.41 106.695 83.726 107.787 83.234C108.879 82.742 110.043 82.496 111.279 82.496C112.743 82.496 114.099 82.838 115.347 83.522C116.607 84.206 117.645 85.124 118.461 86.276L115.113 88.094C114.609 87.494 114.021 87.038 113.349 86.726C112.677 86.402 111.987 86.24 111.279 86.24C110.295 86.24 109.401 86.51 108.597 87.05C107.805 87.578 107.175 88.28 106.707 89.156C106.251 90.02 106.023 90.968 106.023 92C106.023 93.02 106.257 93.968 106.725 94.844C107.193 95.708 107.823 96.404 108.615 96.932C109.419 97.46 110.307 97.724 111.279 97.724C112.023 97.724 112.731 97.556 113.403 97.22C114.075 96.884 114.645 96.44 115.113 95.888ZM129.174 101.468C127.518 101.468 126.006 101.042 124.638 100.19C123.282 99.338 122.196 98.198 121.38 96.77C120.576 95.33 120.174 93.74 120.174 92C120.174 90.68 120.408 89.45 120.876 88.31C121.344 87.158 121.986 86.15 122.802 85.286C123.63 84.41 124.59 83.726 125.682 83.234C126.774 82.742 127.938 82.496 129.174 82.496C130.83 82.496 132.336 82.922 133.692 83.774C135.06 84.626 136.146 85.772 136.95 87.212C137.766 88.652 138.174 90.248 138.174 92C138.174 93.308 137.94 94.532 137.472 95.672C137.004 96.812 136.356 97.82 135.528 98.696C134.712 99.56 133.758 100.238 132.666 100.73C131.586 101.222 130.422 101.468 129.174 101.468ZM129.174 97.724C130.17 97.724 131.064 97.46 131.856 96.932C132.648 96.404 133.272 95.708 133.728 94.844C134.196 93.968 134.43 93.02 134.43 92C134.43 90.956 134.19 89.996 133.71 89.12C133.242 88.244 132.612 87.548 131.82 87.032C131.028 86.504 130.146 86.24 129.174 86.24C128.19 86.24 127.296 86.504 126.492 87.032C125.7 87.56 125.07 88.262 124.602 89.138C124.146 90.014 123.918 90.968 123.918 92C123.918 93.068 124.158 94.034 124.638 94.898C125.118 95.762 125.754 96.452 126.546 96.968C127.35 97.472 128.226 97.724 129.174 97.724ZM141.082 101V83H144.826V84.908C145.45 84.164 146.212 83.576 147.112 83.144C148.024 82.712 149.008 82.496 150.064 82.496C151.348 82.496 152.53 82.808 153.61 83.432C154.69 84.044 155.548 84.86 156.184 85.88C156.82 84.86 157.666 84.044 158.722 83.432C159.79 82.808 160.966 82.496 162.25 82.496C163.582 82.496 164.794 82.82 165.886 83.468C166.978 84.116 167.848 84.986 168.496 86.078C169.144 87.17 169.468 88.382 169.468 89.714V101H165.724V90.668C165.724 89.876 165.532 89.15 165.148 88.49C164.764 87.83 164.248 87.296 163.6 86.888C162.952 86.48 162.232 86.276 161.44 86.276C160.648 86.276 159.928 86.468 159.28 86.852C158.632 87.236 158.116 87.758 157.732 88.418C157.348 89.078 157.156 89.828 157.156 90.668V101H153.412V90.668C153.412 89.828 153.22 89.078 152.836 88.418C152.452 87.758 151.93 87.236 151.27 86.852C150.622 86.468 149.902 86.276 149.11 86.276C148.33 86.276 147.61 86.48 146.95 86.888C146.302 87.296 145.786 87.83 145.402 88.49C145.018 89.15 144.826 89.876 144.826 90.668V101H141.082ZM180.643 101.468C178.987 101.468 177.475 101.042 176.107 100.19C174.751 99.338 173.665 98.198 172.849 96.77C172.045 95.33 171.643 93.74 171.643 92C171.643 90.68 171.877 89.45 172.345 88.31C172.813 87.158 173.455 86.15 174.271 85.286C175.099 84.41 176.059 83.726 177.151 83.234C178.243 82.742 179.407 82.496 180.643 82.496C182.023 82.496 183.289 82.784 184.441 83.36C185.593 83.924 186.577 84.71 187.393 85.718C188.209 86.714 188.809 87.866 189.193 89.174C189.577 90.47 189.691 91.85 189.535 93.314H175.657C175.813 94.142 176.113 94.892 176.557 95.564C177.013 96.224 177.589 96.746 178.285 97.13C178.993 97.514 179.779 97.712 180.643 97.724C181.555 97.724 182.383 97.496 183.127 97.04C183.883 96.584 184.501 95.954 184.981 95.15L188.779 96.032C188.059 97.628 186.973 98.936 185.521 99.956C184.069 100.964 182.443 101.468 180.643 101.468ZM175.531 90.452H185.755C185.635 89.588 185.329 88.808 184.837 88.112C184.357 87.404 183.751 86.846 183.019 86.438C182.299 86.018 181.507 85.808 180.643 85.808C179.791 85.808 178.999 86.012 178.267 86.42C177.547 86.828 176.947 87.386 176.467 88.094C175.999 88.79 175.687 89.576 175.531 90.452Z" fill="white"/>
<path d="M47.312 135L44.448 123.8H45.832L48.088 132.64L50.336 123.8H51.544L53.8 132.64L56.048 123.8H57.432L54.584 135H53.016L50.944 126.888L48.872 135H47.312ZM61.4331 135.208C60.6971 135.208 60.0251 135.019 59.4171 134.64C58.8145 134.261 58.3318 133.755 57.9691 133.12C57.6118 132.48 57.4331 131.773 57.4331 131C57.4331 130.413 57.5371 129.867 57.7451 129.36C57.9531 128.848 58.2385 128.4 58.6011 128.016C58.9691 127.627 59.3958 127.323 59.8811 127.104C60.3665 126.885 60.8838 126.776 61.4331 126.776C62.0358 126.776 62.5878 126.899 63.0891 127.144C63.5958 127.384 64.0278 127.72 64.3851 128.152C64.7478 128.584 65.0171 129.085 65.1931 129.656C65.3745 130.227 65.4411 130.837 65.3931 131.488H58.8651C58.9291 131.941 59.0785 132.347 59.3131 132.704C59.5478 133.056 59.8465 133.336 60.2091 133.544C60.5771 133.752 60.9851 133.859 61.4331 133.864C61.9131 133.864 62.3478 133.741 62.7371 133.496C63.1265 133.245 63.4411 132.904 63.6811 132.472L65.0491 132.792C64.7291 133.501 64.2465 134.083 63.6011 134.536C62.9558 134.984 62.2331 135.208 61.4331 135.208ZM58.8251 130.432H64.0411C63.9985 129.984 63.8545 129.576 63.6091 129.208C63.3638 128.835 63.0518 128.536 62.6731 128.312C62.2945 128.088 61.8811 127.976 61.4331 127.976C60.9851 127.976 60.5745 128.085 60.2011 128.304C59.8278 128.523 59.5185 128.819 59.2731 129.192C59.0331 129.56 58.8838 129.973 58.8251 130.432ZM77.1264 127H78.4704V135H77.1264L77.0704 133.648C76.8197 134.112 76.473 134.488 76.0304 134.776C75.593 135.064 75.0704 135.208 74.4624 135.208C73.8757 135.208 73.3264 135.099 72.8144 134.88C72.3024 134.656 71.849 134.349 71.4544 133.96C71.065 133.565 70.761 133.112 70.5424 132.6C70.3237 132.088 70.2144 131.536 70.2144 130.944C70.2144 130.373 70.321 129.835 70.5344 129.328C70.7477 128.821 71.0437 128.379 71.4224 128C71.8064 127.616 72.249 127.317 72.7504 127.104C73.2517 126.885 73.7904 126.776 74.3664 126.776C74.9957 126.776 75.5477 126.925 76.0224 127.224C76.497 127.517 76.881 127.899 77.1744 128.368L77.1264 127ZM74.4384 133.904C74.9664 133.904 75.4224 133.776 75.8064 133.52C76.1957 133.259 76.4944 132.907 76.7024 132.464C76.9157 132.021 77.0224 131.533 77.0224 131C77.0224 130.456 76.9157 129.965 76.7024 129.528C76.489 129.085 76.1877 128.736 75.7984 128.48C75.4144 128.219 74.961 128.088 74.4384 128.088C73.9104 128.088 73.4304 128.219 72.9984 128.48C72.5664 128.741 72.2224 129.093 71.9664 129.536C71.7157 129.973 71.5904 130.461 71.5904 131C71.5904 131.539 71.721 132.029 71.9824 132.472C72.2437 132.909 72.5904 133.259 73.0224 133.52C73.4544 133.776 73.9264 133.904 74.4384 133.904ZM80.0694 135V127H81.4134V128C81.696 127.627 82.0534 127.331 82.4854 127.112C82.9174 126.888 83.3867 126.776 83.8934 126.776C84.2027 126.776 84.5014 126.816 84.7894 126.896L84.2454 128.24C84.0267 128.171 83.8134 128.136 83.6054 128.136C83.2054 128.136 82.8374 128.235 82.5014 128.432C82.1707 128.624 81.9067 128.885 81.7094 129.216C81.512 129.547 81.4134 129.915 81.4134 130.32V135H80.0694ZM88.8863 135.208C88.1503 135.208 87.4783 135.019 86.8703 134.64C86.2676 134.261 85.7849 133.755 85.4223 133.12C85.0649 132.48 84.8863 131.773 84.8863 131C84.8863 130.413 84.9903 129.867 85.1983 129.36C85.4063 128.848 85.6916 128.4 86.0543 128.016C86.4223 127.627 86.8489 127.323 87.3343 127.104C87.8196 126.885 88.3369 126.776 88.8863 126.776C89.4889 126.776 90.0409 126.899 90.5423 127.144C91.0489 127.384 91.4809 127.72 91.8383 128.152C92.2009 128.584 92.4703 129.085 92.6463 129.656C92.8276 130.227 92.8943 130.837 92.8463 131.488H86.3183C86.3823 131.941 86.5316 132.347 86.7663 132.704C87.0009 133.056 87.2996 133.336 87.6623 133.544C88.0303 133.752 88.4383 133.859 88.8863 133.864C89.3663 133.864 89.8009 133.741 90.1903 133.496C90.5796 133.245 90.8943 132.904 91.1343 132.472L92.5023 132.792C92.1823 133.501 91.6996 134.083 91.0543 134.536C90.4089 134.984 89.6863 135.208 88.8863 135.208ZM86.2783 130.432H91.4943C91.4516 129.984 91.3076 129.576 91.0623 129.208C90.8169 128.835 90.5049 128.536 90.1263 128.312C89.7476 128.088 89.3343 127.976 88.8863 127.976C88.4383 127.976 88.0276 128.085 87.6543 128.304C87.2809 128.523 86.9716 128.819 86.7263 129.192C86.4863 129.56 86.3369 129.973 86.2783 130.432ZM101.668 135.208C100.932 135.208 100.26 135.019 99.6515 134.64C99.0488 134.261 98.5662 133.755 98.2035 133.12C97.8462 132.48 97.6675 131.773 97.6675 131C97.6675 130.413 97.7715 129.867 97.9795 129.36C98.1875 128.848 98.4728 128.4 98.8355 128.016C99.2035 127.627 99.6302 127.323 100.116 127.104C100.601 126.885 101.118 126.776 101.668 126.776C102.27 126.776 102.822 126.899 103.324 127.144C103.83 127.384 104.262 127.72 104.62 128.152C104.982 128.584 105.252 129.085 105.428 129.656C105.609 130.227 105.676 130.837 105.628 131.488H99.0995C99.1635 131.941 99.3128 132.347 99.5475 132.704C99.7822 133.056 100.081 133.336 100.444 133.544C100.812 133.752 101.22 133.859 101.668 133.864C102.148 133.864 102.582 133.741 102.972 133.496C103.361 133.245 103.676 132.904 103.916 132.472L105.284 132.792C104.964 133.501 104.481 134.083 103.836 134.536C103.19 134.984 102.468 135.208 101.668 135.208ZM99.0595 130.432H104.276C104.233 129.984 104.089 129.576 103.844 129.208C103.598 128.835 103.286 128.536 102.908 128.312C102.529 128.088 102.116 127.976 101.668 127.976C101.22 127.976 100.809 128.085 100.436 128.304C100.062 128.523 99.7528 128.819 99.5075 129.192C99.2675 129.56 99.1182 129.973 99.0595 130.432ZM106.062 135L108.99 130.984L106.078 126.984H107.734L109.822 129.832L111.902 126.984H113.558L110.646 130.984L113.574 135H111.918L109.822 132.12L107.718 135H106.062ZM120.05 132.888L121.25 133.536C120.887 134.043 120.426 134.448 119.866 134.752C119.311 135.056 118.709 135.208 118.058 135.208C117.322 135.208 116.65 135.019 116.042 134.64C115.439 134.261 114.957 133.755 114.594 133.12C114.237 132.48 114.058 131.773 114.058 131C114.058 130.413 114.162 129.867 114.37 129.36C114.578 128.848 114.863 128.4 115.226 128.016C115.594 127.627 116.021 127.323 116.506 127.104C116.991 126.885 117.509 126.776 118.058 126.776C118.709 126.776 119.311 126.928 119.866 127.232C120.426 127.536 120.887 127.944 121.25 128.456L120.05 129.104C119.794 128.789 119.49 128.547 119.138 128.376C118.786 128.205 118.426 128.12 118.058 128.12C117.562 128.12 117.111 128.253 116.706 128.52C116.306 128.781 115.989 129.131 115.754 129.568C115.519 130.005 115.402 130.483 115.402 131C115.402 131.517 115.519 131.995 115.754 132.432C115.994 132.864 116.314 133.211 116.714 133.472C117.119 133.733 117.567 133.864 118.058 133.864C118.453 133.864 118.823 133.773 119.17 133.592C119.517 133.411 119.81 133.176 120.05 132.888ZM122.507 127H123.851V135H122.507V127ZM123.195 125.696C122.982 125.696 122.803 125.627 122.659 125.488C122.515 125.349 122.443 125.176 122.443 124.968C122.443 124.76 122.515 124.587 122.659 124.448C122.803 124.309 122.979 124.24 123.187 124.24C123.395 124.24 123.571 124.309 123.715 124.448C123.859 124.587 123.931 124.76 123.931 124.968C123.931 125.176 123.859 125.349 123.715 125.488C123.576 125.627 123.403 125.696 123.195 125.696ZM129.917 128.344H128.101L128.093 135H126.749L126.757 128.344H125.381V127H126.757L126.749 124.488H128.093L128.101 127H129.917V128.344ZM134.668 135.208C133.932 135.208 133.26 135.019 132.652 134.64C132.049 134.261 131.566 133.755 131.204 133.12C130.846 132.48 130.668 131.773 130.668 131C130.668 130.413 130.772 129.867 130.98 129.36C131.188 128.848 131.473 128.4 131.836 128.016C132.204 127.627 132.63 127.323 133.116 127.104C133.601 126.885 134.118 126.776 134.668 126.776C135.27 126.776 135.822 126.899 136.324 127.144C136.83 127.384 137.262 127.72 137.62 128.152C137.982 128.584 138.252 129.085 138.428 129.656C138.609 130.227 138.676 130.837 138.628 131.488H132.1C132.164 131.941 132.313 132.347 132.548 132.704C132.782 133.056 133.081 133.336 133.444 133.544C133.812 133.752 134.22 133.859 134.668 133.864C135.148 133.864 135.582 133.741 135.972 133.496C136.361 133.245 136.676 132.904 136.916 132.472L138.284 132.792C137.964 133.501 137.481 134.083 136.836 134.536C136.19 134.984 135.468 135.208 134.668 135.208ZM132.06 130.432H137.276C137.233 129.984 137.089 129.576 136.844 129.208C136.598 128.835 136.286 128.536 135.908 128.312C135.529 128.088 135.116 127.976 134.668 127.976C134.22 127.976 133.809 128.085 133.436 128.304C133.062 128.523 132.753 128.819 132.508 129.192C132.268 129.56 132.118 129.973 132.06 130.432ZM146.369 123H147.713V135H146.369V133.64C146.097 134.109 145.731 134.488 145.273 134.776C144.814 135.064 144.275 135.208 143.657 135.208C143.075 135.208 142.531 135.099 142.025 134.88C141.518 134.661 141.07 134.36 140.681 133.976C140.297 133.587 139.995 133.139 139.777 132.632C139.558 132.125 139.449 131.581 139.449 131C139.449 130.419 139.558 129.875 139.777 129.368C139.995 128.856 140.297 128.408 140.681 128.024C141.07 127.635 141.518 127.331 142.025 127.112C142.531 126.893 143.075 126.784 143.657 126.784C144.275 126.784 144.814 126.928 145.273 127.216C145.731 127.504 146.097 127.883 146.369 128.352V123ZM143.673 133.904C144.201 133.904 144.657 133.776 145.041 133.52C145.43 133.259 145.729 132.907 145.937 132.464C146.15 132.021 146.257 131.533 146.257 131C146.257 130.456 146.15 129.965 145.937 129.528C145.723 129.085 145.422 128.736 145.033 128.48C144.649 128.219 144.195 128.088 143.673 128.088C143.145 128.088 142.665 128.219 142.233 128.48C141.806 128.741 141.465 129.093 141.209 129.536C140.953 129.973 140.825 130.461 140.825 131C140.825 131.539 140.955 132.029 141.217 132.472C141.478 132.909 141.825 133.259 142.257 133.52C142.689 133.776 143.161 133.904 143.673 133.904ZM157.62 128.344H155.804L155.796 135H154.452L154.46 128.344H153.084V127H154.46L154.452 124.488H155.796L155.804 127H157.62V128.344ZM166.126 130.024V135H164.782V130.32C164.782 129.915 164.683 129.547 164.486 129.216C164.288 128.885 164.024 128.624 163.694 128.432C163.363 128.235 162.995 128.136 162.59 128.136C162.19 128.136 161.822 128.235 161.486 128.432C161.155 128.624 160.891 128.885 160.694 129.216C160.496 129.547 160.398 129.915 160.398 130.32V135H159.054V123H160.398V128C160.68 127.627 161.038 127.331 161.47 127.112C161.902 126.888 162.371 126.776 162.878 126.776C163.475 126.776 164.019 126.923 164.51 127.216C165.006 127.504 165.398 127.893 165.686 128.384C165.979 128.875 166.126 129.421 166.126 130.024ZM174.001 127H175.345V135H174.001L173.945 133.648C173.695 134.112 173.348 134.488 172.905 134.776C172.468 135.064 171.945 135.208 171.337 135.208C170.751 135.208 170.201 135.099 169.689 134.88C169.177 134.656 168.724 134.349 168.329 133.96C167.94 133.565 167.636 133.112 167.417 132.6C167.199 132.088 167.089 131.536 167.089 130.944C167.089 130.373 167.196 129.835 167.409 129.328C167.623 128.821 167.919 128.379 168.297 128C168.681 127.616 169.124 127.317 169.625 127.104C170.127 126.885 170.665 126.776 171.241 126.776C171.871 126.776 172.423 126.925 172.897 127.224C173.372 127.517 173.756 127.899 174.049 128.368L174.001 127ZM171.313 133.904C171.841 133.904 172.297 133.776 172.681 133.52C173.071 133.259 173.369 132.907 173.577 132.464C173.791 132.021 173.897 131.533 173.897 131C173.897 130.456 173.791 129.965 173.577 129.528C173.364 129.085 173.063 128.736 172.673 128.48C172.289 128.219 171.836 128.088 171.313 128.088C170.785 128.088 170.305 128.219 169.873 128.48C169.441 128.741 169.097 129.093 168.841 129.536C168.591 129.973 168.465 130.461 168.465 131C168.465 131.539 168.596 132.029 168.857 132.472C169.119 132.909 169.465 133.259 169.897 133.52C170.329 133.776 170.801 133.904 171.313 133.904ZM181.088 128.344H179.272L179.264 135H177.92L177.928 128.344H176.552V127H177.928L177.92 124.488H179.264L179.272 127H181.088V128.344ZM191.846 127H193.27L188.894 139H187.47L188.918 135L186.046 127H187.518L189.59 133.152L191.846 127ZM197.824 135.208C197.088 135.208 196.416 135.019 195.808 134.64C195.205 134.261 194.722 133.755 194.36 133.12C194.002 132.48 193.824 131.773 193.824 131C193.824 130.413 193.928 129.867 194.136 129.36C194.344 128.848 194.629 128.4 194.992 128.016C195.36 127.627 195.786 127.323 196.272 127.104C196.757 126.885 197.274 126.776 197.824 126.776C198.56 126.776 199.229 126.965 199.832 127.344C200.44 127.723 200.922 128.232 201.28 128.872C201.642 129.512 201.824 130.221 201.824 131C201.824 131.581 201.72 132.125 201.512 132.632C201.304 133.139 201.016 133.587 200.648 133.976C200.285 134.36 199.861 134.661 199.376 134.88C198.896 135.099 198.378 135.208 197.824 135.208ZM197.824 133.864C198.325 133.864 198.776 133.733 199.176 133.472C199.581 133.205 199.898 132.856 200.128 132.424C200.362 131.987 200.48 131.512 200.48 131C200.48 130.477 200.36 129.997 200.12 129.56C199.885 129.123 199.568 128.773 199.168 128.512C198.768 128.251 198.32 128.12 197.824 128.12C197.322 128.12 196.872 128.253 196.472 128.52C196.072 128.781 195.754 129.131 195.52 129.568C195.285 130.005 195.168 130.483 195.168 131C195.168 131.533 195.288 132.019 195.528 132.456C195.768 132.888 196.09 133.232 196.496 133.488C196.901 133.739 197.344 133.864 197.824 133.864ZM202.718 131.96V127H204.062V131.664C204.062 132.069 204.161 132.437 204.358 132.768C204.555 133.099 204.819 133.363 205.15 133.56C205.486 133.752 205.854 133.848 206.254 133.848C206.659 133.848 207.025 133.752 207.35 133.56C207.681 133.363 207.945 133.099 208.142 132.768C208.339 132.437 208.438 132.069 208.438 131.664V127H209.782L209.79 135H208.446L208.438 133.984C208.155 134.357 207.798 134.656 207.366 134.88C206.934 135.099 206.467 135.208 205.966 135.208C205.369 135.208 204.822 135.064 204.326 134.776C203.835 134.483 203.443 134.091 203.15 133.6C202.862 133.109 202.718 132.563 202.718 131.96ZM221.673 127H223.017V135H221.673L221.617 133.648C221.367 134.112 221.02 134.488 220.577 134.776C220.14 135.064 219.617 135.208 219.009 135.208C218.423 135.208 217.873 135.099 217.361 134.88C216.849 134.656 216.396 134.349 216.001 133.96C215.612 133.565 215.308 133.112 215.089 132.6C214.871 132.088 214.761 131.536 214.761 130.944C214.761 130.373 214.868 129.835 215.081 129.328C215.295 128.821 215.591 128.379 215.969 128C216.353 127.616 216.796 127.317 217.297 127.104C217.799 126.885 218.337 126.776 218.913 126.776C219.543 126.776 220.095 126.925 220.569 127.224C221.044 127.517 221.428 127.899 221.721 128.368L221.673 127ZM218.985 133.904C219.513 133.904 219.969 133.776 220.353 133.52C220.743 133.259 221.041 132.907 221.249 132.464C221.463 132.021 221.569 131.533 221.569 131C221.569 130.456 221.463 129.965 221.249 129.528C221.036 129.085 220.735 128.736 220.345 128.48C219.961 128.219 219.508 128.088 218.985 128.088C218.457 128.088 217.977 128.219 217.545 128.48C217.113 128.741 216.769 129.093 216.513 129.536C216.263 129.973 216.137 130.461 216.137 131C216.137 131.539 216.268 132.029 216.529 132.472C216.791 132.909 217.137 133.259 217.569 133.52C218.001 133.776 218.473 133.904 218.985 133.904ZM224.616 135V127H225.96V128C226.243 127.627 226.6 127.331 227.032 127.112C227.464 126.888 227.934 126.776 228.44 126.776C228.75 126.776 229.048 126.816 229.336 126.896L228.792 128.24C228.574 128.171 228.36 128.136 228.152 128.136C227.752 128.136 227.384 128.235 227.048 128.432C226.718 128.624 226.454 128.885 226.256 129.216C226.059 129.547 225.96 129.915 225.96 130.32V135H224.616ZM233.433 135.208C232.697 135.208 232.025 135.019 231.417 134.64C230.814 134.261 230.332 133.755 229.969 133.12C229.612 132.48 229.433 131.773 229.433 131C229.433 130.413 229.537 129.867 229.745 129.36C229.953 128.848 230.238 128.4 230.601 128.016C230.969 127.627 231.396 127.323 231.881 127.104C232.366 126.885 232.884 126.776 233.433 126.776C234.036 126.776 234.588 126.899 235.089 127.144C235.596 127.384 236.028 127.72 236.385 128.152C236.748 128.584 237.017 129.085 237.193 129.656C237.374 130.227 237.441 130.837 237.393 131.488H230.865C230.929 131.941 231.078 132.347 231.313 132.704C231.548 133.056 231.846 133.336 232.209 133.544C232.577 133.752 232.985 133.859 233.433 133.864C233.913 133.864 234.348 133.741 234.737 133.496C235.126 133.245 235.441 132.904 235.681 132.472L237.049 132.792C236.729 133.501 236.246 134.083 235.601 134.536C234.956 134.984 234.233 135.208 233.433 135.208ZM230.825 130.432H236.041C235.998 129.984 235.854 129.576 235.609 129.208C235.364 128.835 235.052 128.536 234.673 128.312C234.294 128.088 233.881 127.976 233.433 127.976C232.985 127.976 232.574 128.085 232.201 128.304C231.828 128.523 231.518 128.819 231.273 129.192C231.033 129.56 230.884 129.973 230.825 130.432ZM43.36 158V156.656C43.7333 156.656 44.0667 156.573 44.36 156.408C44.6587 156.243 44.8933 156.013 45.064 155.72C45.2347 155.432 45.32 155.109 45.32 154.752V146H46.664V154.752C46.664 155.349 46.52 155.893 46.232 156.384C45.944 156.875 45.5493 157.267 45.048 157.56C44.552 157.853 43.9893 158 43.36 158ZM46.008 144.696C45.7947 144.696 45.616 144.627 45.472 144.488C45.328 144.349 45.256 144.176 45.256 143.968C45.256 143.76 45.328 143.587 45.472 143.448C45.616 143.309 45.792 143.24 46 143.24C46.208 143.24 46.384 143.309 46.528 143.448C46.672 143.587 46.744 143.76 46.744 143.968C46.744 144.176 46.672 144.349 46.528 144.488C46.3893 144.627 46.216 144.696 46.008 144.696ZM51.9956 154.208C51.2596 154.208 50.5876 154.019 49.9796 153.64C49.377 153.261 48.8943 152.755 48.5316 152.12C48.1743 151.48 47.9956 150.773 47.9956 150C47.9956 149.413 48.0996 148.867 48.3076 148.36C48.5156 147.848 48.801 147.4 49.1636 147.016C49.5316 146.627 49.9583 146.323 50.4436 146.104C50.929 145.885 51.4463 145.776 51.9956 145.776C52.7316 145.776 53.401 145.965 54.0036 146.344C54.6116 146.723 55.0943 147.232 55.4516 147.872C55.8143 148.512 55.9956 149.221 55.9956 150C55.9956 150.581 55.8916 151.125 55.6836 151.632C55.4756 152.139 55.1876 152.587 54.8196 152.976C54.457 153.36 54.033 153.661 53.5476 153.88C53.0676 154.099 52.5503 154.208 51.9956 154.208ZM51.9956 152.864C52.497 152.864 52.9476 152.733 53.3476 152.472C53.753 152.205 54.0703 151.856 54.2996 151.424C54.5343 150.987 54.6516 150.512 54.6516 150C54.6516 149.477 54.5316 148.997 54.2916 148.56C54.057 148.123 53.7396 147.773 53.3396 147.512C52.9396 147.251 52.4916 147.12 51.9956 147.12C51.4943 147.12 51.0436 147.253 50.6436 147.52C50.2436 147.781 49.9263 148.131 49.6916 148.568C49.457 149.005 49.3396 149.483 49.3396 150C49.3396 150.533 49.4596 151.019 49.6996 151.456C49.9396 151.888 50.2623 152.232 50.6676 152.488C51.073 152.739 51.5156 152.864 51.9956 152.864ZM57.21 146H58.554V154H57.21V146ZM57.898 144.696C57.6847 144.696 57.506 144.627 57.362 144.488C57.218 144.349 57.146 144.176 57.146 143.968C57.146 143.76 57.218 143.587 57.362 143.448C57.506 143.309 57.682 143.24 57.89 143.24C58.098 143.24 58.274 143.309 58.418 143.448C58.562 143.587 58.634 143.76 58.634 143.968C58.634 144.176 58.562 144.349 58.418 144.488C58.2793 144.627 58.106 144.696 57.898 144.696ZM67.5008 149.024V154H66.1568V149.32C66.1568 148.915 66.0581 148.547 65.8608 148.216C65.6634 147.885 65.3994 147.624 65.0688 147.432C64.7381 147.235 64.3701 147.136 63.9648 147.136C63.5648 147.136 63.1968 147.235 62.8608 147.432C62.5301 147.624 62.2661 147.885 62.0688 148.216C61.8714 148.547 61.7728 148.915 61.7728 149.32V154H60.4288V146H61.7728V147C62.0554 146.627 62.4128 146.331 62.8448 146.112C63.2768 145.888 63.7461 145.776 64.2528 145.776C64.8501 145.776 65.3941 145.923 65.8848 146.216C66.3808 146.504 66.7728 146.893 67.0608 147.384C67.3541 147.875 67.5008 148.421 67.5008 149.024ZM69.1006 146H70.4446V154H69.1006V146ZM69.7886 144.696C69.5753 144.696 69.3966 144.627 69.2526 144.488C69.1086 144.349 69.0366 144.176 69.0366 143.968C69.0366 143.76 69.1086 143.587 69.2526 143.448C69.3966 143.309 69.5726 143.24 69.7806 143.24C69.9886 143.24 70.1646 143.309 70.3086 143.448C70.4526 143.587 70.5246 143.76 70.5246 143.968C70.5246 144.176 70.4526 144.349 70.3086 144.488C70.17 144.627 69.9966 144.696 69.7886 144.696ZM79.3914 149.024V154H78.0474V149.32C78.0474 148.915 77.9487 148.547 77.7514 148.216C77.554 147.885 77.29 147.624 76.9594 147.432C76.6287 147.235 76.2607 147.136 75.8554 147.136C75.4554 147.136 75.0874 147.235 74.7514 147.432C74.4207 147.624 74.1567 147.885 73.9594 148.216C73.762 148.547 73.6634 148.915 73.6634 149.32V154H72.3194V146H73.6634V147C73.946 146.627 74.3034 146.331 74.7354 146.112C75.1674 145.888 75.6367 145.776 76.1434 145.776C76.7407 145.776 77.2847 145.923 77.7754 146.216C78.2714 146.504 78.6634 146.893 78.9514 147.384C79.2447 147.875 79.3914 148.421 79.3914 149.024ZM87.083 146H88.427V154.256C88.427 154.784 88.3123 155.275 88.083 155.728C87.859 156.187 87.555 156.584 87.171 156.92C86.787 157.261 86.3497 157.525 85.859 157.712C85.3683 157.904 84.8563 158 84.323 158C83.7683 158 83.2323 157.875 82.715 157.624C82.1977 157.379 81.7443 157.048 81.355 156.632C80.971 156.221 80.6937 155.76 80.523 155.248L81.755 154.688C81.8563 155.056 82.0377 155.387 82.299 155.68C82.5657 155.979 82.875 156.213 83.227 156.384C83.5843 156.56 83.9497 156.648 84.323 156.648C84.675 156.648 85.0137 156.587 85.339 156.464C85.6697 156.341 85.9657 156.171 86.227 155.952C86.4937 155.739 86.7017 155.485 86.851 155.192C87.0057 154.904 87.083 154.592 87.083 154.256V152.664C86.811 153.123 86.451 153.496 86.003 153.784C85.5603 154.067 85.043 154.208 84.451 154.208C83.8857 154.208 83.355 154.099 82.859 153.88C82.363 153.661 81.9283 153.36 81.555 152.976C81.1817 152.587 80.8883 152.139 80.675 151.632C80.4617 151.125 80.355 150.581 80.355 150C80.355 149.419 80.4617 148.875 80.675 148.368C80.8883 147.856 81.1817 147.408 81.555 147.024C81.9283 146.635 82.363 146.331 82.859 146.112C83.355 145.893 83.8857 145.784 84.451 145.784C85.043 145.784 85.5603 145.925 86.003 146.208C86.451 146.491 86.811 146.864 87.083 147.328V146ZM84.459 152.904C84.9763 152.904 85.4243 152.771 85.803 152.504C86.187 152.237 86.483 151.883 86.691 151.44C86.899 150.997 87.003 150.517 87.003 150C87.003 149.467 86.8963 148.981 86.683 148.544C86.475 148.101 86.179 147.749 85.795 147.488C85.4163 147.221 84.971 147.088 84.459 147.088C83.9577 147.088 83.499 147.219 83.083 147.48C82.667 147.741 82.3363 148.093 82.091 148.536C81.851 148.973 81.731 149.461 81.731 150C81.731 150.539 81.8537 151.029 82.099 151.472C82.3497 151.909 82.6803 152.259 83.091 152.52C83.507 152.776 83.963 152.904 84.459 152.904ZM93.8744 150.96V146H95.2184V150.664C95.2184 151.069 95.317 151.437 95.5144 151.768C95.7117 152.099 95.9757 152.363 96.3064 152.56C96.6424 152.752 97.0104 152.848 97.4104 152.848C97.8157 152.848 98.181 152.752 98.5064 152.56C98.837 152.363 99.101 152.099 99.2984 151.768C99.4957 151.437 99.5944 151.069 99.5944 150.664V146H100.938L100.946 154H99.6024L99.5944 152.984C99.3117 153.357 98.9544 153.656 98.5224 153.88C98.0904 154.099 97.6237 154.208 97.1224 154.208C96.525 154.208 95.9784 154.064 95.4824 153.776C94.9917 153.483 94.5997 153.091 94.3064 152.6C94.0184 152.109 93.8744 151.563 93.8744 150.96ZM104.994 154.152C104.562 154.136 104.14 154.056 103.73 153.912C103.324 153.763 102.967 153.563 102.658 153.312C102.354 153.056 102.132 152.763 101.994 152.432L103.146 151.936C103.226 152.117 103.37 152.288 103.578 152.448C103.786 152.608 104.026 152.736 104.298 152.832C104.57 152.928 104.844 152.976 105.122 152.976C105.415 152.976 105.69 152.931 105.946 152.84C106.202 152.749 106.41 152.616 106.57 152.44C106.735 152.259 106.818 152.043 106.818 151.792C106.818 151.525 106.727 151.317 106.546 151.168C106.37 151.013 106.146 150.893 105.874 150.808C105.607 150.717 105.335 150.632 105.058 150.552C104.508 150.413 104.018 150.248 103.586 150.056C103.154 149.859 102.812 149.611 102.562 149.312C102.316 149.008 102.194 148.621 102.194 148.152C102.194 147.656 102.33 147.227 102.602 146.864C102.879 146.501 103.242 146.221 103.69 146.024C104.138 145.827 104.618 145.728 105.13 145.728C105.775 145.728 106.364 145.867 106.898 146.144C107.431 146.421 107.828 146.797 108.09 147.272L107.01 147.904C106.919 147.712 106.78 147.544 106.594 147.4C106.407 147.251 106.194 147.133 105.954 147.048C105.714 146.963 105.468 146.917 105.218 146.912C104.908 146.901 104.618 146.941 104.346 147.032C104.079 147.123 103.863 147.261 103.698 147.448C103.538 147.629 103.458 147.856 103.458 148.128C103.458 148.395 103.543 148.597 103.714 148.736C103.89 148.875 104.116 148.987 104.394 149.072C104.676 149.152 104.983 149.245 105.314 149.352C105.799 149.507 106.252 149.685 106.674 149.888C107.095 150.091 107.434 150.344 107.69 150.648C107.951 150.952 108.079 151.328 108.074 151.776C108.074 152.267 107.927 152.696 107.634 153.064C107.34 153.427 106.959 153.704 106.49 153.896C106.026 154.088 105.527 154.173 104.994 154.152ZM116.808 154.208C116.072 154.208 115.4 154.019 114.792 153.64C114.189 153.261 113.707 152.755 113.344 152.12C112.987 151.48 112.808 150.773 112.808 150C112.808 149.413 112.912 148.867 113.12 148.36C113.328 147.848 113.613 147.4 113.976 147.016C114.344 146.627 114.771 146.323 115.256 146.104C115.741 145.885 116.259 145.776 116.808 145.776C117.544 145.776 118.213 145.965 118.816 146.344C119.424 146.723 119.907 147.232 120.264 147.872C120.627 148.512 120.808 149.221 120.808 150C120.808 150.581 120.704 151.125 120.496 151.632C120.288 152.139 120 152.587 119.632 152.976C119.269 153.36 118.845 153.661 118.36 153.88C117.88 154.099 117.363 154.208 116.808 154.208ZM116.808 152.864C117.309 152.864 117.76 152.733 118.16 152.472C118.565 152.205 118.883 151.856 119.112 151.424C119.347 150.987 119.464 150.512 119.464 150C119.464 149.477 119.344 148.997 119.104 148.56C118.869 148.123 118.552 147.773 118.152 147.512C117.752 147.251 117.304 147.12 116.808 147.12C116.307 147.12 115.856 147.253 115.456 147.52C115.056 147.781 114.739 148.131 114.504 148.568C114.269 149.005 114.152 149.483 114.152 150C114.152 150.533 114.272 151.019 114.512 151.456C114.752 151.888 115.075 152.232 115.48 152.488C115.885 152.739 116.328 152.864 116.808 152.864ZM129.204 149.024V154H127.86V149.32C127.86 148.915 127.761 148.547 127.564 148.216C127.367 147.885 127.103 147.624 126.772 147.432C126.441 147.235 126.073 147.136 125.668 147.136C125.268 147.136 124.9 147.235 124.564 147.432C124.233 147.624 123.969 147.885 123.772 148.216C123.575 148.547 123.476 148.915 123.476 149.32V154H122.132V146H123.476V147C123.759 146.627 124.116 146.331 124.548 146.112C124.98 145.888 125.449 145.776 125.956 145.776C126.553 145.776 127.097 145.923 127.588 146.216C128.084 146.504 128.476 146.893 128.764 147.384C129.057 147.875 129.204 148.421 129.204 149.024ZM138.792 147.344H136.976L136.968 154H135.624L135.632 147.344H134.256V146H135.632L135.624 143.488H136.968L136.976 146H138.792V147.344ZM147.298 149.024V154H145.954V149.32C145.954 148.915 145.855 148.547 145.658 148.216C145.46 147.885 145.196 147.624 144.866 147.432C144.535 147.235 144.167 147.136 143.762 147.136C143.362 147.136 142.994 147.235 142.658 147.432C142.327 147.624 142.063 147.885 141.866 148.216C141.668 148.547 141.57 148.915 141.57 149.32V154H140.226V142H141.57V147C141.852 146.627 142.21 146.331 142.642 146.112C143.074 145.888 143.543 145.776 144.05 145.776C144.647 145.776 145.191 145.923 145.682 146.216C146.178 146.504 146.57 146.893 146.858 147.384C147.151 147.875 147.298 148.421 147.298 149.024ZM148.898 146H150.242V154H148.898V146ZM149.586 144.696C149.372 144.696 149.194 144.627 149.05 144.488C148.906 144.349 148.834 144.176 148.834 143.968C148.834 143.76 148.906 143.587 149.05 143.448C149.194 143.309 149.37 143.24 149.578 143.24C149.786 143.24 149.962 143.309 150.106 143.448C150.25 143.587 150.322 143.76 150.322 143.968C150.322 144.176 150.25 144.349 150.106 144.488C149.967 144.627 149.794 144.696 149.586 144.696ZM154.525 154.152C154.093 154.136 153.672 154.056 153.261 153.912C152.856 153.763 152.498 153.563 152.189 153.312C151.885 153.056 151.664 152.763 151.525 152.432L152.677 151.936C152.757 152.117 152.901 152.288 153.109 152.448C153.317 152.608 153.557 152.736 153.829 152.832C154.101 152.928 154.376 152.976 154.653 152.976C154.946 152.976 155.221 152.931 155.477 152.84C155.733 152.749 155.941 152.616 156.101 152.44C156.266 152.259 156.349 152.043 156.349 151.792C156.349 151.525 156.258 151.317 156.077 151.168C155.901 151.013 155.677 150.893 155.405 150.808C155.138 150.717 154.866 150.632 154.589 150.552C154.04 150.413 153.549 150.248 153.117 150.056C152.685 149.859 152.344 149.611 152.093 149.312C151.848 149.008 151.725 148.621 151.725 148.152C151.725 147.656 151.861 147.227 152.133 146.864C152.41 146.501 152.773 146.221 153.221 146.024C153.669 145.827 154.149 145.728 154.661 145.728C155.306 145.728 155.896 145.867 156.429 146.144C156.962 146.421 157.36 146.797 157.621 147.272L156.541 147.904C156.45 147.712 156.312 147.544 156.125 147.4C155.938 147.251 155.725 147.133 155.485 147.048C155.245 146.963 155 146.917 154.749 146.912C154.44 146.901 154.149 146.941 153.877 147.032C153.61 147.123 153.394 147.261 153.229 147.448C153.069 147.629 152.989 147.856 152.989 148.128C152.989 148.395 153.074 148.597 153.245 148.736C153.421 148.875 153.648 148.987 153.925 149.072C154.208 149.152 154.514 149.245 154.845 149.352C155.33 149.507 155.784 149.685 156.205 149.888C156.626 150.091 156.965 150.344 157.221 150.648C157.482 150.952 157.61 151.328 157.605 151.776C157.605 152.267 157.458 152.696 157.165 153.064C156.872 153.427 156.49 153.704 156.021 153.896C155.557 154.088 155.058 154.173 154.525 154.152ZM161.219 158V156.656C161.593 156.656 161.926 156.573 162.219 156.408C162.518 156.243 162.753 156.013 162.923 155.72C163.094 155.432 163.179 155.109 163.179 154.752V146H164.523V154.752C164.523 155.349 164.379 155.893 164.091 156.384C163.803 156.875 163.409 157.267 162.907 157.56C162.411 157.853 161.849 158 161.219 158ZM163.867 144.696C163.654 144.696 163.475 144.627 163.331 144.488C163.187 144.349 163.115 144.176 163.115 143.968C163.115 143.76 163.187 143.587 163.331 143.448C163.475 143.309 163.651 143.24 163.859 143.24C164.067 143.24 164.243 143.309 164.387 143.448C164.531 143.587 164.603 143.76 164.603 143.968C164.603 144.176 164.531 144.349 164.387 144.488C164.249 144.627 164.075 144.696 163.867 144.696ZM169.855 154.208C169.119 154.208 168.447 154.019 167.839 153.64C167.236 153.261 166.754 152.755 166.391 152.12C166.034 151.48 165.855 150.773 165.855 150C165.855 149.413 165.959 148.867 166.167 148.36C166.375 147.848 166.66 147.4 167.023 147.016C167.391 146.627 167.818 146.323 168.303 146.104C168.788 145.885 169.306 145.776 169.855 145.776C170.591 145.776 171.26 145.965 171.863 146.344C172.471 146.723 172.954 147.232 173.311 147.872C173.674 148.512 173.855 149.221 173.855 150C173.855 150.581 173.751 151.125 173.543 151.632C173.335 152.139 173.047 152.587 172.679 152.976C172.316 153.36 171.892 153.661 171.407 153.88C170.927 154.099 170.41 154.208 169.855 154.208ZM169.855 152.864C170.356 152.864 170.807 152.733 171.207 152.472C171.612 152.205 171.93 151.856 172.159 151.424C172.394 150.987 172.511 150.512 172.511 150C172.511 149.477 172.391 148.997 172.151 148.56C171.916 148.123 171.599 147.773 171.199 147.512C170.799 147.251 170.351 147.12 169.855 147.12C169.354 147.12 168.903 147.253 168.503 147.52C168.103 147.781 167.786 148.131 167.551 148.568C167.316 149.005 167.199 149.483 167.199 150C167.199 150.533 167.319 151.019 167.559 151.456C167.799 151.888 168.122 152.232 168.527 152.488C168.932 152.739 169.375 152.864 169.855 152.864ZM174.749 150.96V146H176.093V150.664C176.093 151.069 176.192 151.437 176.389 151.768C176.587 152.099 176.851 152.363 177.181 152.56C177.517 152.752 177.885 152.848 178.285 152.848C178.691 152.848 179.056 152.752 179.381 152.56C179.712 152.363 179.976 152.099 180.173 151.768C180.371 151.437 180.469 151.069 180.469 150.664V146H181.813L181.821 154H180.477L180.469 152.984C180.187 153.357 179.829 153.656 179.397 153.88C178.965 154.099 178.499 154.208 177.997 154.208C177.4 154.208 176.853 154.064 176.357 153.776C175.867 153.483 175.475 153.091 175.181 152.6C174.893 152.109 174.749 151.563 174.749 150.96ZM183.429 154V146H184.773V147C185.055 146.627 185.413 146.331 185.845 146.112C186.277 145.888 186.746 145.776 187.253 145.776C187.562 145.776 187.861 145.816 188.149 145.896L187.605 147.24C187.386 147.171 187.173 147.136 186.965 147.136C186.565 147.136 186.197 147.235 185.861 147.432C185.53 147.624 185.266 147.885 185.069 148.216C184.871 148.547 184.773 148.915 184.773 149.32V154H183.429ZM196.235 149.024V154H194.891V149.32C194.891 148.915 194.792 148.547 194.595 148.216C194.398 147.885 194.134 147.624 193.803 147.432C193.472 147.235 193.104 147.136 192.699 147.136C192.299 147.136 191.931 147.235 191.595 147.432C191.264 147.624 191 147.885 190.803 148.216C190.606 148.547 190.507 148.915 190.507 149.32V154H189.163V146H190.507V147C190.79 146.627 191.147 146.331 191.579 146.112C192.011 145.888 192.48 145.776 192.987 145.776C193.584 145.776 194.128 145.923 194.619 146.216C195.115 146.504 195.507 146.893 195.795 147.384C196.088 147.875 196.235 148.421 196.235 149.024ZM201.199 154.208C200.463 154.208 199.791 154.019 199.183 153.64C198.58 153.261 198.097 152.755 197.735 152.12C197.377 151.48 197.199 150.773 197.199 150C197.199 149.413 197.303 148.867 197.511 148.36C197.719 147.848 198.004 147.4 198.367 147.016C198.735 146.627 199.161 146.323 199.647 146.104C200.132 145.885 200.649 145.776 201.199 145.776C201.801 145.776 202.353 145.899 202.855 146.144C203.361 146.384 203.793 146.72 204.151 147.152C204.513 147.584 204.783 148.085 204.959 148.656C205.14 149.227 205.207 149.837 205.159 150.488H198.631C198.695 150.941 198.844 151.347 199.079 151.704C199.313 152.056 199.612 152.336 199.975 152.544C200.343 152.752 200.751 152.859 201.199 152.864C201.679 152.864 202.113 152.741 202.503 152.496C202.892 152.245 203.207 151.904 203.447 151.472L204.815 151.792C204.495 152.501 204.012 153.083 203.367 153.536C202.721 153.984 201.999 154.208 201.199 154.208ZM198.591 149.432H203.807C203.764 148.984 203.62 148.576 203.375 148.208C203.129 147.835 202.817 147.536 202.439 147.312C202.06 147.088 201.647 146.976 201.199 146.976C200.751 146.976 200.34 147.085 199.967 147.304C199.593 147.523 199.284 147.819 199.039 148.192C198.799 148.56 198.649 148.973 198.591 149.432ZM211.549 146H212.973L208.597 158H207.173L208.621 154L205.749 146H207.221L209.293 152.152L211.549 146ZM214.384 154.208C214.181 154.208 214.008 154.136 213.864 153.992C213.725 153.848 213.656 153.672 213.656 153.464C213.656 153.267 213.725 153.096 213.864 152.952C214.008 152.808 214.181 152.736 214.384 152.736C214.592 152.736 214.768 152.808 214.912 152.952C215.056 153.096 215.128 153.267 215.128 153.464C215.128 153.672 215.056 153.848 214.912 153.992C214.768 154.136 214.592 154.208 214.384 154.208Z" fill="white"/>
</g>
<defs>
<linearGradient id="paint0_linear_1_156" x1="136.632" y1="-570.482" x2="-364.187" y2="148.937" gradientUnits="userSpaceOnUse">
<stop stop-color="#8569F4"/>
<stop offset="1" stop-color="#D4A7F5"/>
</linearGradient>
<linearGradient id="paint1_linear_1_156" x1="755.806" y1="-462.87" x2="-136.884" y2="-3.95476" gradientUnits="userSpaceOnUse">
<stop stop-color="#5F4BF5"/>
<stop offset="1" stop-color="#A483F2"/>
</linearGradient>
<clipPath id="clip0_1_156">
<rect width="393" height="852" fill="white"/>
</clipPath>
</defs>
</svg>
