<svg width="393" height="852" viewBox="0 0 393 852" fill="none" xmlns="http://www.w3.org/2000/svg">
<g clip-path="url(#clip0_1_180)">
<rect width="393" height="852" fill="white"/>
<circle cx="258" cy="49" r="322" fill="url(#paint0_linear_1_180)"/>
<ellipse cx="243.5" cy="26.5" rx="307.5" ry="298.5" fill="url(#paint1_linear_1_180)"/>
<path d="M52.704 167L46.26 141.8H50.112L54.828 160.286L59.526 141.8H62.928L67.644 160.286L72.36 141.8H76.212L69.804 167H65.502L61.236 150.314L56.97 167H52.704ZM95.6686 155.714V167H91.9246V156.632C91.9246 155.828 91.7266 155.096 91.3306 154.436C90.9466 153.776 90.4246 153.254 89.7646 152.87C89.1166 152.474 88.3846 152.276 87.5686 152.276C86.7766 152.276 86.0506 152.474 85.3906 152.87C84.7306 153.254 84.2026 153.776 83.8066 154.436C83.4106 155.096 83.2126 155.828 83.2126 156.632V167H79.4686V140H83.2126V150.908C83.8366 150.164 84.6046 149.576 85.5166 149.144C86.4286 148.712 87.4126 148.496 88.4686 148.496C89.8006 148.496 91.0126 148.82 92.1046 149.468C93.1966 150.116 94.0606 150.986 94.6966 152.078C95.3446 153.17 95.6686 154.382 95.6686 155.714ZM112.914 149H116.658V167H112.896L112.752 164.39C112.224 165.314 111.51 166.058 110.61 166.622C109.71 167.186 108.648 167.468 107.424 167.468C106.104 167.468 104.862 167.222 103.698 166.73C102.534 166.226 101.508 165.53 100.62 164.642C99.744 163.754 99.06 162.734 98.568 161.582C98.076 160.418 97.83 159.17 97.83 157.838C97.83 156.554 98.07 155.348 98.55 154.22C99.03 153.08 99.696 152.084 100.548 151.232C101.4 150.38 102.384 149.714 103.5 149.234C104.628 148.742 105.834 148.496 107.118 148.496C108.426 148.496 109.578 148.796 110.574 149.396C111.582 149.984 112.416 150.74 113.076 151.664L112.914 149ZM107.334 163.85C108.39 163.85 109.314 163.592 110.106 163.076C110.898 162.548 111.51 161.84 111.942 160.952C112.386 160.064 112.608 159.08 112.608 158C112.608 156.908 112.386 155.918 111.942 155.03C111.498 154.142 110.88 153.44 110.088 152.924C109.308 152.396 108.39 152.132 107.334 152.132C106.29 152.132 105.336 152.396 104.472 152.924C103.608 153.452 102.924 154.16 102.42 155.048C101.916 155.936 101.664 156.92 101.664 158C101.664 159.092 101.922 160.082 102.438 160.97C102.966 161.846 103.656 162.548 104.508 163.076C105.372 163.592 106.314 163.85 107.334 163.85ZM129.754 152.744H125.974L125.956 167H122.212L122.23 152.744H119.368V149H122.23L122.212 143.348H125.956L125.974 149H129.754V152.744ZM131.536 151.196L132.652 141.8H136.396L134.02 151.196H131.536ZM145.021 167.342C144.073 167.282 143.149 167.09 142.249 166.766C141.349 166.442 140.557 166.004 139.873 165.452C139.201 164.888 138.697 164.228 138.361 163.472L141.547 162.104C141.703 162.428 141.973 162.746 142.357 163.058C142.753 163.37 143.215 163.628 143.743 163.832C144.271 164.024 144.823 164.12 145.399 164.12C145.963 164.12 146.485 164.042 146.965 163.886C147.457 163.718 147.859 163.466 148.171 163.13C148.483 162.794 148.639 162.392 148.639 161.924C148.639 161.396 148.459 160.988 148.099 160.7C147.751 160.4 147.313 160.172 146.785 160.016C146.257 159.86 145.729 159.71 145.201 159.566C144.025 159.302 142.945 158.942 141.961 158.486C140.989 158.018 140.215 157.424 139.639 156.704C139.063 155.972 138.775 155.078 138.775 154.022C138.775 152.87 139.087 151.874 139.711 151.034C140.335 150.182 141.151 149.528 142.159 149.072C143.179 148.616 144.265 148.388 145.417 148.388C146.857 148.388 148.177 148.694 149.377 149.306C150.577 149.918 151.495 150.758 152.131 151.826L149.161 153.59C148.981 153.23 148.711 152.906 148.351 152.618C147.991 152.33 147.583 152.102 147.127 151.934C146.671 151.754 146.197 151.652 145.705 151.628C145.093 151.604 144.523 151.676 143.995 151.844C143.479 152 143.065 152.252 142.753 152.6C142.441 152.948 142.285 153.392 142.285 153.932C142.285 154.46 142.471 154.856 142.843 155.12C143.215 155.372 143.683 155.576 144.247 155.732C144.823 155.888 145.411 156.062 146.011 156.254C147.079 156.59 148.081 157.004 149.017 157.496C149.953 157.976 150.709 158.57 151.285 159.278C151.861 159.986 152.137 160.85 152.113 161.87C152.113 162.998 151.771 163.988 151.087 164.84C150.415 165.692 149.539 166.34 148.459 166.784C147.379 167.228 146.233 167.414 145.021 167.342ZM176.174 149H180.17L170.306 176H166.328L169.586 167L163.124 149H167.21L171.458 161.87L176.174 149ZM190.15 167.468C188.494 167.468 186.982 167.042 185.614 166.19C184.258 165.338 183.172 164.198 182.356 162.77C181.552 161.33 181.15 159.74 181.15 158C181.15 156.68 181.384 155.45 181.852 154.31C182.32 153.158 182.962 152.15 183.778 151.286C184.606 150.41 185.566 149.726 186.658 149.234C187.75 148.742 188.914 148.496 190.15 148.496C191.806 148.496 193.312 148.922 194.668 149.774C196.036 150.626 197.122 151.772 197.926 153.212C198.742 154.652 199.15 156.248 199.15 158C199.15 159.308 198.916 160.532 198.448 161.672C197.98 162.812 197.332 163.82 196.504 164.696C195.688 165.56 194.734 166.238 193.642 166.73C192.562 167.222 191.398 167.468 190.15 167.468ZM190.15 163.724C191.146 163.724 192.04 163.46 192.832 162.932C193.624 162.404 194.248 161.708 194.704 160.844C195.172 159.968 195.406 159.02 195.406 158C195.406 156.956 195.166 155.996 194.686 155.12C194.218 154.244 193.588 153.548 192.796 153.032C192.004 152.504 191.122 152.24 190.15 152.24C189.166 152.24 188.272 152.504 187.468 153.032C186.676 153.56 186.046 154.262 185.578 155.138C185.122 156.014 184.894 156.968 184.894 158C184.894 159.068 185.134 160.034 185.614 160.898C186.094 161.762 186.73 162.452 187.522 162.968C188.326 163.472 189.202 163.724 190.15 163.724ZM200.987 160.25V149H204.731V159.332C204.731 160.136 204.929 160.868 205.325 161.528C205.721 162.188 206.249 162.716 206.909 163.112C207.569 163.496 208.295 163.688 209.087 163.688C209.891 163.688 210.617 163.496 211.265 163.112C211.925 162.716 212.447 162.188 212.831 161.528C213.227 160.868 213.425 160.136 213.425 159.332V149H217.169L217.187 167H213.443L213.425 165.056C212.813 165.8 212.051 166.388 211.139 166.82C210.227 167.252 209.249 167.468 208.205 167.468C206.873 167.468 205.661 167.144 204.569 166.496C203.477 165.848 202.607 164.978 201.959 163.886C201.311 162.794 200.987 161.582 200.987 160.25ZM220.797 167V149H224.541V150.908C225.165 150.164 225.933 149.576 226.845 149.144C227.757 148.712 228.741 148.496 229.797 148.496C230.469 148.496 231.135 148.586 231.795 148.766L230.301 152.546C229.833 152.366 229.365 152.276 228.897 152.276C228.105 152.276 227.379 152.474 226.719 152.87C226.059 153.254 225.531 153.776 225.135 154.436C224.739 155.096 224.541 155.828 224.541 156.632V167H220.797ZM259.18 155.714V167H255.436V156.632C255.436 155.828 255.238 155.096 254.842 154.436C254.458 153.776 253.936 153.254 253.276 152.87C252.628 152.474 251.896 152.276 251.08 152.276C250.288 152.276 249.562 152.474 248.902 152.87C248.242 153.254 247.714 153.776 247.318 154.436C246.922 155.096 246.724 155.828 246.724 156.632V167H242.98V149H246.724V150.908C247.348 150.164 248.116 149.576 249.028 149.144C249.94 148.712 250.924 148.496 251.98 148.496C253.312 148.496 254.524 148.82 255.616 149.468C256.708 150.116 257.572 150.986 258.208 152.078C258.856 153.17 259.18 154.382 259.18 155.714ZM276.426 149H280.17V167H276.408L276.264 164.39C275.736 165.314 275.022 166.058 274.122 166.622C273.222 167.186 272.16 167.468 270.936 167.468C269.616 167.468 268.374 167.222 267.21 166.73C266.046 166.226 265.02 165.53 264.132 164.642C263.256 163.754 262.572 162.734 262.08 161.582C261.588 160.418 261.342 159.17 261.342 157.838C261.342 156.554 261.582 155.348 262.062 154.22C262.542 153.08 263.208 152.084 264.06 151.232C264.912 150.38 265.896 149.714 267.012 149.234C268.14 148.742 269.346 148.496 270.63 148.496C271.938 148.496 273.09 148.796 274.086 149.396C275.094 149.984 275.928 150.74 276.588 151.664L276.426 149ZM270.846 163.85C271.902 163.85 272.826 163.592 273.618 163.076C274.41 162.548 275.022 161.84 275.454 160.952C275.898 160.064 276.12 159.08 276.12 158C276.12 156.908 275.898 155.918 275.454 155.03C275.01 154.142 274.392 153.44 273.6 152.924C272.82 152.396 271.902 152.132 270.846 152.132C269.802 152.132 268.848 152.396 267.984 152.924C267.12 153.452 266.436 154.16 265.932 155.048C265.428 155.936 265.176 156.92 265.176 158C265.176 159.092 265.434 160.082 265.95 160.97C266.478 161.846 267.168 162.548 268.02 163.076C268.884 163.592 269.826 163.85 270.846 163.85ZM283.762 167V149H287.506V150.908C288.13 150.164 288.892 149.576 289.792 149.144C290.704 148.712 291.688 148.496 292.744 148.496C294.028 148.496 295.21 148.808 296.29 149.432C297.37 150.044 298.228 150.86 298.864 151.88C299.5 150.86 300.346 150.044 301.402 149.432C302.47 148.808 303.646 148.496 304.93 148.496C306.262 148.496 307.474 148.82 308.566 149.468C309.658 150.116 310.528 150.986 311.176 152.078C311.824 153.17 312.148 154.382 312.148 155.714V167H308.404V156.668C308.404 155.876 308.212 155.15 307.828 154.49C307.444 153.83 306.928 153.296 306.28 152.888C305.632 152.48 304.912 152.276 304.12 152.276C303.328 152.276 302.608 152.468 301.96 152.852C301.312 153.236 300.796 153.758 300.412 154.418C300.028 155.078 299.836 155.828 299.836 156.668V167H296.092V156.668C296.092 155.828 295.9 155.078 295.516 154.418C295.132 153.758 294.61 153.236 293.95 152.852C293.302 152.468 292.582 152.276 291.79 152.276C291.01 152.276 290.29 152.48 289.63 152.888C288.982 153.296 288.466 153.83 288.082 154.49C287.698 155.15 287.506 155.876 287.506 156.668V167H283.762ZM323.322 167.468C321.666 167.468 320.154 167.042 318.786 166.19C317.43 165.338 316.344 164.198 315.528 162.77C314.724 161.33 314.322 159.74 314.322 158C314.322 156.68 314.556 155.45 315.024 154.31C315.492 153.158 316.134 152.15 316.95 151.286C317.778 150.41 318.738 149.726 319.83 149.234C320.922 148.742 322.086 148.496 323.322 148.496C324.702 148.496 325.968 148.784 327.12 149.36C328.272 149.924 329.256 150.71 330.072 151.718C330.888 152.714 331.488 153.866 331.872 155.174C332.256 156.47 332.37 157.85 332.214 159.314H318.336C318.492 160.142 318.792 160.892 319.236 161.564C319.692 162.224 320.268 162.746 320.964 163.13C321.672 163.514 322.458 163.712 323.322 163.724C324.234 163.724 325.062 163.496 325.806 163.04C326.562 162.584 327.18 161.954 327.66 161.15L331.458 162.032C330.738 163.628 329.652 164.936 328.2 165.956C326.748 166.964 325.122 167.468 323.322 167.468ZM318.21 156.452H328.434C328.314 155.588 328.008 154.808 327.516 154.112C327.036 153.404 326.43 152.846 325.698 152.438C324.978 152.018 324.186 151.808 323.322 151.808C322.47 151.808 321.678 152.012 320.946 152.42C320.226 152.828 319.626 153.386 319.146 154.094C318.678 154.79 318.366 155.576 318.21 156.452ZM341.002 158.954C341.002 157.658 341.326 156.464 341.974 155.372C342.634 154.28 343.534 153.422 344.674 152.798C345.322 152.462 345.826 151.97 346.186 151.322C346.546 150.662 346.726 149.936 346.726 149.144C346.726 148.388 346.54 147.704 346.168 147.092C345.808 146.468 345.316 145.976 344.692 145.616C344.068 145.244 343.378 145.058 342.622 145.058C341.878 145.058 341.194 145.244 340.57 145.616C339.946 145.976 339.448 146.468 339.076 147.092C338.716 147.704 338.536 148.388 338.536 149.144H334.792C334.792 147.704 335.14 146.396 335.836 145.22C336.544 144.032 337.492 143.084 338.68 142.376C339.88 141.668 341.194 141.314 342.622 141.314C344.074 141.314 345.394 141.668 346.582 142.376C347.77 143.084 348.712 144.032 349.408 145.22C350.116 146.396 350.47 147.704 350.47 149.144C350.47 150.62 350.11 151.982 349.39 153.23C348.682 154.466 347.704 155.426 346.456 156.11C345.928 156.386 345.508 156.776 345.196 157.28C344.896 157.784 344.746 158.342 344.746 158.954H341.002ZM342.964 167.468C342.412 167.468 341.944 167.276 341.56 166.892C341.176 166.496 340.984 166.022 340.984 165.47C340.984 164.93 341.176 164.474 341.56 164.102C341.944 163.718 342.412 163.526 342.964 163.526C343.504 163.526 343.966 163.718 344.35 164.102C344.734 164.474 344.926 164.93 344.926 165.47C344.926 166.022 344.734 166.496 344.35 166.892C343.966 167.276 343.504 167.468 342.964 167.468Z" fill="white"/>
</g>
<defs>
<linearGradient id="paint0_linear_1_180" x1="258" y1="-273" x2="-18.1541" y2="287.938" gradientUnits="userSpaceOnUse">
<stop stop-color="#5F4BF5"/>
<stop offset="1" stop-color="#A483F2"/>
</linearGradient>
<linearGradient id="paint1_linear_1_180" x1="377.5" y1="-25.5" x2="-70.6543" y2="325.086" gradientUnits="userSpaceOnUse">
<stop stop-color="#5F4BF5"/>
<stop offset="1" stop-color="#A483F2"/>
</linearGradient>
<clipPath id="clip0_1_180">
<rect width="393" height="852" fill="white"/>
</clipPath>
</defs>
</svg>
