<svg width="393" height="852" viewBox="0 0 393 852" fill="none" xmlns="http://www.w3.org/2000/svg">
<g clip-path="url(#clip0_1_194)">
<rect width="393" height="852" fill="white"/>
<circle cx="143" cy="49" r="322" fill="url(#paint0_linear_1_194)"/>
<ellipse cx="128.5" cy="26.5" rx="307.5" ry="298.5" fill="url(#paint1_linear_1_194)"/>
<path d="M111.118 167L104.674 141.8H108.526L113.242 160.286L117.94 141.8H121.342L126.058 160.286L130.774 141.8H134.626L128.218 167H123.916L119.65 150.314L115.384 167H111.118ZM154.083 155.714V167H150.339V156.632C150.339 155.828 150.141 155.096 149.745 154.436C149.361 153.776 148.839 153.254 148.179 152.87C147.531 152.474 146.799 152.276 145.983 152.276C145.191 152.276 144.465 152.474 143.805 152.87C143.145 153.254 142.617 153.776 142.221 154.436C141.825 155.096 141.627 155.828 141.627 156.632V167H137.883V140H141.627V150.908C142.251 150.164 143.019 149.576 143.931 149.144C144.843 148.712 145.827 148.496 146.883 148.496C148.215 148.496 149.427 148.82 150.519 149.468C151.611 150.116 152.475 150.986 153.111 152.078C153.759 153.17 154.083 154.382 154.083 155.714ZM171.328 149H175.072V167H171.31L171.166 164.39C170.638 165.314 169.924 166.058 169.024 166.622C168.124 167.186 167.062 167.468 165.838 167.468C164.518 167.468 163.276 167.222 162.112 166.73C160.948 166.226 159.922 165.53 159.034 164.642C158.158 163.754 157.474 162.734 156.982 161.582C156.49 160.418 156.244 159.17 156.244 157.838C156.244 156.554 156.484 155.348 156.964 154.22C157.444 153.08 158.11 152.084 158.962 151.232C159.814 150.38 160.798 149.714 161.914 149.234C163.042 148.742 164.248 148.496 165.532 148.496C166.84 148.496 167.992 148.796 168.988 149.396C169.996 149.984 170.83 150.74 171.49 151.664L171.328 149ZM165.748 163.85C166.804 163.85 167.728 163.592 168.52 163.076C169.312 162.548 169.924 161.84 170.356 160.952C170.8 160.064 171.022 159.08 171.022 158C171.022 156.908 170.8 155.918 170.356 155.03C169.912 154.142 169.294 153.44 168.502 152.924C167.722 152.396 166.804 152.132 165.748 152.132C164.704 152.132 163.75 152.396 162.886 152.924C162.022 153.452 161.338 154.16 160.834 155.048C160.33 155.936 160.078 156.92 160.078 158C160.078 159.092 160.336 160.082 160.852 160.97C161.38 161.846 162.07 162.548 162.922 163.076C163.786 163.592 164.728 163.85 165.748 163.85ZM188.168 152.744H184.388L184.37 167H180.626L180.644 152.744H177.782V149H180.644L180.626 143.348H184.37L184.388 149H188.168V152.744ZM189.95 151.196L191.066 141.8H194.81L192.434 151.196H189.95ZM203.435 167.342C202.487 167.282 201.563 167.09 200.663 166.766C199.763 166.442 198.971 166.004 198.287 165.452C197.615 164.888 197.111 164.228 196.775 163.472L199.961 162.104C200.117 162.428 200.387 162.746 200.771 163.058C201.167 163.37 201.629 163.628 202.157 163.832C202.685 164.024 203.237 164.12 203.813 164.12C204.377 164.12 204.899 164.042 205.379 163.886C205.871 163.718 206.273 163.466 206.585 163.13C206.897 162.794 207.053 162.392 207.053 161.924C207.053 161.396 206.873 160.988 206.513 160.7C206.165 160.4 205.727 160.172 205.199 160.016C204.671 159.86 204.143 159.71 203.615 159.566C202.439 159.302 201.359 158.942 200.375 158.486C199.403 158.018 198.629 157.424 198.053 156.704C197.477 155.972 197.189 155.078 197.189 154.022C197.189 152.87 197.501 151.874 198.125 151.034C198.749 150.182 199.565 149.528 200.573 149.072C201.593 148.616 202.679 148.388 203.831 148.388C205.271 148.388 206.591 148.694 207.791 149.306C208.991 149.918 209.909 150.758 210.545 151.826L207.575 153.59C207.395 153.23 207.125 152.906 206.765 152.618C206.405 152.33 205.997 152.102 205.541 151.934C205.085 151.754 204.611 151.652 204.119 151.628C203.507 151.604 202.937 151.676 202.409 151.844C201.893 152 201.479 152.252 201.167 152.6C200.855 152.948 200.699 153.392 200.699 153.932C200.699 154.46 200.885 154.856 201.257 155.12C201.629 155.372 202.097 155.576 202.661 155.732C203.237 155.888 203.825 156.062 204.425 156.254C205.493 156.59 206.495 157.004 207.431 157.496C208.367 157.976 209.123 158.57 209.699 159.278C210.275 159.986 210.551 160.85 210.527 161.87C210.527 162.998 210.185 163.988 209.501 164.84C208.829 165.692 207.953 166.34 206.873 166.784C205.793 167.228 204.647 167.414 203.435 167.342ZM234.588 149H238.584L228.72 176H224.742L228 167L221.538 149H225.624L229.872 161.87L234.588 149ZM248.564 167.468C246.908 167.468 245.396 167.042 244.028 166.19C242.672 165.338 241.586 164.198 240.77 162.77C239.966 161.33 239.564 159.74 239.564 158C239.564 156.68 239.798 155.45 240.266 154.31C240.734 153.158 241.376 152.15 242.192 151.286C243.02 150.41 243.98 149.726 245.072 149.234C246.164 148.742 247.328 148.496 248.564 148.496C250.22 148.496 251.726 148.922 253.082 149.774C254.45 150.626 255.536 151.772 256.34 153.212C257.156 154.652 257.564 156.248 257.564 158C257.564 159.308 257.33 160.532 256.862 161.672C256.394 162.812 255.746 163.82 254.918 164.696C254.102 165.56 253.148 166.238 252.056 166.73C250.976 167.222 249.812 167.468 248.564 167.468ZM248.564 163.724C249.56 163.724 250.454 163.46 251.246 162.932C252.038 162.404 252.662 161.708 253.118 160.844C253.586 159.968 253.82 159.02 253.82 158C253.82 156.956 253.58 155.996 253.1 155.12C252.632 154.244 252.002 153.548 251.21 153.032C250.418 152.504 249.536 152.24 248.564 152.24C247.58 152.24 246.686 152.504 245.882 153.032C245.09 153.56 244.46 154.262 243.992 155.138C243.536 156.014 243.308 156.968 243.308 158C243.308 159.068 243.548 160.034 244.028 160.898C244.508 161.762 245.144 162.452 245.936 162.968C246.74 163.472 247.616 163.724 248.564 163.724ZM259.401 160.25V149H263.145V159.332C263.145 160.136 263.343 160.868 263.739 161.528C264.135 162.188 264.663 162.716 265.323 163.112C265.983 163.496 266.709 163.688 267.501 163.688C268.305 163.688 269.031 163.496 269.679 163.112C270.339 162.716 270.861 162.188 271.245 161.528C271.641 160.868 271.839 160.136 271.839 159.332V149H275.583L275.601 167H271.857L271.839 165.056C271.227 165.8 270.465 166.388 269.553 166.82C268.641 167.252 267.663 167.468 266.619 167.468C265.287 167.468 264.075 167.144 262.983 166.496C261.891 165.848 261.021 164.978 260.373 163.886C259.725 162.794 259.401 161.582 259.401 160.25ZM279.211 167V149H282.955V150.908C283.579 150.164 284.347 149.576 285.259 149.144C286.171 148.712 287.155 148.496 288.211 148.496C288.883 148.496 289.549 148.586 290.209 148.766L288.715 152.546C288.247 152.366 287.779 152.276 287.311 152.276C286.519 152.276 285.793 152.474 285.133 152.87C284.473 153.254 283.945 153.776 283.549 154.436C283.153 155.096 282.955 155.828 282.955 156.632V167H279.211ZM102.985 183H106.729V210H102.985V207.354C102.397 208.29 101.629 209.046 100.681 209.622C99.7327 210.186 98.6227 210.468 97.3507 210.468C96.0427 210.468 94.8187 210.222 93.6787 209.73C92.5387 209.238 91.5307 208.56 90.6547 207.696C89.7907 206.82 89.1127 205.812 88.6207 204.672C88.1287 203.532 87.8827 202.308 87.8827 201C87.8827 199.692 88.1287 198.468 88.6207 197.328C89.1127 196.176 89.7907 195.168 90.6547 194.304C91.5307 193.428 92.5387 192.744 93.6787 192.252C94.8187 191.76 96.0427 191.514 97.3507 191.514C98.6227 191.514 99.7327 191.802 100.681 192.378C101.629 192.942 102.397 193.686 102.985 194.61V183ZM97.3867 206.85C98.4427 206.85 99.3667 206.592 100.159 206.076C100.951 205.548 101.563 204.84 101.995 203.952C102.439 203.064 102.661 202.08 102.661 201C102.661 199.908 102.439 198.918 101.995 198.03C101.551 197.142 100.933 196.44 100.141 195.924C99.3607 195.396 98.4427 195.132 97.3867 195.132C96.3427 195.132 95.3887 195.396 94.5247 195.924C93.6727 196.452 92.9887 197.16 92.4727 198.048C91.9687 198.936 91.7167 199.92 91.7167 201C91.7167 202.092 91.9747 203.082 92.4907 203.97C93.0187 204.846 93.7087 205.548 94.5607 206.076C95.4247 206.592 96.3667 206.85 97.3867 206.85ZM124.799 192H128.543V210H124.781L124.637 207.39C124.109 208.314 123.395 209.058 122.495 209.622C121.595 210.186 120.533 210.468 119.309 210.468C117.989 210.468 116.747 210.222 115.583 209.73C114.419 209.226 113.393 208.53 112.505 207.642C111.629 206.754 110.945 205.734 110.453 204.582C109.961 203.418 109.715 202.17 109.715 200.838C109.715 199.554 109.955 198.348 110.435 197.22C110.915 196.08 111.581 195.084 112.433 194.232C113.285 193.38 114.269 192.714 115.385 192.234C116.513 191.742 117.719 191.496 119.003 191.496C120.311 191.496 121.463 191.796 122.459 192.396C123.467 192.984 124.301 193.74 124.961 194.664L124.799 192ZM119.219 206.85C120.275 206.85 121.199 206.592 121.991 206.076C122.783 205.548 123.395 204.84 123.827 203.952C124.271 203.064 124.493 202.08 124.493 201C124.493 199.908 124.271 198.918 123.827 198.03C123.383 197.142 122.765 196.44 121.973 195.924C121.193 195.396 120.275 195.132 119.219 195.132C118.175 195.132 117.221 195.396 116.357 195.924C115.493 196.452 114.809 197.16 114.305 198.048C113.801 198.936 113.549 199.92 113.549 201C113.549 202.092 113.807 203.082 114.323 203.97C114.851 204.846 115.541 205.548 116.393 206.076C117.257 206.592 118.199 206.85 119.219 206.85ZM141.639 195.744H137.859L137.841 210H134.097L134.115 195.744H131.253V192H134.115L134.097 186.348H137.841L137.859 192H141.639V195.744ZM152.359 210.468C150.703 210.468 149.191 210.042 147.823 209.19C146.467 208.338 145.381 207.198 144.565 205.77C143.761 204.33 143.359 202.74 143.359 201C143.359 199.68 143.593 198.45 144.061 197.31C144.529 196.158 145.171 195.15 145.987 194.286C146.815 193.41 147.775 192.726 148.867 192.234C149.959 191.742 151.123 191.496 152.359 191.496C153.739 191.496 155.005 191.784 156.157 192.36C157.309 192.924 158.293 193.71 159.109 194.718C159.925 195.714 160.525 196.866 160.909 198.174C161.293 199.47 161.407 200.85 161.251 202.314H147.373C147.529 203.142 147.829 203.892 148.273 204.564C148.729 205.224 149.305 205.746 150.001 206.13C150.709 206.514 151.495 206.712 152.359 206.724C153.271 206.724 154.099 206.496 154.843 206.04C155.599 205.584 156.217 204.954 156.697 204.15L160.495 205.032C159.775 206.628 158.689 207.936 157.237 208.956C155.785 209.964 154.159 210.468 152.359 210.468ZM147.247 199.452H157.471C157.351 198.588 157.045 197.808 156.553 197.112C156.073 196.404 155.467 195.846 154.735 195.438C154.015 195.018 153.223 194.808 152.359 194.808C151.507 194.808 150.715 195.012 149.983 195.42C149.263 195.828 148.663 196.386 148.183 197.094C147.715 197.79 147.403 198.576 147.247 199.452ZM181.117 210.468C179.461 210.468 177.949 210.042 176.581 209.19C175.225 208.338 174.139 207.198 173.323 205.77C172.519 204.33 172.117 202.74 172.117 201C172.117 199.68 172.351 198.45 172.819 197.31C173.287 196.158 173.929 195.15 174.745 194.286C175.573 193.41 176.533 192.726 177.625 192.234C178.717 191.742 179.881 191.496 181.117 191.496C182.773 191.496 184.279 191.922 185.635 192.774C187.003 193.626 188.089 194.772 188.893 196.212C189.709 197.652 190.117 199.248 190.117 201C190.117 202.308 189.883 203.532 189.415 204.672C188.947 205.812 188.299 206.82 187.471 207.696C186.655 208.56 185.701 209.238 184.609 209.73C183.529 210.222 182.365 210.468 181.117 210.468ZM181.117 206.724C182.113 206.724 183.007 206.46 183.799 205.932C184.591 205.404 185.215 204.708 185.671 203.844C186.139 202.968 186.373 202.02 186.373 201C186.373 199.956 186.133 198.996 185.653 198.12C185.185 197.244 184.555 196.548 183.763 196.032C182.971 195.504 182.089 195.24 181.117 195.24C180.133 195.24 179.239 195.504 178.435 196.032C177.643 196.56 177.013 197.262 176.545 198.138C176.089 199.014 175.861 199.968 175.861 201C175.861 202.068 176.101 203.034 176.581 203.898C177.061 204.762 177.697 205.452 178.489 205.968C179.293 206.472 180.169 206.724 181.117 206.724ZM197.968 187.914V192H203.044V195.744H197.968V210H194.224V195.744H192.082V192H194.224V187.914C194.224 186.93 194.464 186.036 194.944 185.232C195.424 184.416 196.066 183.768 196.87 183.288C197.686 182.808 198.592 182.568 199.588 182.568C200.308 182.568 201.01 182.712 201.694 183C202.378 183.288 202.99 183.732 203.53 184.332L200.848 186.978C200.716 186.762 200.53 186.6 200.29 186.492C200.062 186.372 199.828 186.312 199.588 186.312C199.144 186.312 198.76 186.468 198.436 186.78C198.124 187.092 197.968 187.47 197.968 187.914ZM224.077 191.496C225.829 191.496 227.419 191.922 228.847 192.774C230.287 193.626 231.433 194.772 232.285 196.212C233.137 197.64 233.563 199.23 233.563 200.982C233.563 202.29 233.317 203.52 232.825 204.672C232.333 205.812 231.649 206.82 230.773 207.696C229.909 208.56 228.901 209.238 227.749 209.73C226.609 210.222 225.385 210.468 224.077 210.468C222.817 210.468 221.713 210.18 220.765 209.604C219.829 209.016 219.061 208.266 218.461 207.354V210H214.717V183H218.461V194.61C219.061 193.686 219.829 192.936 220.765 192.36C221.713 191.784 222.817 191.496 224.077 191.496ZM224.041 206.832C225.085 206.832 226.039 206.568 226.903 206.04C227.767 205.512 228.451 204.804 228.955 203.916C229.471 203.028 229.729 202.05 229.729 200.982C229.729 199.89 229.471 198.9 228.955 198.012C228.439 197.124 227.749 196.422 226.885 195.906C226.021 195.378 225.073 195.114 224.041 195.114C222.997 195.114 222.079 195.378 221.287 195.906C220.495 196.434 219.877 197.142 219.433 198.03C218.989 198.918 218.767 199.902 218.767 200.982C218.767 202.062 218.989 203.046 219.433 203.934C219.877 204.822 220.495 205.53 221.287 206.058C222.079 206.574 222.997 206.832 224.041 206.832ZM236.127 192H239.871V210H236.127V192ZM238.035 189.39C237.459 189.39 236.979 189.204 236.595 188.832C236.211 188.46 236.019 187.992 236.019 187.428C236.019 186.876 236.211 186.414 236.595 186.042C236.979 185.658 237.453 185.466 238.017 185.466C238.569 185.466 239.037 185.658 239.421 186.042C239.805 186.414 239.997 186.876 239.997 187.428C239.997 187.992 239.805 188.46 239.421 188.832C239.049 189.204 238.587 189.39 238.035 189.39ZM244.037 210V192H247.781V193.908C248.405 193.164 249.173 192.576 250.085 192.144C250.997 191.712 251.981 191.496 253.037 191.496C253.709 191.496 254.375 191.586 255.035 191.766L253.541 195.546C253.073 195.366 252.605 195.276 252.137 195.276C251.345 195.276 250.619 195.474 249.959 195.87C249.299 196.254 248.771 196.776 248.375 197.436C247.979 198.096 247.781 198.828 247.781 199.632V210H244.037ZM267.076 195.744H263.296L263.278 210H259.534L259.552 195.744H256.69V192H259.552L259.534 186.348H263.278L263.296 192H267.076V195.744ZM286.499 198.714V210H282.755V199.632C282.755 198.828 282.557 198.096 282.161 197.436C281.777 196.776 281.255 196.254 280.595 195.87C279.947 195.474 279.215 195.276 278.399 195.276C277.607 195.276 276.881 195.474 276.221 195.87C275.561 196.254 275.033 196.776 274.637 197.436C274.241 198.096 274.043 198.828 274.043 199.632V210H270.299V183H274.043V193.908C274.667 193.164 275.435 192.576 276.347 192.144C277.259 191.712 278.243 191.496 279.299 191.496C280.631 191.496 281.843 191.82 282.935 192.468C284.027 193.116 284.891 193.986 285.527 195.078C286.175 196.17 286.499 197.382 286.499 198.714ZM295.582 201.954C295.582 200.658 295.906 199.464 296.554 198.372C297.214 197.28 298.114 196.422 299.254 195.798C299.902 195.462 300.406 194.97 300.766 194.322C301.126 193.662 301.306 192.936 301.306 192.144C301.306 191.388 301.12 190.704 300.748 190.092C300.388 189.468 299.896 188.976 299.272 188.616C298.648 188.244 297.958 188.058 297.202 188.058C296.458 188.058 295.774 188.244 295.15 188.616C294.526 188.976 294.028 189.468 293.656 190.092C293.296 190.704 293.116 191.388 293.116 192.144H289.372C289.372 190.704 289.72 189.396 290.416 188.22C291.124 187.032 292.072 186.084 293.26 185.376C294.46 184.668 295.774 184.314 297.202 184.314C298.654 184.314 299.974 184.668 301.162 185.376C302.35 186.084 303.292 187.032 303.988 188.22C304.696 189.396 305.05 190.704 305.05 192.144C305.05 193.62 304.69 194.982 303.97 196.23C303.262 197.466 302.284 198.426 301.036 199.11C300.508 199.386 300.088 199.776 299.776 200.28C299.476 200.784 299.326 201.342 299.326 201.954H295.582ZM297.544 210.468C296.992 210.468 296.524 210.276 296.14 209.892C295.756 209.496 295.564 209.022 295.564 208.47C295.564 207.93 295.756 207.474 296.14 207.102C296.524 206.718 296.992 206.526 297.544 206.526C298.084 206.526 298.546 206.718 298.93 207.102C299.314 207.474 299.506 207.93 299.506 208.47C299.506 209.022 299.314 209.496 298.93 209.892C298.546 210.276 298.084 210.468 297.544 210.468Z" fill="white"/>
</g>
<defs>
<linearGradient id="paint0_linear_1_194" x1="143" y1="-273" x2="-133.154" y2="287.938" gradientUnits="userSpaceOnUse">
<stop stop-color="#5F4BF5"/>
<stop offset="1" stop-color="#A483F2"/>
</linearGradient>
<linearGradient id="paint1_linear_1_194" x1="262.5" y1="-25.5" x2="-185.654" y2="325.086" gradientUnits="userSpaceOnUse">
<stop stop-color="#5F4BF5"/>
<stop offset="1" stop-color="#A483F2"/>
</linearGradient>
<clipPath id="clip0_1_194">
<rect width="393" height="852" fill="white"/>
</clipPath>
</defs>
</svg>
