<svg width="393" height="852" viewBox="0 0 393 852" fill="none" xmlns="http://www.w3.org/2000/svg">
<g clip-path="url(#clip0_1_214)">
<rect width="393" height="852" fill="white"/>
<circle cx="199" cy="49" r="322" fill="url(#paint0_linear_1_214)"/>
<ellipse cx="184.5" cy="26.5" rx="307.5" ry="298.5" fill="url(#paint1_linear_1_214)"/>
<path d="M40.7949 743L33 751.707M33 751.707L40.7949 760M33 751.707H49" stroke="white" stroke-width="3"/>
<path d="M111.118 167L104.674 141.8H108.526L113.242 160.286L117.94 141.8H121.342L126.058 160.286L130.774 141.8H134.626L128.218 167H123.916L119.65 150.314L115.384 167H111.118ZM154.083 155.714V167H150.339V156.632C150.339 155.828 150.141 155.096 149.745 154.436C149.361 153.776 148.839 153.254 148.179 152.87C147.531 152.474 146.799 152.276 145.983 152.276C145.191 152.276 144.465 152.474 143.805 152.87C143.145 153.254 142.617 153.776 142.221 154.436C141.825 155.096 141.627 155.828 141.627 156.632V167H137.883V140H141.627V150.908C142.251 150.164 143.019 149.576 143.931 149.144C144.843 148.712 145.827 148.496 146.883 148.496C148.215 148.496 149.427 148.82 150.519 149.468C151.611 150.116 152.475 150.986 153.111 152.078C153.759 153.17 154.083 154.382 154.083 155.714ZM171.328 149H175.072V167H171.31L171.166 164.39C170.638 165.314 169.924 166.058 169.024 166.622C168.124 167.186 167.062 167.468 165.838 167.468C164.518 167.468 163.276 167.222 162.112 166.73C160.948 166.226 159.922 165.53 159.034 164.642C158.158 163.754 157.474 162.734 156.982 161.582C156.49 160.418 156.244 159.17 156.244 157.838C156.244 156.554 156.484 155.348 156.964 154.22C157.444 153.08 158.11 152.084 158.962 151.232C159.814 150.38 160.798 149.714 161.914 149.234C163.042 148.742 164.248 148.496 165.532 148.496C166.84 148.496 167.992 148.796 168.988 149.396C169.996 149.984 170.83 150.74 171.49 151.664L171.328 149ZM165.748 163.85C166.804 163.85 167.728 163.592 168.52 163.076C169.312 162.548 169.924 161.84 170.356 160.952C170.8 160.064 171.022 159.08 171.022 158C171.022 156.908 170.8 155.918 170.356 155.03C169.912 154.142 169.294 153.44 168.502 152.924C167.722 152.396 166.804 152.132 165.748 152.132C164.704 152.132 163.75 152.396 162.886 152.924C162.022 153.452 161.338 154.16 160.834 155.048C160.33 155.936 160.078 156.92 160.078 158C160.078 159.092 160.336 160.082 160.852 160.97C161.38 161.846 162.07 162.548 162.922 163.076C163.786 163.592 164.728 163.85 165.748 163.85ZM188.168 152.744H184.388L184.37 167H180.626L180.644 152.744H177.782V149H180.644L180.626 143.348H184.37L184.388 149H188.168V152.744ZM189.95 151.196L191.066 141.8H194.81L192.434 151.196H189.95ZM203.435 167.342C202.487 167.282 201.563 167.09 200.663 166.766C199.763 166.442 198.971 166.004 198.287 165.452C197.615 164.888 197.111 164.228 196.775 163.472L199.961 162.104C200.117 162.428 200.387 162.746 200.771 163.058C201.167 163.37 201.629 163.628 202.157 163.832C202.685 164.024 203.237 164.12 203.813 164.12C204.377 164.12 204.899 164.042 205.379 163.886C205.871 163.718 206.273 163.466 206.585 163.13C206.897 162.794 207.053 162.392 207.053 161.924C207.053 161.396 206.873 160.988 206.513 160.7C206.165 160.4 205.727 160.172 205.199 160.016C204.671 159.86 204.143 159.71 203.615 159.566C202.439 159.302 201.359 158.942 200.375 158.486C199.403 158.018 198.629 157.424 198.053 156.704C197.477 155.972 197.189 155.078 197.189 154.022C197.189 152.87 197.501 151.874 198.125 151.034C198.749 150.182 199.565 149.528 200.573 149.072C201.593 148.616 202.679 148.388 203.831 148.388C205.271 148.388 206.591 148.694 207.791 149.306C208.991 149.918 209.909 150.758 210.545 151.826L207.575 153.59C207.395 153.23 207.125 152.906 206.765 152.618C206.405 152.33 205.997 152.102 205.541 151.934C205.085 151.754 204.611 151.652 204.119 151.628C203.507 151.604 202.937 151.676 202.409 151.844C201.893 152 201.479 152.252 201.167 152.6C200.855 152.948 200.699 153.392 200.699 153.932C200.699 154.46 200.885 154.856 201.257 155.12C201.629 155.372 202.097 155.576 202.661 155.732C203.237 155.888 203.825 156.062 204.425 156.254C205.493 156.59 206.495 157.004 207.431 157.496C208.367 157.976 209.123 158.57 209.699 159.278C210.275 159.986 210.551 160.85 210.527 161.87C210.527 162.998 210.185 163.988 209.501 164.84C208.829 165.692 207.953 166.34 206.873 166.784C205.793 167.228 204.647 167.414 203.435 167.342ZM234.588 149H238.584L228.72 176H224.742L228 167L221.538 149H225.624L229.872 161.87L234.588 149ZM248.564 167.468C246.908 167.468 245.396 167.042 244.028 166.19C242.672 165.338 241.586 164.198 240.77 162.77C239.966 161.33 239.564 159.74 239.564 158C239.564 156.68 239.798 155.45 240.266 154.31C240.734 153.158 241.376 152.15 242.192 151.286C243.02 150.41 243.98 149.726 245.072 149.234C246.164 148.742 247.328 148.496 248.564 148.496C250.22 148.496 251.726 148.922 253.082 149.774C254.45 150.626 255.536 151.772 256.34 153.212C257.156 154.652 257.564 156.248 257.564 158C257.564 159.308 257.33 160.532 256.862 161.672C256.394 162.812 255.746 163.82 254.918 164.696C254.102 165.56 253.148 166.238 252.056 166.73C250.976 167.222 249.812 167.468 248.564 167.468ZM248.564 163.724C249.56 163.724 250.454 163.46 251.246 162.932C252.038 162.404 252.662 161.708 253.118 160.844C253.586 159.968 253.82 159.02 253.82 158C253.82 156.956 253.58 155.996 253.1 155.12C252.632 154.244 252.002 153.548 251.21 153.032C250.418 152.504 249.536 152.24 248.564 152.24C247.58 152.24 246.686 152.504 245.882 153.032C245.09 153.56 244.46 154.262 243.992 155.138C243.536 156.014 243.308 156.968 243.308 158C243.308 159.068 243.548 160.034 244.028 160.898C244.508 161.762 245.144 162.452 245.936 162.968C246.74 163.472 247.616 163.724 248.564 163.724ZM259.401 160.25V149H263.145V159.332C263.145 160.136 263.343 160.868 263.739 161.528C264.135 162.188 264.663 162.716 265.323 163.112C265.983 163.496 266.709 163.688 267.501 163.688C268.305 163.688 269.031 163.496 269.679 163.112C270.339 162.716 270.861 162.188 271.245 161.528C271.641 160.868 271.839 160.136 271.839 159.332V149H275.583L275.601 167H271.857L271.839 165.056C271.227 165.8 270.465 166.388 269.553 166.82C268.641 167.252 267.663 167.468 266.619 167.468C265.287 167.468 264.075 167.144 262.983 166.496C261.891 165.848 261.021 164.978 260.373 163.886C259.725 162.794 259.401 161.582 259.401 160.25ZM279.211 167V149H282.955V150.908C283.579 150.164 284.347 149.576 285.259 149.144C286.171 148.712 287.155 148.496 288.211 148.496C288.883 148.496 289.549 148.586 290.209 148.766L288.715 152.546C288.247 152.366 287.779 152.276 287.311 152.276C286.519 152.276 285.793 152.474 285.133 152.87C284.473 153.254 283.945 153.776 283.549 154.436C283.153 155.096 282.955 155.828 282.955 156.632V167H279.211ZM139.459 192H143.203V210H139.441L139.297 207.39C138.769 208.314 138.055 209.058 137.155 209.622C136.255 210.186 135.193 210.468 133.969 210.468C132.649 210.468 131.407 210.222 130.243 209.73C129.079 209.226 128.053 208.53 127.165 207.642C126.289 206.754 125.605 205.734 125.113 204.582C124.621 203.418 124.375 202.17 124.375 200.838C124.375 199.554 124.615 198.348 125.095 197.22C125.575 196.08 126.241 195.084 127.093 194.232C127.945 193.38 128.929 192.714 130.045 192.234C131.173 191.742 132.379 191.496 133.663 191.496C134.971 191.496 136.123 191.796 137.119 192.396C138.127 192.984 138.961 193.74 139.621 194.664L139.459 192ZM133.879 206.85C134.935 206.85 135.859 206.592 136.651 206.076C137.443 205.548 138.055 204.84 138.487 203.952C138.931 203.064 139.153 202.08 139.153 201C139.153 199.908 138.931 198.918 138.487 198.03C138.043 197.142 137.425 196.44 136.633 195.924C135.853 195.396 134.935 195.132 133.879 195.132C132.835 195.132 131.881 195.396 131.017 195.924C130.153 196.452 129.469 197.16 128.965 198.048C128.461 198.936 128.209 199.92 128.209 201C128.209 202.092 128.467 203.082 128.983 203.97C129.511 204.846 130.201 205.548 131.053 206.076C131.917 206.592 132.859 206.85 133.879 206.85ZM160.465 183H164.209V210H160.465V207.354C159.877 208.29 159.109 209.046 158.161 209.622C157.213 210.186 156.103 210.468 154.831 210.468C153.523 210.468 152.299 210.222 151.159 209.73C150.019 209.238 149.011 208.56 148.135 207.696C147.271 206.82 146.593 205.812 146.101 204.672C145.609 203.532 145.363 202.308 145.363 201C145.363 199.692 145.609 198.468 146.101 197.328C146.593 196.176 147.271 195.168 148.135 194.304C149.011 193.428 150.019 192.744 151.159 192.252C152.299 191.76 153.523 191.514 154.831 191.514C156.103 191.514 157.213 191.802 158.161 192.378C159.109 192.942 159.877 193.686 160.465 194.61V183ZM154.867 206.85C155.923 206.85 156.847 206.592 157.639 206.076C158.431 205.548 159.043 204.84 159.475 203.952C159.919 203.064 160.141 202.08 160.141 201C160.141 199.908 159.919 198.918 159.475 198.03C159.031 197.142 158.413 196.44 157.621 195.924C156.841 195.396 155.923 195.132 154.867 195.132C153.823 195.132 152.869 195.396 152.005 195.924C151.153 196.452 150.469 197.16 149.953 198.048C149.449 198.936 149.197 199.92 149.197 201C149.197 202.092 149.455 203.082 149.971 203.97C150.499 204.846 151.189 205.548 152.041 206.076C152.905 206.592 153.847 206.85 154.867 206.85ZM182.297 183H186.041V210H182.297V207.354C181.709 208.29 180.941 209.046 179.993 209.622C179.045 210.186 177.935 210.468 176.663 210.468C175.355 210.468 174.131 210.222 172.991 209.73C171.851 209.238 170.843 208.56 169.967 207.696C169.103 206.82 168.425 205.812 167.933 204.672C167.441 203.532 167.195 202.308 167.195 201C167.195 199.692 167.441 198.468 167.933 197.328C168.425 196.176 169.103 195.168 169.967 194.304C170.843 193.428 171.851 192.744 172.991 192.252C174.131 191.76 175.355 191.514 176.663 191.514C177.935 191.514 179.045 191.802 179.993 192.378C180.941 192.942 181.709 193.686 182.297 194.61V183ZM176.699 206.85C177.755 206.85 178.679 206.592 179.471 206.076C180.263 205.548 180.875 204.84 181.307 203.952C181.751 203.064 181.973 202.08 181.973 201C181.973 199.908 181.751 198.918 181.307 198.03C180.863 197.142 180.245 196.44 179.453 195.924C178.673 195.396 177.755 195.132 176.699 195.132C175.655 195.132 174.701 195.396 173.837 195.924C172.985 196.452 172.301 197.16 171.785 198.048C171.281 198.936 171.029 199.92 171.029 201C171.029 202.092 171.287 203.082 171.803 203.97C172.331 204.846 173.021 205.548 173.873 206.076C174.737 206.592 175.679 206.85 176.699 206.85ZM190.353 210V192H194.097V193.908C194.721 193.164 195.489 192.576 196.401 192.144C197.313 191.712 198.297 191.496 199.353 191.496C200.025 191.496 200.691 191.586 201.351 191.766L199.857 195.546C199.389 195.366 198.921 195.276 198.453 195.276C197.661 195.276 196.935 195.474 196.275 195.87C195.615 196.254 195.087 196.776 194.691 197.436C194.295 198.096 194.097 198.828 194.097 199.632V210H190.353ZM210.508 210.468C208.852 210.468 207.34 210.042 205.972 209.19C204.616 208.338 203.53 207.198 202.714 205.77C201.91 204.33 201.508 202.74 201.508 201C201.508 199.68 201.742 198.45 202.21 197.31C202.678 196.158 203.32 195.15 204.136 194.286C204.964 193.41 205.924 192.726 207.016 192.234C208.108 191.742 209.272 191.496 210.508 191.496C211.888 191.496 213.154 191.784 214.306 192.36C215.458 192.924 216.442 193.71 217.258 194.718C218.074 195.714 218.674 196.866 219.058 198.174C219.442 199.47 219.556 200.85 219.4 202.314H205.522C205.678 203.142 205.978 203.892 206.422 204.564C206.878 205.224 207.454 205.746 208.15 206.13C208.858 206.514 209.644 206.712 210.508 206.724C211.42 206.724 212.248 206.496 212.992 206.04C213.748 205.584 214.366 204.954 214.846 204.15L218.644 205.032C217.924 206.628 216.838 207.936 215.386 208.956C213.934 209.964 212.308 210.468 210.508 210.468ZM205.396 199.452H215.62C215.5 198.588 215.194 197.808 214.702 197.112C214.222 196.404 213.616 195.846 212.884 195.438C212.164 195.018 211.372 194.808 210.508 194.808C209.656 194.808 208.864 195.012 208.132 195.42C207.412 195.828 206.812 196.386 206.332 197.094C205.864 197.79 205.552 198.576 205.396 199.452ZM227.851 210.342C226.903 210.282 225.979 210.09 225.079 209.766C224.179 209.442 223.387 209.004 222.703 208.452C222.031 207.888 221.527 207.228 221.191 206.472L224.377 205.104C224.533 205.428 224.803 205.746 225.187 206.058C225.583 206.37 226.045 206.628 226.573 206.832C227.101 207.024 227.653 207.12 228.229 207.12C228.793 207.12 229.315 207.042 229.795 206.886C230.287 206.718 230.689 206.466 231.001 206.13C231.313 205.794 231.469 205.392 231.469 204.924C231.469 204.396 231.289 203.988 230.929 203.7C230.581 203.4 230.143 203.172 229.615 203.016C229.087 202.86 228.559 202.71 228.031 202.566C226.855 202.302 225.775 201.942 224.791 201.486C223.819 201.018 223.045 200.424 222.469 199.704C221.893 198.972 221.605 198.078 221.605 197.022C221.605 195.87 221.917 194.874 222.541 194.034C223.165 193.182 223.981 192.528 224.989 192.072C226.009 191.616 227.095 191.388 228.247 191.388C229.687 191.388 231.007 191.694 232.207 192.306C233.407 192.918 234.325 193.758 234.961 194.826L231.991 196.59C231.811 196.23 231.541 195.906 231.181 195.618C230.821 195.33 230.413 195.102 229.957 194.934C229.501 194.754 229.027 194.652 228.535 194.628C227.923 194.604 227.353 194.676 226.825 194.844C226.309 195 225.895 195.252 225.583 195.6C225.271 195.948 225.115 196.392 225.115 196.932C225.115 197.46 225.301 197.856 225.673 198.12C226.045 198.372 226.513 198.576 227.077 198.732C227.653 198.888 228.241 199.062 228.841 199.254C229.909 199.59 230.911 200.004 231.847 200.496C232.783 200.976 233.539 201.57 234.115 202.278C234.691 202.986 234.967 203.85 234.943 204.87C234.943 205.998 234.601 206.988 233.917 207.84C233.245 208.692 232.369 209.34 231.289 209.784C230.209 210.228 229.063 210.414 227.851 210.342ZM243.425 210.342C242.477 210.282 241.553 210.09 240.653 209.766C239.753 209.442 238.961 209.004 238.277 208.452C237.605 207.888 237.101 207.228 236.765 206.472L239.951 205.104C240.107 205.428 240.377 205.746 240.761 206.058C241.157 206.37 241.619 206.628 242.147 206.832C242.675 207.024 243.227 207.12 243.803 207.12C244.367 207.12 244.889 207.042 245.369 206.886C245.861 206.718 246.263 206.466 246.575 206.13C246.887 205.794 247.043 205.392 247.043 204.924C247.043 204.396 246.863 203.988 246.503 203.7C246.155 203.4 245.717 203.172 245.189 203.016C244.661 202.86 244.133 202.71 243.605 202.566C242.429 202.302 241.349 201.942 240.365 201.486C239.393 201.018 238.619 200.424 238.043 199.704C237.467 198.972 237.179 198.078 237.179 197.022C237.179 195.87 237.491 194.874 238.115 194.034C238.739 193.182 239.555 192.528 240.563 192.072C241.583 191.616 242.669 191.388 243.821 191.388C245.261 191.388 246.581 191.694 247.781 192.306C248.981 192.918 249.899 193.758 250.535 194.826L247.565 196.59C247.385 196.23 247.115 195.906 246.755 195.618C246.395 195.33 245.987 195.102 245.531 194.934C245.075 194.754 244.601 194.652 244.109 194.628C243.497 194.604 242.927 194.676 242.399 194.844C241.883 195 241.469 195.252 241.157 195.6C240.845 195.948 240.689 196.392 240.689 196.932C240.689 197.46 240.875 197.856 241.247 198.12C241.619 198.372 242.087 198.576 242.651 198.732C243.227 198.888 243.815 199.062 244.415 199.254C245.483 199.59 246.485 200.004 247.421 200.496C248.357 200.976 249.113 201.57 249.689 202.278C250.265 202.986 250.541 203.85 250.517 204.87C250.517 205.998 250.175 206.988 249.491 207.84C248.819 208.692 247.943 209.34 246.863 209.784C245.783 210.228 244.637 210.414 243.425 210.342ZM259.089 201.954C259.089 200.658 259.413 199.464 260.061 198.372C260.721 197.28 261.621 196.422 262.761 195.798C263.409 195.462 263.913 194.97 264.273 194.322C264.633 193.662 264.813 192.936 264.813 192.144C264.813 191.388 264.627 190.704 264.255 190.092C263.895 189.468 263.403 188.976 262.779 188.616C262.155 188.244 261.465 188.058 260.709 188.058C259.965 188.058 259.281 188.244 258.657 188.616C258.033 188.976 257.535 189.468 257.163 190.092C256.803 190.704 256.623 191.388 256.623 192.144H252.879C252.879 190.704 253.227 189.396 253.923 188.22C254.631 187.032 255.579 186.084 256.767 185.376C257.967 184.668 259.281 184.314 260.709 184.314C262.161 184.314 263.481 184.668 264.669 185.376C265.857 186.084 266.799 187.032 267.495 188.22C268.203 189.396 268.557 190.704 268.557 192.144C268.557 193.62 268.197 194.982 267.477 196.23C266.769 197.466 265.791 198.426 264.543 199.11C264.015 199.386 263.595 199.776 263.283 200.28C262.983 200.784 262.833 201.342 262.833 201.954H259.089ZM261.051 210.468C260.499 210.468 260.031 210.276 259.647 209.892C259.263 209.496 259.071 209.022 259.071 208.47C259.071 207.93 259.263 207.474 259.647 207.102C260.031 206.718 260.499 206.526 261.051 206.526C261.591 206.526 262.053 206.718 262.437 207.102C262.821 207.474 263.013 207.93 263.013 208.47C263.013 209.022 262.821 209.496 262.437 209.892C262.053 210.276 261.591 210.468 261.051 210.468Z" fill="white"/>
</g>
<defs>
<linearGradient id="paint0_linear_1_214" x1="199" y1="-273" x2="-77.1541" y2="287.938" gradientUnits="userSpaceOnUse">
<stop stop-color="#5F4BF5"/>
<stop offset="1" stop-color="#A483F2"/>
</linearGradient>
<linearGradient id="paint1_linear_1_214" x1="318.5" y1="-25.5" x2="-129.654" y2="325.086" gradientUnits="userSpaceOnUse">
<stop stop-color="#5F4BF5"/>
<stop offset="1" stop-color="#A483F2"/>
</linearGradient>
<clipPath id="clip0_1_214">
<rect width="393" height="852" fill="white"/>
</clipPath>
</defs>
</svg>
