<svg width="393" height="852" viewBox="0 0 393 852" fill="none" xmlns="http://www.w3.org/2000/svg">
<g clip-path="url(#clip0_1_240)">
<rect width="393" height="852" fill="white"/>
<path d="M213.057 -207.169C376.752 -137.675 453.117 51.3623 383.623 215.057C314.129 378.752 125.091 455.117 -38.6039 385.623C-202.299 316.128 -278.664 127.091 -209.169 -36.604C-139.675 -200.299 49.3624 -276.664 213.057 -207.169Z" fill="url(#paint0_linear_1_240)"/>
<ellipse cx="100.929" cy="53.5546" rx="307.5" ry="298.5" transform="rotate(-66.9971 100.929 53.5546)" fill="url(#paint1_linear_1_240)"/>
<path d="M111.118 167L104.674 141.8H108.526L113.242 160.286L117.94 141.8H121.342L126.058 160.286L130.774 141.8H134.626L128.218 167H123.916L119.65 150.314L115.384 167H111.118ZM154.083 155.714V167H150.339V156.632C150.339 155.828 150.141 155.096 149.745 154.436C149.361 153.776 148.839 153.254 148.179 152.87C147.531 152.474 146.799 152.276 145.983 152.276C145.191 152.276 144.465 152.474 143.805 152.87C143.145 153.254 142.617 153.776 142.221 154.436C141.825 155.096 141.627 155.828 141.627 156.632V167H137.883V140H141.627V150.908C142.251 150.164 143.019 149.576 143.931 149.144C144.843 148.712 145.827 148.496 146.883 148.496C148.215 148.496 149.427 148.82 150.519 149.468C151.611 150.116 152.475 150.986 153.111 152.078C153.759 153.17 154.083 154.382 154.083 155.714ZM171.328 149H175.072V167H171.31L171.166 164.39C170.638 165.314 169.924 166.058 169.024 166.622C168.124 167.186 167.062 167.468 165.838 167.468C164.518 167.468 163.276 167.222 162.112 166.73C160.948 166.226 159.922 165.53 159.034 164.642C158.158 163.754 157.474 162.734 156.982 161.582C156.49 160.418 156.244 159.17 156.244 157.838C156.244 156.554 156.484 155.348 156.964 154.22C157.444 153.08 158.11 152.084 158.962 151.232C159.814 150.38 160.798 149.714 161.914 149.234C163.042 148.742 164.248 148.496 165.532 148.496C166.84 148.496 167.992 148.796 168.988 149.396C169.996 149.984 170.83 150.74 171.49 151.664L171.328 149ZM165.748 163.85C166.804 163.85 167.728 163.592 168.52 163.076C169.312 162.548 169.924 161.84 170.356 160.952C170.8 160.064 171.022 159.08 171.022 158C171.022 156.908 170.8 155.918 170.356 155.03C169.912 154.142 169.294 153.44 168.502 152.924C167.722 152.396 166.804 152.132 165.748 152.132C164.704 152.132 163.75 152.396 162.886 152.924C162.022 153.452 161.338 154.16 160.834 155.048C160.33 155.936 160.078 156.92 160.078 158C160.078 159.092 160.336 160.082 160.852 160.97C161.38 161.846 162.07 162.548 162.922 163.076C163.786 163.592 164.728 163.85 165.748 163.85ZM188.168 152.744H184.388L184.37 167H180.626L180.644 152.744H177.782V149H180.644L180.626 143.348H184.37L184.388 149H188.168V152.744ZM189.95 151.196L191.066 141.8H194.81L192.434 151.196H189.95ZM203.435 167.342C202.487 167.282 201.563 167.09 200.663 166.766C199.763 166.442 198.971 166.004 198.287 165.452C197.615 164.888 197.111 164.228 196.775 163.472L199.961 162.104C200.117 162.428 200.387 162.746 200.771 163.058C201.167 163.37 201.629 163.628 202.157 163.832C202.685 164.024 203.237 164.12 203.813 164.12C204.377 164.12 204.899 164.042 205.379 163.886C205.871 163.718 206.273 163.466 206.585 163.13C206.897 162.794 207.053 162.392 207.053 161.924C207.053 161.396 206.873 160.988 206.513 160.7C206.165 160.4 205.727 160.172 205.199 160.016C204.671 159.86 204.143 159.71 203.615 159.566C202.439 159.302 201.359 158.942 200.375 158.486C199.403 158.018 198.629 157.424 198.053 156.704C197.477 155.972 197.189 155.078 197.189 154.022C197.189 152.87 197.501 151.874 198.125 151.034C198.749 150.182 199.565 149.528 200.573 149.072C201.593 148.616 202.679 148.388 203.831 148.388C205.271 148.388 206.591 148.694 207.791 149.306C208.991 149.918 209.909 150.758 210.545 151.826L207.575 153.59C207.395 153.23 207.125 152.906 206.765 152.618C206.405 152.33 205.997 152.102 205.541 151.934C205.085 151.754 204.611 151.652 204.119 151.628C203.507 151.604 202.937 151.676 202.409 151.844C201.893 152 201.479 152.252 201.167 152.6C200.855 152.948 200.699 153.392 200.699 153.932C200.699 154.46 200.885 154.856 201.257 155.12C201.629 155.372 202.097 155.576 202.661 155.732C203.237 155.888 203.825 156.062 204.425 156.254C205.493 156.59 206.495 157.004 207.431 157.496C208.367 157.976 209.123 158.57 209.699 159.278C210.275 159.986 210.551 160.85 210.527 161.87C210.527 162.998 210.185 163.988 209.501 164.84C208.829 165.692 207.953 166.34 206.873 166.784C205.793 167.228 204.647 167.414 203.435 167.342ZM234.588 149H238.584L228.72 176H224.742L228 167L221.538 149H225.624L229.872 161.87L234.588 149ZM248.564 167.468C246.908 167.468 245.396 167.042 244.028 166.19C242.672 165.338 241.586 164.198 240.77 162.77C239.966 161.33 239.564 159.74 239.564 158C239.564 156.68 239.798 155.45 240.266 154.31C240.734 153.158 241.376 152.15 242.192 151.286C243.02 150.41 243.98 149.726 245.072 149.234C246.164 148.742 247.328 148.496 248.564 148.496C250.22 148.496 251.726 148.922 253.082 149.774C254.45 150.626 255.536 151.772 256.34 153.212C257.156 154.652 257.564 156.248 257.564 158C257.564 159.308 257.33 160.532 256.862 161.672C256.394 162.812 255.746 163.82 254.918 164.696C254.102 165.56 253.148 166.238 252.056 166.73C250.976 167.222 249.812 167.468 248.564 167.468ZM248.564 163.724C249.56 163.724 250.454 163.46 251.246 162.932C252.038 162.404 252.662 161.708 253.118 160.844C253.586 159.968 253.82 159.02 253.82 158C253.82 156.956 253.58 155.996 253.1 155.12C252.632 154.244 252.002 153.548 251.21 153.032C250.418 152.504 249.536 152.24 248.564 152.24C247.58 152.24 246.686 152.504 245.882 153.032C245.09 153.56 244.46 154.262 243.992 155.138C243.536 156.014 243.308 156.968 243.308 158C243.308 159.068 243.548 160.034 244.028 160.898C244.508 161.762 245.144 162.452 245.936 162.968C246.74 163.472 247.616 163.724 248.564 163.724ZM259.401 160.25V149H263.145V159.332C263.145 160.136 263.343 160.868 263.739 161.528C264.135 162.188 264.663 162.716 265.323 163.112C265.983 163.496 266.709 163.688 267.501 163.688C268.305 163.688 269.031 163.496 269.679 163.112C270.339 162.716 270.861 162.188 271.245 161.528C271.641 160.868 271.839 160.136 271.839 159.332V149H275.583L275.601 167H271.857L271.839 165.056C271.227 165.8 270.465 166.388 269.553 166.82C268.641 167.252 267.663 167.468 266.619 167.468C265.287 167.468 264.075 167.144 262.983 166.496C261.891 165.848 261.021 164.978 260.373 163.886C259.725 162.794 259.401 161.582 259.401 160.25ZM279.211 167V149H282.955V150.908C283.579 150.164 284.347 149.576 285.259 149.144C286.171 148.712 287.155 148.496 288.211 148.496C288.883 148.496 289.549 148.586 290.209 148.766L288.715 152.546C288.247 152.366 287.779 152.276 287.311 152.276C286.519 152.276 285.793 152.474 285.133 152.87C284.473 153.254 283.945 153.776 283.549 154.436C283.153 155.096 282.955 155.828 282.955 156.632V167H279.211ZM75.7438 219H71.9998V192H75.7438V194.646C76.3438 193.722 77.1118 192.972 78.0478 192.396C78.9838 191.82 80.0878 191.532 81.3598 191.532C82.6678 191.532 83.8918 191.778 85.0318 192.27C86.1838 192.762 87.1918 193.446 88.0558 194.322C88.9198 195.186 89.5978 196.188 90.0898 197.328C90.5818 198.468 90.8278 199.692 90.8278 201C90.8278 202.308 90.5818 203.538 90.0898 204.69C89.5978 205.842 88.9198 206.856 88.0558 207.732C87.1918 208.596 86.1838 209.274 85.0318 209.766C83.8918 210.258 82.6678 210.504 81.3598 210.504C80.0878 210.504 78.9838 210.216 78.0478 209.64C77.1118 209.052 76.3438 208.302 75.7438 207.39V219ZM81.3238 195.15C80.2798 195.15 79.3618 195.414 78.5698 195.942C77.7778 196.47 77.1598 197.178 76.7158 198.066C76.2718 198.942 76.0498 199.92 76.0498 201C76.0498 202.08 76.2718 203.064 76.7158 203.952C77.1598 204.84 77.7778 205.548 78.5698 206.076C79.3618 206.604 80.2798 206.868 81.3238 206.868C82.3558 206.868 83.3038 206.61 84.1678 206.094C85.0318 205.566 85.7218 204.858 86.2378 203.97C86.7538 203.082 87.0118 202.092 87.0118 201C87.0118 199.932 86.7538 198.954 86.2378 198.066C85.7338 197.178 85.0498 196.47 84.1858 195.942C83.3218 195.414 82.3678 195.15 81.3238 195.15ZM109.715 198.714V210H105.971V199.632C105.971 198.828 105.773 198.096 105.377 197.436C104.993 196.776 104.471 196.254 103.811 195.87C103.163 195.474 102.431 195.276 101.615 195.276C100.823 195.276 100.097 195.474 99.4375 195.87C98.7775 196.254 98.2495 196.776 97.8535 197.436C97.4575 198.096 97.2595 198.828 97.2595 199.632V210H93.5155V183H97.2595V193.908C97.8835 193.164 98.6515 192.576 99.5635 192.144C100.475 191.712 101.459 191.496 102.515 191.496C103.847 191.496 105.059 191.82 106.151 192.468C107.243 193.116 108.107 193.986 108.743 195.078C109.391 196.17 109.715 197.382 109.715 198.714ZM120.877 210.468C119.221 210.468 117.709 210.042 116.341 209.19C114.985 208.338 113.899 207.198 113.083 205.77C112.279 204.33 111.877 202.74 111.877 201C111.877 199.68 112.111 198.45 112.579 197.31C113.047 196.158 113.689 195.15 114.505 194.286C115.333 193.41 116.293 192.726 117.385 192.234C118.477 191.742 119.641 191.496 120.877 191.496C122.533 191.496 124.039 191.922 125.395 192.774C126.763 193.626 127.849 194.772 128.653 196.212C129.469 197.652 129.877 199.248 129.877 201C129.877 202.308 129.643 203.532 129.175 204.672C128.707 205.812 128.059 206.82 127.231 207.696C126.415 208.56 125.461 209.238 124.369 209.73C123.289 210.222 122.125 210.468 120.877 210.468ZM120.877 206.724C121.873 206.724 122.767 206.46 123.559 205.932C124.351 205.404 124.975 204.708 125.431 203.844C125.899 202.968 126.133 202.02 126.133 201C126.133 199.956 125.893 198.996 125.413 198.12C124.945 197.244 124.315 196.548 123.523 196.032C122.731 195.504 121.849 195.24 120.877 195.24C119.893 195.24 118.999 195.504 118.195 196.032C117.403 196.56 116.773 197.262 116.305 198.138C115.849 199.014 115.621 199.968 115.621 201C115.621 202.068 115.861 203.034 116.341 203.898C116.821 204.762 117.457 205.452 118.249 205.968C119.053 206.472 119.929 206.724 120.877 206.724ZM148.985 198.714V210H145.241V199.632C145.241 198.828 145.043 198.096 144.647 197.436C144.263 196.776 143.741 196.254 143.081 195.87C142.433 195.474 141.701 195.276 140.885 195.276C140.093 195.276 139.367 195.474 138.707 195.87C138.047 196.254 137.519 196.776 137.123 197.436C136.727 198.096 136.529 198.828 136.529 199.632V210H132.785V192H136.529V193.908C137.153 193.164 137.921 192.576 138.833 192.144C139.745 191.712 140.729 191.496 141.785 191.496C143.117 191.496 144.329 191.82 145.421 192.468C146.513 193.116 147.377 193.986 148.013 195.078C148.661 196.17 148.985 197.382 148.985 198.714ZM160.146 210.468C158.49 210.468 156.978 210.042 155.61 209.19C154.254 208.338 153.168 207.198 152.352 205.77C151.548 204.33 151.146 202.74 151.146 201C151.146 199.68 151.38 198.45 151.848 197.31C152.316 196.158 152.958 195.15 153.774 194.286C154.602 193.41 155.562 192.726 156.654 192.234C157.746 191.742 158.91 191.496 160.146 191.496C161.526 191.496 162.792 191.784 163.944 192.36C165.096 192.924 166.08 193.71 166.896 194.718C167.712 195.714 168.312 196.866 168.696 198.174C169.08 199.47 169.194 200.85 169.038 202.314H155.16C155.316 203.142 155.616 203.892 156.06 204.564C156.516 205.224 157.092 205.746 157.788 206.13C158.496 206.514 159.282 206.712 160.146 206.724C161.058 206.724 161.886 206.496 162.63 206.04C163.386 205.584 164.004 204.954 164.484 204.15L168.282 205.032C167.562 206.628 166.476 207.936 165.024 208.956C163.572 209.964 161.946 210.468 160.146 210.468ZM155.034 199.452H165.258C165.138 198.588 164.832 197.808 164.34 197.112C163.86 196.404 163.254 195.846 162.522 195.438C161.802 195.018 161.01 194.808 160.146 194.808C159.294 194.808 158.502 195.012 157.77 195.42C157.05 195.828 156.45 196.386 155.97 197.094C155.502 197.79 155.19 198.576 155.034 199.452ZM197.184 198.714V210H193.44V199.632C193.44 198.828 193.242 198.096 192.846 197.436C192.462 196.776 191.94 196.254 191.28 195.87C190.632 195.474 189.9 195.276 189.084 195.276C188.292 195.276 187.566 195.474 186.906 195.87C186.246 196.254 185.718 196.776 185.322 197.436C184.926 198.096 184.728 198.828 184.728 199.632V210H180.984V192H184.728V193.908C185.352 193.164 186.12 192.576 187.032 192.144C187.944 191.712 188.928 191.496 189.984 191.496C191.316 191.496 192.528 191.82 193.62 192.468C194.712 193.116 195.576 193.986 196.212 195.078C196.86 196.17 197.184 197.382 197.184 198.714ZM200.057 203.25V192H203.801V202.332C203.801 203.136 203.999 203.868 204.395 204.528C204.791 205.188 205.319 205.716 205.979 206.112C206.639 206.496 207.365 206.688 208.157 206.688C208.961 206.688 209.687 206.496 210.335 206.112C210.995 205.716 211.517 205.188 211.901 204.528C212.297 203.868 212.495 203.136 212.495 202.332V192H216.239L216.257 210H212.513L212.495 208.056C211.883 208.8 211.121 209.388 210.209 209.82C209.297 210.252 208.319 210.468 207.275 210.468C205.943 210.468 204.731 210.144 203.639 209.496C202.547 208.848 201.677 207.978 201.029 206.886C200.381 205.794 200.057 204.582 200.057 203.25ZM219.867 210V192H223.611V193.908C224.235 193.164 224.997 192.576 225.897 192.144C226.809 191.712 227.793 191.496 228.849 191.496C230.133 191.496 231.315 191.808 232.395 192.432C233.475 193.044 234.333 193.86 234.969 194.88C235.605 193.86 236.451 193.044 237.507 192.432C238.575 191.808 239.751 191.496 241.035 191.496C242.367 191.496 243.579 191.82 244.671 192.468C245.763 193.116 246.633 193.986 247.281 195.078C247.929 196.17 248.253 197.382 248.253 198.714V210H244.509V199.668C244.509 198.876 244.317 198.15 243.933 197.49C243.549 196.83 243.033 196.296 242.385 195.888C241.737 195.48 241.017 195.276 240.225 195.276C239.433 195.276 238.713 195.468 238.065 195.852C237.417 196.236 236.901 196.758 236.517 197.418C236.133 198.078 235.941 198.828 235.941 199.668V210H232.197V199.668C232.197 198.828 232.005 198.078 231.621 197.418C231.237 196.758 230.715 196.236 230.055 195.852C229.407 195.468 228.687 195.276 227.895 195.276C227.115 195.276 226.395 195.48 225.735 195.888C225.087 196.296 224.571 196.83 224.187 197.49C223.803 198.15 223.611 198.876 223.611 199.668V210H219.867ZM261.36 191.496C263.112 191.496 264.702 191.922 266.13 192.774C267.57 193.626 268.716 194.772 269.568 196.212C270.42 197.64 270.846 199.23 270.846 200.982C270.846 202.29 270.6 203.52 270.108 204.672C269.616 205.812 268.932 206.82 268.056 207.696C267.192 208.56 266.184 209.238 265.032 209.73C263.892 210.222 262.668 210.468 261.36 210.468C260.1 210.468 258.996 210.18 258.048 209.604C257.112 209.016 256.344 208.266 255.744 207.354V210H252V183H255.744V194.61C256.344 193.686 257.112 192.936 258.048 192.36C258.996 191.784 260.1 191.496 261.36 191.496ZM261.324 206.832C262.368 206.832 263.322 206.568 264.186 206.04C265.05 205.512 265.734 204.804 266.238 203.916C266.754 203.028 267.012 202.05 267.012 200.982C267.012 199.89 266.754 198.9 266.238 198.012C265.722 197.124 265.032 196.422 264.168 195.906C263.304 195.378 262.356 195.114 261.324 195.114C260.28 195.114 259.362 195.378 258.57 195.906C257.778 196.434 257.16 197.142 256.716 198.03C256.272 198.918 256.05 199.902 256.05 200.982C256.05 202.062 256.272 203.046 256.716 203.934C257.16 204.822 257.778 205.53 258.57 206.058C259.362 206.574 260.28 206.832 261.324 206.832ZM281.646 210.468C279.99 210.468 278.478 210.042 277.11 209.19C275.754 208.338 274.668 207.198 273.852 205.77C273.048 204.33 272.646 202.74 272.646 201C272.646 199.68 272.88 198.45 273.348 197.31C273.816 196.158 274.458 195.15 275.274 194.286C276.102 193.41 277.062 192.726 278.154 192.234C279.246 191.742 280.41 191.496 281.646 191.496C283.026 191.496 284.292 191.784 285.444 192.36C286.596 192.924 287.58 193.71 288.396 194.718C289.212 195.714 289.812 196.866 290.196 198.174C290.58 199.47 290.694 200.85 290.538 202.314H276.66C276.816 203.142 277.116 203.892 277.56 204.564C278.016 205.224 278.592 205.746 279.288 206.13C279.996 206.514 280.782 206.712 281.646 206.724C282.558 206.724 283.386 206.496 284.13 206.04C284.886 205.584 285.504 204.954 285.984 204.15L289.782 205.032C289.062 206.628 287.976 207.936 286.524 208.956C285.072 209.964 283.446 210.468 281.646 210.468ZM276.534 199.452H286.758C286.638 198.588 286.332 197.808 285.84 197.112C285.36 196.404 284.754 195.846 284.022 195.438C283.302 195.018 282.51 194.808 281.646 194.808C280.794 194.808 280.002 195.012 279.27 195.42C278.55 195.828 277.95 196.386 277.47 197.094C277.002 197.79 276.69 198.576 276.534 199.452ZM293.519 210V192H297.263V193.908C297.887 193.164 298.655 192.576 299.567 192.144C300.479 191.712 301.463 191.496 302.519 191.496C303.191 191.496 303.857 191.586 304.517 191.766L303.023 195.546C302.555 195.366 302.087 195.276 301.619 195.276C300.827 195.276 300.101 195.474 299.441 195.87C298.781 196.254 298.253 196.776 297.857 197.436C297.461 198.096 297.263 198.828 297.263 199.632V210H293.519ZM312.545 201.954C312.545 200.658 312.869 199.464 313.517 198.372C314.177 197.28 315.077 196.422 316.217 195.798C316.865 195.462 317.369 194.97 317.729 194.322C318.089 193.662 318.269 192.936 318.269 192.144C318.269 191.388 318.083 190.704 317.711 190.092C317.351 189.468 316.859 188.976 316.235 188.616C315.611 188.244 314.921 188.058 314.165 188.058C313.421 188.058 312.737 188.244 312.113 188.616C311.489 188.976 310.991 189.468 310.619 190.092C310.259 190.704 310.079 191.388 310.079 192.144H306.335C306.335 190.704 306.683 189.396 307.379 188.22C308.087 187.032 309.035 186.084 310.223 185.376C311.423 184.668 312.737 184.314 314.165 184.314C315.617 184.314 316.937 184.668 318.125 185.376C319.313 186.084 320.255 187.032 320.951 188.22C321.659 189.396 322.013 190.704 322.013 192.144C322.013 193.62 321.653 194.982 320.933 196.23C320.225 197.466 319.247 198.426 317.999 199.11C317.471 199.386 317.051 199.776 316.739 200.28C316.439 200.784 316.289 201.342 316.289 201.954H312.545ZM314.507 210.468C313.955 210.468 313.487 210.276 313.103 209.892C312.719 209.496 312.527 209.022 312.527 208.47C312.527 207.93 312.719 207.474 313.103 207.102C313.487 206.718 313.955 206.526 314.507 206.526C315.047 206.526 315.509 206.718 315.893 207.102C316.277 207.474 316.469 207.93 316.469 208.47C316.469 209.022 316.277 209.496 315.893 209.892C315.509 210.276 315.047 210.468 314.507 210.468Z" fill="white"/>
</g>
<defs>
<linearGradient id="paint0_linear_1_240" x1="-224.565" y1="-65.9347" x2="183.854" y2="407.463" gradientUnits="userSpaceOnUse">
<stop stop-color="#5F4BF5"/>
<stop offset="1" stop-color="#A483F2"/>
</linearGradient>
<linearGradient id="paint1_linear_1_240" x1="234.929" y1="1.55462" x2="-213.225" y2="352.14" gradientUnits="userSpaceOnUse">
<stop stop-color="#5F4BF5"/>
<stop offset="1" stop-color="#A483F2"/>
</linearGradient>
<clipPath id="clip0_1_240">
<rect width="393" height="852" fill="white"/>
</clipPath>
</defs>
</svg>
