<svg width="393" height="852" viewBox="0 0 393 852" fill="none" xmlns="http://www.w3.org/2000/svg">
<g clip-path="url(#clip0_1_254)">
<rect width="393" height="852" fill="white"/>
<circle cx="197" r="322" fill="url(#paint0_linear_1_254)"/>
<ellipse cx="182.5" cy="-22.5" rx="307.5" ry="298.5" fill="url(#paint1_linear_1_254)"/>
<path d="M66.372 176L59.928 150.8H63.78L68.496 169.286L73.194 150.8H76.596L81.312 169.286L86.028 150.8H89.88L83.472 176H79.17L74.904 159.314L70.638 176H66.372ZM109.337 164.714V176H105.593V165.632C105.593 164.828 105.395 164.096 104.999 163.436C104.615 162.776 104.093 162.254 103.433 161.87C102.785 161.474 102.053 161.276 101.237 161.276C100.445 161.276 99.7186 161.474 99.0586 161.87C98.3986 162.254 97.8706 162.776 97.4746 163.436C97.0786 164.096 96.8806 164.828 96.8806 165.632V176H93.1366V149H96.8806V159.908C97.5046 159.164 98.2726 158.576 99.1846 158.144C100.097 157.712 101.081 157.496 102.137 157.496C103.469 157.496 104.681 157.82 105.773 158.468C106.865 159.116 107.729 159.986 108.365 161.078C109.013 162.17 109.337 163.382 109.337 164.714ZM126.582 158H130.326V176H126.564L126.42 173.39C125.892 174.314 125.178 175.058 124.278 175.622C123.378 176.186 122.316 176.468 121.092 176.468C119.772 176.468 118.53 176.222 117.366 175.73C116.202 175.226 115.176 174.53 114.288 173.642C113.412 172.754 112.728 171.734 112.236 170.582C111.744 169.418 111.498 168.17 111.498 166.838C111.498 165.554 111.738 164.348 112.218 163.22C112.698 162.08 113.364 161.084 114.216 160.232C115.068 159.38 116.052 158.714 117.168 158.234C118.296 157.742 119.502 157.496 120.786 157.496C122.094 157.496 123.246 157.796 124.242 158.396C125.25 158.984 126.084 159.74 126.744 160.664L126.582 158ZM121.002 172.85C122.058 172.85 122.982 172.592 123.774 172.076C124.566 171.548 125.178 170.84 125.61 169.952C126.054 169.064 126.276 168.08 126.276 167C126.276 165.908 126.054 164.918 125.61 164.03C125.166 163.142 124.548 162.44 123.756 161.924C122.976 161.396 122.058 161.132 121.002 161.132C119.958 161.132 119.004 161.396 118.14 161.924C117.276 162.452 116.592 163.16 116.088 164.048C115.584 164.936 115.332 165.92 115.332 167C115.332 168.092 115.59 169.082 116.106 169.97C116.634 170.846 117.324 171.548 118.176 172.076C119.04 172.592 119.982 172.85 121.002 172.85ZM143.422 161.744H139.642L139.624 176H135.88L135.898 161.744H133.036V158H135.898L135.88 152.348H139.624L139.642 158H143.422V161.744ZM155.293 158H159.037V176H155.293V158ZM157.201 155.39C156.625 155.39 156.145 155.204 155.761 154.832C155.377 154.46 155.185 153.992 155.185 153.428C155.185 152.876 155.377 152.414 155.761 152.042C156.145 151.658 156.619 151.466 157.183 151.466C157.735 151.466 158.203 151.658 158.587 152.042C158.971 152.414 159.163 152.876 159.163 153.428C159.163 153.992 158.971 154.46 158.587 154.832C158.215 155.204 157.753 155.39 157.201 155.39ZM168.498 176.342C167.55 176.282 166.626 176.09 165.726 175.766C164.826 175.442 164.034 175.004 163.35 174.452C162.678 173.888 162.174 173.228 161.838 172.472L165.024 171.104C165.18 171.428 165.45 171.746 165.834 172.058C166.23 172.37 166.692 172.628 167.22 172.832C167.748 173.024 168.3 173.12 168.876 173.12C169.44 173.12 169.962 173.042 170.441 172.886C170.934 172.718 171.336 172.466 171.648 172.13C171.96 171.794 172.116 171.392 172.116 170.924C172.116 170.396 171.936 169.988 171.576 169.7C171.228 169.4 170.79 169.172 170.262 169.016C169.734 168.86 169.206 168.71 168.678 168.566C167.502 168.302 166.422 167.942 165.438 167.486C164.466 167.018 163.692 166.424 163.116 165.704C162.54 164.972 162.252 164.078 162.252 163.022C162.252 161.87 162.564 160.874 163.188 160.034C163.812 159.182 164.628 158.528 165.636 158.072C166.656 157.616 167.742 157.388 168.894 157.388C170.334 157.388 171.654 157.694 172.854 158.306C174.054 158.918 174.972 159.758 175.608 160.826L172.638 162.59C172.458 162.23 172.188 161.906 171.828 161.618C171.468 161.33 171.06 161.102 170.604 160.934C170.148 160.754 169.674 160.652 169.182 160.628C168.57 160.604 168 160.676 167.472 160.844C166.956 161 166.542 161.252 166.229 161.6C165.918 161.948 165.762 162.392 165.762 162.932C165.762 163.46 165.948 163.856 166.32 164.12C166.692 164.372 167.16 164.576 167.724 164.732C168.3 164.888 168.888 165.062 169.488 165.254C170.556 165.59 171.558 166.004 172.494 166.496C173.43 166.976 174.186 167.57 174.762 168.278C175.338 168.986 175.614 169.85 175.59 170.87C175.59 171.998 175.248 172.988 174.564 173.84C173.892 174.692 173.016 175.34 171.936 175.784C170.856 176.228 169.71 176.414 168.498 176.342ZM199.65 158H203.646L193.782 185H189.804L193.062 176L186.6 158H190.686L194.934 170.87L199.65 158ZM213.627 176.468C211.971 176.468 210.459 176.042 209.091 175.19C207.735 174.338 206.649 173.198 205.833 171.77C205.029 170.33 204.627 168.74 204.627 167C204.627 165.68 204.861 164.45 205.329 163.31C205.797 162.158 206.439 161.15 207.255 160.286C208.083 159.41 209.043 158.726 210.135 158.234C211.227 157.742 212.391 157.496 213.627 157.496C215.283 157.496 216.789 157.922 218.145 158.774C219.513 159.626 220.599 160.772 221.403 162.212C222.219 163.652 222.627 165.248 222.627 167C222.627 168.308 222.393 169.532 221.925 170.672C221.457 171.812 220.809 172.82 219.981 173.696C219.165 174.56 218.211 175.238 217.119 175.73C216.039 176.222 214.875 176.468 213.627 176.468ZM213.627 172.724C214.623 172.724 215.517 172.46 216.309 171.932C217.101 171.404 217.725 170.708 218.181 169.844C218.649 168.968 218.883 168.02 218.883 167C218.883 165.956 218.643 164.996 218.163 164.12C217.695 163.244 217.065 162.548 216.273 162.032C215.481 161.504 214.599 161.24 213.627 161.24C212.643 161.24 211.749 161.504 210.945 162.032C210.153 162.56 209.523 163.262 209.055 164.138C208.599 165.014 208.371 165.968 208.371 167C208.371 168.068 208.611 169.034 209.091 169.898C209.571 170.762 210.207 171.452 210.999 171.968C211.803 172.472 212.679 172.724 213.627 172.724ZM224.463 169.25V158H228.207V168.332C228.207 169.136 228.405 169.868 228.801 170.528C229.197 171.188 229.725 171.716 230.385 172.112C231.045 172.496 231.771 172.688 232.563 172.688C233.367 172.688 234.093 172.496 234.741 172.112C235.401 171.716 235.923 171.188 236.307 170.528C236.703 169.868 236.901 169.136 236.901 168.332V158H240.645L240.663 176H236.919L236.901 174.056C236.289 174.8 235.527 175.388 234.615 175.82C233.703 176.252 232.725 176.468 231.681 176.468C230.349 176.468 229.137 176.144 228.045 175.496C226.953 174.848 226.083 173.978 225.435 172.886C224.787 171.794 224.463 170.582 224.463 169.25ZM244.273 176V158H248.017V159.908C248.641 159.164 249.409 158.576 250.321 158.144C251.233 157.712 252.217 157.496 253.273 157.496C253.945 157.496 254.611 157.586 255.271 157.766L253.777 161.546C253.309 161.366 252.841 161.276 252.373 161.276C251.581 161.276 250.855 161.474 250.195 161.87C249.535 162.254 249.007 162.776 248.611 163.436C248.215 164.096 248.017 164.828 248.017 165.632V176H244.273ZM280.155 158H283.899V176.468C283.899 177.704 283.635 178.844 283.107 179.888C282.591 180.932 281.889 181.832 281.001 182.588C280.113 183.356 279.093 183.95 277.941 184.37C276.801 184.79 275.607 185 274.359 185C273.099 185 271.887 184.73 270.723 184.19C269.559 183.662 268.533 182.942 267.645 182.03C266.769 181.118 266.115 180.086 265.683 178.934L269.121 177.386C269.361 178.13 269.745 178.79 270.273 179.366C270.813 179.942 271.437 180.398 272.145 180.734C272.865 181.07 273.603 181.238 274.359 181.238C275.103 181.238 275.817 181.118 276.501 180.878C277.197 180.65 277.815 180.326 278.355 179.906C278.907 179.486 279.345 178.982 279.669 178.394C279.993 177.806 280.155 177.164 280.155 176.468V173.426C279.567 174.338 278.811 175.076 277.887 175.64C276.963 176.192 275.889 176.468 274.665 176.468C273.393 176.468 272.193 176.222 271.065 175.73C269.937 175.238 268.947 174.56 268.095 173.696C267.243 172.82 266.577 171.812 266.097 170.672C265.617 169.532 265.377 168.308 265.377 167C265.377 165.692 265.617 164.468 266.097 163.328C266.577 162.176 267.243 161.168 268.095 160.304C268.947 159.428 269.937 158.744 271.065 158.252C272.193 157.76 273.393 157.514 274.665 157.514C275.889 157.514 276.963 157.796 277.887 158.36C278.811 158.912 279.567 159.65 280.155 160.574V158ZM274.701 172.85C275.745 172.85 276.657 172.586 277.437 172.058C278.217 171.518 278.823 170.804 279.255 169.916C279.687 169.028 279.903 168.056 279.903 167C279.903 165.92 279.681 164.942 279.237 164.066C278.805 163.178 278.199 162.47 277.419 161.942C276.639 161.402 275.733 161.132 274.701 161.132C273.693 161.132 272.769 161.396 271.929 161.924C271.101 162.452 270.441 163.16 269.949 164.048C269.457 164.936 269.211 165.92 269.211 167C269.211 168.08 269.457 169.064 269.949 169.952C270.453 170.84 271.119 171.548 271.947 172.076C272.787 172.592 273.705 172.85 274.701 172.85ZM295.822 176.468C294.166 176.468 292.654 176.042 291.286 175.19C289.93 174.338 288.844 173.198 288.028 171.77C287.224 170.33 286.822 168.74 286.822 167C286.822 165.68 287.056 164.45 287.524 163.31C287.992 162.158 288.634 161.15 289.45 160.286C290.278 159.41 291.238 158.726 292.33 158.234C293.422 157.742 294.586 157.496 295.822 157.496C297.478 157.496 298.984 157.922 300.34 158.774C301.708 159.626 302.794 160.772 303.598 162.212C304.414 163.652 304.822 165.248 304.822 167C304.822 168.308 304.588 169.532 304.12 170.672C303.652 171.812 303.004 172.82 302.176 173.696C301.36 174.56 300.406 175.238 299.314 175.73C298.234 176.222 297.07 176.468 295.822 176.468ZM295.822 172.724C296.818 172.724 297.712 172.46 298.504 171.932C299.296 171.404 299.92 170.708 300.376 169.844C300.844 168.968 301.078 168.02 301.078 167C301.078 165.956 300.838 164.996 300.358 164.12C299.89 163.244 299.26 162.548 298.468 162.032C297.676 161.504 296.794 161.24 295.822 161.24C294.838 161.24 293.944 161.504 293.14 162.032C292.348 162.56 291.718 163.262 291.25 164.138C290.794 165.014 290.566 165.968 290.566 167C290.566 168.068 290.806 169.034 291.286 169.898C291.766 170.762 292.402 171.452 293.194 171.968C293.998 172.472 294.874 172.724 295.822 172.724ZM321.699 158H325.443V176H321.681L321.537 173.39C321.009 174.314 320.295 175.058 319.395 175.622C318.495 176.186 317.433 176.468 316.209 176.468C314.889 176.468 313.647 176.222 312.483 175.73C311.319 175.226 310.293 174.53 309.405 173.642C308.529 172.754 307.845 171.734 307.353 170.582C306.861 169.418 306.615 168.17 306.615 166.838C306.615 165.554 306.855 164.348 307.335 163.22C307.815 162.08 308.481 161.084 309.333 160.232C310.185 159.38 311.169 158.714 312.285 158.234C313.413 157.742 314.619 157.496 315.903 157.496C317.211 157.496 318.363 157.796 319.359 158.396C320.367 158.984 321.201 159.74 321.861 160.664L321.699 158ZM316.119 172.85C317.175 172.85 318.099 172.592 318.891 172.076C319.683 171.548 320.295 170.84 320.727 169.952C321.171 169.064 321.393 168.08 321.393 167C321.393 165.908 321.171 164.918 320.727 164.03C320.283 163.142 319.665 162.44 318.873 161.924C318.093 161.396 317.175 161.132 316.119 161.132C315.075 161.132 314.121 161.396 313.257 161.924C312.393 162.452 311.709 163.16 311.205 164.048C310.701 164.936 310.449 165.92 310.449 167C310.449 168.092 310.707 169.082 311.223 169.97C311.751 170.846 312.441 171.548 313.293 172.076C314.157 172.592 315.099 172.85 316.119 172.85ZM329.176 176V149H332.92V176H329.176ZM342.716 167.954C342.716 166.658 343.04 165.464 343.688 164.372C344.348 163.28 345.248 162.422 346.388 161.798C347.036 161.462 347.54 160.97 347.9 160.322C348.26 159.662 348.44 158.936 348.44 158.144C348.44 157.388 348.254 156.704 347.882 156.092C347.522 155.468 347.03 154.976 346.406 154.616C345.782 154.244 345.092 154.058 344.336 154.058C343.592 154.058 342.908 154.244 342.284 154.616C341.66 154.976 341.162 155.468 340.79 156.092C340.43 156.704 340.25 157.388 340.25 158.144H336.506C336.506 156.704 336.854 155.396 337.55 154.22C338.258 153.032 339.206 152.084 340.394 151.376C341.594 150.668 342.908 150.314 344.336 150.314C345.788 150.314 347.108 150.668 348.296 151.376C349.484 152.084 350.426 153.032 351.122 154.22C351.83 155.396 352.184 156.704 352.184 158.144C352.184 159.62 351.824 160.982 351.104 162.23C350.396 163.466 349.418 164.426 348.17 165.11C347.642 165.386 347.222 165.776 346.91 166.28C346.61 166.784 346.46 167.342 346.46 167.954H342.716ZM344.678 176.468C344.126 176.468 343.658 176.276 343.274 175.892C342.89 175.496 342.698 175.022 342.698 174.47C342.698 173.93 342.89 173.474 343.274 173.102C343.658 172.718 344.126 172.526 344.678 172.526C345.218 172.526 345.68 172.718 346.064 173.102C346.448 173.474 346.64 173.93 346.64 174.47C346.64 175.022 346.448 175.496 346.064 175.892C345.68 176.276 345.218 176.468 344.678 176.468Z" fill="white"/>
</g>
<defs>
<linearGradient id="paint0_linear_1_254" x1="197" y1="-322" x2="-79.1541" y2="238.938" gradientUnits="userSpaceOnUse">
<stop stop-color="#5F4BF5"/>
<stop offset="1" stop-color="#A483F2"/>
</linearGradient>
<linearGradient id="paint1_linear_1_254" x1="316.5" y1="-74.5" x2="-131.654" y2="276.086" gradientUnits="userSpaceOnUse">
<stop stop-color="#5F4BF5"/>
<stop offset="1" stop-color="#A483F2"/>
</linearGradient>
<clipPath id="clip0_1_254">
<rect width="393" height="852" fill="white"/>
</clipPath>
</defs>
</svg>
