<svg width="393" height="852" viewBox="0 0 393 852" fill="none" xmlns="http://www.w3.org/2000/svg">
<g clip-path="url(#clip0_1_278)">
<rect width="393" height="852" fill="white"/>
<circle cx="265" r="322" fill="url(#paint0_linear_1_278)"/>
<ellipse cx="250.5" cy="-22.5" rx="307.5" ry="298.5" fill="url(#paint1_linear_1_278)"/>
<path d="M40.7949 743L33 751.707M33 751.707L40.7949 760M33 751.707H49" stroke="white" stroke-width="3"/>
<path d="M115.714 157L109.27 131.8H113.122L117.838 150.286L122.536 131.8H125.938L130.654 150.286L135.37 131.8H139.222L132.814 157H128.512L124.246 140.314L119.98 157H115.714ZM158.678 145.714V157H154.934V146.632C154.934 145.828 154.736 145.096 154.34 144.436C153.956 143.776 153.434 143.254 152.774 142.87C152.126 142.474 151.394 142.276 150.578 142.276C149.786 142.276 149.06 142.474 148.4 142.87C147.74 143.254 147.212 143.776 146.816 144.436C146.42 145.096 146.222 145.828 146.222 146.632V157H142.478V130H146.222V140.908C146.846 140.164 147.614 139.576 148.526 139.144C149.438 138.712 150.422 138.496 151.478 138.496C152.81 138.496 154.022 138.82 155.114 139.468C156.206 140.116 157.07 140.986 157.706 142.078C158.354 143.17 158.678 144.382 158.678 145.714ZM175.924 139H179.668V157H175.906L175.762 154.39C175.234 155.314 174.52 156.058 173.62 156.622C172.72 157.186 171.658 157.468 170.434 157.468C169.114 157.468 167.872 157.222 166.708 156.73C165.544 156.226 164.518 155.53 163.63 154.642C162.754 153.754 162.07 152.734 161.578 151.582C161.086 150.418 160.84 149.17 160.84 147.838C160.84 146.554 161.08 145.348 161.56 144.22C162.04 143.08 162.706 142.084 163.558 141.232C164.41 140.38 165.394 139.714 166.51 139.234C167.638 138.742 168.844 138.496 170.128 138.496C171.436 138.496 172.588 138.796 173.584 139.396C174.592 139.984 175.426 140.74 176.086 141.664L175.924 139ZM170.344 153.85C171.4 153.85 172.324 153.592 173.116 153.076C173.908 152.548 174.52 151.84 174.952 150.952C175.396 150.064 175.618 149.08 175.618 148C175.618 146.908 175.396 145.918 174.952 145.03C174.508 144.142 173.89 143.44 173.098 142.924C172.318 142.396 171.4 142.132 170.344 142.132C169.3 142.132 168.346 142.396 167.482 142.924C166.618 143.452 165.934 144.16 165.43 145.048C164.926 145.936 164.674 146.92 164.674 148C164.674 149.092 164.932 150.082 165.448 150.97C165.976 151.846 166.666 152.548 167.518 153.076C168.382 153.592 169.324 153.85 170.344 153.85ZM192.764 142.744H188.984L188.966 157H185.222L185.24 142.744H182.378V139H185.24L185.222 133.348H188.966L188.984 139H192.764V142.744ZM204.635 139H208.379V157H204.635V139ZM206.543 136.39C205.967 136.39 205.487 136.204 205.103 135.832C204.719 135.46 204.527 134.992 204.527 134.428C204.527 133.876 204.719 133.414 205.103 133.042C205.487 132.658 205.961 132.466 206.525 132.466C207.077 132.466 207.545 132.658 207.929 133.042C208.313 133.414 208.505 133.876 208.505 134.428C208.505 134.992 208.313 135.46 207.929 135.832C207.557 136.204 207.095 136.39 206.543 136.39ZM217.839 157.342C216.891 157.282 215.967 157.09 215.067 156.766C214.167 156.442 213.375 156.004 212.691 155.452C212.019 154.888 211.515 154.228 211.179 153.472L214.365 152.104C214.521 152.428 214.791 152.746 215.175 153.058C215.571 153.37 216.033 153.628 216.561 153.832C217.089 154.024 217.641 154.12 218.217 154.12C218.781 154.12 219.303 154.042 219.783 153.886C220.275 153.718 220.677 153.466 220.989 153.13C221.301 152.794 221.457 152.392 221.457 151.924C221.457 151.396 221.277 150.988 220.917 150.7C220.569 150.4 220.131 150.172 219.603 150.016C219.075 149.86 218.547 149.71 218.019 149.566C216.843 149.302 215.763 148.942 214.779 148.486C213.807 148.018 213.033 147.424 212.457 146.704C211.881 145.972 211.593 145.078 211.593 144.022C211.593 142.87 211.905 141.874 212.529 141.034C213.153 140.182 213.969 139.528 214.977 139.072C215.997 138.616 217.083 138.388 218.235 138.388C219.675 138.388 220.995 138.694 222.195 139.306C223.395 139.918 224.313 140.758 224.949 141.826L221.979 143.59C221.799 143.23 221.529 142.906 221.169 142.618C220.809 142.33 220.401 142.102 219.945 141.934C219.489 141.754 219.015 141.652 218.523 141.628C217.911 141.604 217.341 141.676 216.813 141.844C216.297 142 215.883 142.252 215.571 142.6C215.259 142.948 215.103 143.392 215.103 143.932C215.103 144.46 215.289 144.856 215.661 145.12C216.033 145.372 216.501 145.576 217.065 145.732C217.641 145.888 218.229 146.062 218.829 146.254C219.897 146.59 220.899 147.004 221.835 147.496C222.771 147.976 223.527 148.57 224.103 149.278C224.679 149.986 224.955 150.85 224.931 151.87C224.931 152.998 224.589 153.988 223.905 154.84C223.233 155.692 222.357 156.34 221.277 156.784C220.197 157.228 219.051 157.414 217.839 157.342ZM248.992 139H252.988L243.124 166H239.146L242.404 157L235.942 139H240.028L244.276 151.87L248.992 139ZM262.969 157.468C261.313 157.468 259.801 157.042 258.433 156.19C257.077 155.338 255.991 154.198 255.175 152.77C254.371 151.33 253.969 149.74 253.969 148C253.969 146.68 254.203 145.45 254.671 144.31C255.139 143.158 255.781 142.15 256.597 141.286C257.425 140.41 258.385 139.726 259.477 139.234C260.569 138.742 261.733 138.496 262.969 138.496C264.625 138.496 266.131 138.922 267.487 139.774C268.855 140.626 269.941 141.772 270.745 143.212C271.561 144.652 271.969 146.248 271.969 148C271.969 149.308 271.735 150.532 271.267 151.672C270.799 152.812 270.151 153.82 269.323 154.696C268.507 155.56 267.553 156.238 266.461 156.73C265.381 157.222 264.217 157.468 262.969 157.468ZM262.969 153.724C263.965 153.724 264.859 153.46 265.651 152.932C266.443 152.404 267.067 151.708 267.523 150.844C267.991 149.968 268.225 149.02 268.225 148C268.225 146.956 267.985 145.996 267.505 145.12C267.037 144.244 266.407 143.548 265.615 143.032C264.823 142.504 263.941 142.24 262.969 142.24C261.985 142.24 261.091 142.504 260.287 143.032C259.495 143.56 258.865 144.262 258.397 145.138C257.941 146.014 257.713 146.968 257.713 148C257.713 149.068 257.953 150.034 258.433 150.898C258.913 151.762 259.549 152.452 260.341 152.968C261.145 153.472 262.021 153.724 262.969 153.724ZM273.805 150.25V139H277.549V149.332C277.549 150.136 277.747 150.868 278.143 151.528C278.539 152.188 279.067 152.716 279.727 153.112C280.387 153.496 281.113 153.688 281.905 153.688C282.709 153.688 283.435 153.496 284.083 153.112C284.743 152.716 285.265 152.188 285.649 151.528C286.045 150.868 286.243 150.136 286.243 149.332V139H289.987L290.005 157H286.261L286.243 155.056C285.631 155.8 284.869 156.388 283.957 156.82C283.045 157.252 282.067 157.468 281.023 157.468C279.691 157.468 278.479 157.144 277.387 156.496C276.295 155.848 275.425 154.978 274.777 153.886C274.129 152.794 273.805 151.582 273.805 150.25ZM293.615 157V139H297.359V140.908C297.983 140.164 298.751 139.576 299.663 139.144C300.575 138.712 301.559 138.496 302.615 138.496C303.287 138.496 303.953 138.586 304.613 138.766L303.119 142.546C302.651 142.366 302.183 142.276 301.715 142.276C300.923 142.276 300.197 142.474 299.537 142.87C298.877 143.254 298.349 143.776 297.953 144.436C297.557 145.096 297.359 145.828 297.359 146.632V157H293.615ZM95.6445 182H99.3885V200H95.6265L95.4825 197.39C94.9545 198.314 94.2405 199.058 93.3405 199.622C92.4405 200.186 91.3785 200.468 90.1545 200.468C88.8345 200.468 87.5925 200.222 86.4285 199.73C85.2645 199.226 84.2385 198.53 83.3505 197.642C82.4745 196.754 81.7905 195.734 81.2985 194.582C80.8065 193.418 80.5605 192.17 80.5605 190.838C80.5605 189.554 80.8005 188.348 81.2805 187.22C81.7605 186.08 82.4265 185.084 83.2785 184.232C84.1305 183.38 85.1145 182.714 86.2305 182.234C87.3585 181.742 88.5645 181.496 89.8485 181.496C91.1565 181.496 92.3085 181.796 93.3045 182.396C94.3125 182.984 95.1465 183.74 95.8065 184.664L95.6445 182ZM90.0645 196.85C91.1205 196.85 92.0445 196.592 92.8365 196.076C93.6285 195.548 94.2405 194.84 94.6725 193.952C95.1165 193.064 95.3385 192.08 95.3385 191C95.3385 189.908 95.1165 188.918 94.6725 188.03C94.2285 187.142 93.6105 186.44 92.8185 185.924C92.0385 185.396 91.1205 185.132 90.0645 185.132C89.0205 185.132 88.0665 185.396 87.2025 185.924C86.3385 186.452 85.6545 187.16 85.1505 188.048C84.6465 188.936 84.3945 189.92 84.3945 191C84.3945 192.092 84.6525 193.082 85.1685 193.97C85.6965 194.846 86.3865 195.548 87.2385 196.076C88.1025 196.592 89.0445 196.85 90.0645 196.85ZM119.18 188.714V200H115.436V189.632C115.436 188.828 115.238 188.096 114.842 187.436C114.458 186.776 113.936 186.254 113.276 185.87C112.628 185.474 111.896 185.276 111.08 185.276C110.288 185.276 109.562 185.474 108.902 185.87C108.242 186.254 107.714 186.776 107.318 187.436C106.922 188.096 106.724 188.828 106.724 189.632V200H102.98V182H106.724V183.908C107.348 183.164 108.116 182.576 109.028 182.144C109.94 181.712 110.924 181.496 111.98 181.496C113.312 181.496 114.524 181.82 115.616 182.468C116.708 183.116 117.572 183.986 118.208 185.078C118.856 186.17 119.18 187.382 119.18 188.714ZM138.973 188.714V200H135.229V189.632C135.229 188.828 135.031 188.096 134.635 187.436C134.251 186.776 133.729 186.254 133.069 185.87C132.421 185.474 131.689 185.276 130.873 185.276C130.081 185.276 129.355 185.474 128.695 185.87C128.035 186.254 127.507 186.776 127.111 187.436C126.715 188.096 126.517 188.828 126.517 189.632V200H122.773V182H126.517V183.908C127.141 183.164 127.909 182.576 128.821 182.144C129.733 181.712 130.717 181.496 131.773 181.496C133.105 181.496 134.317 181.82 135.409 182.468C136.501 183.116 137.365 183.986 138.001 185.078C138.649 186.17 138.973 187.382 138.973 188.714ZM141.846 193.25V182H145.59V192.332C145.59 193.136 145.788 193.868 146.184 194.528C146.58 195.188 147.108 195.716 147.768 196.112C148.428 196.496 149.154 196.688 149.946 196.688C150.75 196.688 151.476 196.496 152.124 196.112C152.784 195.716 153.306 195.188 153.69 194.528C154.086 193.868 154.284 193.136 154.284 192.332V182H158.028L158.046 200H154.302L154.284 198.056C153.672 198.8 152.91 199.388 151.998 199.82C151.086 200.252 150.108 200.468 149.064 200.468C147.732 200.468 146.52 200.144 145.428 199.496C144.336 198.848 143.466 197.978 142.818 196.886C142.17 195.794 141.846 194.582 141.846 193.25ZM175.414 182H179.158V200H175.396L175.252 197.39C174.724 198.314 174.01 199.058 173.11 199.622C172.21 200.186 171.148 200.468 169.924 200.468C168.604 200.468 167.362 200.222 166.198 199.73C165.034 199.226 164.008 198.53 163.12 197.642C162.244 196.754 161.56 195.734 161.068 194.582C160.576 193.418 160.33 192.17 160.33 190.838C160.33 189.554 160.57 188.348 161.05 187.22C161.53 186.08 162.196 185.084 163.048 184.232C163.9 183.38 164.884 182.714 166 182.234C167.128 181.742 168.334 181.496 169.618 181.496C170.926 181.496 172.078 181.796 173.074 182.396C174.082 182.984 174.916 183.74 175.576 184.664L175.414 182ZM169.834 196.85C170.89 196.85 171.814 196.592 172.606 196.076C173.398 195.548 174.01 194.84 174.442 193.952C174.886 193.064 175.108 192.08 175.108 191C175.108 189.908 174.886 188.918 174.442 188.03C173.998 187.142 173.38 186.44 172.588 185.924C171.808 185.396 170.89 185.132 169.834 185.132C168.79 185.132 167.836 185.396 166.972 185.924C166.108 186.452 165.424 187.16 164.92 188.048C164.416 188.936 164.164 189.92 164.164 191C164.164 192.092 164.422 193.082 164.938 193.97C165.466 194.846 166.156 195.548 167.008 196.076C167.872 196.592 168.814 196.85 169.834 196.85ZM182.89 200V173H186.634V200H182.89ZM199.59 182H203.334V200H199.59V182ZM201.498 179.39C200.922 179.39 200.442 179.204 200.058 178.832C199.674 178.46 199.482 177.992 199.482 177.428C199.482 176.876 199.674 176.414 200.058 176.042C200.442 175.658 200.916 175.466 201.48 175.466C202.032 175.466 202.5 175.658 202.884 176.042C203.268 176.414 203.46 176.876 203.46 177.428C203.46 177.992 203.268 178.46 202.884 178.832C202.512 179.204 202.05 179.39 201.498 179.39ZM223.7 188.714V200H219.956V189.632C219.956 188.828 219.758 188.096 219.362 187.436C218.978 186.776 218.456 186.254 217.796 185.87C217.148 185.474 216.416 185.276 215.6 185.276C214.808 185.276 214.082 185.474 213.422 185.87C212.762 186.254 212.234 186.776 211.838 187.436C211.442 188.096 211.244 188.828 211.244 189.632V200H207.5V182H211.244V183.908C211.868 183.164 212.636 182.576 213.548 182.144C214.46 181.712 215.444 181.496 216.5 181.496C217.832 181.496 219.044 181.82 220.136 182.468C221.228 183.116 222.092 183.986 222.728 185.078C223.376 186.17 223.7 187.382 223.7 188.714ZM238.695 194.888L242.043 196.706C241.227 197.846 240.189 198.758 238.929 199.442C237.681 200.126 236.325 200.468 234.861 200.468C233.205 200.468 231.693 200.042 230.325 199.19C228.969 198.338 227.883 197.198 227.067 195.77C226.263 194.33 225.861 192.74 225.861 191C225.861 189.68 226.095 188.45 226.563 187.31C227.031 186.158 227.673 185.15 228.489 184.286C229.317 183.41 230.277 182.726 231.369 182.234C232.461 181.742 233.625 181.496 234.861 181.496C236.325 181.496 237.681 181.838 238.929 182.522C240.189 183.206 241.227 184.124 242.043 185.276L238.695 187.094C238.191 186.494 237.603 186.038 236.931 185.726C236.259 185.402 235.569 185.24 234.861 185.24C233.877 185.24 232.983 185.51 232.179 186.05C231.387 186.578 230.757 187.28 230.289 188.156C229.833 189.02 229.605 189.968 229.605 191C229.605 192.02 229.839 192.968 230.307 193.844C230.775 194.708 231.405 195.404 232.197 195.932C233.001 196.46 233.889 196.724 234.861 196.724C235.605 196.724 236.313 196.556 236.985 196.22C237.657 195.884 238.227 195.44 238.695 194.888ZM252.756 200.468C251.1 200.468 249.588 200.042 248.22 199.19C246.864 198.338 245.778 197.198 244.962 195.77C244.158 194.33 243.756 192.74 243.756 191C243.756 189.68 243.99 188.45 244.458 187.31C244.926 186.158 245.568 185.15 246.384 184.286C247.212 183.41 248.172 182.726 249.264 182.234C250.356 181.742 251.52 181.496 252.756 181.496C254.412 181.496 255.918 181.922 257.274 182.774C258.642 183.626 259.728 184.772 260.532 186.212C261.348 187.652 261.756 189.248 261.756 191C261.756 192.308 261.522 193.532 261.054 194.672C260.586 195.812 259.938 196.82 259.11 197.696C258.294 198.56 257.34 199.238 256.248 199.73C255.168 200.222 254.004 200.468 252.756 200.468ZM252.756 196.724C253.752 196.724 254.646 196.46 255.438 195.932C256.23 195.404 256.854 194.708 257.31 193.844C257.778 192.968 258.012 192.02 258.012 191C258.012 189.956 257.772 188.996 257.292 188.12C256.824 187.244 256.194 186.548 255.402 186.032C254.61 185.504 253.728 185.24 252.756 185.24C251.772 185.24 250.878 185.504 250.074 186.032C249.282 186.56 248.652 187.262 248.184 188.138C247.728 189.014 247.5 189.968 247.5 191C247.5 192.068 247.74 193.034 248.22 193.898C248.7 194.762 249.336 195.452 250.128 195.968C250.932 196.472 251.808 196.724 252.756 196.724ZM264.664 200V182H268.408V183.908C269.032 183.164 269.794 182.576 270.694 182.144C271.606 181.712 272.59 181.496 273.646 181.496C274.93 181.496 276.112 181.808 277.192 182.432C278.272 183.044 279.13 183.86 279.766 184.88C280.402 183.86 281.248 183.044 282.304 182.432C283.372 181.808 284.548 181.496 285.832 181.496C287.164 181.496 288.376 181.82 289.468 182.468C290.56 183.116 291.43 183.986 292.078 185.078C292.726 186.17 293.05 187.382 293.05 188.714V200H289.306V189.668C289.306 188.876 289.114 188.15 288.73 187.49C288.346 186.83 287.83 186.296 287.182 185.888C286.534 185.48 285.814 185.276 285.022 185.276C284.23 185.276 283.51 185.468 282.862 185.852C282.214 186.236 281.698 186.758 281.314 187.418C280.93 188.078 280.738 188.828 280.738 189.668V200H276.994V189.668C276.994 188.828 276.802 188.078 276.418 187.418C276.034 186.758 275.512 186.236 274.852 185.852C274.204 185.468 273.484 185.276 272.692 185.276C271.912 185.276 271.192 185.48 270.532 185.888C269.884 186.296 269.368 186.83 268.984 187.49C268.6 188.15 268.408 188.876 268.408 189.668V200H264.664ZM304.225 200.468C302.569 200.468 301.057 200.042 299.689 199.19C298.333 198.338 297.247 197.198 296.431 195.77C295.627 194.33 295.225 192.74 295.225 191C295.225 189.68 295.459 188.45 295.927 187.31C296.395 186.158 297.037 185.15 297.853 184.286C298.681 183.41 299.641 182.726 300.733 182.234C301.825 181.742 302.989 181.496 304.225 181.496C305.605 181.496 306.871 181.784 308.023 182.36C309.175 182.924 310.159 183.71 310.975 184.718C311.791 185.714 312.391 186.866 312.775 188.174C313.159 189.47 313.273 190.85 313.117 192.314H299.239C299.395 193.142 299.695 193.892 300.139 194.564C300.595 195.224 301.171 195.746 301.867 196.13C302.575 196.514 303.361 196.712 304.225 196.724C305.137 196.724 305.965 196.496 306.709 196.04C307.465 195.584 308.083 194.954 308.563 194.15L312.361 195.032C311.641 196.628 310.555 197.936 309.103 198.956C307.651 199.964 306.025 200.468 304.225 200.468ZM299.113 189.452H309.337C309.217 188.588 308.911 187.808 308.419 187.112C307.939 186.404 307.333 185.846 306.601 185.438C305.881 185.018 305.089 184.808 304.225 184.808C303.373 184.808 302.581 185.012 301.849 185.42C301.129 185.828 300.529 186.386 300.049 187.094C299.581 187.79 299.269 188.576 299.113 189.452ZM321.904 191.954C321.904 190.658 322.228 189.464 322.876 188.372C323.536 187.28 324.436 186.422 325.576 185.798C326.224 185.462 326.728 184.97 327.088 184.322C327.448 183.662 327.628 182.936 327.628 182.144C327.628 181.388 327.442 180.704 327.07 180.092C326.71 179.468 326.218 178.976 325.594 178.616C324.97 178.244 324.28 178.058 323.524 178.058C322.78 178.058 322.096 178.244 321.472 178.616C320.848 178.976 320.35 179.468 319.978 180.092C319.618 180.704 319.438 181.388 319.438 182.144H315.694C315.694 180.704 316.042 179.396 316.738 178.22C317.446 177.032 318.394 176.084 319.582 175.376C320.782 174.668 322.096 174.314 323.524 174.314C324.976 174.314 326.296 174.668 327.484 175.376C328.672 176.084 329.614 177.032 330.31 178.22C331.018 179.396 331.372 180.704 331.372 182.144C331.372 183.62 331.012 184.982 330.292 186.23C329.584 187.466 328.606 188.426 327.358 189.11C326.83 189.386 326.41 189.776 326.098 190.28C325.798 190.784 325.648 191.342 325.648 191.954H321.904ZM323.866 200.468C323.314 200.468 322.846 200.276 322.462 199.892C322.078 199.496 321.886 199.022 321.886 198.47C321.886 197.93 322.078 197.474 322.462 197.102C322.846 196.718 323.314 196.526 323.866 196.526C324.406 196.526 324.868 196.718 325.252 197.102C325.636 197.474 325.828 197.93 325.828 198.47C325.828 199.022 325.636 199.496 325.252 199.892C324.868 200.276 324.406 200.468 323.866 200.468Z" fill="white"/>
</g>
<defs>
<linearGradient id="paint0_linear_1_278" x1="265" y1="-322" x2="-11.1541" y2="238.938" gradientUnits="userSpaceOnUse">
<stop stop-color="#5F4BF5"/>
<stop offset="1" stop-color="#A483F2"/>
</linearGradient>
<linearGradient id="paint1_linear_1_278" x1="384.5" y1="-74.5" x2="-63.6543" y2="276.086" gradientUnits="userSpaceOnUse">
<stop stop-color="#5F4BF5"/>
<stop offset="1" stop-color="#A483F2"/>
</linearGradient>
<clipPath id="clip0_1_278">
<rect width="393" height="852" fill="white"/>
</clipPath>
</defs>
</svg>
