<svg width="393" height="852" viewBox="0 0 393 852" fill="none" xmlns="http://www.w3.org/2000/svg">
<g clip-path="url(#clip0_1_303)">
<rect width="393" height="852" fill="white"/>
<ellipse cx="231.5" cy="272.5" rx="498.5" ry="399.5" fill="url(#paint0_linear_1_303)"/>
<ellipse cx="209" cy="244.5" rx="476" ry="370.5" fill="url(#paint1_linear_1_303)"/>
<path d="M48.7949 743L41 751.707M41 751.707L48.7949 760M41 751.707H57" stroke="white" stroke-width="3"/>
<path d="M166.408 203V193.2H167.388V202.02H171.889V203H166.408ZM178.465 196H179.445V203H178.465L178.43 201.698C178.201 202.141 177.882 202.501 177.471 202.776C177.06 203.047 176.57 203.182 176.001 203.182C175.488 203.182 175.007 203.086 174.559 202.895C174.111 202.699 173.717 202.431 173.376 202.09C173.035 201.749 172.769 201.355 172.578 200.907C172.387 200.459 172.291 199.978 172.291 199.465C172.291 198.961 172.384 198.487 172.571 198.044C172.762 197.601 173.024 197.211 173.355 196.875C173.691 196.539 174.078 196.278 174.517 196.091C174.96 195.9 175.434 195.804 175.938 195.804C176.521 195.804 177.03 195.944 177.464 196.224C177.898 196.499 178.243 196.861 178.5 197.309L178.465 196ZM175.98 202.23C176.479 202.23 176.909 202.109 177.268 201.866C177.627 201.619 177.903 201.287 178.094 200.872C178.29 200.457 178.388 199.999 178.388 199.5C178.388 198.987 178.29 198.525 178.094 198.114C177.898 197.699 177.62 197.37 177.261 197.127C176.902 196.884 176.475 196.763 175.98 196.763C175.485 196.763 175.033 196.887 174.622 197.134C174.216 197.377 173.892 197.706 173.649 198.121C173.411 198.536 173.292 198.996 173.292 199.5C173.292 200.009 173.416 200.471 173.663 200.886C173.91 201.297 174.237 201.623 174.643 201.866C175.054 202.109 175.499 202.23 175.98 202.23ZM183.009 203.133C182.626 203.124 182.253 203.054 181.889 202.923C181.525 202.792 181.208 202.615 180.937 202.391C180.666 202.167 180.473 201.913 180.356 201.628L181.203 201.264C181.278 201.446 181.415 201.614 181.616 201.768C181.821 201.917 182.055 202.039 182.316 202.132C182.577 202.221 182.836 202.265 183.093 202.265C183.378 202.265 183.644 202.218 183.891 202.125C184.138 202.032 184.339 201.899 184.493 201.726C184.652 201.549 184.731 201.341 184.731 201.103C184.731 200.846 184.647 200.646 184.479 200.501C184.311 200.352 184.099 200.235 183.842 200.151C183.585 200.062 183.322 199.978 183.051 199.899C182.556 199.764 182.12 199.614 181.742 199.451C181.364 199.288 181.068 199.08 180.853 198.828C180.643 198.571 180.538 198.242 180.538 197.841C180.538 197.416 180.657 197.05 180.895 196.742C181.138 196.429 181.453 196.189 181.84 196.021C182.232 195.848 182.65 195.762 183.093 195.762C183.662 195.762 184.18 195.886 184.647 196.133C185.118 196.38 185.459 196.709 185.669 197.12L184.878 197.589C184.794 197.398 184.661 197.232 184.479 197.092C184.297 196.952 184.089 196.842 183.856 196.763C183.627 196.684 183.394 196.642 183.156 196.637C182.857 196.632 182.58 196.677 182.323 196.77C182.066 196.859 181.859 196.992 181.7 197.169C181.546 197.346 181.469 197.563 181.469 197.82C181.469 198.077 181.546 198.273 181.7 198.408C181.854 198.539 182.062 198.646 182.323 198.73C182.589 198.809 182.888 198.903 183.219 199.01C183.644 199.145 184.043 199.299 184.416 199.472C184.789 199.645 185.09 199.859 185.319 200.116C185.548 200.373 185.66 200.697 185.655 201.089C185.655 201.509 185.529 201.875 185.277 202.188C185.025 202.501 184.698 202.741 184.297 202.909C183.896 203.072 183.466 203.147 183.009 203.133ZM190.438 196.98H188.765L188.758 203H187.778L187.785 196.98H186.518V196H187.785L187.778 193.802H188.758L188.765 196H190.438V196.98ZM197.214 203.133C196.831 203.124 196.458 203.054 196.094 202.923C195.73 202.792 195.413 202.615 195.142 202.391C194.871 202.167 194.678 201.913 194.561 201.628L195.408 201.264C195.483 201.446 195.62 201.614 195.821 201.768C196.026 201.917 196.26 202.039 196.521 202.132C196.782 202.221 197.041 202.265 197.298 202.265C197.583 202.265 197.849 202.218 198.096 202.125C198.343 202.032 198.544 201.899 198.698 201.726C198.857 201.549 198.936 201.341 198.936 201.103C198.936 200.846 198.852 200.646 198.684 200.501C198.516 200.352 198.304 200.235 198.047 200.151C197.79 200.062 197.527 199.978 197.256 199.899C196.761 199.764 196.325 199.614 195.947 199.451C195.569 199.288 195.273 199.08 195.058 198.828C194.848 198.571 194.743 198.242 194.743 197.841C194.743 197.416 194.862 197.05 195.1 196.742C195.343 196.429 195.658 196.189 196.045 196.021C196.437 195.848 196.855 195.762 197.298 195.762C197.867 195.762 198.385 195.886 198.852 196.133C199.323 196.38 199.664 196.709 199.874 197.12L199.083 197.589C198.999 197.398 198.866 197.232 198.684 197.092C198.502 196.952 198.294 196.842 198.061 196.763C197.832 196.684 197.599 196.642 197.361 196.637C197.062 196.632 196.785 196.677 196.528 196.77C196.271 196.859 196.064 196.992 195.905 197.169C195.751 197.346 195.674 197.563 195.674 197.82C195.674 198.077 195.751 198.273 195.905 198.408C196.059 198.539 196.267 198.646 196.528 198.73C196.794 198.809 197.093 198.903 197.424 199.01C197.849 199.145 198.248 199.299 198.621 199.472C198.994 199.645 199.295 199.859 199.524 200.116C199.753 200.373 199.865 200.697 199.86 201.089C199.86 201.509 199.734 201.875 199.482 202.188C199.23 202.501 198.903 202.741 198.502 202.909C198.101 203.072 197.671 203.147 197.214 203.133ZM204.644 196.98H202.971L202.964 203H201.984L201.991 196.98H200.724V196H201.991L201.984 193.802H202.964L202.971 196H204.644V196.98ZM208.781 203.182C208.137 203.182 207.549 203.016 207.017 202.685C206.49 202.354 206.068 201.91 205.75 201.355C205.438 200.795 205.281 200.177 205.281 199.5C205.281 198.987 205.372 198.508 205.554 198.065C205.736 197.617 205.986 197.225 206.303 196.889C206.625 196.548 206.999 196.282 207.423 196.091C207.848 195.9 208.301 195.804 208.781 195.804C209.299 195.804 209.775 195.907 210.209 196.112C210.648 196.317 211.024 196.604 211.336 196.973C211.654 197.342 211.892 197.773 212.05 198.268C212.214 198.763 212.281 199.297 212.253 199.871H206.317C206.373 200.314 206.513 200.711 206.737 201.061C206.966 201.411 207.255 201.689 207.605 201.894C207.96 202.095 208.352 202.197 208.781 202.202C209.248 202.202 209.668 202.081 210.041 201.838C210.419 201.595 210.723 201.262 210.951 200.837L211.945 201.068C211.665 201.689 211.243 202.197 210.678 202.594C210.114 202.986 209.481 203.182 208.781 203.182ZM206.289 199.08H211.266C211.234 198.646 211.101 198.249 210.867 197.89C210.639 197.526 210.342 197.237 209.978 197.022C209.614 196.803 209.215 196.693 208.781 196.693C208.347 196.693 207.951 196.8 207.591 197.015C207.232 197.225 206.938 197.512 206.709 197.876C206.481 198.235 206.341 198.637 206.289 199.08ZM214.433 206.5H213.453V196H214.433V197.309C214.676 196.866 215.007 196.506 215.427 196.231C215.847 195.956 216.347 195.818 216.925 195.818C217.434 195.818 217.91 195.914 218.353 196.105C218.801 196.296 219.193 196.562 219.529 196.903C219.865 197.239 220.129 197.629 220.32 198.072C220.512 198.515 220.607 198.991 220.607 199.5C220.607 200.009 220.512 200.487 220.32 200.935C220.129 201.383 219.865 201.777 219.529 202.118C219.193 202.454 218.801 202.718 218.353 202.909C217.91 203.1 217.434 203.196 216.925 203.196C216.347 203.196 215.847 203.058 215.427 202.783C215.007 202.508 214.676 202.148 214.433 201.705V206.5ZM216.918 196.77C216.428 196.77 216.001 196.894 215.637 197.141C215.278 197.384 215 197.71 214.804 198.121C214.608 198.532 214.51 198.991 214.51 199.5C214.51 199.999 214.606 200.457 214.797 200.872C214.993 201.287 215.271 201.619 215.63 201.866C215.994 202.113 216.424 202.237 216.918 202.237C217.404 202.237 217.849 202.116 218.255 201.873C218.666 201.63 218.995 201.304 219.242 200.893C219.49 200.478 219.613 200.013 219.613 199.5C219.613 199.001 219.492 198.546 219.249 198.135C219.007 197.72 218.682 197.388 218.276 197.141C217.87 196.894 217.418 196.77 216.918 196.77ZM221.998 203.182C221.844 203.182 221.713 203.126 221.606 203.014C221.498 202.907 221.445 202.774 221.445 202.615C221.445 202.466 221.498 202.337 221.606 202.23C221.713 202.118 221.844 202.062 221.998 202.062C222.156 202.062 222.289 202.118 222.397 202.23C222.509 202.337 222.565 202.466 222.565 202.615C222.565 202.774 222.509 202.907 222.397 203.014C222.289 203.126 222.156 203.182 221.998 203.182ZM224.513 203.182C224.359 203.182 224.229 203.126 224.121 203.014C224.014 202.907 223.96 202.774 223.96 202.615C223.96 202.466 224.014 202.337 224.121 202.23C224.229 202.118 224.359 202.062 224.513 202.062C224.672 202.062 224.805 202.118 224.912 202.23C225.024 202.337 225.08 202.466 225.08 202.615C225.08 202.774 225.024 202.907 224.912 203.014C224.805 203.126 224.672 203.182 224.513 203.182ZM227.029 203.182C226.875 203.182 226.744 203.126 226.637 203.014C226.53 202.907 226.476 202.774 226.476 202.615C226.476 202.466 226.53 202.337 226.637 202.23C226.744 202.118 226.875 202.062 227.029 202.062C227.188 202.062 227.321 202.118 227.428 202.23C227.54 202.337 227.596 202.466 227.596 202.615C227.596 202.774 227.54 202.907 227.428 203.014C227.321 203.126 227.188 203.182 227.029 203.182Z" fill="white"/>
<path d="M129.357 301V275.8H144.207V279.544H133.101V285.628H142.479V289.372H133.101V301H129.357ZM145.775 283H149.519V301H145.775V283ZM147.683 280.39C147.107 280.39 146.627 280.204 146.243 279.832C145.859 279.46 145.667 278.992 145.667 278.428C145.667 277.876 145.859 277.414 146.243 277.042C146.627 276.658 147.101 276.466 147.665 276.466C148.217 276.466 148.685 276.658 149.069 277.042C149.453 277.414 149.645 277.876 149.645 278.428C149.645 278.992 149.453 279.46 149.069 279.832C148.697 280.204 148.235 280.39 147.683 280.39ZM169.885 289.714V301H166.141V290.632C166.141 289.828 165.943 289.096 165.547 288.436C165.163 287.776 164.641 287.254 163.981 286.87C163.333 286.474 162.601 286.276 161.785 286.276C160.993 286.276 160.267 286.474 159.607 286.87C158.947 287.254 158.419 287.776 158.023 288.436C157.627 289.096 157.429 289.828 157.429 290.632V301H153.685V283H157.429V284.908C158.053 284.164 158.821 283.576 159.733 283.144C160.645 282.712 161.629 282.496 162.685 282.496C164.017 282.496 165.229 282.82 166.321 283.468C167.413 284.116 168.277 284.986 168.913 286.078C169.561 287.17 169.885 288.382 169.885 289.714ZM187.131 283H190.875V301H187.113L186.969 298.39C186.441 299.314 185.727 300.058 184.827 300.622C183.927 301.186 182.865 301.468 181.641 301.468C180.321 301.468 179.079 301.222 177.915 300.73C176.751 300.226 175.725 299.53 174.837 298.642C173.961 297.754 173.277 296.734 172.785 295.582C172.293 294.418 172.047 293.17 172.047 291.838C172.047 290.554 172.287 289.348 172.767 288.22C173.247 287.08 173.913 286.084 174.765 285.232C175.617 284.38 176.601 283.714 177.717 283.234C178.845 282.742 180.051 282.496 181.335 282.496C182.643 282.496 183.795 282.796 184.791 283.396C185.799 283.984 186.633 284.74 187.293 285.664L187.131 283ZM181.551 297.85C182.607 297.85 183.531 297.592 184.323 297.076C185.115 296.548 185.727 295.84 186.159 294.952C186.603 294.064 186.825 293.08 186.825 292C186.825 290.908 186.603 289.918 186.159 289.03C185.715 288.142 185.097 287.44 184.305 286.924C183.525 286.396 182.607 286.132 181.551 286.132C180.507 286.132 179.553 286.396 178.689 286.924C177.825 287.452 177.141 288.16 176.637 289.048C176.133 289.936 175.881 290.92 175.881 292C175.881 293.092 176.139 294.082 176.655 294.97C177.183 295.846 177.873 296.548 178.725 297.076C179.589 297.592 180.531 297.85 181.551 297.85ZM210.667 289.714V301H206.923V290.632C206.923 289.828 206.725 289.096 206.329 288.436C205.945 287.776 205.423 287.254 204.763 286.87C204.115 286.474 203.383 286.276 202.567 286.276C201.775 286.276 201.049 286.474 200.389 286.87C199.729 287.254 199.201 287.776 198.805 288.436C198.409 289.096 198.211 289.828 198.211 290.632V301H194.467V283H198.211V284.908C198.835 284.164 199.603 283.576 200.515 283.144C201.427 282.712 202.411 282.496 203.467 282.496C204.799 282.496 206.011 282.82 207.103 283.468C208.195 284.116 209.059 284.986 209.695 286.078C210.343 287.17 210.667 288.382 210.667 289.714ZM225.662 295.888L229.01 297.706C228.194 298.846 227.156 299.758 225.896 300.442C224.648 301.126 223.292 301.468 221.828 301.468C220.172 301.468 218.66 301.042 217.292 300.19C215.936 299.338 214.85 298.198 214.034 296.77C213.23 295.33 212.828 293.74 212.828 292C212.828 290.68 213.062 289.45 213.53 288.31C213.998 287.158 214.64 286.15 215.456 285.286C216.284 284.41 217.244 283.726 218.336 283.234C219.428 282.742 220.592 282.496 221.828 282.496C223.292 282.496 224.648 282.838 225.896 283.522C227.156 284.206 228.194 285.124 229.01 286.276L225.662 288.094C225.158 287.494 224.57 287.038 223.898 286.726C223.226 286.402 222.536 286.24 221.828 286.24C220.844 286.24 219.95 286.51 219.146 287.05C218.354 287.578 217.724 288.28 217.256 289.156C216.8 290.02 216.572 290.968 216.572 292C216.572 293.02 216.806 293.968 217.274 294.844C217.742 295.708 218.372 296.404 219.164 296.932C219.968 297.46 220.856 297.724 221.828 297.724C222.572 297.724 223.28 297.556 223.952 297.22C224.624 296.884 225.194 296.44 225.662 295.888ZM231.697 283H235.441V301H231.697V283ZM233.605 280.39C233.029 280.39 232.549 280.204 232.165 279.832C231.781 279.46 231.589 278.992 231.589 278.428C231.589 277.876 231.781 277.414 232.165 277.042C232.549 276.658 233.023 276.466 233.587 276.466C234.139 276.466 234.607 276.658 234.991 277.042C235.375 277.414 235.567 277.876 235.567 278.428C235.567 278.992 235.375 279.46 234.991 279.832C234.619 280.204 234.157 280.39 233.605 280.39ZM253.435 283H257.179V301H253.417L253.273 298.39C252.745 299.314 252.031 300.058 251.131 300.622C250.231 301.186 249.169 301.468 247.945 301.468C246.625 301.468 245.383 301.222 244.219 300.73C243.055 300.226 242.029 299.53 241.141 298.642C240.265 297.754 239.581 296.734 239.089 295.582C238.597 294.418 238.351 293.17 238.351 291.838C238.351 290.554 238.591 289.348 239.071 288.22C239.551 287.08 240.217 286.084 241.069 285.232C241.921 284.38 242.905 283.714 244.021 283.234C245.149 282.742 246.355 282.496 247.639 282.496C248.947 282.496 250.099 282.796 251.095 283.396C252.103 283.984 252.937 284.74 253.597 285.664L253.435 283ZM247.855 297.85C248.911 297.85 249.835 297.592 250.627 297.076C251.419 296.548 252.031 295.84 252.463 294.952C252.907 294.064 253.129 293.08 253.129 292C253.129 290.908 252.907 289.918 252.463 289.03C252.019 288.142 251.401 287.44 250.609 286.924C249.829 286.396 248.911 286.132 247.855 286.132C246.811 286.132 245.857 286.396 244.993 286.924C244.129 287.452 243.445 288.16 242.941 289.048C242.437 289.936 242.185 290.92 242.185 292C242.185 293.092 242.443 294.082 242.959 294.97C243.487 295.846 244.177 296.548 245.029 297.076C245.893 297.592 246.835 297.85 247.855 297.85ZM260.912 301V274H264.656V301H260.912ZM96.2401 344V318.8H99.9841V340.256H110.838V344H96.2401ZM114.803 326H118.547V344H114.803V326ZM116.711 323.39C116.135 323.39 115.655 323.204 115.271 322.832C114.887 322.46 114.695 321.992 114.695 321.428C114.695 320.876 114.887 320.414 115.271 320.042C115.655 319.658 116.129 319.466 116.693 319.466C117.245 319.466 117.713 319.658 118.097 320.042C118.481 320.414 118.673 320.876 118.673 321.428C118.673 321.992 118.481 322.46 118.097 322.832C117.725 323.204 117.263 323.39 116.711 323.39ZM132.357 329.744H128.577L128.559 344H124.815L124.833 329.744H121.971V326H124.833L124.815 320.348H128.559L128.577 326H132.357V329.744ZM143.078 344.468C141.422 344.468 139.91 344.042 138.542 343.19C137.186 342.338 136.1 341.198 135.284 339.77C134.48 338.33 134.078 336.74 134.078 335C134.078 333.68 134.312 332.45 134.78 331.31C135.248 330.158 135.89 329.15 136.706 328.286C137.534 327.41 138.494 326.726 139.586 326.234C140.678 325.742 141.842 325.496 143.078 325.496C144.458 325.496 145.724 325.784 146.876 326.36C148.028 326.924 149.012 327.71 149.828 328.718C150.644 329.714 151.244 330.866 151.628 332.174C152.012 333.47 152.126 334.85 151.97 336.314H138.092C138.248 337.142 138.548 337.892 138.992 338.564C139.448 339.224 140.024 339.746 140.72 340.13C141.428 340.514 142.214 340.712 143.078 340.724C143.99 340.724 144.818 340.496 145.562 340.04C146.318 339.584 146.936 338.954 147.416 338.15L151.214 339.032C150.494 340.628 149.408 341.936 147.956 342.956C146.504 343.964 144.878 344.468 143.078 344.468ZM137.966 333.452H148.19C148.07 332.588 147.764 331.808 147.272 331.112C146.792 330.404 146.186 329.846 145.454 329.438C144.734 329.018 143.942 328.808 143.078 328.808C142.226 328.808 141.434 329.012 140.702 329.42C139.982 329.828 139.382 330.386 138.902 331.094C138.434 331.79 138.122 332.576 137.966 333.452ZM154.951 344V326H158.695V327.908C159.319 327.164 160.087 326.576 160.999 326.144C161.911 325.712 162.895 325.496 163.951 325.496C164.623 325.496 165.289 325.586 165.949 325.766L164.455 329.546C163.987 329.366 163.519 329.276 163.051 329.276C162.259 329.276 161.533 329.474 160.873 329.87C160.213 330.254 159.685 330.776 159.289 331.436C158.893 332.096 158.695 332.828 158.695 333.632V344H154.951ZM181.189 326H184.933V344H181.171L181.027 341.39C180.499 342.314 179.785 343.058 178.885 343.622C177.985 344.186 176.923 344.468 175.699 344.468C174.379 344.468 173.137 344.222 171.973 343.73C170.809 343.226 169.783 342.53 168.895 341.642C168.019 340.754 167.335 339.734 166.843 338.582C166.351 337.418 166.105 336.17 166.105 334.838C166.105 333.554 166.345 332.348 166.825 331.22C167.305 330.08 167.971 329.084 168.823 328.232C169.675 327.38 170.659 326.714 171.775 326.234C172.903 325.742 174.109 325.496 175.393 325.496C176.701 325.496 177.853 325.796 178.849 326.396C179.857 326.984 180.691 327.74 181.351 328.664L181.189 326ZM175.609 340.85C176.665 340.85 177.589 340.592 178.381 340.076C179.173 339.548 179.785 338.84 180.217 337.952C180.661 337.064 180.883 336.08 180.883 335C180.883 333.908 180.661 332.918 180.217 332.03C179.773 331.142 179.155 330.44 178.363 329.924C177.583 329.396 176.665 329.132 175.609 329.132C174.565 329.132 173.611 329.396 172.747 329.924C171.883 330.452 171.199 331.16 170.695 332.048C170.191 332.936 169.939 333.92 169.939 335C169.939 336.092 170.197 337.082 170.713 337.97C171.241 338.846 171.931 339.548 172.783 340.076C173.647 340.592 174.589 340.85 175.609 340.85ZM199.928 338.888L203.276 340.706C202.46 341.846 201.422 342.758 200.162 343.442C198.914 344.126 197.558 344.468 196.094 344.468C194.438 344.468 192.926 344.042 191.558 343.19C190.202 342.338 189.116 341.198 188.3 339.77C187.496 338.33 187.094 336.74 187.094 335C187.094 333.68 187.328 332.45 187.796 331.31C188.264 330.158 188.906 329.15 189.722 328.286C190.55 327.41 191.51 326.726 192.602 326.234C193.694 325.742 194.858 325.496 196.094 325.496C197.558 325.496 198.914 325.838 200.162 326.522C201.422 327.206 202.46 328.124 203.276 329.276L199.928 331.094C199.424 330.494 198.836 330.038 198.164 329.726C197.492 329.402 196.802 329.24 196.094 329.24C195.11 329.24 194.216 329.51 193.412 330.05C192.62 330.578 191.99 331.28 191.522 332.156C191.066 333.02 190.838 333.968 190.838 335C190.838 336.02 191.072 336.968 191.54 337.844C192.008 338.708 192.638 339.404 193.43 339.932C194.234 340.46 195.122 340.724 196.094 340.724C196.838 340.724 197.546 340.556 198.218 340.22C198.89 339.884 199.46 339.44 199.928 338.888ZM217.73 326H221.726L211.862 353H207.884L211.142 344L204.68 326H208.766L213.014 338.87L217.73 326ZM253.044 318.8V322.544H245.016V344H241.272V322.544H233.262V318.8H253.044ZM261.836 344.468C260.18 344.468 258.668 344.042 257.3 343.19C255.944 342.338 254.858 341.198 254.042 339.77C253.238 338.33 252.836 336.74 252.836 335C252.836 333.68 253.07 332.45 253.538 331.31C254.006 330.158 254.648 329.15 255.464 328.286C256.292 327.41 257.252 326.726 258.344 326.234C259.436 325.742 260.6 325.496 261.836 325.496C263.216 325.496 264.482 325.784 265.634 326.36C266.786 326.924 267.77 327.71 268.586 328.718C269.402 329.714 270.002 330.866 270.386 332.174C270.77 333.47 270.884 334.85 270.728 336.314H256.85C257.006 337.142 257.306 337.892 257.75 338.564C258.206 339.224 258.782 339.746 259.478 340.13C260.186 340.514 260.972 340.712 261.836 340.724C262.748 340.724 263.576 340.496 264.32 340.04C265.076 339.584 265.694 338.954 266.174 338.15L269.972 339.032C269.252 340.628 268.166 341.936 266.714 342.956C265.262 343.964 263.636 344.468 261.836 344.468ZM256.724 333.452H266.948C266.828 332.588 266.522 331.808 266.03 331.112C265.55 330.404 264.944 329.846 264.212 329.438C263.492 329.018 262.7 328.808 261.836 328.808C260.984 328.808 260.192 329.012 259.46 329.42C258.74 329.828 258.14 330.386 257.66 331.094C257.192 331.79 256.88 332.576 256.724 333.452ZM279.179 344.342C278.231 344.282 277.307 344.09 276.407 343.766C275.507 343.442 274.715 343.004 274.031 342.452C273.359 341.888 272.855 341.228 272.519 340.472L275.705 339.104C275.861 339.428 276.131 339.746 276.515 340.058C276.911 340.37 277.373 340.628 277.901 340.832C278.429 341.024 278.981 341.12 279.557 341.12C280.121 341.12 280.643 341.042 281.123 340.886C281.615 340.718 282.017 340.466 282.329 340.13C282.641 339.794 282.797 339.392 282.797 338.924C282.797 338.396 282.617 337.988 282.257 337.7C281.909 337.4 281.471 337.172 280.943 337.016C280.415 336.86 279.887 336.71 279.359 336.566C278.183 336.302 277.103 335.942 276.119 335.486C275.147 335.018 274.373 334.424 273.797 333.704C273.221 332.972 272.933 332.078 272.933 331.022C272.933 329.87 273.245 328.874 273.869 328.034C274.493 327.182 275.309 326.528 276.317 326.072C277.337 325.616 278.423 325.388 279.575 325.388C281.015 325.388 282.335 325.694 283.535 326.306C284.735 326.918 285.653 327.758 286.289 328.826L283.319 330.59C283.139 330.23 282.869 329.906 282.509 329.618C282.149 329.33 281.741 329.102 281.285 328.934C280.829 328.754 280.355 328.652 279.863 328.628C279.251 328.604 278.681 328.676 278.153 328.844C277.637 329 277.223 329.252 276.911 329.6C276.599 329.948 276.443 330.392 276.443 330.932C276.443 331.46 276.629 331.856 277.001 332.12C277.373 332.372 277.841 332.576 278.405 332.732C278.981 332.888 279.569 333.062 280.169 333.254C281.237 333.59 282.239 334.004 283.175 334.496C284.111 334.976 284.867 335.57 285.443 336.278C286.019 336.986 286.295 337.85 286.271 338.87C286.271 339.998 285.929 340.988 285.245 341.84C284.573 342.692 283.697 343.34 282.617 343.784C281.537 344.228 280.391 344.414 279.179 344.342ZM298.857 329.744H295.077L295.059 344H291.315L291.333 329.744H288.471V326H291.333L291.315 320.348H295.059L295.077 326H298.857V329.744Z" fill="white"/>
</g>
<defs>
<linearGradient id="paint0_linear_1_303" x1="231.5" y1="-127" x2="-63.6779" y2="621.162" gradientUnits="userSpaceOnUse">
<stop stop-color="#5F4BF5"/>
<stop offset="1" stop-color="#A483F2"/>
</linearGradient>
<linearGradient id="paint1_linear_1_303" x1="416.428" y1="179.957" x2="-156.501" y2="738.923" gradientUnits="userSpaceOnUse">
<stop stop-color="#5F4BF5"/>
<stop offset="1" stop-color="#A483F2"/>
</linearGradient>
<clipPath id="clip0_1_303">
<rect width="393" height="852" fill="white"/>
</clipPath>
</defs>
</svg>
